<svg width="177" height="128" viewBox="0 0 177 128" fill="none" xmlns="http://www.w3.org/2000/svg">
<path opacity="0.8" d="M170.381 58.6399C168.589 50.6533 163.367 42.6667 155.38 40.7213C149.595 39.2878 144.168 41.5404 138.383 41.6428C132.7 41.7452 127.017 40.7213 121.795 38.5198C113.041 34.8849 105.976 27.9222 98.7061 21.9835C96.0951 19.8333 93.3305 17.7854 90.4123 15.9423C76.9989 7.34141 59.6434 1.70984 43.875 6.98303C30.6152 11.3859 21.1952 23.161 16.5875 35.8576C12.5942 46.8136 11.3655 58.9471 13.311 70.3638C17.7138 96.5762 37.5779 117.259 62.8176 124.478C94.0984 133.437 132.751 125.092 155.994 101.849C167.206 90.6375 173.862 74.1011 170.381 58.6399Z" fill="#E9EEFF"/>
<g opacity="0.8">
<path d="M15.41 48.759C15.2564 48.7078 15.1028 48.6566 15.0516 48.503C12.031 43.8442 5.83632 42.5131 1.17747 45.5336C0.921492 45.6872 0.511924 45.636 0.358336 45.38C0.204747 45.1241 0.255943 44.7145 0.511924 44.5609C5.73392 41.182 12.6966 42.7179 16.0243 47.8887C16.1779 48.1446 16.1267 48.5542 15.8708 48.7078C15.7172 48.759 15.5636 48.8102 15.41 48.759Z" fill="#C1CDFA"/>
<path d="M12.6966 50.4997C12.543 50.4485 12.3894 50.3973 12.3382 50.2437C11.3655 48.7078 9.82962 47.6839 8.03776 47.2743C6.2459 46.9159 4.45403 47.2231 2.91815 48.1958C2.66217 48.3494 2.2526 48.2982 2.09901 48.0423C1.94542 47.7863 1.99662 47.3767 2.2526 47.2231C4.04447 46.0456 6.1947 45.6872 8.24254 46.148C10.3416 46.6088 12.1334 47.8375 13.2598 49.6293C13.4134 49.8853 13.3622 50.2949 13.1062 50.4485C13.0038 50.5509 12.8502 50.5509 12.6966 50.4997Z" fill="#C1CDFA"/>
<path d="M10.2904 52.0868C10.1368 52.0356 9.9832 51.9844 9.932 51.8308C9.36885 50.9605 8.49851 50.3461 7.47459 50.1413C6.45067 49.9365 5.37555 50.0901 4.50522 50.7045C4.24924 50.8581 3.83967 50.8069 3.68608 50.5509C3.53249 50.2949 3.58369 49.8854 3.83967 49.7318C4.96598 49.015 6.34828 48.759 7.67937 49.015C9.01047 49.3222 10.1368 50.0901 10.9047 51.2676C11.0583 51.5236 11.0071 51.9332 10.7511 52.0868C10.5976 52.0868 10.3928 52.0868 10.2904 52.0868Z" fill="#C1CDFA"/>
<path d="M7.83294 53.5203C7.67935 54.1347 7.1162 54.4931 6.50184 54.3907C5.88749 54.2371 5.52912 53.6739 5.63151 53.0596C5.7339 52.4452 6.34825 52.0868 6.96261 52.1892C7.57696 52.3428 7.93533 52.9572 7.83294 53.5203Z" fill="#C1CDFA"/>
<path d="M14.2325 105.74V103.488L12.1334 103.078C12.031 102.771 11.9287 102.464 11.7751 102.157L12.9526 100.365L11.3655 98.7776L9.57364 99.9551C9.26646 99.8015 8.95929 99.6479 8.65211 99.5967L8.24254 97.4977H5.98991L5.58034 99.5967C5.27317 99.6991 4.96599 99.8015 4.65881 99.9551L2.86695 98.7776L1.27987 100.365L2.45738 102.157C2.30379 102.464 2.1502 102.771 2.09901 103.078L-3.05176e-05 103.488V105.74L2.09901 106.15C2.2014 106.457 2.30379 106.764 2.45738 107.071L1.27987 108.863L2.86695 110.45L4.65881 109.273C4.96599 109.426 5.27317 109.58 5.58034 109.631L5.98991 111.73H8.24254L8.65211 109.631C8.95929 109.529 9.26646 109.426 9.57364 109.273L11.3655 110.45L12.9526 108.863L11.7751 107.071C11.9287 106.764 12.0822 106.457 12.1334 106.15L14.2325 105.74ZM7.11623 107.583C5.47795 107.583 4.14685 106.252 4.14685 104.614C4.14685 102.976 5.47795 101.645 7.11623 101.645C8.7545 101.645 10.0856 102.976 10.0856 104.614C10.0856 106.252 8.7545 107.583 7.11623 107.583Z" fill="#C1CDFA"/>
<path d="M7.11618 103.488C6.50183 103.488 5.98987 104 5.98987 104.614C5.98987 105.228 6.50183 105.74 7.11618 105.74C7.73054 105.74 8.2425 105.228 8.2425 104.614C8.2425 104 7.73054 103.488 7.11618 103.488Z" fill="#C1CDFA"/>
<path d="M19.3521 14.9696H2.61098C2.3038 14.9696 2.09901 14.7136 2.09901 14.4577V4.16723C2.09901 3.86006 2.35499 3.65527 2.61098 3.65527H19.3521C19.6593 3.65527 19.8641 3.91125 19.8641 4.16723V14.4577C19.9153 14.7136 19.6593 14.9696 19.3521 14.9696ZM3.12294 13.8945H18.7889V4.6792H3.12294V13.8945Z" fill="#C1CDFA"/>
<path d="M11.0071 11.2323C10.9047 11.2323 10.7511 11.1811 10.6999 11.1299L2.30377 4.57677C2.04779 4.37199 2.04779 4.06481 2.20138 3.80883C2.40616 3.55285 2.71334 3.55285 2.96932 3.70644L11.0071 10.0036L19.0449 3.70644C19.3009 3.50166 19.608 3.55285 19.8128 3.80883C20.0176 4.06481 19.9664 4.37199 19.7104 4.57677L11.3143 11.1299C11.2119 11.1811 11.1095 11.2323 11.0071 11.2323Z" fill="#C1CDFA"/>
<path d="M156.711 79.6815C156.506 79.6815 156.353 79.5791 156.25 79.3743C156.148 79.1695 156.148 78.9135 156.25 78.7599L157.274 77.0192C155.738 75.381 154.971 73.4355 155.175 71.4901C155.636 67.1384 160.807 64.0666 166.643 64.7322C172.48 65.3465 176.882 69.4422 176.422 73.7939C175.961 78.1456 170.79 81.2173 164.954 80.5518C163.418 80.3982 161.933 79.9886 160.602 79.3743L156.814 79.6815C156.814 79.6815 156.762 79.6815 156.711 79.6815ZM160.858 78.1456C160.909 78.1456 161.012 78.1968 161.063 78.1968C162.292 78.8111 163.674 79.1695 165.159 79.3231C170.329 79.8862 174.886 77.3264 175.295 73.6403C175.705 69.9542 171.814 66.4729 166.592 65.9097C161.421 65.3465 156.865 67.9063 156.455 71.5925C156.25 73.2819 157.018 75.0226 158.503 76.4561C158.708 76.6609 158.759 76.9681 158.605 77.224L157.94 78.3504L160.756 78.1456C160.756 78.1456 160.807 78.1456 160.858 78.1456Z" fill="#C1CDFA"/>
<path d="M167.155 72.8212C167.053 73.538 166.438 74.1011 165.67 73.9987C164.954 73.8963 164.391 73.282 164.493 72.514C164.595 71.7973 165.21 71.2341 165.978 71.3365C166.694 71.4389 167.258 72.0533 167.155 72.8212Z" fill="#C1CDFA"/>
<path d="M170.995 73.2308C170.944 73.8452 170.381 74.2547 169.766 74.2035C169.152 74.1523 168.742 73.5892 168.793 72.9748C168.845 72.3605 169.408 71.9509 170.022 72.0021C170.585 72.1045 171.046 72.6165 170.995 73.2308Z" fill="#C1CDFA"/>
<path d="M160.704 72.1045C160.653 72.7188 161.063 73.2308 161.677 73.3332C162.292 73.3844 162.804 72.9748 162.906 72.3605C162.957 71.7461 162.548 71.2341 161.933 71.1318C161.319 71.0806 160.756 71.4901 160.704 72.1045Z" fill="#C1CDFA"/>
<path d="M167.36 41.5404C163.367 42.7691 159.169 40.5677 157.889 36.5744C156.66 32.5811 158.861 28.383 162.855 27.1031C166.848 25.8744 171.046 28.0758 172.326 32.0691C173.555 36.0624 171.353 40.3117 167.36 41.5404ZM163.111 27.8711C159.578 28.9974 157.582 32.7859 158.708 36.3184C159.834 39.8509 163.623 41.8476 167.155 40.7213C170.688 39.595 172.684 35.8065 171.558 32.2739C170.432 28.7414 166.643 26.7959 163.111 27.8711Z" fill="#C1CDFA"/>
<path d="M167.36 41.5403C165.466 42.1547 163.008 39.4413 161.728 35.3968C160.449 31.3523 160.961 27.7174 162.855 27.1542C164.749 26.5399 167.206 29.2532 168.486 33.2977C169.766 37.3422 169.254 40.926 167.36 41.5403ZM163.111 27.871C161.831 28.2805 161.319 31.3011 162.496 35.1408C163.674 38.9805 165.875 41.1819 167.155 40.7724C168.435 40.3628 168.947 37.3422 167.77 33.5025C166.592 29.6628 164.34 27.5126 163.111 27.871Z" fill="#C1CDFA"/>
<path d="M164.339 31.8644C163.367 32.1715 162.445 32.3763 161.524 32.4787C160.295 32.6323 159.169 32.5811 158.247 32.3763C158.042 32.3251 157.889 32.1203 157.94 31.9156C157.991 31.7108 158.196 31.5572 158.401 31.6084C159.22 31.8132 160.244 31.8132 161.37 31.7108C163.111 31.506 165.005 30.8916 166.592 30.0725C167.616 29.5093 168.435 28.895 168.998 28.2806C169.152 28.1271 169.408 28.127 169.561 28.2294C169.715 28.383 169.715 28.639 169.613 28.7926C168.998 29.5093 168.077 30.1749 167.002 30.7381C166.183 31.1988 165.312 31.6084 164.339 31.8644Z" fill="#C1CDFA"/>
<path d="M172.019 37.0351C171.968 37.0351 171.865 37.0351 171.814 37.0351C170.995 36.8303 169.971 36.8303 168.845 36.9327C167.104 37.1375 165.21 37.7518 163.623 38.571C162.599 39.1341 161.78 39.7485 161.216 40.3628C161.063 40.5164 160.807 40.5164 160.653 40.414C160.5 40.2604 160.5 40.0044 160.602 39.8509C161.217 39.1853 162.138 38.4686 163.213 37.9054C164.851 37.0351 166.848 36.4207 168.691 36.1647C169.92 36.0112 171.046 36.0623 171.968 36.2671C172.172 36.3183 172.326 36.5231 172.275 36.7279C172.224 36.8815 172.121 36.9839 172.019 37.0351Z" fill="#C1CDFA"/>
</g>
<path d="M82.784 114.956H54.1142L56.2645 102.566H80.6338L82.784 114.956Z" fill="#182042"/>
<path d="M85.0878 114.956H56.418L58.5683 102.566H82.9376L85.0878 114.956Z" fill="#293462"/>
<path d="M94.0471 117.823H55.2405C54.6262 117.823 54.1142 117.311 54.1142 116.696V114.956H94.0471C94.6615 114.956 95.1735 115.468 95.1735 116.082V116.696C95.1735 117.311 94.6615 117.823 94.0471 117.823Z" fill="#182042"/>
<path d="M96.351 117.823H57.5443C56.93 117.823 56.418 117.311 56.418 116.696V114.956H96.351C96.9653 114.956 97.4773 115.468 97.4773 116.082V116.696C97.4773 117.311 96.9653 117.823 96.351 117.823Z" fill="#293462"/>
<path d="M27.0827 102.771H108.894C110.174 102.771 111.095 101.747 110.993 100.467L106.897 46.5576C106.795 45.2777 105.72 44.2538 104.44 44.2538H22.6287C21.3488 44.2538 20.4272 45.2777 20.5296 46.5576L24.6253 100.467C24.7277 101.747 25.8028 102.771 27.0827 102.771Z" fill="#182042"/>
<path d="M29.8473 102.771H111.659C112.939 102.771 113.86 101.747 113.758 100.467L109.662 46.5576C109.56 45.2777 108.485 44.2538 107.205 44.2538H25.3933C24.1134 44.2538 23.1918 45.2777 23.2942 46.5576L27.3899 100.467C27.4923 101.747 28.5674 102.771 29.8473 102.771Z" fill="#293462"/>
<path d="M108.382 96.6274H32.2023C31.0248 96.6274 30.0009 95.6547 29.8985 94.4772L26.4684 49.1687C26.366 47.9912 27.2875 47.0184 28.465 47.0184H104.594C105.771 47.0184 106.795 47.9912 106.897 49.1687L108.126 65.193L109.252 79.9887L109.508 83.6236L110.328 94.4772C110.43 95.6547 109.56 96.6274 108.382 96.6274Z" fill="#A6B3F0"/>
<path d="M58.5172 102.771L85.0879 114.956L82.9889 102.771H58.5172Z" fill="#6E87EB"/>
<g opacity="0.5">
<path d="M108.382 96.6274H95.8903L26.4684 49.1687C26.366 47.9912 27.2875 47.0184 28.465 47.0184H56.0085L109.508 83.6236L110.328 94.4772C110.43 95.6547 109.56 96.6274 108.382 96.6274Z" fill="white"/>
<path d="M109.252 79.9887L61.0257 47.0184H81.5554L108.126 65.193L109.252 79.9887Z" fill="white"/>
</g>
<path d="M56.8275 117.771V106.252H113.143C114.423 106.252 115.447 107.276 115.447 108.556V115.519C115.447 116.799 114.423 117.823 113.143 117.823H56.8275V117.771Z" fill="#34B7AA"/>
<path d="M55.9573 116.543V117.771H56.8276H57.8003H87.6477C88.9276 117.771 89.9515 116.747 89.9515 115.468V108.505C89.9515 107.225 88.9276 106.201 87.6477 106.201H57.8003H56.8276H55.9573V107.43H56.8276V116.491H55.9573V116.543Z" fill="#199989"/>
<path d="M56.8275 116.543V107.481H86.1629C87.2892 107.481 88.2107 108.402 88.2107 109.529V114.546C88.2107 115.672 87.2892 116.594 86.1629 116.594H56.8275V116.543Z" fill="#FFF7EB"/>
<path d="M93.1768 108.556H112.324C113.297 108.556 114.065 109.324 114.065 110.297V113.676C114.065 114.648 113.297 115.416 112.324 115.416H93.1768C92.2041 115.416 91.4361 114.648 91.4361 113.676V110.297C91.4361 109.375 92.2041 108.556 93.1768 108.556Z" fill="#199989"/>
<path d="M162.138 111.525V117.771H102.136C100.395 117.771 99.0132 116.389 99.0132 114.648C99.0132 113.778 99.3716 113.01 99.9347 112.447C100.498 111.884 101.266 111.525 102.136 111.525H162.138Z" fill="#F7A516"/>
<path d="M162.138 111.525V117.771H137.717C135.977 117.771 134.595 116.389 134.595 114.648C134.595 113.778 134.953 113.01 135.516 112.447C136.079 111.884 136.847 111.525 137.717 111.525H162.138Z" fill="#ECB36F"/>
<path d="M162.138 111.935V117.362H137.871C136.386 117.362 135.158 116.133 135.158 114.648C135.158 113.88 135.465 113.215 135.977 112.703C136.489 112.191 137.154 111.884 137.922 111.884H162.138V111.935Z" fill="#FFF7EB"/>
<path d="M162.394 111.525H161.831V111.935H162.394V111.525Z" fill="#ECB36F"/>
<path d="M162.394 117.362H161.831V117.771H162.394V117.362Z" fill="#ECB36F"/>
<path d="M96.2486 100.979V111.525H156.25C157.991 111.525 159.373 109.17 159.373 106.252C159.373 104.819 159.015 103.488 158.452 102.515C157.889 101.542 157.121 100.979 156.25 100.979H96.2486Z" fill="#182042"/>
<path d="M146.318 102.515C145.755 101.542 144.987 100.979 144.117 100.979H142.069C142.939 100.979 143.707 101.593 144.271 102.515C144.834 103.488 145.192 104.768 145.192 106.252C145.192 109.17 143.81 111.525 142.069 111.525H144.066C145.806 111.525 147.189 109.17 147.189 106.252C147.24 104.768 146.882 103.488 146.318 102.515Z" fill="white"/>
<path d="M96.2486 100.979V111.525H120.669C122.41 111.525 123.792 109.17 123.792 106.252C123.792 104.819 123.434 103.488 122.871 102.515C122.307 101.542 121.539 100.979 120.669 100.979H96.2486Z" fill="#293462"/>
<path d="M96.2486 101.645V110.809H120.516C122 110.809 123.229 108.761 123.229 106.252C123.229 104.972 122.922 103.846 122.41 103.027C121.898 102.208 121.232 101.696 120.464 101.696H96.2486V101.645Z" fill="#FFF7EB"/>
<path d="M96.0253 101.661H96.5885V100.995H96.0253V101.661Z" fill="#293462"/>
<path d="M96.0253 111.538H96.5885V110.872H96.0253V111.538Z" fill="#293462"/>
<path opacity="0.5" d="M136.489 104.307H93.5352C92.8697 104.307 92.3065 103.795 92.2553 103.129L90.5147 78.9647C90.4635 78.2992 90.9754 77.7872 91.5898 77.7872H134.543C135.209 77.7872 135.772 78.2992 135.823 78.9647L137.564 103.129C137.615 103.744 137.103 104.307 136.489 104.307Z" fill="#C1CDFA"/>
<path d="M131.932 81.6781V81.6269C131.932 81.6269 131.932 81.5757 131.881 81.5757L131.83 81.5245C131.83 81.5245 131.83 81.4733 131.779 81.4733C131.728 81.4221 131.676 81.3197 131.574 81.2685C131.574 81.2685 131.523 81.2685 131.523 81.2173L131.472 81.1661H131.42H131.369C131.318 81.1661 131.267 81.1661 131.216 81.1661H127.581C127.222 81.1661 126.915 81.4733 126.966 81.8317C127.018 82.1901 127.325 82.4972 127.683 82.4972H129.68L119.696 93.2484L116.727 90.4326C116.471 90.1767 116.01 90.1767 115.754 90.4326L112.887 93.5044L106.59 87.668C106.283 87.4121 105.874 87.4121 105.618 87.668L94.9688 99.1872C94.7128 99.4431 94.764 99.9039 95.02 100.16C95.1736 100.313 95.3271 100.365 95.5319 100.365C95.6855 100.365 95.8903 100.313 95.9927 100.16L106.232 89.1527L112.529 94.9891C112.836 95.2451 113.246 95.2451 113.502 94.9891L116.369 91.9173L119.338 94.7331C119.594 94.9891 120.055 94.9891 120.311 94.7331L130.704 83.5212L130.857 85.3642C130.908 85.7226 131.216 86.0298 131.574 86.0298C131.932 86.0298 132.24 85.7226 132.188 85.3642L131.932 81.8829C131.984 81.7293 131.932 81.7293 131.932 81.6781Z" fill="#34B7AA"/>
<path d="M102.904 81.6781H94.3544C94.0472 81.6781 93.7912 81.4221 93.7401 81.1149C93.7401 80.8077 93.9448 80.5518 94.252 80.5518H102.802C103.109 80.5518 103.365 80.8077 103.416 81.1149C103.467 81.4221 103.211 81.6781 102.904 81.6781Z" fill="#F7BE16"/>
<path opacity="0.5" d="M151.899 69.2886H65.9917C64.6606 69.2886 63.4831 68.2135 63.3807 66.8824L59.4898 15.7375C59.3874 14.4064 60.4113 13.3313 61.7424 13.3313H147.649C148.981 13.3313 150.158 14.4064 150.26 15.7375L151.643 33.8097L152.923 50.4997L153.23 54.5953L154.151 66.8312C154.203 68.2135 153.23 69.2886 151.899 69.2886Z" fill="#C1CDFA"/>
<path d="M104.338 1.04428C101.88 2.27298 99.9858 4.52561 99.1667 7.13661C98.45 9.49163 98.5524 12.205 97.1701 14.2529C96.5557 15.1744 95.6342 15.9423 94.7638 16.6591C93.8935 17.427 93.0744 18.195 92.5624 19.2189C92.1016 20.2428 91.9993 21.5739 92.716 22.4442C93.8423 23.9289 96.1973 23.673 97.682 24.8505C98.6547 25.6184 99.0131 26.8983 99.7299 27.9734C101.266 30.2772 104.645 31.1476 107.102 29.9189C108.228 29.3557 109.15 28.4342 110.379 28.0758C111.966 27.615 113.706 28.3318 115.293 27.9222C117.239 27.4615 118.57 25.516 118.928 23.5194C119.287 21.5227 118.877 19.4749 118.468 17.5294C118.058 15.5328 117.751 13.4849 118.212 11.5395C118.672 9.64523 119.85 7.95575 120.055 6.06149C120.26 4.16724 119.338 2.17059 117.751 1.09547C116.829 0.48112 115.703 0.12275 114.577 0.173946C114.014 0.173946 113.45 0.276338 112.938 0.429927C112.273 0.634711 112.119 0.532317 111.454 0.327532C109.099 -0.286821 106.488 -0.0308397 104.338 1.04428Z" fill="black"/>
<path d="M115.959 26.3863C121.386 27.6662 135.823 30.2772 136.437 30.0213C137.103 29.7141 149.8 18.2974 149.8 18.2974L153.844 20.6524C153.844 20.6524 143.861 35.2433 138.588 37.1887C132.547 39.3902 116.164 38.1614 116.164 38.1614L115.959 26.3863Z" fill="#FFA785"/>
<path d="M115.959 26.3352C120.311 27.4104 135.721 30.0726 136.233 29.8166C136.693 29.5606 142.888 23.7242 142.888 23.7242C142.888 23.7242 146.728 26.1817 148.981 28.8951C148.981 28.8951 142.427 36.7281 138.332 37.7008C132.444 39.0319 117.341 38.2639 117.341 38.2639L115.959 26.3352Z" fill="#34B7AA"/>
<path d="M149.8 18.2974C149.8 18.2974 152.667 11.1811 153.639 11.6931C154.612 12.2051 153.742 14.8673 153.742 14.8673C153.742 14.8673 158.861 13.741 159.578 14.5601C159.578 14.5601 160.653 14.2529 161.114 14.9185C161.114 14.9185 162.036 14.8161 162.291 15.2768C162.547 15.7376 161.78 16.3008 161.78 16.3008C161.78 16.3008 161.882 16.9663 161.268 17.2735C160.704 17.5807 155.482 20.1917 153.895 20.6012L149.8 18.2974Z" fill="#FFA785"/>
<path d="M122.922 69.2888C122.819 69.2888 89.7466 69.2888 91.3336 69.2888C91.6408 69.2888 95.4293 49.0663 96.7604 43.9979C96.8116 43.7419 96.914 43.4859 96.9652 43.2812C97.0676 42.8716 97.1188 42.6668 97.1188 42.6668L97.2212 41.1821L97.2724 40.5166L97.426 38.4687L97.4772 37.752L98.2963 26.4888V26.4376L102.341 25.1065L104.184 24.4922H110.02L111.505 24.953L115.959 26.3864C119.338 30.6869 117.802 38.1103 116.932 41.3869C116.88 41.6429 116.778 41.8989 116.727 42.1036C116.573 42.6668 116.42 43.0252 116.42 43.0252L116.727 44.1515L116.88 44.817L117.341 46.6601L117.495 47.3256L122.922 69.2888Z" fill="#F7BE16"/>
<path d="M112.426 25.2089C112.426 25.2089 114.833 47.6839 114.321 69.2375H124.816L116.369 42.9739C116.369 42.9739 120.464 32.9907 116.164 26.3864L112.426 25.2089Z" fill="#34B7AA"/>
<path d="M117.7 29.4581C117.444 28.6902 117.136 27.9222 116.778 27.2055C116.676 27.0007 116.369 27.1031 116.471 27.3079C116.983 28.5878 117.546 29.8677 117.802 31.1988C118.109 32.6323 118.109 34.0658 117.956 35.4993C117.904 36.3184 117.751 37.1375 117.648 37.9567C117.597 38.1615 117.956 38.2639 117.956 38.0591C118.16 36.6256 118.365 35.1409 118.365 33.7074C118.365 32.2227 118.16 30.8404 117.7 29.4581Z" fill="#00646B"/>
<path d="M101.522 25.3625C101.522 25.3625 107.512 45.9434 102.853 69.2888H89.4394L96.7092 43.9979L98.2451 26.4377L101.522 25.3625Z" fill="#34B7AA"/>
<path d="M111.761 25.0553C111.761 25.0553 110.532 29.5605 107.46 29.5093C104.337 29.5093 102.341 25.0553 102.341 25.0553L104.184 24.4409H110.02L111.505 24.9017L111.761 25.0553Z" fill="#FFA785"/>
<path d="M98.2451 26.4375C91.7432 28.5877 86.0605 49.4245 92.46 52.8547C98.2963 55.9776 113.348 38.8782 113.348 38.8782L109.969 36.2671L96.8629 45.7896C96.8629 45.7896 100.242 35.4992 100.088 32.6322C99.9346 29.7652 98.2451 26.4375 98.2451 26.4375Z" fill="#FFA785"/>
<path d="M110.225 37.1375C110.225 37.1375 112.119 39.3901 113.962 38.7246C115.805 38.1102 116.215 36.6255 116.215 36.6255C116.215 36.6255 118.57 38.5198 119.184 38.2126C119.799 37.9566 117.393 35.5504 117.393 35.5504C117.393 35.5504 120.771 36.5743 120.976 36.0624C121.181 35.4992 117.7 34.1681 117.7 34.1681C117.7 34.1681 121.539 33.6049 121.386 32.837C121.232 32.0691 116.573 32.7346 116.573 32.7346C116.573 32.7346 118.724 30.0724 118.16 29.6117C117.393 28.9461 112.682 33.4002 112.682 33.2978C112.631 33.2466 112.017 30.226 110.839 30.6868C109.713 31.1475 110.891 32.325 110.583 33.7073C110.379 34.3729 109.611 36.6255 110.225 37.1375Z" fill="#FFA785"/>
<path d="M98.2451 26.4375C91.7944 28.0758 85.7021 50.2437 92.2552 53.2131C97.426 55.5681 107.87 46.0456 107.87 46.0456C107.87 46.0456 105.976 40.67 103.314 39.8509L98.7571 43.2298C98.7571 43.2298 101.214 35.448 100.703 32.6322C100.242 29.8164 98.2451 26.4375 98.2451 26.4375Z" fill="#34B7AA"/>
<path d="M103.109 40.414C100.754 41.8475 98.5523 43.4346 96.4021 45.1753C96.2485 45.3289 96.4533 45.5337 96.6581 45.4313C98.7571 43.6906 100.959 42.1035 103.262 40.7212C103.467 40.6188 103.262 40.3116 103.109 40.414Z" fill="#00646B"/>
<path d="M104.081 48.8614C101.778 50.6021 99.2178 51.9844 96.5045 52.9571C95.7365 53.2131 94.9686 53.4691 94.2006 53.6739C93.9958 53.7251 94.0982 54.0322 94.303 53.981C97.1188 53.2643 99.8322 52.0868 102.29 50.5509C103.006 50.0901 103.672 49.6294 104.337 49.1686C104.44 49.015 104.286 48.7079 104.081 48.8614Z" fill="#00646B"/>
<path d="M100.6 33.4002C99.8322 36.2671 99.1154 39.0829 98.2963 41.9499C98.0403 42.769 97.8355 43.5882 97.5284 44.3561C97.4772 44.5609 97.7843 44.6633 97.8355 44.4585C98.7571 41.6427 99.4738 38.7758 100.242 35.96C100.447 35.1408 100.703 34.3217 100.907 33.5026C101.01 33.2466 100.651 33.1954 100.6 33.4002Z" fill="#00646B"/>
<path d="M116.932 14.5602C116.932 14.6114 116.932 14.6625 116.932 14.7137C116.573 16.9152 115.703 18.2463 114.526 19.219C113.706 19.8846 112.99 20.3453 112.375 20.7549C112.273 20.8573 112.171 20.9085 112.017 21.0109C110.891 21.8812 110.225 22.8027 110.174 25.7209C109.15 28.1783 105.413 28.4855 104.235 25.6697C104.286 22.1884 103.672 19.1678 103.109 17.2223C102.955 16.7104 102.802 16.3008 102.699 15.9424C102.443 15.2769 102.29 14.9185 102.29 14.9185C102.29 14.9185 102.546 7.23911 103.621 5.24247C106.334 0.327642 115.754 2.1195 116.471 6.0616C117.188 9.79891 117.29 12.5635 116.932 14.5602Z" fill="#FFA785"/>
<path d="M117.239 8.00694C115.857 7.1878 114.679 6.0103 113.86 4.628C111.71 7.75097 108.331 10.0548 104.594 10.8227C104.542 11.5907 104.133 12.461 103.621 13.0242C103.109 13.5873 102.443 13.9969 101.727 14.0993C100.907 12.1538 100.549 9.95239 101.01 7.85335C101.471 5.75431 102.699 3.80886 104.491 2.68255C105.925 1.76102 107.614 1.35145 109.304 1.35145C110.993 1.30025 112.683 1.65863 114.321 2.0682C115.396 2.32418 116.471 2.73375 117.137 3.60408C117.597 4.21843 117.751 5.03757 117.7 5.80551C117.597 6.47106 117.444 7.239 117.239 8.00694Z" fill="black"/>
<path d="M109.355 12.8706C109.355 13.1778 109.611 13.4849 109.969 13.4849C110.276 13.4849 110.583 13.2289 110.583 12.8706C110.583 12.5634 110.327 12.2562 109.969 12.2562C109.662 12.2562 109.355 12.5122 109.355 12.8706Z" fill="black"/>
<path d="M109.969 12.6658C109.969 12.7682 110.071 12.8706 110.174 12.8706C110.276 12.8706 110.379 12.7682 110.379 12.6658C110.379 12.5635 110.276 12.4611 110.174 12.4611C110.071 12.4611 109.969 12.5635 109.969 12.6658Z" fill="white"/>
<path d="M114.014 12.8706C114.014 13.1778 114.27 13.4849 114.628 13.4849C114.935 13.4849 115.242 13.2289 115.242 12.8706C115.242 12.5634 114.986 12.2562 114.628 12.2562C114.27 12.3074 114.014 12.5634 114.014 12.8706Z" fill="black"/>
<path d="M114.577 12.717C114.577 12.8194 114.679 12.9218 114.781 12.9218C114.884 12.9218 114.986 12.8194 114.986 12.717C114.986 12.6146 114.884 12.5122 114.781 12.5122C114.679 12.5122 114.577 12.6146 114.577 12.717Z" fill="white"/>
<path d="M113.604 10.5668C114.372 10.0549 115.345 10.1061 116.061 10.7204C116.215 10.8228 116.215 11.0788 116.113 11.2324C116.01 11.386 115.805 11.386 115.703 11.2836C115.396 11.0276 115.037 10.9252 114.679 10.9252C114.474 10.9252 114.321 10.9764 114.167 11.0788C114.014 11.13 113.86 11.2836 113.706 11.1812C113.655 11.1812 113.655 11.13 113.604 11.0788C113.45 10.9252 113.45 10.6692 113.604 10.5668Z" fill="black"/>
<path d="M111.3 10.5156C110.43 10.0036 109.304 10.0036 108.484 10.618C108.331 10.7204 108.28 10.9764 108.433 11.13C108.536 11.2835 108.792 11.3347 108.945 11.1811C109.304 10.9252 109.713 10.8228 110.123 10.874C110.327 10.874 110.532 10.9252 110.737 11.0276C110.891 11.0788 111.095 11.2323 111.249 11.13C111.3 11.13 111.351 11.0788 111.351 11.0276C111.454 10.874 111.454 10.618 111.3 10.5156Z" fill="black"/>
<path d="M113.246 14.5088C113.297 14.5088 113.297 14.5088 113.297 14.4576C113.45 13.9457 113.297 13.7921 113.092 13.7409C112.938 13.6897 112.734 13.7409 112.478 13.8945C112.426 13.8945 112.426 13.9457 112.426 13.9969C112.426 14.0481 112.478 14.0481 112.529 14.0481C112.734 13.9457 112.887 13.8945 113.041 13.9457C113.194 13.9969 113.246 14.2016 113.143 14.5088C113.143 14.4576 113.194 14.5088 113.246 14.5088Z" fill="#C16B5B"/>
<path d="M112.836 16.2495C113.194 16.2495 113.553 16.1471 113.911 15.9424C114.065 15.84 114.116 15.6352 114.014 15.4816C113.911 15.328 113.706 15.2768 113.553 15.3792C112.734 15.8912 111.761 15.4304 111.454 15.072C111.351 14.9184 111.147 14.9184 110.993 15.0208C110.839 15.1232 110.839 15.328 110.942 15.4816C111.249 15.9424 112.017 16.3007 112.836 16.2495Z" fill="#C16B5B"/>
<path d="M100.242 15.0209C101.061 15.9936 102.341 16.2496 103.109 15.6353C103.877 15.0209 103.877 13.6898 103.058 12.7171C102.239 11.7443 100.959 11.4884 100.191 12.1027C99.4227 12.7683 99.4227 14.0482 100.242 15.0209Z" fill="#FFA785"/>
<path d="M100.703 12.6146C101.061 12.461 101.522 12.461 101.931 12.6658C102.136 12.7682 102.29 12.8706 102.392 13.0242C102.546 13.229 102.546 13.4849 102.495 13.6897C102.443 13.8433 102.29 13.9969 102.136 14.0993C102.034 14.1505 101.983 14.2529 101.931 14.3041C101.88 14.4065 101.88 14.6113 101.983 14.7136C102.085 14.816 102.239 14.8672 102.392 14.816C102.495 14.7648 102.546 14.816 102.597 14.9184C102.648 15.0208 102.597 15.072 102.495 15.1232C102.392 15.1744 102.29 15.1744 102.239 15.1744C102.034 15.1744 101.88 15.072 101.727 14.9696C101.522 14.7648 101.522 14.4065 101.675 14.2017C101.778 14.0481 101.88 13.9969 101.983 13.8945C102.085 13.7921 102.187 13.7409 102.239 13.6385C102.29 13.5361 102.239 13.3825 102.187 13.2802C102.136 13.229 102.136 13.1778 102.085 13.1778C101.931 13.1778 101.727 13.229 101.624 13.3314C101.522 13.4337 101.471 13.6385 101.471 13.7921C101.471 13.8945 101.419 13.9457 101.317 13.9969C101.317 13.9969 101.317 13.9969 101.266 13.9969C101.215 13.9969 101.112 13.9457 101.112 13.8433C101.061 13.5873 101.163 13.3314 101.317 13.1266C101.368 13.0754 101.471 13.0242 101.573 12.973C101.317 12.9218 101.061 12.9218 100.856 13.0242C100.6 13.1778 100.395 13.4849 100.549 13.7409C100.6 13.8433 100.549 13.8945 100.447 13.9457C100.344 13.9969 100.293 13.9457 100.242 13.8433C100.088 13.3314 100.293 12.8194 100.703 12.6146Z" fill="#C16B5B"/>
<path d="M150.312 63.094C150.312 63.2476 150.209 63.35 150.056 63.35H67.4763C67.3227 63.35 67.2203 63.2476 67.2203 63.094C67.2203 62.9404 67.3227 62.838 67.4763 62.838H150.056C150.209 62.7868 150.312 62.9404 150.312 63.094Z" fill="white"/>
<path d="M97.0165 62.7867V63.3499H67.4763C67.3227 63.3499 67.2203 63.2475 67.2203 63.0939C67.2203 62.9403 67.3227 62.8379 67.4763 62.8379H97.0165V62.7867Z" fill="#EC703B"/>
<path d="M98.706 63.094C98.706 64.0155 97.938 64.7835 97.0165 64.7835C96.095 64.7835 95.327 64.0155 95.327 63.094C95.327 62.1725 96.095 61.4045 97.0165 61.4045C97.938 61.4045 98.706 62.1725 98.706 63.094Z" fill="#F7A516"/>
<path d="M70.7529 65.6538L68.6539 64.4763C68.2443 64.2715 67.7836 64.5787 67.8348 64.9883L67.9883 67.3433C68.0395 67.7529 68.5003 68.0088 68.8587 67.8041L70.8041 66.6265C71.1113 66.4218 71.1113 65.8586 70.7529 65.6538Z" fill="white"/>
<path opacity="0.5" d="M51.196 40.8749H26.9291C25.9564 40.8749 25.1372 40.1069 25.0348 39.1342L23.2942 14.8673C23.243 13.8945 23.9597 13.1266 24.9324 13.1266H49.1994C50.1721 13.1266 50.9913 13.8945 51.0936 14.8673L52.8343 39.1342C52.8855 40.1069 52.1688 40.8749 51.196 40.8749Z" fill="#C1CDFA"/>
<path d="M46.0477 34.7268C50.0126 30.6157 49.6466 23.83 45.2302 19.5707C40.8138 15.3113 34.0193 15.1912 30.0544 19.3023C26.0895 23.4135 26.4555 30.1991 30.8719 34.4585C35.2883 38.7178 42.0828 38.838 46.0477 34.7268Z" fill="#EC703B"/>
<path d="M43.3119 26.1816L34.9157 21.5227C34.2502 21.1644 33.431 21.6763 33.4822 22.4443L34.1478 31.7107C34.199 32.4275 34.9669 32.8371 35.5813 32.4787L43.2607 27.8198C43.9774 27.4615 43.9262 26.5399 43.3119 26.1816Z" fill="white"/>
<path opacity="0.8" d="M62.3056 94.6819H23.243C22.6799 94.6819 22.2191 94.2212 22.2191 93.7092L20.4784 69.647C20.4272 69.0839 20.8368 68.6743 21.4 68.6743H60.4626C61.0257 68.6743 61.4865 69.1351 61.4865 69.647L63.2272 93.7092C63.2272 94.2724 62.8688 94.6819 62.3056 94.6819Z" fill="#C1CDFA"/>
<path d="M34.5573 77.0705H23.2942C23.1406 77.0705 23.0382 76.9681 23.0382 76.8145L22.5774 70.8757C22.5774 70.7221 22.6798 70.6198 22.8334 70.6198H34.0966C34.2501 70.6198 34.3525 70.7221 34.3525 70.8757L34.7621 76.8145C34.8133 76.9681 34.7109 77.0705 34.5573 77.0705Z" fill="#F7A516"/>
<path d="M60.6674 92.7365H50.4281C50.1722 92.7365 49.9674 92.5317 49.9674 92.2757L49.5578 86.3881C49.5578 86.1321 49.7114 85.9274 49.9674 85.9274H60.2066C60.4626 85.9274 60.6674 86.1321 60.6674 86.3881L61.0769 92.2757C61.0769 92.5317 60.9233 92.7365 60.6674 92.7365Z" fill="#F7BE16"/>
<path opacity="0.8" d="M59.0803 71.5925H36.6052C36.3492 71.5925 36.0932 71.3877 36.042 71.0806C36.042 70.8246 36.2468 70.5686 36.5028 70.5686H58.9779C59.2339 70.5686 59.4898 70.7734 59.541 71.0806C59.541 71.3877 59.3363 71.5925 59.0803 71.5925Z" fill="#C1CDFA"/>
<path opacity="0.8" d="M59.2851 74.2548H36.81C36.554 74.2548 36.298 74.05 36.2468 73.7428C36.2468 73.4868 36.4516 73.2308 36.7076 73.2308H59.1827C59.4387 73.2308 59.6946 73.4356 59.7458 73.7428C59.7458 74.05 59.541 74.2548 59.2851 74.2548Z" fill="#C1CDFA"/>
<path opacity="0.8" d="M59.4386 76.8657H36.9635C36.7076 76.8657 36.4516 76.6609 36.4004 76.3538C36.4004 76.0978 36.6052 75.8418 36.8611 75.8418H59.3362C59.5922 75.8418 59.8482 76.0466 59.8994 76.3538C59.9506 76.6609 59.7458 76.8657 59.4386 76.8657Z" fill="#C1CDFA"/>
<path opacity="0.8" d="M59.6434 79.5278H23.7037C23.4478 79.5278 23.1918 79.323 23.1406 79.0159C23.1406 78.7599 23.3454 78.5039 23.6013 78.5039H59.541C59.797 78.5039 60.053 78.7087 60.1042 79.0159C60.1042 79.323 59.8994 79.5278 59.6434 79.5278Z" fill="#C1CDFA"/>
<path opacity="0.8" d="M59.8482 82.1901H23.9085C23.6525 82.1901 23.3966 81.9853 23.3454 81.6781C23.3454 81.4221 23.5502 81.1661 23.8061 81.1661H59.7458C60.0018 81.1661 60.2578 81.3709 60.3089 81.6781C60.3089 81.9341 60.1042 82.1901 59.8482 82.1901Z" fill="#C1CDFA"/>
<path opacity="0.8" d="M60.0018 84.8011H24.1133C23.8573 84.8011 23.6014 84.5964 23.5502 84.2892C23.5502 84.0332 23.755 83.7772 24.0109 83.7772H59.9506C60.2066 83.7772 60.4626 83.982 60.5137 84.2892C60.5137 84.5964 60.309 84.8011 60.0018 84.8011Z" fill="#C1CDFA"/>
<path opacity="0.8" d="M48.1243 87.4633H24.2669C24.011 87.4633 23.755 87.2585 23.7038 86.9513C23.7038 86.6953 23.9086 86.4393 24.1645 86.4393H47.9707C48.2267 86.4393 48.4827 86.6441 48.5339 86.9513C48.5851 87.2073 48.3803 87.4633 48.1243 87.4633Z" fill="#C1CDFA"/>
<path opacity="0.8" d="M48.2779 90.0742H24.4717C24.2157 90.0742 23.9597 89.8694 23.9085 89.5623C23.9085 89.3063 24.1133 89.0503 24.3693 89.0503H48.1755C48.4315 89.0503 48.6874 89.2551 48.7386 89.5623C48.7898 89.8694 48.585 90.0742 48.2779 90.0742Z" fill="#C1CDFA"/>
<path opacity="0.8" d="M48.4827 92.7364H24.6765C24.4205 92.7364 24.1645 92.5317 24.1133 92.2245C24.1133 91.9685 24.3181 91.7125 24.5741 91.7125H48.3803C48.6362 91.7125 48.8922 91.9173 48.9434 92.2245C48.9946 92.5317 48.7898 92.7364 48.4827 92.7364Z" fill="#C1CDFA"/>
<path d="M52.1688 117.823H34.3014C33.2774 117.823 32.4071 117.003 32.3047 115.979L30.6152 90.4326C30.564 89.9207 30.9736 89.5111 31.4856 89.5111H54.9334C55.4454 89.5111 55.8037 89.9207 55.8037 90.4326L54.1142 115.979C54.0631 117.003 53.1927 117.823 52.1688 117.823Z" fill="#F7A516"/>
<path d="M54.9846 89.5111H45.7181C46.23 89.5111 46.5884 89.9207 46.5884 90.4326L44.8989 115.979C44.8477 117.003 43.9774 117.823 42.9023 117.823H52.1688C53.1927 117.823 54.063 117.003 54.1654 115.979L55.8549 90.4326C55.8549 89.9207 55.4453 89.5111 54.9846 89.5111Z" fill="#FAD3A5"/>
<path d="M55.4454 91.2005H31.076C30.3593 91.2005 29.7449 90.5862 29.7449 89.8694V89.2039C29.7449 88.4871 30.3593 87.8728 31.076 87.8728H55.4454C56.1621 87.8728 56.7765 88.4871 56.7765 89.2039V89.8694C56.7253 90.5862 56.1621 91.2005 55.4454 91.2005Z" fill="#EC703B"/>
<path d="M33.687 113.061H29.4377C23.9085 113.061 19.3521 108.556 19.3521 102.976C19.3521 97.4465 23.8573 92.89 29.4377 92.89H34.9669C35.8884 92.89 36.6052 93.6068 36.6052 94.5283C36.6052 95.4498 35.8884 96.1666 34.9669 96.1666H29.4377C25.7004 96.1666 22.6286 99.2383 22.6286 102.976C22.6286 106.713 25.7004 109.785 29.4377 109.785H33.687C34.6085 109.785 35.3253 110.501 35.3253 111.423C35.3253 112.345 34.6085 113.061 33.687 113.061Z" fill="#F7A516"/>
<path d="M161.575 105.331C160.858 104.358 159.834 103.59 159.373 102.464C158.861 101.235 159.117 99.8016 159.322 98.4705C159.527 97.1394 159.578 95.6547 158.759 94.5796C157.172 92.4805 153.435 93.3509 151.745 91.3542C150.977 90.4327 150.824 89.0504 150.107 88.1289C149.288 87.1049 147.752 86.6954 146.523 87.2585C145.346 87.8217 144.578 89.204 144.834 90.5351C145.141 92.2245 146.933 93.5556 146.728 95.2963C146.574 97.037 144.475 98.1121 144.219 99.8016C144.015 100.979 144.783 102.157 145.755 102.873C146.728 103.59 147.905 103.948 149.032 104.409C150.158 104.87 151.284 105.536 151.899 106.559C152.513 107.635 152.513 108.914 152.564 110.143C152.616 111.372 152.769 112.703 153.588 113.573C154.356 114.444 155.534 114.648 156.66 114.751C157.223 114.802 157.838 114.751 158.349 114.597C158.81 114.444 159.271 114.239 159.732 113.983C160.602 113.471 161.319 112.754 161.831 111.884C161.933 111.73 162.036 111.525 162.087 111.372C163.06 109.426 162.804 107.02 161.575 105.331Z" fill="#EC703B"/>
<path d="M159.271 112.14C157.479 105.433 154.715 98.9823 151.182 93.0436C150.158 91.3541 149.083 89.7159 147.957 88.0776C147.752 87.8216 147.342 88.0776 147.547 88.3336C151.54 94.0163 154.766 100.211 157.07 106.713C157.735 108.556 158.298 110.399 158.81 112.242C158.913 112.601 159.373 112.447 159.271 112.14Z" fill="#F7BE16"/>
<path d="M158.196 108.607C156.762 107.225 155.073 106.201 153.179 105.587C152.871 105.484 152.718 105.996 153.025 106.048C154.817 106.611 156.455 107.635 157.837 108.914C158.042 109.222 158.401 108.863 158.196 108.607Z" fill="#F7BE16"/>
<path d="M157.735 99.8015C156.762 101.747 156.814 103.948 156.814 106.099C156.814 106.406 157.325 106.406 157.325 106.099C157.274 104.051 157.223 101.901 158.145 100.057C158.298 99.7503 157.889 99.5455 157.735 99.8015Z" fill="#F7BE16"/>
<path d="M154.612 99.5455C152.974 98.0096 151.028 96.7809 148.878 95.9618C148.571 95.8594 148.469 96.3201 148.725 96.4225C150.772 97.1905 152.667 98.368 154.254 99.8527C154.51 100.109 154.868 99.7503 154.612 99.5455Z" fill="#F7BE16"/>
<path d="M174.835 85.8251C175.295 84.6476 175.039 83.1629 174.118 82.2413C173.196 81.3198 171.763 81.0126 170.534 81.5246C169.049 82.1389 168.179 83.726 167.411 85.1083C166.643 86.5418 165.568 88.0265 163.93 88.2825C163.111 88.3849 162.24 88.1801 161.524 88.4873C160.551 88.8456 160.09 89.9208 160.039 90.9447C159.988 91.9686 160.295 92.9925 160.397 93.9652C160.551 94.9892 160.5 96.0643 159.937 96.9346C159.322 97.7537 158.349 98.1121 157.428 98.5217C156.506 98.9313 155.534 99.4944 155.226 100.467C154.817 101.901 156.046 103.232 156.609 104.614C157.172 105.996 157.018 107.532 156.916 108.966C156.814 110.45 156.814 111.986 157.582 113.266C157.94 113.829 158.503 114.341 159.169 114.546C159.732 114.7 160.346 114.648 160.909 114.597C161.626 114.546 162.394 114.444 163.008 114.137C163.52 113.881 163.981 113.471 164.339 112.959C164.442 112.805 164.544 112.652 164.647 112.447C165.056 111.679 165.261 110.86 165.466 109.99C165.67 109.119 165.824 108.249 166.336 107.481C167.053 106.303 168.333 105.536 169.408 104.614C170.483 103.692 171.353 102.259 170.892 100.928C170.534 99.904 169.459 99.1872 169.305 98.0609C169.152 97.1394 169.766 96.2691 170.483 95.6547C171.2 95.0915 172.07 94.7332 172.889 94.17C173.657 93.6581 174.374 92.8901 174.425 91.9174C174.476 90.7399 173.555 89.716 173.606 88.5385C173.555 87.6681 174.425 86.849 174.835 85.8251Z" fill="#F7BE16"/>
<path d="M171.763 82.8557C167.309 90.1767 162.804 97.6002 160.602 105.945C159.988 108.249 159.578 110.553 159.373 112.908C159.322 113.266 159.937 113.266 159.937 112.908C160.602 104.409 164.339 96.5763 168.537 89.3064C169.715 87.2074 170.995 85.1595 172.224 83.1117C172.428 82.8045 171.916 82.5485 171.763 82.8557Z" fill="#F7A516"/>
<path d="M158.605 100.569C158.554 100.211 157.991 100.365 158.042 100.723L159.783 109.631C159.834 109.99 160.397 109.836 160.346 109.478C159.783 106.508 159.169 103.539 158.605 100.569Z" fill="#F7A516"/>
<path d="M166.643 99.5968C164.391 101.44 162.445 103.539 160.756 105.894C160.551 106.201 161.063 106.508 161.268 106.201C162.906 103.897 164.903 101.849 167.053 100.006C167.36 99.8016 166.899 99.392 166.643 99.5968Z" fill="#F7A516"/>
<path d="M163.776 90.0231C163.008 93.402 162.548 96.8833 162.394 100.365C162.394 100.723 162.957 100.723 162.957 100.365C163.111 96.9345 163.571 93.5556 164.288 90.1767C164.442 89.8183 163.879 89.6647 163.776 90.0231Z" fill="#F7A516"/>
<path d="M171.456 89.4599C168.896 91.3542 166.49 93.5556 164.391 95.9618C164.135 96.2178 164.544 96.6786 164.8 96.3714C166.899 94.0164 169.203 91.8661 171.763 89.9719C172.019 89.7671 171.763 89.2551 171.456 89.4599Z" fill="#F7A516"/>
<path d="M163.315 117.771H154.049C151.489 117.771 149.441 115.724 149.441 113.164V112.447H167.923V113.164C167.923 115.724 165.875 117.771 163.315 117.771Z" fill="#34B7AA"/>
<path d="M162.036 112.447C162.036 115.365 159.629 117.771 156.711 117.771H162.599C165.517 117.771 167.923 115.365 167.923 112.447H162.036Z" fill="#199989"/>
</svg>
