<svg width="219" height="101" viewBox="0 0 219 101" fill="none" xmlns="http://www.w3.org/2000/svg">
<path d="M177.102 92.7185C184.955 88.635 191.718 83.2682 195.962 76.2908C203.361 64.1204 199.865 46.443 185.57 40.448C167.919 33.0429 150.923 49.2099 132.537 47.3452C123.381 46.4162 115.796 36.5382 113.343 30.0754C111.552 25.3637 109.059 15.3587 103.478 10.2393C86.1817 -5.64037 55.7324 1.22343 42.9739 10.6403C33.6707 17.5108 26.1653 31.3653 26.6264 42.6802C27.2747 58.5732 33.1962 82.5598 54.623 92.7185H177.102Z" fill="#CFE9FF"/>
<path d="M167.685 20.5786C166.549 20.5786 165.627 19.6563 165.627 18.5201C165.627 17.3839 166.549 16.4616 167.685 16.4616C168.821 16.4616 169.744 17.3839 169.744 18.5201C169.737 19.6563 168.815 20.5786 167.685 20.5786ZM167.685 16.7423C166.703 16.7423 165.907 17.5443 165.907 18.5201C165.907 19.5025 166.709 20.2979 167.685 20.2979C168.661 20.2979 169.463 19.4959 169.463 18.5201C169.463 17.5376 168.668 16.7423 167.685 16.7423Z" fill="#264997"/>
<path d="M42.8737 43.0414H37.2864C36.5379 43.0414 35.923 42.4332 35.923 41.6779V38.2895C35.923 37.541 36.5312 36.9261 37.2864 36.9261H42.8737C43.6222 36.9261 44.2371 37.5343 44.2371 38.2895V41.6846C44.2371 42.4332 43.6222 43.0414 42.8737 43.0414ZM37.2864 37.0397C36.598 37.0397 36.0366 37.6011 36.0366 38.2895V41.6846C36.0366 42.373 36.598 42.9344 37.2864 42.9344H42.8737C43.5621 42.9344 44.1235 42.373 44.1235 41.6846V38.2895C44.1235 37.6011 43.5621 37.0397 42.8737 37.0397H37.2864Z" fill="#264997"/>
<path d="M40.1067 39.9002L36.0566 37.815L36.1101 37.7147L40.1134 39.7799L44.0699 37.8885L44.1167 37.9887L40.1067 39.9002Z" fill="#264997"/>
<path d="M182.342 56.2008H178.305C177.764 56.2008 177.323 55.7597 177.323 55.2183V52.7655C177.323 52.2242 177.764 51.7831 178.305 51.7831H182.342C182.883 51.7831 183.324 52.2242 183.324 52.7655V55.2183C183.324 55.7597 182.883 56.2008 182.342 56.2008ZM178.305 51.87C177.81 51.87 177.403 52.2776 177.403 52.7722V55.225C177.403 55.7196 177.81 56.1273 178.305 56.1273H182.342C182.836 56.1273 183.244 55.7196 183.244 55.225V52.7722C183.244 52.2776 182.836 51.87 182.342 51.87H178.305Z" fill="#264997"/>
<path d="M180.344 53.9352L177.416 52.4248L177.456 52.358L180.344 53.8484L183.204 52.4783L183.237 52.5518L180.344 53.9352Z" fill="#264997"/>
<path d="M10.3057 46.6971C9.16949 46.6971 8.24719 45.7748 8.24719 44.6386C8.24719 43.5024 9.16949 42.5801 10.3057 42.5801C11.4418 42.5801 12.3641 43.5024 12.3641 44.6386C12.3641 45.7748 11.4351 46.6971 10.3057 46.6971ZM10.3057 42.8608C9.32321 42.8608 8.52789 43.6628 8.52789 44.6386C8.52789 45.6211 9.32989 46.4164 10.3057 46.4164C11.2881 46.4164 12.0834 45.6144 12.0834 44.6386C12.0834 43.6562 11.2881 42.8608 10.3057 42.8608Z" fill="#264997"/>
<path d="M61.038 25.0549C61.1407 24.6203 60.8715 24.1847 60.4369 24.0821C60.0022 23.9795 59.5667 24.2486 59.464 24.6833C59.3614 25.1179 59.6305 25.5535 60.0652 25.6561C60.4998 25.7587 60.9354 25.4896 61.038 25.0549Z" fill="#264997"/>
<path d="M124.172 25.8685C124.275 25.4339 124.006 24.9983 123.571 24.8957C123.137 24.7931 122.701 25.0622 122.598 25.4969C122.496 25.9315 122.765 26.3671 123.2 26.4697C123.634 26.5723 124.07 26.3032 124.172 25.8685Z" fill="#264997"/>
<path d="M100.972 33.9186H99.0739C98.9669 33.9186 98.8867 33.8317 98.8867 33.7314C98.8867 33.6245 98.9736 33.5443 99.0739 33.5443H100.972C101.079 33.5443 101.159 33.6312 101.159 33.7314C101.166 33.8384 101.079 33.9186 100.972 33.9186Z" fill="#264997"/>
<path d="M99.8359 34.6804V32.7823C99.8359 32.6754 99.9227 32.5952 100.023 32.5952C100.13 32.5952 100.21 32.682 100.21 32.7823V34.6804C100.21 34.7873 100.123 34.8675 100.023 34.8675C99.9227 34.8675 99.8359 34.7806 99.8359 34.6804Z" fill="#264997"/>
<path d="M140.23 44.3714H138.332C138.225 44.3714 138.145 44.2845 138.145 44.1843C138.145 44.0773 138.232 43.9971 138.332 43.9971H140.23C140.337 43.9971 140.417 44.084 140.417 44.1843C140.417 44.2845 140.33 44.3714 140.23 44.3714Z" fill="#264997"/>
<path d="M139.087 45.1266V43.2286C139.087 43.1216 139.174 43.0414 139.274 43.0414C139.381 43.0414 139.461 43.1283 139.461 43.2286V45.1266C139.461 45.2336 139.374 45.3138 139.274 45.3138C139.174 45.3138 139.087 45.2336 139.087 45.1266Z" fill="#264997"/>
<path d="M192.119 27.1147H190.221C190.114 27.1147 190.034 27.0279 190.034 26.9276C190.034 26.8207 190.121 26.7405 190.221 26.7405H192.119C192.226 26.7405 192.307 26.8274 192.307 26.9276C192.307 27.0345 192.22 27.1147 192.119 27.1147Z" fill="#264997"/>
<path d="M190.983 27.8765V25.9785C190.983 25.8715 191.07 25.7913 191.17 25.7913C191.277 25.7913 191.358 25.8782 191.358 25.9785V27.8765C191.358 27.9835 191.271 28.0637 191.17 28.0637C191.063 28.0637 190.983 27.9768 190.983 27.8765Z" fill="#264997"/>
<path d="M139.134 61.768H128.949C128.868 61.768 128.802 61.7012 128.802 61.621C128.802 61.5408 128.868 61.4739 128.949 61.4739H139.134C139.214 61.4739 139.281 61.5408 139.281 61.621C139.281 61.7012 139.214 61.768 139.134 61.768Z" fill="#264997"/>
<path d="M137.63 60.0571H127.445C127.365 60.0571 127.298 59.9902 127.298 59.91C127.298 59.8298 127.365 59.763 127.445 59.763H137.63C137.71 59.763 137.777 59.8298 137.777 59.91C137.777 59.9969 137.71 60.0571 137.63 60.0571Z" fill="#264997"/>
<path d="M25.1695 17.8051H15.8462C15.766 17.8051 15.6992 17.7382 15.6992 17.658C15.6992 17.5778 15.766 17.511 15.8462 17.511H25.1695C25.2497 17.511 25.3165 17.5778 25.3165 17.658C25.3165 17.7449 25.2497 17.8051 25.1695 17.8051Z" fill="#264997"/>
<path d="M28.0901 19.0012H17.9047C17.8245 19.0012 17.7576 18.9344 17.7576 18.8542C17.7576 18.774 17.8245 18.7072 17.9047 18.7072H28.0901C28.1703 18.7072 28.2371 18.774 28.2371 18.8542C28.2371 18.9411 28.1703 19.0012 28.0901 19.0012Z" fill="#264997"/>
<path d="M104.147 67.2815C104.434 67.8095 104.414 68.4444 104.14 68.9657C103.659 69.868 102.623 70.543 101.727 71.2715C98.86 73.604 97.3295 76.7184 97.51 79.8596C97.6036 81.5237 98.1583 83.1879 98.0981 84.852C97.9979 87.6056 96.1265 90.2455 93.0723 91.9163C90.2519 93.4602 86.4758 94.1619 82.7999 93.8411C81.9645 91.8295 81.0088 89.3499 82.8601 87.7192C83.4683 87.1845 84.3304 86.8036 84.9787 86.2957C87.9729 83.9231 85.4198 80.0467 86.4023 76.9256C87.1308 74.6065 89.764 72.8888 92.2703 71.3183C94.3621 70.0083 96.4607 68.6917 98.5526 67.3818C99.789 66.6065 101.507 65.7844 103.044 66.3659C103.578 66.5664 103.939 66.9006 104.147 67.2815Z" fill="#93B6ED"/>
<path d="M95.3647 78.6633C94.429 83.4486 94.322 88.6482 90.165 91.8696C88.7548 92.9523 87.2043 93.5872 85.5735 93.8946C88.3137 93.761 90.9603 93.0726 93.0723 91.9164C96.1266 90.2389 97.9979 87.6056 98.0981 84.8521C98.1583 83.1879 97.6036 81.5305 97.51 79.8596C97.3296 76.7184 98.86 73.604 101.727 71.2715C102.616 70.543 103.659 69.868 104.14 68.9658C104.187 68.8722 104.227 68.7786 104.26 68.6851C99.7957 70.1487 96.307 73.1362 95.3647 78.6633Z" fill="#264997"/>
<path d="M53.7475 71.0643C55.7324 68.7318 57.7842 66.4527 59.9028 64.2406C60.5043 63.6123 61.1259 62.9774 61.9078 62.6031C63.846 61.6675 66.2052 62.563 67.8627 63.9331C69.5202 65.3032 70.7766 67.1144 72.4675 68.4444C73.9846 69.634 75.8694 70.4427 76.9788 72.02C78.1751 73.7109 78.2353 75.923 78.2754 77.9949C78.3823 83.4752 78.6764 88.9556 79.1576 94.4226C77.8209 91.8294 76.9721 88.989 76.658 86.0884C76.4441 84.1168 76.4642 82.0584 75.6221 80.2605C74.5728 78.0149 72.374 76.5713 70.2754 75.248C68.2436 73.9648 65.9112 72.6282 63.572 73.1829C62.0348 73.5438 60.8185 74.6599 59.4951 75.522C56.354 77.5738 52.344 78.2422 48.7082 77.3132C50.3323 75.1812 52.0098 73.1027 53.7475 71.0643Z" fill="#93B6ED"/>
<path d="M77.7875 90.5195C76.9587 86.5697 77.8944 82.9272 77.1659 78.9774C76.6446 76.6917 74.2052 75.2347 72.1735 73.1963C70.135 71.1579 66.6998 67.8028 61.0457 69.5138C58.2053 70.3759 53.2328 75.1345 48.8619 77.106C48.8085 77.1729 48.755 77.2397 48.7082 77.3065C52.344 78.2288 56.354 77.5672 59.4951 75.5154C60.8185 74.6533 62.0348 73.5371 63.572 73.1762C65.9112 72.6215 68.2436 73.9582 70.2754 75.2414C72.374 76.5647 74.5728 78.0083 75.6221 80.2539C76.4642 82.0517 76.4441 84.1102 76.658 86.0818C76.8719 88.04 77.3263 89.9715 78.0147 91.8161C78.0214 91.375 77.9011 90.9272 77.7875 90.5195Z" fill="#264997"/>
<path d="M87.485 48.2408C87.4917 48.2207 87.505 48.2007 87.5117 48.1806C84.0832 49.9851 82.4925 53.9884 81.5368 57.7378C80.8351 60.4713 80.3271 63.2516 80.0063 66.0519C79.7122 68.6116 79.5853 71.2248 80.1266 73.7444C80.5811 75.8697 81.5101 77.9416 81.4299 80.1136C81.3229 82.934 79.5385 85.4536 79.2645 88.2606C79.0506 90.4862 79.8793 92.7786 81.4366 94.3826C82.4257 93.8346 83.4081 93.2865 84.3973 92.7452C84.8384 92.4979 85.3196 92.2105 85.48 91.7293C85.6738 91.1479 85.3263 90.5397 85.0723 89.985C84.0898 87.8396 84.3772 85.3333 84.9654 83.0476C85.8743 79.5188 87.4248 76.1972 88.5944 72.7486C89.764 69.3 90.546 65.5907 89.8308 62.0218C89.363 59.6693 88.2669 57.4972 87.5451 55.2115C86.8233 52.9391 86.4892 50.3928 87.485 48.2408Z" fill="#93B6ED"/>
<path d="M83.6153 93.7142C84.7047 93.2263 85.7272 92.5847 86.6161 91.7693C87.4382 91.0141 88.1332 90.1119 88.6813 89.1361C89.256 88.1135 89.6838 87.0108 90.0046 85.8813C90.3254 84.7585 90.5259 83.609 90.8066 82.4795C91.2811 80.5413 91.896 78.6299 92.8049 76.8454C93.7205 75.0543 94.9302 73.4369 96.3604 72.0267C98.1516 70.2623 100.23 68.812 102.389 67.5355C102.71 67.3484 103.03 67.1612 103.351 66.9808C103.525 66.8805 103.371 66.6132 103.191 66.7135C100.918 67.9967 98.713 69.4403 96.7815 71.198C95.2644 72.5814 93.9411 74.1721 92.9319 75.9565C91.9561 77.6808 91.2677 79.5522 90.7531 81.4569C90.4657 82.5263 90.2452 83.6023 89.9979 84.6783C89.7306 85.8479 89.3764 87.0108 88.8684 88.1002C88.3939 89.116 87.7924 90.0718 87.0372 90.9072C86.2552 91.7693 85.3262 92.4778 84.3037 93.0258C84.0297 93.1728 83.749 93.3132 83.4616 93.4402C83.2745 93.5271 83.4282 93.7944 83.6153 93.7142Z" fill="#3661BF"/>
<path d="M81.4299 93.6073C81.3029 90.787 81.9111 88.0134 82.6596 85.3066C83.4081 82.5932 84.3037 79.9131 84.7715 77.1329C85.2728 74.1655 85.2193 71.1513 85.0322 68.1571C84.8384 65.1229 84.5109 62.0887 84.4908 59.0411C84.4775 56.1405 84.7381 53.1931 85.7674 50.4663C85.8943 50.1255 86.0347 49.7913 86.1884 49.4638C86.2686 49.2834 86.0013 49.123 85.9211 49.3034C84.7247 51.9099 84.2903 54.7838 84.2035 57.6309C84.1099 60.7052 84.4106 63.7662 84.6379 66.8272C84.8584 69.8547 85.0188 72.9157 84.6446 75.9432C84.2903 78.797 83.4148 81.5439 82.6262 84.2974C81.8576 86.9841 81.1492 89.7243 81.1091 92.5313C81.1024 92.8855 81.1091 93.2397 81.1291 93.594C81.1291 93.8078 81.4432 93.8145 81.4299 93.6073Z" fill="#3661BF"/>
<path d="M50.9337 75.1145C52.1501 74.0184 53.3598 72.9156 54.5761 71.8196C55.1776 71.2782 55.7791 70.7302 56.3806 70.1888C56.942 69.6809 57.5034 69.1596 58.0849 68.6717C58.6463 68.1972 59.2411 67.7628 59.8894 67.4219C60.4775 67.1145 61.1124 66.9006 61.7607 66.767C63.0439 66.513 64.4007 66.6066 65.6371 67.0343C66.272 67.2548 66.8601 67.5756 67.4082 67.9566C67.9963 68.3576 68.551 68.8121 69.1592 69.1796C69.7407 69.5339 70.3689 69.7678 71.0239 69.9549C71.6655 70.1354 72.3204 70.2824 72.9219 70.5564C73.5435 70.8371 74.0514 71.2649 74.4658 71.7995C74.8868 72.3409 75.2344 72.9557 75.5418 73.5706C76.1634 74.8003 76.6045 76.1103 76.9186 77.447C77.5602 80.1738 77.6805 82.9941 77.7406 85.7811C77.7473 86.1219 77.6938 89.2765 77.7005 89.6173C77.7005 89.8178 78.0146 89.8178 78.0146 89.6173C77.9679 86.7635 77.9612 81.0693 77.4198 78.2623C77.1525 76.8922 76.7649 75.5489 76.2168 74.2657C75.9361 73.6241 75.622 72.9958 75.2544 72.401C74.9002 71.8196 74.4858 71.2448 73.9445 70.8171C72.8551 69.9482 71.4315 69.8547 70.1817 69.3534C68.8451 68.8254 67.8493 67.7227 66.5661 67.0944C65.3697 66.4996 64.0063 66.2457 62.6764 66.3392C61.2996 66.4328 59.9963 66.9073 58.8602 67.6893C58.252 68.1103 57.6906 68.5982 57.1359 69.0928C56.5277 69.6341 55.9262 70.1822 55.3247 70.7302C54.0949 71.8396 52.8719 72.9491 51.6421 74.0585C51.3347 74.3392 51.0273 74.6132 50.7198 74.8939C50.5661 75.0276 50.7867 75.2481 50.9337 75.1145Z" fill="#3661BF"/>
<mask id="mask0_1_1722" style="mask-type:luminance" maskUnits="userSpaceOnUse" x="8" y="38" width="203" height="54">
<path d="M210.927 38.5367H8.08018V91.1213H210.927V38.5367Z" fill="white"/>
</mask>
<g mask="url(#mask0_1_1722)">
<path d="M29.8747 77.4404C30.5363 79.3452 33.5037 84.605 34.2456 85.2666C34.4929 85.4872 34.9473 85.6208 35.6691 85.7211C36.6315 85.8548 41.1762 86.0152 44.6114 86.5766L45.1194 85.0595C42.1052 83.9567 40.0735 83.1413 37.0659 82.0386C35.7293 79.0645 35.1144 77.0996 33.7711 73.1698C33.7577 73.1631 28.7051 74.1054 29.8747 77.4404Z" fill="#FAA189"/>
<path d="M45.1661 85.4004C45.0324 85.2734 43.6289 85.2467 43.4418 85.4739C43.4418 85.4739 43.6423 86.3828 43.6891 86.8841C43.7359 87.3853 44.9723 88.0202 45.3399 88.2274C45.6139 88.3811 45.8411 87.8465 45.674 87.5658C45.5003 87.2851 44.9054 86.9242 44.9054 86.9242C44.9054 86.9242 45.4134 85.641 45.1661 85.4004Z" fill="#FAA189"/>
<path d="M45.3266 86.4097C45.3266 86.4097 48.695 87.6193 49.3634 87.9869C50.1186 88.4013 50.7067 87.7931 50.0718 87.5392C49.4369 87.2852 45.8546 85.6678 45.6875 85.6077C45.5204 85.5408 44.8521 86.0153 45.3266 86.4097Z" fill="#FAA189"/>
<path d="M45.1662 86.0887C45.1662 86.0887 48.8286 87.1915 49.4836 87.6393C49.898 87.9267 50.6131 87.7262 50.0183 87.2984C49.6975 87.0712 47.4652 85.8615 46.2756 85.1798C45.3533 84.6518 44.1236 84.6652 44.03 84.6318C44.0233 84.6385 44.6582 85.7212 45.1662 86.0887Z" fill="#FAA189"/>
<path d="M43.2747 85.3137C43.2948 84.5385 43.9163 84.5452 44.705 84.7657C45.4936 84.9863 48.7618 86.8509 49.2764 87.0113C49.791 87.165 49.0558 87.7398 48.608 87.5861C48.1603 87.4324 46.4426 86.7306 45.7877 86.6838C45.1394 86.637 43.2547 86.1625 43.2747 85.3137Z" fill="#FAA189"/>
<path d="M30.4895 79.6391C29.9147 77.8614 28.2973 70.757 27.883 68.4512C27.4686 66.1455 28.3174 64.3142 30.2622 63.8597C32.822 63.2649 35.4819 75.5222 36.2706 77.5673C36.832 79.0376 31.0642 81.4169 30.4895 79.6391Z" fill="#3560C1"/>
<path d="M28.8855 62.7236C28.8855 62.7236 29.0993 77.6208 24.7284 74.386C21.6875 72.1404 19.6491 64.8623 20.0768 62.5365C20.5045 60.2107 23.1445 60.2441 25.3433 60.6451C27.5421 61.0528 28.8855 62.7236 28.8855 62.7236Z" fill="#FAA189"/>
<path d="M29.8837 53.0801L23.6196 51.9272L21.6139 62.8254L27.878 63.9782L29.8837 53.0801Z" fill="#FAA189"/>
<path d="M23.6123 51.9233L22.5831 57.5106C22.5831 57.5106 25.9982 61.7278 28.3976 61.0995L29.8746 53.0728L23.6123 51.9233Z" fill="#E37254"/>
<path d="M31.5722 56.0267C30.8771 58.3659 28.03 60.1704 27.3416 59.9699C25.0894 59.3016 22.964 55.0911 24.695 49.2632C25.3901 46.924 31.2982 43.9432 33.6507 49.0159C34.6399 51.1546 32.2673 53.6876 31.5722 56.0267Z" fill="#FAA189"/>
<path d="M27.502 57.2432C27.7761 57.4504 28.0501 57.6576 28.3308 57.8648C28.3842 57.9049 28.431 57.818 28.3842 57.7779C28.1102 57.5707 27.8362 57.3635 27.5555 57.1563C27.502 57.1229 27.4486 57.2031 27.502 57.2432Z" fill="#1A1A1A"/>
<path d="M30.2021 52.4445C30.1687 52.3576 30.162 52.2707 30.1553 52.1838C30.1553 52.097 30.1554 52.0101 30.1821 51.9165C30.2155 52.0034 30.2222 52.0903 30.2289 52.1772C30.2356 52.2707 30.2289 52.3576 30.2021 52.4445Z" fill="#1A1A1A"/>
<path d="M30.1286 52.4312C30.0952 52.3242 30.0685 52.2307 30.035 52.1304C30.0016 52.0302 29.9615 51.9433 29.9281 51.8364C30.015 51.9032 30.0685 52.0034 30.1086 52.1037C30.142 52.2106 30.1553 52.3242 30.1286 52.4312Z" fill="#1A1A1A"/>
<path d="M30.0618 52.4178C29.9883 52.2908 29.9214 52.1705 29.8412 52.0435C29.7677 51.9165 29.6942 51.7962 29.634 51.6625C29.741 51.7695 29.8279 51.8831 29.9014 52.0101C29.9749 52.1304 30.0417 52.2707 30.0618 52.4178Z" fill="#1A1A1A"/>
<path d="M30.1487 52.5247C29.6742 52.2105 29.1796 51.9566 28.665 51.716C28.3174 51.6224 27.9632 51.5155 27.6023 51.442C27.7493 51.4219 27.8964 51.3952 28.0367 51.3618C28.6115 51.5288 29.1863 51.6959 29.761 51.863L30.1487 52.5247Z" fill="#1A1A1A"/>
<path d="M31.218 52.9391C31.2113 52.8656 31.238 52.7921 31.2648 52.7253C31.2982 52.6584 31.345 52.5983 31.4051 52.5582C31.365 52.6183 31.3249 52.6785 31.2982 52.7453C31.2648 52.8055 31.2447 52.8723 31.218 52.9391Z" fill="#1A1A1A"/>
<path d="M31.2648 52.9123C31.2782 52.8455 31.3116 52.7853 31.3517 52.7318C31.3985 52.6784 31.4452 52.6316 31.5121 52.6049C31.4653 52.6583 31.4185 52.6984 31.3851 52.7519C31.3383 52.7987 31.3049 52.8588 31.2648 52.9123Z" fill="#1A1A1A"/>
<path d="M31.2179 52.9524C31.258 52.919 31.3382 52.8589 31.3382 52.8589C31.4318 52.7853 31.532 52.7118 31.6256 52.6383C31.9464 52.7319 32.3207 52.8722 32.6749 52.9992C32.2538 52.9123 31.8194 52.8923 31.3917 52.9457C31.3917 52.9457 31.2981 52.9591 31.1979 52.9658C31.2046 52.9658 31.2112 52.9591 31.2179 52.9524Z" fill="#1A1A1A"/>
<path d="M35.6223 59.5022C35.6223 59.5022 35.5889 59.5089 35.5354 59.5156C35.5087 59.5222 35.4686 59.5223 35.4285 59.5289C35.4084 59.5289 35.3884 59.5289 35.3616 59.5289C35.3349 59.5289 35.3148 59.5289 35.2881 59.5289C35.1812 59.5289 35.0542 59.5089 34.9072 59.4755C34.7668 59.4354 34.6131 59.3752 34.4594 59.2883C34.3057 59.2014 34.1586 59.0945 34.025 58.9609C33.8913 58.8339 33.771 58.6868 33.6641 58.5331C33.4569 58.2257 33.3232 57.9116 33.2564 57.6509C33.2363 57.5841 33.223 57.5106 33.2029 57.4237C33.1962 57.3836 33.1829 57.3368 33.1762 57.2833C33.1695 57.2365 33.1561 57.1831 33.1494 57.1296C33.1428 57.0761 33.1361 57.0227 33.1294 56.9625C33.1227 56.9358 33.1227 56.9024 33.116 56.8756C33.116 56.8489 33.1093 56.8155 33.1093 56.7888C33.1027 56.7286 33.1027 56.6685 33.096 56.6016C33.0893 56.5348 33.0893 56.4746 33.0893 56.4078C33.0759 56.1405 33.0826 55.8531 33.1093 55.5657C33.116 55.4922 33.1227 55.4187 33.1294 55.3452C33.1361 55.2716 33.1494 55.1981 33.1561 55.1313L33.1695 55.0244C33.1762 54.9909 33.1829 54.9508 33.1895 54.9174C33.2029 54.8439 33.2163 54.7771 33.223 54.7036C33.3299 54.1422 33.497 53.6342 33.644 53.2733C33.7175 53.0929 33.7844 52.9458 33.8311 52.8523C33.8779 52.752 33.9047 52.6985 33.9047 52.6985C33.9047 52.6985 33.8913 52.7587 33.8646 52.8656C33.8378 52.9726 33.8111 53.1263 33.7777 53.3134C33.7108 53.6877 33.6641 54.2023 33.6641 54.7437C33.6641 54.8105 33.6707 54.8773 33.6707 54.9442V55.0444L33.6774 55.1447C33.6841 55.2115 33.6841 55.2783 33.6908 55.3452C33.6975 55.412 33.7042 55.4788 33.7108 55.5457C33.7443 55.813 33.7777 56.0736 33.8311 56.3076C33.8445 56.3677 33.8512 56.4279 33.8646 56.4813C33.8779 56.5348 33.8913 56.5949 33.9047 56.6484C33.9113 56.6751 33.918 56.7019 33.9247 56.7286C33.9314 56.7553 33.9381 56.7821 33.9448 56.8021C33.9581 56.8489 33.9715 56.9024 33.9849 56.9492C34.0383 57.1363 34.0784 57.29 34.1118 57.4036C34.172 57.6242 34.2321 57.9049 34.3257 58.1722C34.3725 58.3059 34.426 58.4462 34.4995 58.5732C34.5663 58.7002 34.6465 58.8205 34.7334 58.9274C34.8203 59.0344 34.9205 59.1279 35.0208 59.2081C35.121 59.2816 35.2213 59.3418 35.3082 59.3819C35.3282 59.3953 35.355 59.4019 35.375 59.4086C35.3951 59.4153 35.4151 59.422 35.4351 59.4287C35.4752 59.4421 35.502 59.4554 35.5354 59.4621C35.5889 59.4955 35.6223 59.5022 35.6223 59.5022Z" fill="#F8DDD1"/>
<path d="M31.2581 60.3844C31.2581 60.3844 31.2247 60.3577 31.1645 60.3109C31.1111 60.2574 31.0309 60.1772 30.9707 60.0435C30.9039 59.9166 30.8571 59.7495 30.8304 59.5557C30.8103 59.3685 30.8103 59.1547 30.8304 58.9408C30.8437 58.8339 30.8571 58.7202 30.8772 58.6133C30.8972 58.5064 30.9173 58.3994 30.9373 58.2925C30.9774 58.0786 31.0175 57.8581 31.0643 57.6442C31.1512 57.2232 31.2447 56.8222 31.345 56.5014C31.7326 55.2382 33.6975 50.4128 33.6975 50.4128C33.6975 50.4128 32.5881 55.4989 32.2005 56.762C32.1002 57.0761 31.9532 57.4638 31.7861 57.8581C31.6992 58.0586 31.6123 58.2591 31.5254 58.4596C31.4787 58.5598 31.4386 58.6601 31.3918 58.7537C31.3517 58.8472 31.3116 58.9408 31.2715 59.0344C31.198 59.2148 31.1445 59.3953 31.1178 59.5557C31.091 59.7161 31.0843 59.8698 31.1044 59.9901C31.1244 60.1171 31.1712 60.2106 31.198 60.2775C31.2381 60.3443 31.2581 60.3844 31.2581 60.3844Z" fill="#F8DDD1"/>
<path d="M18.9006 52.9993C19.1612 52.7654 19.4018 52.5181 19.6224 52.2574C20.7117 50.9608 21.4068 49.3903 22.1754 47.8798C22.944 46.3694 23.8329 44.859 25.1896 43.8498C26.5463 42.8339 28.4711 42.4329 29.9548 43.2416C30.2155 43.3886 31.4853 44.2174 32.167 44.6651C33.3099 44.3176 34.7 45.1397 35.1745 46.2959C35.7225 47.6125 35.3951 49.1229 34.9072 50.4596C34.4193 51.7963 33.7576 53.1062 33.6373 54.5231C33.5505 55.5055 33.3566 58.7937 33.2363 60.0703C31.0776 59.5824 31.4452 58.5732 31.5722 57.4504C31.6858 56.4412 32.1804 55.5256 32.568 54.5832C33.0826 53.3401 33.4168 51.9968 33.2898 50.6601C33.2163 49.9116 32.9824 49.163 32.5947 48.5147C32.4945 48.3944 32.441 48.3276 32.441 48.3276C31.9331 47.7061 30.964 47.6459 30.2355 47.9868C29.507 48.3276 28.9857 48.9826 28.5313 49.6375C27.6424 50.9274 26.9139 52.3376 26.3792 53.808C26.025 54.7904 25.7309 55.833 25.0559 56.6283C24.3809 57.4236 23.1645 57.8848 22.269 57.3434L15.2448 54.4696C16.5948 54.5364 17.8847 53.9149 18.9006 52.9993Z" fill="#F8DDD1"/>
<path d="M28.3241 81.5106L28.3375 81.3368L28.4711 81.2232C29.4536 80.3944 30.1487 79.031 30.4294 77.3936C30.6365 76.1839 30.6299 74.9074 30.6165 73.6777C30.6098 73.1497 30.6098 72.6017 30.6232 72.067C30.6432 71.3251 31.1979 70.062 31.6858 68.9459C31.9331 68.3778 32.274 67.6025 32.3007 67.3886C32.2138 66.9876 32.0935 66.6067 31.9398 66.2324C29.9281 69.5941 27.2614 72.0536 23.2514 69.8414C20.6115 68.4379 19.4687 65.1029 18.7602 62.0486C17.6241 62.5432 16.4812 63.1848 15.8262 63.7328C15.8597 65.8381 16.0936 67.9434 16.3275 69.9818C16.6817 73.1096 17.0493 76.3443 16.6683 79.6058L16.6617 79.6526C16.6617 79.6526 13.4202 89.3902 11.8029 94.2357C14.4695 95.9199 17.5439 97.1162 20.7184 97.7043C22.8103 98.0919 24.929 98.2122 27.0275 98.0719C27.2681 95.3718 27.5087 92.1037 27.7426 88.9424C27.9431 86.4095 28.137 83.8096 28.3241 81.5106Z" fill="#1A192D"/>
<path d="M18.279 92.1704C19.9231 84.665 21.5405 79.051 21.2999 70.9374C21.2063 68.1438 21.5071 62.1087 21.5071 62.1087C21.4536 61.9283 21.9749 60.6718 22.0083 60.4646C20.3843 60.6384 16.5681 62.4629 15.4052 63.5389C15.452 68.9591 15.4453 74.5798 15.2448 78.5431C15.0376 82.5063 12.9524 89.457 11.3083 94.4093C13.2131 95.6524 15.2916 96.6282 17.4637 97.3166C17.5305 95.599 17.9048 93.888 18.279 92.1704Z" fill="#3560C1"/>
<path d="M28.7518 81.544C29.9281 80.5482 30.5898 78.9976 30.8504 77.4605C31.1512 75.6827 31.0108 73.8715 31.0509 72.067C31.0777 70.8841 32.8287 67.803 32.7284 67.3152C32.3074 65.27 30.9039 63.7396 28.6516 62.2158L28.2706 61.8014C28.1036 62.7237 27.9097 64.7688 27.9097 64.7688C27.8563 67.9033 28.03 70.0219 28.03 71.4655C28.03 73.7379 23.4787 89.7311 21.9148 98.3058C23.7393 98.5531 25.5973 98.6066 27.4285 98.4529C27.8763 93.5807 28.3107 86.8639 28.7518 81.544Z" fill="#3560C1"/>
<path d="M15.4319 69.1864C15.4252 72.6684 15.3785 75.9566 15.2448 78.5431C15.0376 82.5063 12.9524 89.457 11.3083 94.4094C11.9365 94.817 12.5848 95.198 13.2532 95.5522C11.8229 94.2289 15.8329 79.3451 16.528 79.1179C17.2298 78.8906 19.7962 85.3735 19.7962 85.3735C20.685 81.2097 21.34 77.2332 21.3266 72.4011C19.4219 71.2048 17.457 70.1354 15.4319 69.1864Z" fill="#3056AD"/>
<path d="M31.0509 74.0586C30.5163 75.2883 30.4026 76.6785 30.3358 77.975C30.1019 80.2808 27.9365 81.2031 25.9449 80.9892C25.8914 81.1964 25.8446 81.4036 25.7911 81.6108C26.5664 81.7779 27.7427 81.7043 27.9565 82.4997C28.1905 83.3485 27.7961 85.8547 27.7961 85.8547C27.9499 86.8104 26.005 84.5448 25.1362 84.2106C24.6617 86.1354 24.1671 88.1204 23.7059 90.0585C23.7059 90.0585 27.0409 90.3994 27.3751 91.2014C27.4085 93.4136 27.0342 97.5573 26.0652 98.5263C26.5196 98.513 26.9741 98.4862 27.4286 98.4528C27.863 93.574 28.3041 86.8572 28.7452 81.5439C29.9214 80.5481 30.5831 78.9976 30.8437 77.4604C31.0442 76.3376 31.0576 75.2014 31.0509 74.0586Z" fill="#3056AD"/>
<path d="M16.2807 72.4881C18.4996 76.6852 20.01 79.9667 22.65 83.9099C23.3985 85.0194 24.1738 86.1422 25.2364 86.9575C25.5906 87.2249 26.2122 87.3585 27.1813 87.4254C28.4778 87.5122 34.7669 87.2917 39.4185 87.7261L40.0066 85.407C35.8629 84.2173 32.5346 83.8965 28.391 82.7002C25.7845 78.8506 23.6591 74.8206 21.0259 70.9843L16.2807 72.4881Z" fill="#FAA189"/>
<path d="M38.3291 84.6117C36.5647 84.7186 35.3149 86.0352 35.5355 86.737C35.7627 87.4387 37.2932 88.0803 38.9975 87.0845C39.6391 86.7102 41.2163 85.955 41.3901 85.7679C41.3968 85.7612 40.1002 84.498 38.3291 84.6117Z" fill="#FAA189"/>
<path d="M39.4853 85.1931C39.4853 85.1931 41.9448 85.2465 42.3458 85.32C42.7468 85.3869 44.7852 86.9775 45.3132 87.3518C45.8345 87.726 45.1595 88.3075 44.4511 87.8196C43.7426 87.3384 41.9515 86.229 41.9515 86.229C41.9515 86.229 40.2205 86.3693 39.7794 86.4027C39.3383 86.4295 38.5831 85.4069 39.4853 85.1931Z" fill="#FAA189"/>
<path d="M39.5254 85.7611L41.9715 86.7168C41.9715 86.7168 43.5555 88.0535 43.9899 88.4679C44.4243 88.8822 43.7359 89.3567 43.1745 88.8822C42.6131 88.4077 41.1896 87.5322 41.1896 87.5322C41.1896 87.5322 38.6766 86.777 38.4026 86.7703C38.1219 86.7703 39.5254 85.7611 39.5254 85.7611Z" fill="#FAA189"/>
<path d="M38.035 86.102L40.2739 86.6367C40.2739 86.6367 41.8913 87.9399 42.3324 88.3476C42.7735 88.7553 42.0985 89.2432 41.5237 88.782C40.9489 88.3209 39.512 87.4788 39.512 87.4788C39.512 87.4788 37.3667 87.031 37.086 87.031C36.8053 87.0176 38.035 86.102 38.035 86.102Z" fill="#FAA189"/>
<path d="M37.4001 86.5965L39.3516 87.0576C39.3516 87.0576 40.7618 88.1938 41.1495 88.548C41.5371 88.9022 40.9423 89.33 40.441 88.929C39.9398 88.528 38.6833 87.7928 38.6833 87.7928C38.6833 87.7928 36.812 87.4052 36.5647 87.3985C36.3308 87.3918 37.4001 86.5965 37.4001 86.5965Z" fill="#FAA189"/>
<path d="M22.0551 85.0861C21.3267 83.8296 14.6366 70.3493 13.721 68.2039C12.8054 66.0519 13.5472 64.2741 15.6592 63.3318C17.7711 62.3894 27.4152 79.6926 28.3375 81.3902C29.2598 83.0878 22.7836 86.3426 22.0551 85.0861Z" fill="#3560C1"/>
<path d="M34.6599 53.3001C34.6599 53.2934 35.0341 52.331 35.0609 51.5691C35.0809 50.8741 35.0074 49.8381 34.5128 48.8423L34.9272 48.6351C35.4686 49.7245 35.5488 50.8473 35.5287 51.5959C35.502 52.4045 35.1143 53.4004 35.1077 53.4204L34.6599 53.3001Z" fill="#808080"/>
<path d="M24.2605 49.9853C24.2605 49.9786 24.7618 48.8826 25.1962 48.2677C25.5972 47.6996 26.2789 46.9243 27.2814 46.4231L27.0742 46.0087C25.9848 46.5501 25.243 47.3989 24.8086 48.0071C24.3407 48.6687 23.8328 49.7915 23.8261 49.8116L24.2605 49.9853Z" fill="#808080"/>
<path d="M35.2881 49.4172C34.7735 47.6729 33.4435 46.2025 31.5922 45.581C29.7342 44.9594 27.776 45.3337 26.3123 46.4231L26.847 46.8909C27.1945 46.6503 27.5688 46.4498 27.9631 46.2961C28.4978 46.0956 29.0592 45.982 29.6273 45.9686C30.2154 45.9553 30.8035 46.0421 31.3649 46.2293C31.9263 46.4164 32.4476 46.7038 32.9088 47.0714C33.3566 47.4256 33.7375 47.8533 34.0383 48.3345C34.2588 48.6888 34.4393 49.0697 34.5663 49.464L35.2881 49.4172Z" fill="#999999"/>
<path d="M34.0852 54.8774C33.5973 56.3277 33.2364 57.4973 32.7418 57.3302C32.2473 57.1631 32.5814 55.9668 33.0626 54.5232C33.5505 53.0729 34.005 51.9167 34.4995 52.0838C34.9941 52.2509 34.5664 53.4271 34.0852 54.8774Z" fill="#1A1A1A"/>
<path d="M33.8712 57.2632L33.9715 57.2967C34.1051 57.3434 34.2455 57.2699 34.2923 57.1363L35.5153 53.4872C35.5621 53.3535 35.4886 53.2131 35.3549 53.1664L35.2547 53.1329L33.8712 57.2632Z" fill="#666666"/>
<path d="M35.4781 53.1083L34.5593 52.8002L33.1061 57.1344L34.0249 57.4425L35.4781 53.1083Z" fill="#CCCCCC"/>
<path d="M26.1319 57.0763L24.7284 56.6018C24.7217 56.6018 24.715 56.5951 24.7016 56.5951C23.7927 56.2877 23.4452 55.9669 23.238 55.7196C22.7702 55.1515 22.6899 54.3094 23.0375 53.6611C23.0575 53.621 23.1043 53.6076 23.1444 53.6277C23.1845 53.6477 23.1979 53.6945 23.1778 53.7346C22.857 54.3294 22.9372 55.1047 23.3583 55.626C23.7259 56.0671 24.2806 56.2943 24.7752 56.4614L26.1787 56.9426C26.2188 56.956 26.2388 57.0028 26.2254 57.0429C26.2121 57.0696 26.172 57.0897 26.1319 57.0763Z" fill="#1A1A1A"/>
<path d="M26.6531 57.1898C26.5796 57.4171 26.212 57.4973 25.8378 57.377C25.4635 57.25 25.2229 56.9626 25.2964 56.7354C25.3699 56.5081 25.7375 56.4279 26.1118 56.5482C26.486 56.6819 26.7266 56.9626 26.6531 57.1898Z" fill="#1A1A1A"/>
<path d="M23.7593 51.6092C23.2714 53.0594 22.8571 54.209 23.3516 54.3761C23.8462 54.5431 24.3007 53.3869 24.7886 51.9366C25.2764 50.4864 25.6106 49.29 25.1094 49.1296C24.6148 48.9626 24.2472 50.1589 23.7593 51.6092Z" fill="#1A1A1A"/>
<path d="M22.4961 53.6344L22.3959 53.601C22.2622 53.5542 22.1887 53.4138 22.2355 53.2802L23.4585 49.6311C23.5053 49.4974 23.6457 49.4239 23.7793 49.4707L23.8796 49.5041L22.4961 53.6344Z" fill="#666666"/>
<path d="M22.2599 53.6972L23.1787 54.0052L24.6319 49.6711L23.7131 49.363L22.2599 53.6972Z" fill="#CCCCCC"/>
<path d="M63.826 89.4435H44.0166L50.1519 73.9515C50.339 73.4837 50.8002 73.1629 51.2947 73.1629H69.3665C69.8076 73.1629 70.1017 73.5973 69.9346 74.0184L63.826 89.4435Z" fill="#92B4F5"/>
<path d="M32.9824 88.7485H63.8661L63.8327 89.4369H32.2539C32.274 89.0626 32.6014 88.7485 32.9824 88.7485Z" fill="#3560C1"/>
</g>
<mask id="mask1_1_1722" style="mask-type:luminance" maskUnits="userSpaceOnUse" x="8" y="38" width="203" height="54">
<path d="M210.927 38.5367H8.08018V91.1213H210.927V38.5367Z" fill="white"/>
</mask>
<g mask="url(#mask1_1_1722)">
<path d="M91.5886 76.4179C92.8317 73.0361 93.1258 69.2734 92.8384 65.651C92.6112 62.8106 92.0564 59.9902 91.9696 57.1431C91.8827 54.2893 92.297 51.3219 93.8543 48.9359C95.4115 46.55 98.292 44.8725 101.099 45.3737C103.311 45.768 105.523 47.5258 105.757 49.6778C106.419 50.9075 106.272 52.7789 106.285 54.2225C106.339 60.0036 105.49 65.9384 102.629 70.9576C99.9027 75.7562 95.0907 79.5925 89.6438 80.2274C90.4591 79.0311 91.1007 77.7545 91.5886 76.4179Z" fill="#B82F1C"/>
<path d="M105.924 79.7796C106.82 81.7646 110.509 87.138 111.378 87.7796C111.665 87.9935 112.167 88.0937 112.949 88.1271C113.998 88.1806 118.897 87.9133 122.646 88.194L123.04 86.5098C119.692 85.6075 117.433 84.9325 114.085 84.0302C112.361 80.9559 111.518 78.9041 109.687 74.8005C109.701 74.8072 104.354 76.2976 105.924 79.7796Z" fill="#FAA189"/>
<path d="M123.134 86.8774C122.98 86.7571 121.463 86.8574 121.289 87.1247C121.289 87.1247 121.597 88.0804 121.69 88.6218C121.784 89.1631 123.181 89.7179 123.595 89.905C123.903 90.0454 124.096 89.4438 123.889 89.1565C123.675 88.8691 123.007 88.5416 123.007 88.5416C123.007 88.5416 123.421 87.1047 123.134 86.8774Z" fill="#FAA189"/>
<path d="M123.401 87.94C123.401 87.94 127.144 88.9225 127.893 89.25C128.741 89.6176 129.316 88.9158 128.614 88.6952C127.913 88.4814 123.903 87.0912 123.715 87.0378C123.535 86.991 122.86 87.5658 123.401 87.94Z" fill="#FAA189"/>
<path d="M123.208 87.6125C123.208 87.6125 127.258 88.4479 127.999 88.869C128.474 89.1363 129.223 88.8489 128.541 88.4479C128.173 88.234 125.654 87.1447 124.31 86.5298C123.268 86.0553 121.951 86.1823 121.837 86.1555C121.837 86.1622 122.626 87.265 123.208 87.6125Z" fill="#FAA189"/>
<path d="M121.096 86.9573C121.042 86.1219 121.71 86.0685 122.579 86.2289C123.448 86.3893 127.144 88.0868 127.712 88.2071C128.28 88.3274 127.538 89.0158 127.05 88.8888C126.563 88.7618 124.638 88.1737 123.929 88.1871C123.228 88.2071 121.149 87.873 121.096 86.9573Z" fill="#FAA189"/>
<path d="M107.181 83.4821C106.225 81.6041 103.652 73.9249 102.736 71.412C101.821 68.899 102.249 66.6401 104.04 65.7044C106.412 64.4747 111.826 78.4161 113.049 80.5615C113.924 82.0987 108.137 85.3668 107.181 83.4821Z" fill="#3560C1"/>
<path d="M102.229 64.6685C102.229 64.6685 105.49 79.2048 100.551 76.9391C97.1158 75.3619 93.6337 68.6585 93.5736 66.2926C93.5134 63.9267 96.1066 63.4187 98.3388 63.3652C100.571 63.3118 102.229 64.6685 102.229 64.6685Z" fill="#FAA189"/>
<path d="M101.224 55.0223L94.8566 55.1762L95.1244 66.2539L101.492 66.0999L101.224 55.0223Z" fill="#FAA189"/>
<path d="M94.8635 55.1782L95.0039 60.859C95.0039 60.859 99.2077 64.2876 101.433 63.1848L101.233 55.0245L94.8635 55.1782Z" fill="#E37254"/>
<path d="M103.492 57.5708C103.291 60.0035 100.872 62.3561 100.163 62.2959C97.8176 62.1021 94.8769 58.4129 95.3781 52.3578C95.5786 49.925 100.752 45.8014 104.093 50.2859C105.497 52.1706 103.692 55.138 103.492 57.5708Z" fill="#FAA189"/>
<path d="M99.7557 59.5892C100.07 59.7363 100.377 59.8833 100.691 60.0303C100.752 60.0571 100.785 59.9635 100.725 59.9368C100.411 59.7897 100.103 59.6427 99.7891 59.4957C99.729 59.4689 99.6956 59.5625 99.7557 59.5892Z" fill="#1A1A1A"/>
<path d="M101.42 54.3427C101.373 54.2625 101.346 54.1823 101.326 54.0954C101.306 54.0085 101.293 53.9216 101.3 53.8281C101.346 53.9083 101.373 53.9885 101.393 54.0753C101.413 54.1622 101.427 54.2491 101.42 54.3427Z" fill="#1A1A1A"/>
<path d="M101.346 54.3427C101.293 54.2491 101.246 54.1555 101.193 54.0686C101.139 53.9818 101.086 53.8949 101.026 53.808C101.126 53.8615 101.199 53.9417 101.253 54.0352C101.306 54.1221 101.346 54.229 101.346 54.3427Z" fill="#1A1A1A"/>
<path d="M101.266 54.3426C101.166 54.229 101.072 54.1288 100.979 54.0219C100.885 53.9149 100.785 53.808 100.698 53.6877C100.825 53.7679 100.932 53.8614 101.032 53.9684C101.132 54.082 101.219 54.2023 101.266 54.3426Z" fill="#1A1A1A"/>
<path d="M101.38 54.4364C100.852 54.2292 100.31 54.0822 99.7557 53.9485C99.3948 53.9284 99.0272 53.895 98.6597 53.9017C98.8 53.8549 98.9337 53.7948 99.0673 53.7346C99.6622 53.7814 100.257 53.8282 100.858 53.875L101.38 54.4364Z" fill="#1A1A1A"/>
<path d="M102.509 54.6235C102.489 54.55 102.496 54.4765 102.509 54.403C102.529 54.3295 102.563 54.2626 102.616 54.2092C102.589 54.276 102.563 54.3428 102.549 54.4164C102.529 54.4765 102.523 54.55 102.509 54.6235Z" fill="#1A1A1A"/>
<path d="M102.549 54.5834C102.549 54.5165 102.569 54.4497 102.596 54.3896C102.63 54.3294 102.67 54.2759 102.723 54.2358C102.69 54.296 102.656 54.3495 102.623 54.4096C102.596 54.4564 102.576 54.5165 102.549 54.5834Z" fill="#1A1A1A"/>
<path d="M102.516 54.6302C102.549 54.5901 102.616 54.5166 102.616 54.5166C102.696 54.423 102.777 54.3294 102.857 54.2426C103.191 54.2693 103.585 54.3294 103.96 54.3829C103.532 54.3896 103.097 54.4564 102.69 54.5901C102.69 54.5901 102.596 54.6168 102.509 54.6502C102.503 54.6436 102.509 54.6369 102.516 54.6302Z" fill="#1A1A1A"/>
<path d="M105.53 83.1747L105.51 83.0009L105.617 82.8605C106.406 81.8447 106.807 80.3743 106.746 78.7102C106.7 77.4804 106.432 76.2373 106.172 75.0343C106.058 74.5197 105.944 73.985 105.844 73.4571C105.71 72.7286 105.998 71.3785 106.245 70.1822C106.372 69.574 106.546 68.7453 106.526 68.5314C106.365 68.1572 106.165 67.8029 105.938 67.4688C104.661 71.1714 102.549 74.1254 98.1717 72.782C95.2978 71.9533 93.5 68.9191 92.1834 66.072C91.1742 66.7871 90.1851 67.6492 89.6571 68.3243C90.1182 70.376 90.7799 72.3877 91.4282 74.3393C92.4173 77.3267 93.4332 80.4211 93.7339 83.6893L93.7406 83.7361C93.7406 83.7361 92.5576 93.9282 91.9695 99.0075C94.9236 100.11 98.1783 100.652 101.406 100.571C103.532 100.518 105.637 100.204 107.655 99.6424C107.335 96.949 106.907 93.7009 106.486 90.5598C106.158 88.0535 105.817 85.467 105.53 83.1747Z" fill="#1A192D"/>
<path d="M97.8777 95.6659C97.9512 87.9801 98.3856 82.1522 96.4875 74.2592C95.8259 71.5457 94.8835 65.5708 94.8835 65.5708C94.7967 65.4037 95.0439 64.067 95.0373 63.8599C93.48 64.3611 90.1183 66.9342 89.2027 68.2174C90.3589 73.5173 91.5018 79.0177 92.1166 82.9341C92.7248 86.8506 92.11 94.0887 91.5085 99.2682C93.6271 100.097 95.8593 100.625 98.125 100.852C97.8443 99.1747 97.8643 97.4236 97.8777 95.6659Z" fill="#3560C1"/>
<path d="M105.951 83.1212C106.9 81.9049 107.228 80.2541 107.174 78.6902C107.107 76.8924 106.593 75.1413 106.265 73.3702C106.051 72.2073 107.127 68.8322 106.934 68.3778C106.105 66.4597 104.414 65.25 101.894 64.2207L101.44 63.8932C101.46 64.8289 101.694 66.874 101.694 66.874C102.289 69.955 102.89 71.9868 103.184 73.4037C103.645 75.6225 102.469 92.2106 102.696 100.926C104.534 100.792 106.359 100.465 108.123 99.9432C107.555 95.0844 106.613 88.4145 105.951 83.1212Z" fill="#3560C1"/>
<path d="M90.3856 73.7512C91.0941 77.1597 91.7223 80.3877 92.1166 82.9474C92.7248 86.8639 92.1099 94.102 91.5084 99.2816C92.2102 99.5556 92.9186 99.7962 93.6471 100.003C91.9763 99.0009 93.059 89.8914 93.6939 89.5239C93.9813 89.3568 94.9504 91.1546 95.9729 91.1546C97.5836 91.1546 97.9646 88.6951 97.9646 88.6951C97.9779 84.4378 97.8042 80.4078 96.8017 75.6826C94.7031 74.9141 92.5577 74.2658 90.3856 73.7512Z" fill="#3056AD"/>
<path d="M106.673 75.3217C106.399 76.6383 106.573 78.0217 106.773 79.2982C107.02 81.604 105.082 82.9474 103.091 83.1479C103.084 83.3617 103.077 83.5756 103.064 83.7895C103.853 83.7961 104.995 83.482 105.37 84.2105C105.771 84.9925 105.904 87.5254 105.904 87.5254C106.252 88.4277 103.879 86.6098 102.964 86.4628C102.89 88.4411 102.817 90.4862 102.763 92.4778C102.763 92.4778 106.098 92.1303 106.586 92.8454C107.074 95.0041 107.555 99.1344 106.8 100.284C107.241 100.177 107.682 100.063 108.117 99.9298C107.548 95.0643 106.599 88.401 105.944 83.1078C106.893 81.8914 107.221 80.2406 107.168 78.6767C107.134 77.5539 106.914 76.4378 106.673 75.3217Z" fill="#3056AD"/>
<path d="M92.1767 86.2893C93.0055 87.3386 93.8743 88.3945 94.9971 89.123C95.3714 89.3636 95.9996 89.4505 96.9754 89.4371C98.2786 89.4238 104.528 88.7087 109.199 88.7688L109.607 86.4096C105.383 85.5474 102.041 85.4873 97.8175 84.6318C94.9169 81.0028 89.236 82.5667 92.1767 86.2893Z" fill="#FAA189"/>
<path d="M107.863 85.7478C106.118 85.9951 104.969 87.4053 105.249 88.087C105.53 88.7687 107.107 89.29 108.731 88.1605C109.34 87.7395 110.85 86.8572 111.01 86.6567C111.004 86.6567 109.62 85.5005 107.863 85.7478Z" fill="#FAA189"/>
<path d="M109.059 86.2356C109.059 86.2356 111.512 86.0953 111.919 86.1354C112.327 86.1755 114.486 87.599 115.034 87.9265C115.589 88.2607 114.954 88.8889 114.212 88.4612C113.47 88.0334 111.592 87.071 111.592 87.071C111.592 87.071 109.881 87.3451 109.44 87.4119C109.012 87.4854 108.177 86.523 109.059 86.2356Z" fill="#FAA189"/>
<path d="M109.139 86.8038L111.652 87.559C111.652 87.559 113.336 88.762 113.804 89.1496C114.272 89.5306 113.624 90.0586 113.022 89.6308C112.421 89.2031 110.937 88.4412 110.937 88.4412C110.937 88.4412 108.37 87.8865 108.096 87.8998C107.822 87.9199 109.139 86.8038 109.139 86.8038Z" fill="#FAA189"/>
<path d="M107.682 87.2582L109.954 87.6125C109.954 87.6125 111.665 88.782 112.14 89.1496C112.614 89.5239 111.979 90.0586 111.365 89.6442C110.756 89.2298 109.253 88.5013 109.253 88.5013C109.253 88.5013 107.074 88.2273 106.8 88.2407C106.533 88.2674 107.682 87.2582 107.682 87.2582Z" fill="#FAA189"/>
<path d="M107.087 87.7996L109.072 88.1071C109.072 88.1071 110.563 89.1296 110.977 89.4504C111.391 89.7712 110.837 90.2457 110.302 89.8848C109.774 89.5239 108.464 88.889 108.464 88.889C108.464 88.889 106.566 88.6484 106.325 88.6618C106.085 88.6818 107.087 87.7996 107.087 87.7996Z" fill="#FAA189"/>
<path d="M92.13 88.1338C91.6488 86.7637 87.9796 73.7512 87.4851 71.4655C86.9905 69.1798 89.4433 66.4262 91.6889 65.8983C93.9412 65.3703 98.4391 82.7603 99.0205 84.6049C99.602 86.4496 92.6045 89.5038 92.13 88.1338Z" fill="#3560C1"/>
<path d="M95.0038 62.4563C95.0038 62.4563 95.0239 62.4496 95.064 62.4362C95.1041 62.4229 95.1575 62.4028 95.2244 62.3694C95.358 62.3092 95.5519 62.209 95.759 62.0553C95.9662 61.9015 96.1801 61.6877 96.3739 61.427C96.5677 61.1664 96.7415 60.8523 96.8818 60.5047C97.0155 60.1639 97.1158 59.7829 97.1759 59.4087C97.2026 59.2215 97.2227 59.0277 97.2294 58.8473C97.2294 58.747 97.2361 58.6534 97.2361 58.5532C97.2361 58.4529 97.2361 58.3594 97.2361 58.2591C97.2294 57.8715 97.2026 57.4839 97.1826 57.1096C97.1559 56.7353 97.1358 56.3744 97.1291 56.0469C97.1224 55.7194 97.1291 55.2583 97.1625 54.6902C97.1692 54.5499 97.1826 54.4028 97.196 54.2424C97.2093 54.0887 97.2294 53.9216 97.2494 53.7545C97.2762 53.5875 97.3029 53.4137 97.3363 53.2332C97.3697 53.0528 97.4098 52.8723 97.4633 52.6919C97.5569 52.3243 97.6838 51.9434 97.8509 51.5691C98.018 51.1948 98.2252 50.8139 98.4792 50.4597C98.7331 50.1054 99.0472 49.778 99.4015 49.5106C99.5819 49.377 99.769 49.2567 99.9629 49.1564C100.157 49.0562 100.357 48.9693 100.558 48.9024C100.959 48.7621 101.366 48.6953 101.754 48.6752C101.854 48.6685 101.948 48.6685 102.041 48.6685C102.088 48.6685 102.135 48.6685 102.182 48.6685C102.229 48.6685 102.275 48.6685 102.322 48.6752C102.369 48.6752 102.416 48.6819 102.462 48.6819C102.509 48.6886 102.549 48.6886 102.596 48.6953C102.683 48.7019 102.77 48.7153 102.857 48.722C103.545 48.8156 105.056 49.5641 104.554 49.5039C104.053 49.4438 103.458 49.397 102.83 49.4371C102.516 49.4638 102.195 49.5039 101.888 49.5841C101.58 49.6643 101.279 49.7846 101.005 49.9384C100.872 50.0186 100.745 50.1054 100.625 50.2057C100.504 50.3059 100.391 50.4062 100.29 50.5198C100.09 50.747 99.9228 51.001 99.7891 51.2817C99.6554 51.5557 99.5552 51.8565 99.4817 52.1505C99.4081 52.4513 99.3614 52.752 99.3346 53.0528C99.3213 53.1998 99.3079 53.3469 99.3012 53.4939C99.2945 53.6409 99.2945 53.7813 99.2945 53.9216C99.2945 54.062 99.3012 54.1956 99.3012 54.3293C99.3079 54.463 99.3146 54.5967 99.3213 54.7236C99.348 55.2316 99.3814 55.686 99.3814 56.0202C99.3881 56.3544 99.3747 56.742 99.3413 57.1631C99.3012 57.5841 99.2344 58.0453 99.1274 58.5131C99.1007 58.6334 99.0673 58.747 99.0339 58.8673C99.0005 58.9876 98.9604 59.1012 98.9269 59.2215C98.8467 59.4621 98.7465 59.7027 98.6329 59.93C98.4123 60.3844 98.1316 60.7921 97.8242 61.1396C97.5168 61.4872 97.1759 61.7746 96.8417 61.9817C96.5076 62.1889 96.1801 62.3226 95.8994 62.3961C95.6187 62.4696 95.3914 62.483 95.2377 62.4897C95.1575 62.4897 95.1041 62.4897 95.064 62.4897C95.0239 62.4563 95.0038 62.4563 95.0038 62.4563Z" fill="#B82F1C"/>
<path d="M104.862 49.2433C104.862 49.2433 102.382 48.8824 101.553 49.2032C100.718 49.524 97.6571 52.9125 97.7039 55.265C97.7506 57.6176 95.1642 60.351 94.3622 60.4914C94.3622 60.4914 94.6429 52.6318 94.977 50.2258C95.3045 47.8331 101.614 47.1247 104.862 49.2433Z" fill="#B82F1C"/>
<path d="M100.531 64.8489C100.531 64.8489 100.698 64.5816 100.979 64.1472C101.253 63.7128 101.64 63.1113 102.048 62.4363C102.255 62.1021 102.462 61.7412 102.67 61.3803C102.877 61.0194 103.077 60.6518 103.264 60.2842C103.458 59.9233 103.632 59.5624 103.792 59.2282C103.873 59.0612 103.946 58.8941 104.02 58.7404C104.086 58.58 104.153 58.4329 104.22 58.2926C104.254 58.2191 104.287 58.1455 104.32 58.0587C104.34 58.0186 104.361 57.9718 104.374 57.9317C104.394 57.8849 104.414 57.8381 104.434 57.7913C104.508 57.5975 104.601 57.3836 104.681 57.1497C104.855 56.6752 105.029 56.1205 105.169 55.5056C105.31 54.8907 105.41 54.2224 105.437 53.5273C105.463 52.839 105.416 52.1305 105.283 51.4555C105.263 51.3686 105.249 51.2884 105.229 51.2015L105.216 51.1414C105.209 51.1213 105.203 51.1013 105.203 51.0812C105.189 51.0411 105.183 51.001 105.169 50.9609C105.149 50.8807 105.122 50.8005 105.102 50.7137C105.096 50.6736 105.076 50.6335 105.062 50.5934C105.049 50.5533 105.036 50.5132 105.022 50.4731C104.995 50.3929 104.969 50.3193 104.942 50.2391C104.929 50.199 104.915 50.1656 104.902 50.1255C104.888 50.0854 104.875 50.052 104.855 50.0119C104.795 49.8649 104.721 49.7245 104.648 49.5908C104.354 49.0562 103.966 48.6218 103.579 48.3411C103.478 48.2742 103.385 48.2141 103.284 48.1606C103.191 48.1071 103.091 48.0737 103.004 48.0403C102.823 47.9802 102.656 47.9467 102.516 47.9401C102.449 47.9334 102.382 47.9334 102.329 47.9334C102.275 47.9401 102.229 47.9401 102.195 47.9467C102.122 47.9601 102.081 47.9601 102.081 47.9601C102.081 47.9601 102.122 47.9534 102.195 47.9334C102.229 47.9267 102.275 47.92 102.329 47.9133C102.382 47.9066 102.442 47.9 102.516 47.9C102.656 47.9 102.83 47.9133 103.024 47.9601C103.124 47.9868 103.224 48.0203 103.331 48.0604C103.438 48.1005 103.545 48.1539 103.652 48.2208C104.086 48.4747 104.528 48.8958 104.889 49.4371C104.982 49.5708 105.062 49.7178 105.142 49.8649C105.163 49.905 105.183 49.9384 105.203 49.9785C105.223 50.0186 105.243 50.0587 105.256 50.0921C105.29 50.1723 105.323 50.2525 105.363 50.326C105.383 50.3661 105.396 50.4062 105.416 50.4463C105.437 50.4864 105.45 50.5265 105.463 50.5666C105.49 50.6468 105.523 50.7337 105.557 50.8139C105.57 50.854 105.59 50.9008 105.604 50.9409C105.61 50.9609 105.617 50.981 105.624 51.0077L105.644 51.0746C105.67 51.1614 105.697 51.2483 105.717 51.3352C105.918 52.037 106.025 52.7788 106.051 53.514C106.078 54.2491 106.025 54.9709 105.918 55.6326C105.811 56.2943 105.657 56.8958 105.497 57.4104C105.423 57.6643 105.336 57.8983 105.256 58.1054C105.236 58.1589 105.216 58.2057 105.196 58.2525C105.176 58.2993 105.156 58.346 105.136 58.3928C105.096 58.4797 105.062 58.5666 105.036 58.6401C104.969 58.7871 104.895 58.9475 104.815 59.1079C104.735 59.2683 104.641 59.4354 104.548 59.6092C104.354 59.95 104.14 60.3043 103.906 60.6585C103.672 61.0127 103.418 61.3669 103.164 61.7078C102.904 62.0486 102.65 62.3761 102.396 62.6835C101.888 63.2984 101.413 63.8331 101.072 64.214C100.899 64.4078 100.758 64.5616 100.665 64.6685C100.584 64.7888 100.531 64.8489 100.531 64.8489Z" fill="#B82F1C"/>
<path d="M90.6396 76.0035C90.6396 76.0035 90.6597 75.9701 90.6931 75.91C90.7265 75.8498 90.78 75.7562 90.8334 75.6293C90.9537 75.3887 91.1074 75.0278 91.2678 74.5666C91.4282 74.1055 91.5886 73.5507 91.7357 72.9292C91.8092 72.6151 91.876 72.2876 91.9362 71.9401C91.9963 71.5925 92.0565 71.2383 92.1033 70.864C92.15 70.4964 92.1902 70.1155 92.2236 69.7279C92.257 69.3402 92.277 68.9459 92.2971 68.5516C92.3238 67.763 92.3171 66.9543 92.257 66.179C92.2503 66.0788 92.2436 65.9852 92.2303 65.8916C92.2169 65.7981 92.2102 65.6978 92.1968 65.6042C92.1768 65.4171 92.1434 65.2233 92.1233 65.0361C92.0699 64.6552 92.0231 64.2876 91.9763 63.9267C91.8827 63.2116 91.7958 62.5366 91.7223 61.9351C91.6488 61.3336 91.5619 60.5115 91.4683 59.5358C91.4216 59.0479 91.3815 58.5199 91.3414 57.9585C91.3013 57.3971 91.2679 56.8023 91.2478 56.1874C91.1943 54.951 91.3079 53.6009 91.6622 52.2843C91.749 51.9568 91.8493 51.6294 91.9696 51.3086C92.0832 50.9878 92.2169 50.667 92.3639 50.3595C92.6513 49.738 92.9988 49.1431 93.4065 48.6018C93.8075 48.0604 94.262 47.5659 94.7566 47.1515C95.2578 46.7371 95.7925 46.3963 96.3405 46.1423C96.6145 46.0153 96.8885 45.9017 97.1559 45.8082C97.4299 45.7146 97.6972 45.6411 97.9646 45.5742C98.2319 45.5141 98.4859 45.4673 98.7398 45.4339C98.8 45.4272 98.8668 45.4205 98.927 45.4138C98.9604 45.4072 98.9871 45.4072 99.0205 45.4005C99.0539 45.4005 99.0807 45.3938 99.1141 45.3938C99.1743 45.3871 99.2344 45.3871 99.2946 45.3804C99.3547 45.3804 99.4149 45.3737 99.4683 45.3737C99.9362 45.3537 100.357 45.3804 100.725 45.4272C101.092 45.474 101.413 45.5408 101.667 45.6077C101.921 45.6745 102.122 45.7413 102.249 45.7881C102.115 45.7413 101.921 45.6812 101.66 45.621C101.406 45.5609 101.086 45.5007 100.718 45.4539C100.351 45.4138 99.9295 45.3938 99.4683 45.4205C99.4082 45.4272 99.3547 45.4272 99.2946 45.4339C99.2344 45.4406 99.1743 45.4473 99.1141 45.4539C99.0874 45.4539 99.0539 45.4606 99.0205 45.4606C98.9871 45.4673 98.9604 45.4673 98.927 45.474C98.8668 45.4807 98.8067 45.4874 98.7398 45.5007C98.4926 45.5408 98.2386 45.5876 97.9779 45.6544C97.7173 45.7213 97.45 45.8015 97.1893 45.895C96.922 45.9953 96.6546 46.1089 96.3873 46.2426C95.8526 46.5032 95.3313 46.8508 94.8501 47.2651C94.3689 47.6795 93.9345 48.1741 93.5469 48.7154C93.1592 49.2501 92.8318 49.8382 92.5577 50.4531C92.4174 50.7605 92.2971 51.0746 92.1902 51.3888C92.0832 51.7096 91.9897 52.0304 91.9095 52.3512C91.7491 52.9994 91.6421 53.6544 91.5887 54.296C91.5619 54.6168 91.5419 54.9376 91.5419 55.2517C91.5352 55.5659 91.5485 55.8733 91.5619 56.1807C91.5886 56.7956 91.6288 57.3837 91.6755 57.9384C91.7223 58.4932 91.7691 59.0211 91.8226 59.509C91.9228 60.4848 92.0164 61.3002 92.0899 61.9017C92.1634 62.5032 92.2436 63.1715 92.3238 63.8933C92.3639 64.2542 92.4107 64.6218 92.4575 65.0027C92.4775 65.1899 92.5043 65.3837 92.5243 65.5775C92.5377 65.6778 92.5444 65.7713 92.5511 65.8716C92.5577 65.9718 92.5644 66.0721 92.5711 66.1656C92.6179 66.961 92.6045 67.7763 92.5511 68.5716C92.5243 68.9726 92.4909 69.367 92.4441 69.7546C92.3973 70.1422 92.3439 70.5232 92.2837 70.8974C92.2236 71.2717 92.1567 71.6259 92.0832 71.9735C92.0097 72.321 91.9295 72.6485 91.8493 72.9626C91.6822 73.5908 91.4951 74.1389 91.3213 74.5933C91.1475 75.0478 90.9738 75.402 90.8468 75.6426C90.7866 75.7629 90.7332 75.8565 90.6931 75.9166C90.6597 75.9701 90.6396 76.0035 90.6396 76.0035Z" fill="#F36C59"/>
<path d="M105.951 54.2693C105.951 54.2626 106.118 53.2401 105.991 52.4982C105.871 51.8165 105.584 50.8207 104.895 49.9452L105.256 49.6578C106.011 50.6135 106.319 51.6962 106.446 52.4314C106.586 53.2334 106.412 54.2827 106.412 54.3027L105.951 54.2693Z" fill="#808080"/>
<path d="M95.0908 53.1465C95.0908 53.1398 95.3515 51.9702 95.6522 51.2685C95.9262 50.6335 96.4409 49.7313 97.3164 49.0429L97.029 48.682C96.0733 49.4372 95.5186 50.413 95.2245 51.1014C94.9037 51.8499 94.6364 53.0462 94.6364 53.073L95.0908 53.1465Z" fill="#808080"/>
<path d="M105.771 50.3328C104.909 48.7288 103.305 47.5592 101.366 47.332C99.415 47.1048 97.577 47.8733 96.3673 49.2367L96.9889 49.5843C97.2763 49.2768 97.6038 49.0028 97.9647 48.7756C98.4459 48.4682 98.9738 48.2476 99.5286 48.1139C100.103 47.9803 100.691 47.9469 101.286 48.0137C101.881 48.0805 102.443 48.2543 102.97 48.5149C103.478 48.7689 103.94 49.1098 104.341 49.5241C104.635 49.8249 104.882 50.159 105.089 50.5199L105.771 50.3328Z" fill="#999999"/>
<path d="M105.711 55.9267C105.53 57.4438 105.417 58.6668 104.902 58.6067C104.381 58.5465 104.467 57.3101 104.641 55.793C104.822 54.2759 105.029 53.0528 105.55 53.113C106.065 53.1731 105.891 54.4095 105.711 55.9267Z" fill="#1A1A1A"/>
<path d="M105.991 58.306L106.098 58.3194C106.239 58.3327 106.366 58.2392 106.379 58.0988L106.827 54.2759C106.84 54.1356 106.747 54.0086 106.606 53.9952L106.499 53.9819L105.991 58.306Z" fill="#666666"/>
<path d="M106.708 53.9117L105.746 53.7982L105.21 58.3381L106.173 58.4516L106.708 53.9117Z" fill="#CCCCCC"/>
<path d="M98.379 59.7097L96.9086 59.5292C96.902 59.5292 96.8953 59.5292 96.8819 59.5292C95.9329 59.4156 95.5252 59.175 95.2712 58.9745C94.6965 58.5134 94.4425 57.7047 94.6564 57.0029C94.6697 56.9628 94.7098 56.9361 94.7499 56.9495C94.79 56.9628 94.8168 57.0029 94.8034 57.043C94.6096 57.6913 94.8435 58.4332 95.3715 58.8542C95.8193 59.2151 96.4074 59.3221 96.9287 59.3822L98.399 59.5627C98.4391 59.5693 98.4726 59.6028 98.4659 59.6495C98.4592 59.683 98.4191 59.7097 98.379 59.7097Z" fill="#1A1A1A"/>
<path d="M98.9136 59.7164C98.8868 59.957 98.546 60.1107 98.1517 60.064C97.7573 60.0172 97.4633 59.7899 97.49 59.5493C97.5167 59.3087 97.8576 59.155 98.2519 59.2018C98.6462 59.2486 98.9403 59.4758 98.9136 59.7164Z" fill="#1A1A1A"/>
<path d="M94.9371 54.8442C94.7566 56.3614 94.5829 57.5777 95.1042 57.6379C95.6255 57.698 95.8327 56.475 96.0131 54.9579C96.1936 53.4407 96.2738 52.2043 95.7525 52.1442C95.2312 52.0773 95.1175 53.3271 94.9371 54.8442Z" fill="#1A1A1A"/>
<path d="M94.115 57.083L94.0081 57.0696C93.8678 57.0562 93.7675 56.9293 93.7876 56.7889L94.2353 52.966C94.2487 52.8257 94.3757 52.7254 94.516 52.7455L94.623 52.7588L94.115 57.083Z" fill="#666666"/>
<path d="M93.8964 57.1916L94.8588 57.3051L95.3941 52.7652L94.4317 52.6518L93.8964 57.1916Z" fill="#CCCCCC"/>
<path d="M138.552 89.4436H118.743L124.878 73.9516C125.065 73.4838 125.527 73.163 126.021 73.163H144.093C144.534 73.163 144.828 73.5974 144.661 74.0184L138.552 89.4436Z" fill="#92B4F5"/>
<path d="M107.709 88.7485H138.593L138.559 89.4369H106.98C107 89.0627 107.321 88.7485 107.709 88.7485Z" fill="#3560C1"/>
</g>
<mask id="mask2_1_1722" style="mask-type:luminance" maskUnits="userSpaceOnUse" x="8" y="38" width="203" height="54">
<path d="M210.927 38.5367H8.08018V91.1213H210.927V38.5367Z" fill="white"/>
</mask>
<g mask="url(#mask2_1_1722)">
<path d="M163.314 48.2409C163.314 48.2409 160.287 48.7555 159.431 54.1824C158.576 59.6159 155.983 60.6719 154.198 62.4564C152.414 64.2408 147.769 68.9994 151.271 73.0094L165.226 73.1564C165.226 73.1564 168.548 62.844 169.777 58.2392C171.007 53.6343 167.03 47.4121 163.314 48.2409Z" fill="#2C2E52"/>
<path d="M168.634 80.4545C169.644 82.3793 173.647 87.5322 174.549 88.1136C174.85 88.3074 175.358 88.381 176.14 88.3676C177.189 88.3609 182.068 87.7995 185.824 87.8596L186.125 86.1554C182.73 85.4536 180.437 84.9056 177.042 84.2105C175.144 81.2431 174.175 79.2448 172.11 75.2615C172.11 75.2682 166.863 77.0727 168.634 80.4545Z" fill="#FAA189"/>
<path d="M186.232 86.5228C186.071 86.4092 184.568 86.603 184.4 86.877C184.4 86.877 184.761 87.8127 184.888 88.3473C185.015 88.882 186.439 89.3565 186.867 89.5169C187.187 89.6372 187.341 89.029 187.114 88.755C186.887 88.481 186.192 88.1936 186.192 88.1936C186.192 88.1936 186.539 86.7366 186.232 86.5228Z" fill="#FAA189"/>
<path d="M186.566 87.5723C186.566 87.5723 190.355 88.3275 191.131 88.6149C191.999 88.9357 192.534 88.1938 191.819 88.0201C191.104 87.8463 187.02 86.6968 186.833 86.6567C186.639 86.6166 185.998 87.2314 186.566 87.5723Z" fill="#FAA189"/>
<path d="M186.345 87.258C186.345 87.258 190.435 87.8528 191.204 88.2271C191.692 88.4677 192.427 88.1402 191.719 87.7793C191.344 87.5855 188.758 86.6498 187.381 86.1152C186.312 85.7008 185.002 85.908 184.895 85.8879C184.895 85.8879 185.75 86.9439 186.345 87.258Z" fill="#FAA189"/>
<path d="M184.2 86.7301C184.1 85.9014 184.761 85.8078 185.644 85.9147C186.519 86.0217 190.309 87.4987 190.883 87.5856C191.458 87.6725 190.763 88.4009 190.262 88.3074C189.76 88.2071 187.809 87.7326 187.107 87.7928C186.405 87.8462 184.314 87.639 184.2 86.7301Z" fill="#FAA189"/>
<path d="M170.031 83.4888C169.075 81.6107 166.502 73.9316 165.587 71.4186C164.671 68.9057 165.099 66.6467 166.89 65.7111C169.263 64.4813 174.676 78.4228 175.899 80.5681C176.768 82.1053 170.98 85.3668 170.031 83.4888Z" fill="#3560C1"/>
<path d="M165.072 64.6752C165.072 64.6752 168.334 79.2115 163.395 76.9459C159.959 75.3686 156.477 68.6652 156.417 66.2993C156.357 63.9334 158.95 63.4255 161.182 63.372C163.415 63.3118 165.072 64.6752 165.072 64.6752Z" fill="#FAA189"/>
<path d="M168.374 83.1746L168.354 83.0008L168.461 82.8605C169.249 81.8446 169.65 80.3743 169.59 78.7101C169.543 77.4804 169.276 76.2373 169.015 75.0343C168.902 74.5197 168.788 73.985 168.688 73.457C168.554 72.7285 168.842 71.3785 169.089 70.1822C169.216 69.574 169.39 68.7452 169.37 68.5314C169.209 68.1571 169.009 67.8029 168.781 67.4687C167.505 71.1713 165.393 74.1253 161.015 72.782C158.142 71.9532 156.344 68.919 155.027 66.0719C154.018 66.787 153.029 67.6492 152.501 68.3242C152.962 70.376 153.624 72.3877 154.272 74.3392C155.261 77.3267 156.277 80.4211 156.578 83.6892L156.584 83.736C156.584 83.736 155.401 93.9281 154.813 99.0074C157.767 100.11 161.022 100.652 164.25 100.571C166.375 100.518 168.481 100.204 170.499 99.6424C170.178 96.949 169.75 93.7009 169.329 90.5597C169.002 88.0534 168.661 85.467 168.374 83.1746Z" fill="#1A192D"/>
<path d="M160.721 95.6726C160.795 87.9867 161.229 82.1588 159.331 74.2658C158.67 71.5524 157.727 65.5775 157.727 65.5775C157.64 65.4104 157.888 64.0737 157.881 63.8665C156.324 64.3678 152.962 66.9409 152.046 68.2241C153.203 73.524 154.345 79.0244 154.96 82.9408C155.568 86.8572 154.954 94.0953 154.352 99.2749C156.471 100.104 158.703 100.632 160.969 100.859C160.688 99.1746 160.708 97.4236 160.721 95.6726Z" fill="#3560C1"/>
<path d="M168.795 83.1212C169.744 81.9048 170.071 80.254 170.018 78.6901C169.951 76.8923 169.436 75.1413 169.109 73.3702C168.895 72.2073 169.971 68.8322 169.777 68.3777C168.948 66.4596 167.258 65.2499 164.738 64.2207L164.284 63.8932C164.304 64.8289 164.537 66.874 164.537 66.874C165.132 69.955 165.734 71.9867 166.028 73.4036C166.489 75.6225 165.313 92.2105 165.54 100.926C167.378 100.792 169.202 100.464 170.967 99.9432C170.399 95.0844 169.456 88.4211 168.795 83.1212Z" fill="#3560C1"/>
<path d="M153.229 73.7511C153.938 77.1596 154.566 80.3877 154.96 82.9474C155.568 86.8638 154.954 94.1019 154.352 99.2815C155.054 99.5555 155.762 99.7961 156.491 100.003C154.82 99.0008 155.903 89.8914 156.538 89.5238C156.825 89.3567 157.794 91.1545 158.817 91.1545C160.427 91.1545 160.808 88.6951 160.808 88.6951C160.822 84.4378 160.127 80.9357 159.124 76.2106C157.019 75.442 155.401 74.2657 153.229 73.7511Z" fill="#3056AD"/>
<path d="M169.517 75.3284C169.243 76.645 169.416 78.0284 169.617 79.305C169.864 81.6107 167.926 82.9541 165.934 83.1546C165.928 83.3684 165.921 83.5823 165.908 83.7962C166.696 83.8029 167.839 83.4887 168.213 84.2172C168.614 84.9992 168.748 87.5322 168.748 87.5322C169.096 88.4344 166.723 86.6166 165.807 86.4695C165.734 88.4478 165.66 90.4929 165.607 92.4845C165.607 92.4845 168.942 92.137 169.43 92.8521C169.918 95.0108 170.399 99.1411 169.644 100.291C170.085 100.184 170.526 100.07 170.96 99.9365C170.392 95.071 169.443 88.4077 168.788 83.1145C169.737 81.8981 170.065 80.2473 170.011 78.6834C169.978 77.5606 169.757 76.4378 169.517 75.3284Z" fill="#3056AD"/>
<path d="M155.535 86.8106C156.484 87.753 157.473 88.702 158.676 89.2901C159.077 89.484 159.712 89.4973 160.675 89.3637C161.964 89.1966 168.086 87.7396 172.731 87.245L172.852 84.8524C168.561 84.4982 165.226 84.839 160.935 84.4915C157.62 81.23 152.167 83.4623 155.535 86.8106Z" fill="#FAA189"/>
<path d="M171.842 84.2976C170.078 84.3243 168.768 85.5808 168.955 86.2959C169.149 87.011 170.653 87.7195 172.397 86.7972C173.052 86.4496 174.663 85.7679 174.85 85.5875C174.857 85.5875 173.62 84.2708 171.842 84.2976Z" fill="#FAA189"/>
<path d="M172.972 84.9326C172.972 84.9326 175.425 85.0996 175.826 85.1865C176.227 85.2734 178.192 86.9576 178.693 87.3519C179.194 87.7462 178.492 88.2943 177.811 87.7797C177.129 87.265 175.385 86.0754 175.385 86.0754C175.385 86.0754 173.654 86.1356 173.206 86.1489C172.771 86.1623 172.063 85.1063 172.972 84.9326Z" fill="#FAA189"/>
<path d="M172.985 85.5072L175.385 86.5699C175.385 86.5699 176.908 87.9734 177.323 88.4145C177.737 88.8489 177.029 89.29 176.487 88.7954C175.946 88.2942 174.569 87.3585 174.569 87.3585C174.569 87.3585 172.096 86.4897 171.816 86.4696C171.535 86.4496 172.985 85.5072 172.985 85.5072Z" fill="#FAA189"/>
<path d="M171.482 85.7745L173.694 86.4094C173.694 86.4094 175.244 87.7795 175.672 88.2072C176.1 88.635 175.398 89.0894 174.843 88.6015C174.289 88.1137 172.892 87.2047 172.892 87.2047C172.892 87.2047 170.766 86.6567 170.486 86.6433C170.218 86.6366 171.482 85.7745 171.482 85.7745Z" fill="#FAA189"/>
<path d="M170.827 86.2357L172.758 86.7904C172.758 86.7904 174.115 87.9868 174.482 88.361C174.85 88.7353 174.242 89.1296 173.761 88.7086C173.279 88.2875 172.056 87.4922 172.056 87.4922C172.056 87.4922 170.205 87.0177 169.958 87.0043C169.71 86.9909 170.827 86.2357 170.827 86.2357Z" fill="#FAA189"/>
<path d="M154.974 88.1337C154.492 86.7636 150.823 73.7511 150.329 71.4654C149.834 69.1797 152.287 66.4262 154.533 65.8982C156.778 65.3702 160.915 82.2123 161.503 84.0569C162.091 85.8948 155.448 89.5038 154.974 88.1337Z" fill="#3560C1"/>
<path d="M171.776 53.9283C171.876 54.3828 170.766 59.8631 169.022 62.1354C168.588 62.7035 168.073 63.2181 167.445 63.5256C166.817 63.833 165.974 63.706 165.346 63.3986C166.349 63.4721 167.184 62.3493 168.187 60.7787C168.895 59.6626 169.51 56.6284 169.71 55.5323C169.904 54.4429 171.675 53.4805 171.776 53.9283Z" fill="#2C2E52"/>
<path d="M167.202 56.2883L161.12 54.3992L157.833 64.9816L163.916 66.8707L167.202 56.2883Z" fill="#FAA189"/>
<path d="M161.116 54.4029L159.431 59.8298C159.431 59.8298 162.325 64.4212 164.778 64.0871L167.197 56.2943L161.116 54.4029Z" fill="#E37254"/>
<path d="M169.116 59.1214C168.761 61.5341 166.195 63.7262 165.493 63.626C163.167 63.2851 160.467 59.4155 161.35 53.4071C161.704 50.9944 167.131 47.205 170.178 51.8967C171.461 53.8616 169.47 56.7087 169.116 59.1214Z" fill="#FAA189"/>
<path d="M165.253 60.8992C165.554 61.0663 165.854 61.2334 166.155 61.3938C166.208 61.4272 166.249 61.3336 166.195 61.3002C165.894 61.1331 165.594 60.9661 165.293 60.8057C165.239 60.7789 165.199 60.8725 165.253 60.8992Z" fill="#1A1A1A"/>
<path d="M167.251 55.7729C167.211 55.6927 167.184 55.6059 167.171 55.519C167.157 55.4321 167.151 55.3452 167.164 55.2516C167.204 55.3318 167.231 55.4187 167.244 55.5056C167.251 55.5925 167.264 55.6794 167.251 55.7729Z" fill="#1A1A1A"/>
<path d="M167.178 55.7664C167.131 55.6661 167.091 55.5726 167.044 55.4857C166.997 55.3921 166.944 55.3052 166.89 55.2117C166.984 55.2651 167.057 55.3587 167.104 55.4523C167.157 55.5458 167.184 55.6528 167.178 55.7664Z" fill="#1A1A1A"/>
<path d="M167.104 55.7596C167.01 55.646 166.923 55.5324 166.837 55.4188C166.75 55.3052 166.656 55.1982 166.576 55.0712C166.696 55.1581 166.797 55.265 166.89 55.3787C166.977 55.4923 167.064 55.6193 167.104 55.7596Z" fill="#1A1A1A"/>
<path d="M167.204 55.86C166.69 55.6194 166.162 55.4323 165.62 55.2652C165.259 55.2184 164.892 55.1649 164.531 55.1449C164.671 55.1048 164.812 55.058 164.952 54.9979C165.547 55.0847 166.135 55.165 166.73 55.2518L167.204 55.86Z" fill="#1A1A1A"/>
<path d="M168.32 56.1138C168.307 56.0403 168.314 55.9668 168.34 55.8933C168.367 55.8197 168.401 55.7529 168.454 55.7061C168.421 55.7729 168.394 55.8398 168.374 55.9066C168.347 55.9734 168.34 56.0403 168.32 56.1138Z" fill="#1A1A1A"/>
<path d="M168.367 56.0806C168.367 56.0138 168.394 55.9469 168.427 55.8868C168.461 55.8266 168.507 55.7732 168.568 55.7397C168.528 55.7932 168.494 55.8467 168.461 55.9068C168.421 55.9603 168.394 56.0204 168.367 56.0806Z" fill="#1A1A1A"/>
<path d="M168.327 56.1272C168.36 56.0871 168.434 56.0203 168.434 56.0203C168.521 55.9334 168.601 55.8465 168.688 55.7596C169.015 55.8064 169.41 55.8933 169.777 55.9735C169.35 55.9468 168.915 55.9936 168.494 56.1005C168.494 56.1005 168.401 56.1272 168.307 56.1473C168.314 56.1406 168.32 56.1339 168.327 56.1272Z" fill="#1A1A1A"/>
<path d="M168.033 47.6191C164.798 46.5096 161.597 48.1604 160.908 50.4528C160.22 52.7385 159.806 54.1287 159.806 54.1287C159.806 54.1287 160.267 54.2891 160.741 54.2891C161.229 53.193 161.597 52.0301 161.597 52.0301C161.383 52.7853 161.777 53.5071 162.539 53.9081C164.651 55.0175 169.042 53.7143 169.042 53.7143C169.042 53.7143 169.243 56.1938 170.145 56.147C170.111 56.4879 169.37 58.3926 169.37 58.3926C170.198 58.7669 170.659 57.8045 170.659 57.8045L171.796 54.0217C172.357 52.1437 171.274 48.7285 168.033 47.6191Z" fill="#2C2E52"/>
<path d="M161.824 49.2433C159.284 51.6493 158.382 54.7971 158.349 57.9717C158.342 58.7604 158.436 59.5824 158.777 60.3376C159.117 61.0862 160.655 62.5833 161.41 62.8773C160.481 62.102 159.806 59.6626 160.013 57.6443C160.16 56.2073 161.711 53.407 162.285 52.4179C162.86 51.4221 161.824 49.2433 161.824 49.2433Z" fill="#2C2E52"/>
<path d="M171.548 56.2005C171.548 56.1938 171.923 55.2247 171.943 54.4695C171.963 53.7744 171.876 52.7452 171.375 51.7494L171.789 51.5422C172.337 52.6249 172.424 53.7477 172.404 54.4962C172.384 55.3049 172.003 56.3007 171.996 56.3208L171.548 56.2005Z" fill="#808080"/>
<path d="M161.129 52.9457C161.129 52.939 161.624 51.843 162.058 51.2214C162.452 50.6533 163.134 49.8714 164.13 49.3701L163.923 48.9557C162.84 49.5038 162.098 50.3526 161.67 50.9674C161.209 51.6358 160.708 52.7586 160.701 52.7786L161.129 52.9457Z" fill="#808080"/>
<path d="M172.157 52.3109C171.629 50.5732 170.292 49.1029 168.434 48.4947C166.569 47.8798 164.618 48.2741 163.161 49.3702L163.702 49.8313C164.043 49.5907 164.417 49.3836 164.818 49.2298C165.353 49.0227 165.914 48.909 166.482 48.8957C167.07 48.8756 167.659 48.9625 168.227 49.1496C168.795 49.3368 169.316 49.6175 169.777 49.9784C170.225 50.3326 170.606 50.7536 170.92 51.2348C171.147 51.5891 171.328 51.9633 171.455 52.3576L172.157 52.3109Z" fill="#999999"/>
<path d="M170.987 57.7779C170.513 59.2282 170.158 60.4044 169.657 60.244C169.156 60.0836 169.483 58.8806 169.964 57.4304C170.446 55.9801 170.887 54.8239 171.388 54.9843C171.883 55.1513 171.462 56.3276 170.987 57.7779Z" fill="#1A1A1A"/>
<path d="M170.787 60.1638L170.887 60.1972C171.02 60.244 171.161 60.1705 171.208 60.0368L172.411 56.381C172.457 56.2473 172.384 56.107 172.25 56.0602L172.15 56.0268L170.787 60.1638Z" fill="#666666"/>
<path d="M172.363 56.013L171.442 55.7103L170.014 60.0532L170.935 60.3558L172.363 56.013Z" fill="#CCCCCC"/>
<path d="M163.047 60.0234L161.637 59.5555C161.63 59.5555 161.624 59.5488 161.61 59.5488C160.701 59.2481 160.347 58.9273 160.147 58.68C159.679 58.1186 159.592 57.2698 159.933 56.6215C159.953 56.5814 160 56.5681 160.033 56.5881C160.073 56.6082 160.086 56.655 160.066 56.6884C159.752 57.2832 159.833 58.0585 160.26 58.5798C160.628 59.0209 161.183 59.2481 161.684 59.4085L163.094 59.8763C163.134 59.8897 163.154 59.9298 163.141 59.9699C163.127 60.0167 163.087 60.0367 163.047 60.0234Z" fill="#1A1A1A"/>
<path d="M163.568 60.137C163.495 60.3642 163.127 60.4511 162.753 60.3241C162.379 60.2038 162.132 59.9164 162.212 59.6892C162.285 59.462 162.653 59.3751 163.027 59.5021C163.401 59.6224 163.642 59.9097 163.568 60.137Z" fill="#1A1A1A"/>
<path d="M160.641 54.5699C160.167 56.0202 159.752 57.1764 160.247 57.3435C160.741 57.5039 161.189 56.3476 161.67 54.8974C162.145 53.4471 162.472 52.2508 161.978 52.0837C161.483 51.9233 161.122 53.1196 160.641 54.5699Z" fill="#1A1A1A"/>
<path d="M159.391 56.6084L159.291 56.575C159.158 56.5282 159.084 56.3879 159.131 56.2542L160.334 52.5984C160.381 52.4647 160.521 52.3912 160.655 52.438L160.755 52.4714L159.391 56.6084Z" fill="#666666"/>
<path d="M159.154 56.6596L160.075 56.9622L161.502 52.6194L160.582 52.3167L159.154 56.6596Z" fill="#CCCCCC"/>
<path d="M201.396 89.4435H181.587L187.722 73.9515C187.909 73.4837 188.37 73.1629 188.865 73.1629H206.943C207.384 73.1629 207.678 73.5973 207.511 74.0184L201.396 89.4435Z" fill="#92B4F5"/>
<path d="M170.553 88.7552H201.436L201.403 89.4436H169.824C169.844 89.0627 170.165 88.7552 170.553 88.7552Z" fill="#3560C1"/>
</g>
<path d="M209.59 92.0636H1.33667C0.601501 92.0636 0 91.4621 0 90.7269C0 89.9918 0.601501 89.3903 1.33667 89.3903H209.59C210.325 89.3903 210.926 89.9918 210.926 90.7269C210.92 91.4621 210.325 92.0636 209.59 92.0636Z" fill="#1A3160"/>
<path d="M217.663 94.463H9.41019C8.67502 94.463 8.07352 93.8615 8.07352 93.1263C8.07352 92.3912 8.67502 91.7897 9.41019 91.7897H217.663C218.398 91.7897 219 92.3912 219 93.1263C219 93.8615 218.398 94.463 217.663 94.463Z" fill="#1A3160"/>
<path d="M137.142 96.4814H4.57816C3.99002 96.4814 3.5155 96.0002 3.5155 95.4187V94.8841C3.5155 94.2959 3.9967 93.8214 4.57816 93.8214H137.142C137.731 93.8214 138.205 94.3026 138.205 94.8841V95.4187C138.212 96.0069 137.731 96.4814 137.142 96.4814Z" fill="#1A3160"/>
<path d="M172.25 99.0545H39.6791C39.0909 99.0545 38.6164 98.5733 38.6164 97.9919V97.4572C38.6164 96.8691 39.0976 96.3945 39.6791 96.3945H172.243C172.831 96.3945 173.306 96.8757 173.306 97.4572V97.9919C173.313 98.5733 172.831 99.0545 172.25 99.0545Z" fill="#1A3160"/>
<path d="M120.628 100.939H57.1093C56.7016 100.939 56.3674 100.605 56.3674 100.197V99.0078C56.3674 98.6001 56.7016 98.2659 57.1093 98.2659H120.628C121.036 98.2659 121.37 98.6001 121.37 99.0078V100.197C121.37 100.605 121.036 100.939 120.628 100.939Z" fill="#1A3160"/>
</svg>
