<svg width="191" height="123" viewBox="0 0 191 123" fill="none" xmlns="http://www.w3.org/2000/svg">
<path d="M27.371 122.158C27.371 122.158 11.7923 112.455 14.6213 74.5252C16.7566 45.9317 38.3595 7.68244 82.859 1.28418C112.715 -3.00991 111.304 19.7854 144.091 25.1861C185.862 32.0675 206.795 81.0715 176.994 121.519L27.371 122.158Z" fill="#CAEFFF"/>
<path d="M128.793 81.2664C128.793 81.2664 141.909 82.9263 149.795 68.2361C149.803 68.2361 130.094 66.7242 128.793 81.2664Z" fill="#7FC6A6"/>
<path d="M132.892 68.2593C132.954 68.2905 133.001 68.3606 133.001 68.4386C133.001 68.5477 132.915 68.6334 132.806 68.6334H132.627C132.042 69.4907 131.598 70.457 131.395 71.5169H132.806C132.915 71.5169 133.001 71.6026 133.001 71.7117C133.001 71.8208 132.915 71.9066 132.806 71.9066H131.333C131.185 73.021 131.31 74.2445 131.816 75.5694C131.816 75.5694 139.08 73.0911 139.454 63.4197C139.454 63.4197 135.276 65.0797 132.892 68.2593Z" fill="#3F9896"/>
<path d="M93.9255 61.573C93.9255 61.573 88.9456 58.6739 90.1146 51.4963C90.1146 51.4963 97.3311 56.2034 93.9255 61.573Z" fill="#3F9896"/>
<path d="M95.3048 66.2099C95.3048 66.2099 85.4074 65.4773 81.7913 53.4991C81.7913 53.4991 96.5128 55.3227 95.3048 66.2099Z" fill="#7FC6A6"/>
<path d="M57.9128 122.267C57.5621 121.986 51.3509 111.037 47.5322 116.352C47.5322 116.352 41.7964 96.8684 33.9252 97.788C26.0618 98.7076 32.7172 113.164 32.7172 113.164C32.7172 113.164 25.9838 110.397 27.5425 117.7C27.5425 117.7 18.9699 116.141 19.609 122.306L57.9128 122.267Z" fill="#3F9896"/>
<path d="M25.9864 107.265C26.6657 106.702 26.3658 105.22 25.3165 103.954C24.2672 102.688 22.8659 102.118 22.1865 102.681C21.5072 103.244 21.8072 104.727 22.8565 105.993C23.9058 107.259 25.3071 107.828 25.9864 107.265Z" fill="#3F9896"/>
<path d="M23.7082 108.933C24.3317 109.681 24.5109 110.561 24.1057 110.889C23.7082 111.224 22.8744 110.881 22.2587 110.133C21.6352 109.385 21.456 108.504 21.8612 108.177C22.2587 107.849 23.0926 108.184 23.7082 108.933Z" fill="#3F9896"/>
<path d="M33.0289 114.583C33.0523 114.575 33.0678 114.567 33.0834 114.552C33.1068 114.513 33.099 114.466 33.06 114.435C32.9899 114.388 31.3611 113.312 29.9272 113.624C29.8804 113.632 29.857 113.679 29.8648 113.726C29.8726 113.772 29.9194 113.796 29.9661 113.788C31.3299 113.492 32.9587 114.567 32.9743 114.575C32.9899 114.583 33.0133 114.591 33.0289 114.583Z" fill="black"/>
<path d="M31.9378 114.707C31.9612 114.7 31.9768 114.692 31.9924 114.676C32.0158 114.637 32.008 114.591 31.969 114.559C31.9378 114.536 31.1819 114.053 29.8492 114.131C29.8025 114.131 29.7713 114.17 29.7713 114.216C29.7713 114.263 29.8103 114.294 29.857 114.294C31.1429 114.216 31.8677 114.684 31.8755 114.692C31.8911 114.707 31.9144 114.715 31.9378 114.707Z" fill="black"/>
<path d="M52.364 117.887C52.3874 117.887 52.403 117.879 52.4186 117.864C52.4498 117.832 52.4498 117.778 52.4186 117.747C52.364 117.684 50.9924 116.289 49.5273 116.289C49.4805 116.289 49.4416 116.328 49.4416 116.375C49.4416 116.422 49.4805 116.461 49.5273 116.461C50.9223 116.461 52.2861 117.856 52.2939 117.864C52.3251 117.879 52.3407 117.887 52.364 117.887Z" fill="black"/>
<path d="M51.2652 117.778C51.2886 117.778 51.3041 117.77 51.3197 117.754C51.3509 117.723 51.3509 117.669 51.3197 117.637C51.2963 117.614 50.6573 116.975 49.3324 116.772C49.2857 116.765 49.2467 116.796 49.2389 116.843C49.2311 116.889 49.2623 116.928 49.3091 116.936C50.5794 117.131 51.195 117.747 51.2028 117.754C51.2262 117.77 51.2496 117.778 51.2652 117.778Z" fill="black"/>
<path d="M142.018 122.197C142.376 121.916 148.619 110.99 152.422 116.321C152.422 116.321 158.235 96.8608 166.091 97.8037C173.947 98.7467 167.237 113.18 167.237 113.18C167.237 113.18 173.978 110.444 172.396 117.731C172.396 117.731 180.976 116.204 180.314 122.368L142.018 122.197Z" fill="#3F9896"/>
<path d="M177.145 106.045C178.199 104.783 178.504 103.302 177.827 102.736C177.15 102.171 175.746 102.735 174.692 103.997C173.639 105.259 173.333 106.741 174.011 107.306C174.688 107.872 176.091 107.307 177.145 106.045Z" fill="#3F9896"/>
<path d="M177.72 110.199C178.344 109.453 178.525 108.577 178.125 108.243C177.726 107.909 176.896 108.244 176.272 108.99C175.649 109.737 175.468 110.613 175.867 110.947C176.267 111.281 177.097 110.946 177.72 110.199Z" fill="#3F9896"/>
<path d="M166.925 114.606C166.902 114.598 166.886 114.59 166.87 114.575C166.847 114.536 166.855 114.489 166.894 114.458C166.964 114.411 168.6 113.343 170.027 113.655C170.073 113.663 170.097 113.71 170.089 113.756C170.081 113.803 170.034 113.827 169.988 113.819C168.624 113.515 166.995 114.582 166.979 114.598C166.972 114.606 166.948 114.614 166.925 114.606Z" fill="black"/>
<path d="M168.024 114.731C168 114.723 167.985 114.715 167.969 114.692C167.946 114.653 167.954 114.606 167.993 114.575C168.024 114.551 168.78 114.068 170.12 114.154C170.167 114.154 170.198 114.193 170.198 114.24C170.198 114.286 170.159 114.318 170.112 114.318C168.826 114.232 168.094 114.707 168.086 114.707C168.063 114.731 168.039 114.738 168.024 114.731Z" fill="black"/>
<path d="M147.582 117.84C147.559 117.84 147.543 117.832 147.527 117.817C147.496 117.786 147.496 117.731 147.527 117.7C147.582 117.638 148.954 116.25 150.419 116.25C150.466 116.25 150.504 116.289 150.504 116.336C150.504 116.383 150.466 116.422 150.419 116.422C149.024 116.414 147.66 117.801 147.644 117.817C147.621 117.832 147.598 117.84 147.582 117.84Z" fill="black"/>
<path d="M148.673 117.731C148.65 117.731 148.634 117.723 148.619 117.708C148.587 117.677 148.587 117.622 148.619 117.591C148.642 117.567 149.281 116.928 150.606 116.734C150.653 116.726 150.692 116.757 150.699 116.804C150.707 116.85 150.676 116.889 150.629 116.897C149.359 117.084 148.743 117.7 148.735 117.708C148.72 117.723 148.696 117.731 148.673 117.731Z" fill="black"/>
<path d="M160.924 80.2611C164.166 80.0897 175.256 79.6221 182.847 80.7443C183.828 80.8924 184.46 79.7078 183.774 78.983C183.376 78.5622 182.698 78.2115 181.553 78.1336C181.553 78.1336 181.942 71.0495 176.596 70.5819C170.455 70.0442 170.385 77.0036 170.385 77.0036C170.385 77.0036 167.595 74.3538 165.584 77.7127C165.584 77.7127 162.109 75.7021 160.355 79.4117C160.168 79.8247 160.48 80.2845 160.924 80.2611Z" fill="white"/>
<path d="M157.963 54.2863C155.11 54.1226 148.424 53.8343 142.61 54.3252C140.202 54.5279 138.129 52.6107 138.183 50.1948C138.207 49.2051 138.557 48.0595 139.477 46.758C143.007 41.7469 149.141 46.532 149.086 49.0804C149.086 49.0804 150.325 45.2461 154.097 45.9163C157.861 46.5865 156.529 52.1587 156.529 52.1587C156.529 52.1587 157.744 51.9015 158.586 52.4782C159.404 53.0471 158.96 54.3486 157.963 54.2863Z" fill="white"/>
<path d="M141.589 100.445C141.589 100.445 137.116 111.691 140.864 120.201L54.9124 120.926L46.9788 120.201L39.9883 115.868V109.236L41.9288 103.758L48.2725 100.438H141.589V100.445Z" fill="white"/>
<path d="M50.8989 122.017H143.756C144.363 122.017 144.854 121.526 144.854 120.918C144.854 120.311 144.363 119.82 143.756 119.82H50.8989C45.2956 119.82 40.7365 115.588 40.7365 110.39C40.7365 105.192 45.2878 100.968 50.8989 100.968H143.756C144.363 100.968 144.854 100.477 144.854 99.8688C144.854 99.261 144.363 98.77 143.756 98.77H50.8989C44.0876 98.77 38.5466 103.984 38.5466 110.39C38.5388 116.804 44.0876 122.017 50.8989 122.017Z" fill="#FF424D"/>
<path d="M40.4559 113.149L41.6249 112.33L41.7574 113.975L40.4559 113.149Z" fill="#FF424D"/>
<path d="M140.334 110.639H94.7672C94.6347 110.639 94.5256 110.53 94.5256 110.398C94.5256 110.265 94.6347 110.156 94.7672 110.156H140.334C140.467 110.156 140.576 110.265 140.576 110.398C140.576 110.53 140.467 110.639 140.334 110.639Z" fill="#AAC9F8"/>
<path d="M88.3455 110.639H44.072C43.9395 110.639 43.8304 110.53 43.8304 110.398C43.8304 110.265 43.9395 110.156 44.072 110.156H88.3455C88.478 110.156 88.5871 110.265 88.5871 110.398C88.5871 110.53 88.478 110.639 88.3455 110.639Z" fill="#AAC9F8"/>
<path d="M67.9739 115.004H45.2643C45.1318 115.004 45.0227 114.894 45.0227 114.762C45.0227 114.629 45.1318 114.52 45.2643 114.52H67.9817C68.1141 114.52 68.2233 114.629 68.2233 114.762C68.2155 114.894 68.1142 115.004 67.9739 115.004Z" fill="#AAC9F8"/>
<path d="M140.334 115.004H71.3094C71.1769 115.004 71.0678 114.894 71.0678 114.762C71.0678 114.629 71.1769 114.52 71.3094 114.52H140.334C140.467 114.52 140.576 114.629 140.576 114.762C140.576 114.894 140.467 115.004 140.334 115.004Z" fill="#AAC9F8"/>
<path d="M143.756 122.267H50.8989C43.9551 122.267 38.2972 116.944 38.2972 110.397C38.2972 103.851 43.9473 98.5283 50.8989 98.5283H143.756C144.496 98.5283 145.096 99.1284 145.096 99.8687C145.096 100.609 144.496 101.209 143.756 101.209C143.623 101.209 143.514 101.1 143.514 100.968C143.514 100.835 143.623 100.726 143.756 100.726C144.223 100.726 144.605 100.344 144.605 99.8765C144.605 99.4089 144.223 99.0271 143.756 99.0271H50.8989C44.2201 99.0271 38.7882 104.132 38.7882 110.405C38.7882 116.679 44.2201 121.783 50.8989 121.783H143.756C144.223 121.783 144.605 121.401 144.605 120.934C144.605 120.466 144.223 120.084 143.756 120.084C143.623 120.084 143.514 119.975 143.514 119.843C143.514 119.71 143.623 119.601 143.756 119.601C144.496 119.601 145.096 120.201 145.096 120.942C145.096 121.666 144.496 122.267 143.756 122.267Z" fill="#21111D"/>
<path d="M87.9091 106.283C87.9091 106.283 90.8315 113.569 89.1482 118.931L86.7712 115.261C86.7712 115.261 85.1502 117.209 84.1527 118.931C84.1527 118.931 82.3369 106.953 78.8221 106.283H87.9091Z" fill="#3F9896"/>
<path d="M140.334 106.283H45.2643C45.1318 106.283 45.0227 106.174 45.0227 106.041C45.0227 105.909 45.1318 105.8 45.2643 105.8H140.334C140.467 105.8 140.576 105.909 140.576 106.041C140.576 106.174 140.467 106.283 140.334 106.283Z" fill="#AAC9F8"/>
<path d="M40.978 60.2635C40.978 51.6598 34.0031 44.6926 25.4071 44.6926C16.8034 44.6926 9.8362 51.6676 9.8362 60.2635C9.8362 64.5265 11.5507 68.3919 14.3329 71.2053C14.3329 71.2053 19.0478 76.2475 20.6377 81.7418C20.6377 81.7418 23.3575 82.6692 25.4149 82.7159C27.4723 82.6614 30.1922 81.7418 30.1922 81.7418C31.782 76.2475 36.4969 71.2053 36.4969 71.2053C39.2635 68.3997 40.978 64.5343 40.978 60.2635Z" fill="#FECC86"/>
<path d="M20.209 80.5026V84.5317C20.209 86.4332 21.3546 88.062 22.999 88.7634C23.1393 89.9636 24.1602 90.891 25.3993 90.891C26.6384 90.891 27.6594 89.9636 27.7996 88.7634C29.444 88.062 30.5896 86.4332 30.5896 84.5317V80.5026H20.209Z" fill="#4CB7D8"/>
<g opacity="0.3">
<path d="M40.978 60.2635C40.978 57.076 40.0194 54.1146 38.3751 51.6441C33.8238 62.8664 26.5527 70.4181 16.0942 73.3406C17.4112 75.0707 19.1569 77.6736 20.2168 80.4948H30.5896C32.46 75.5071 36.4813 71.2052 36.4813 71.2052C39.2635 68.3996 40.978 64.5342 40.978 60.2635Z" fill="#FECC86"/>
</g>
<path d="M27.9477 80.5649L27.5035 80.4402C27.5191 80.3857 28.9687 75.0473 29.974 69.5764C31.7197 60.0842 30.7143 58.0736 29.9584 57.7151C29.1869 57.3488 28.579 57.4189 28.1582 57.9099C28.127 57.9489 28.0958 57.9801 28.0724 58.019C29.1635 58.6581 29.4207 59.6478 29.4908 60.0453C29.6623 61.1441 29.1713 62.2508 28.392 62.5001C28.2049 62.5625 27.8386 62.5937 27.5269 62.1183C27.0281 61.3623 26.8723 59.4841 27.4334 58.2294C26.8957 58.0112 26.2488 57.8943 25.5007 57.8943H25.0486C24.3005 57.8943 23.6537 58.0112 23.1159 58.2294C23.677 59.4841 23.5212 61.3701 23.0224 62.1183C22.7107 62.5937 22.3444 62.5625 22.1574 62.5001C21.378 62.2508 20.8871 61.1519 21.0585 60.0453C21.1208 59.6478 21.3858 58.6581 22.4769 58.019C22.4457 57.9801 22.4223 57.9411 22.3911 57.9099C21.9625 57.4189 21.3624 57.3566 20.5909 57.7151C19.835 58.0736 18.8296 60.0842 20.5753 69.5764C21.5807 75.0473 23.038 80.3857 23.0458 80.4402L22.6016 80.5649C22.586 80.5103 21.1286 75.1564 20.1155 69.6699C18.7205 62.0949 18.8063 58.0502 20.3883 57.3098C21.6118 56.7331 22.3444 57.1618 22.7341 57.6216C22.7886 57.6839 22.8432 57.7541 22.8899 57.8242C23.4354 57.5904 24.1368 57.4423 25.0486 57.4423H25.5007C26.4125 57.4423 27.1139 57.5904 27.6594 57.8242C27.7061 57.7541 27.7607 57.6839 27.8153 57.6216C28.2127 57.1618 28.9453 56.7331 30.161 57.3098C31.7353 58.0502 31.8288 62.0949 30.4338 69.6699C29.4207 75.1564 27.9633 80.5103 27.9477 80.5649ZM22.6951 58.4321C22.0405 58.8139 21.6196 59.3906 21.5105 60.1232C21.3624 61.0818 21.7911 61.9001 22.2976 62.0637C22.3444 62.0793 22.4691 62.1183 22.6327 61.8689C23.0614 61.222 23.1705 59.5231 22.6951 58.4321ZM27.8464 58.4321C27.371 59.5153 27.4879 61.222 27.9088 61.8611C28.0724 62.1105 28.1971 62.0715 28.2439 62.0559C28.7427 61.8923 29.1791 61.074 29.031 60.1154C28.9141 59.3984 28.5011 58.8217 27.8464 58.4321Z" fill="#F99247"/>
<path d="M20.1389 80.6116C20.0142 80.2531 19.9597 80.1284 19.835 79.84L19.7648 79.6842C17.8165 75.1407 14.2784 71.3298 14.2394 71.2908L14.2316 71.2752C11.3169 68.3216 9.71932 64.4094 9.71932 60.2634C9.71932 51.6129 16.7566 44.5756 25.4071 44.5756C30.7221 44.5756 35.6319 47.2331 38.5388 51.683L38.3439 51.8077C35.476 47.4201 30.6364 44.8094 25.3993 44.8094C16.8735 44.8094 9.94533 51.7454 9.94533 60.2634C9.94533 64.3548 11.5274 68.2125 14.4031 71.1272L14.5511 71.283H14.5433C15.2214 72.039 18.2296 75.5304 19.9752 79.5906L20.0454 79.7465C20.1701 80.0349 20.2246 80.1674 20.3571 80.5336L20.1389 80.6116Z" fill="#21111D"/>
<path d="M14.5277 53.078L14.3095 53.0157C14.3173 52.9767 15.4707 49.1424 19.344 47.7007L19.4219 47.9189C15.6655 49.3139 14.5433 53.039 14.5277 53.078Z" fill="#21111D"/>
<path d="M15.2446 54.4652L15.0264 54.4029C15.0342 54.3639 16.1876 50.5296 20.0609 49.0879L20.1388 49.3061C16.3747 50.7011 15.2524 54.4263 15.2446 54.4652Z" fill="#21111D"/>
<path d="M25.9682 89.2544H24.8382C22.2274 89.2544 20.0999 87.1269 20.0999 84.5161V80.3935H30.5974V80.6273H20.3259V84.5239C20.3259 87.01 22.3521 89.0362 24.8382 89.0362H25.9682C27.1606 89.0362 28.2828 88.5764 29.1323 87.7425L29.2959 87.9062C28.3997 88.7712 27.2229 89.2544 25.9682 89.2544Z" fill="#21111D"/>
<path d="M25.4695 91.0078C23.2173 91.0078 22.8977 88.8257 22.89 88.8023L23.116 88.7711C23.1315 88.8569 23.4277 90.8286 25.5397 90.774L25.5475 91.0078C25.5241 91.0078 25.4929 91.0078 25.4695 91.0078Z" fill="#21111D"/>
<path d="M36.0839 68.9842L35.9436 68.7971C38.001 67.2696 38.3205 64.729 38.3283 64.6979L38.5543 64.7213C38.5543 64.7524 38.2192 67.4021 36.0839 68.9842Z" fill="#21111D"/>
<path d="M35.6318 67.8776L35.4915 67.6906C36.9878 66.5761 37.2294 64.7213 37.2294 64.7057L37.4554 64.7291C37.4476 64.8071 37.206 66.7008 35.6318 67.8776Z" fill="#21111D"/>
<path d="M19.7336 82.5754V82.3416C19.8193 82.3416 28.5789 82.2248 31.3455 81.196L31.4235 81.4143C28.6179 82.4663 20.0921 82.5754 19.7336 82.5754Z" fill="#21111D"/>
<path d="M19.7336 84.5317L19.7259 84.2979C19.8194 84.2979 29.3194 84.1109 31.0962 83.1601L31.2053 83.3627C29.3895 84.3369 20.1311 84.5239 19.7336 84.5317Z" fill="#21111D"/>
<path d="M20.209 86.5346V86.3008C20.2947 86.3008 28.8205 86.2072 31.1039 85.0305L31.213 85.2331C28.875 86.441 20.5674 86.5268 20.209 86.5346Z" fill="#21111D"/>
<path d="M5.86166 57.8164C5.85386 57.8164 5.83828 57.8164 5.83048 57.8164L0.320651 57.3488C0.133613 57.3332 -0.0144593 57.1618 0.00112716 56.9747C0.0167137 56.7877 0.188165 56.6396 0.375204 56.6552L5.88503 57.1228C6.07207 57.1384 6.22014 57.3098 6.20456 57.4969C6.18897 57.6761 6.0409 57.8164 5.86166 57.8164Z" fill="#FECC86"/>
<path d="M8.71396 49.0333C8.64383 49.0333 8.58148 49.01 8.51913 48.971L3.95229 45.8459C3.79642 45.7368 3.75745 45.5186 3.85877 45.3627C3.96787 45.2069 4.18608 45.1679 4.34195 45.2692L8.9088 48.3943C9.06466 48.5034 9.10363 48.7216 9.00231 48.8775C8.93217 48.9866 8.82307 49.0333 8.71396 49.0333Z" fill="#FECC86"/>
<path d="M16.9592 42.7365C16.8189 42.7365 16.6942 42.6586 16.6397 42.5183L14.5589 37.3904C14.4887 37.2111 14.5745 37.0085 14.7459 36.9384C14.9252 36.8682 15.1278 36.9539 15.1979 37.1254L17.2787 42.2534C17.3489 42.4326 17.2631 42.6352 17.0917 42.7054C17.0527 42.7287 17.006 42.7365 16.9592 42.7365Z" fill="#FECC86"/>
<path d="M44.6721 58.8141C44.4928 58.8141 44.337 58.6738 44.3292 58.4867C44.3136 58.2919 44.4617 58.1283 44.6487 58.1205L50.1663 57.7542C50.3534 57.7386 50.5248 57.8867 50.5326 58.0737C50.5482 58.2685 50.4001 58.4322 50.2131 58.44L44.6955 58.8063C44.6877 58.8141 44.6799 58.8141 44.6721 58.8141Z" fill="#FECC86"/>
<path d="M41.9912 49.9841C41.8821 49.9841 41.7652 49.9296 41.7028 49.8282C41.6015 49.6646 41.6405 49.4542 41.8041 49.3451L46.4255 46.3057C46.5892 46.2044 46.7996 46.2434 46.9087 46.407C47.01 46.5707 46.9711 46.7811 46.8074 46.8902L42.186 49.9296C42.1159 49.9607 42.0535 49.9841 41.9912 49.9841Z" fill="#FECC86"/>
<path d="M34.9227 42.7208C34.876 42.7208 34.8292 42.7131 34.7902 42.6897C34.611 42.6117 34.5331 42.4091 34.611 42.2377L36.7931 37.1565C36.871 36.9772 37.0737 36.8993 37.2451 36.9772C37.4244 37.0552 37.5023 37.2578 37.4244 37.4292L35.2422 42.5104C35.1877 42.6351 35.063 42.7208 34.9227 42.7208Z" fill="#FECC86"/>
<path d="M26.0461 40.0244C26.0384 40.0244 26.0384 40.0244 26.0461 40.0244C25.8513 40.0244 25.6955 39.8608 25.7032 39.6737L25.789 34.1405C25.789 33.9535 25.9448 33.7976 26.1319 33.7976C26.1319 33.7976 26.1319 33.7976 26.1397 33.7976C26.3345 33.7976 26.4826 33.9613 26.4826 34.1483L26.3968 39.6815C26.389 39.8763 26.2332 40.0244 26.0461 40.0244Z" fill="#FECC86"/>
<g opacity="0.5">
<path d="M35.8675 52.7575C36.4131 51.9108 35.4182 50.2984 33.6454 49.1559C31.8726 48.0135 29.9931 47.7737 29.4475 48.6203C28.902 49.4669 29.8968 51.0794 31.6697 52.2218C33.4425 53.3643 35.3219 53.6041 35.8675 52.7575Z" fill="#F3FFFE"/>
</g>
<path d="M58.4973 78.7414C58.4973 78.7414 62.6433 89.1843 59.1675 97.0789L138.931 97.7491L146.296 97.0789L152.78 93.0576V86.9087L150.98 81.8197L145.088 78.7414H58.4973Z" fill="white"/>
<g opacity="0.3">
<path d="M103.285 96.7361L141.714 97.4998L146.296 97.0868L152.78 93.0655V86.9166L150.98 81.8276L145.088 78.7493H102.631C103.036 79.0454 103.277 79.2324 103.277 79.2324C103.277 79.2324 107.268 88.5999 103.285 96.7361Z" fill="#4CB7D8"/>
</g>
<path d="M142.672 98.77H56.4866C55.9255 98.77 55.4735 98.3179 55.4735 97.7568C55.4735 97.1957 55.9255 96.7437 56.4866 96.7437H142.664C147.87 96.7437 152.102 92.8159 152.102 87.9919C152.102 83.1679 147.87 79.2401 142.664 79.2401H56.4866C55.9255 79.2401 55.4735 78.788 55.4735 78.2269C55.4735 77.6658 55.9255 77.2138 56.4866 77.2138H142.664C148.985 77.2138 154.128 82.0534 154.128 87.9997C154.136 93.9303 148.993 98.77 142.672 98.77Z" fill="#3AA1C9"/>
<path d="M101.96 88.2257H59.6663C59.5338 88.2257 59.4247 88.1166 59.4247 87.9841C59.4247 87.8516 59.5338 87.7425 59.6663 87.7425H101.96C102.093 87.7425 102.202 87.8516 102.202 87.9841C102.202 88.1166 102.093 88.2257 101.96 88.2257Z" fill="#AAC9F8"/>
<path d="M149 88.2257H107.914C107.782 88.2257 107.673 88.1166 107.673 87.9841C107.673 87.8516 107.782 87.7425 107.914 87.7425H149C149.133 87.7425 149.242 87.8516 149.242 87.9841C149.25 88.1166 149.141 88.2257 149 88.2257Z" fill="#AAC9F8"/>
<path d="M147.901 92.2704H126.821C126.688 92.2704 126.579 92.1613 126.579 92.0288C126.579 91.8963 126.688 91.7872 126.821 91.7872H147.901C148.034 91.7872 148.143 91.8963 148.143 92.0288C148.143 92.1613 148.034 92.2704 147.901 92.2704Z" fill="#AAC9F8"/>
<path d="M147.902 84.1731H61.6303C61.4978 84.1731 61.3887 84.064 61.3887 83.9316C61.3887 83.7991 61.4978 83.69 61.6303 83.69H147.902C148.034 83.69 148.143 83.7991 148.143 83.9316C148.143 84.064 148.034 84.1731 147.902 84.1731Z" fill="#AAC9F8"/>
<path d="M142.672 99.0116H56.4866C55.793 99.0116 55.2241 98.4427 55.2241 97.7491C55.2241 97.0555 55.793 96.4866 56.4866 96.4866C56.6191 96.4866 56.7282 96.5957 56.7282 96.7282C56.7282 96.8607 56.6191 96.9698 56.4866 96.9698C56.058 96.9698 55.7151 97.3127 55.7151 97.7413C55.7151 98.1699 56.058 98.5129 56.4866 98.5129H142.664C148.852 98.5129 153.887 93.7823 153.887 87.9686C153.887 82.1548 148.852 77.4243 142.664 77.4243H56.4866C56.058 77.4243 55.7151 77.7672 55.7151 78.1958C55.7151 78.6245 56.058 78.9674 56.4866 78.9674C56.6191 78.9674 56.7282 79.0765 56.7282 79.209C56.7282 79.3414 56.6191 79.4506 56.4866 79.4506C55.793 79.4506 55.2241 78.8816 55.2241 78.188C55.2241 77.4944 55.793 76.9255 56.4866 76.9255H142.664C149.125 76.9255 154.378 81.8743 154.378 87.953C154.378 94.0629 149.125 99.0116 142.672 99.0116Z" fill="#21111D"/>
<path d="M123.727 92.2704H59.6663C59.5338 92.2704 59.4247 92.1613 59.4247 92.0288C59.4247 91.8963 59.5338 91.7872 59.6663 91.7872H123.727C123.859 91.7872 123.968 91.8963 123.968 92.0288C123.968 92.1613 123.859 92.2704 123.727 92.2704Z" fill="#AAC9F8"/>
<g opacity="0.5">
<path d="M55.4735 78.2113C55.4735 78.7724 55.9255 79.2244 56.4866 79.2244H101.493C102.054 79.2244 102.506 78.7724 102.506 78.2113C102.506 77.6502 102.054 77.1982 101.493 77.1982H56.4866C55.9255 77.1904 55.4735 77.6502 55.4735 78.2113Z" fill="#258D8C"/>
</g>
<path d="M102.514 97.7492C102.514 97.1881 102.062 96.7361 101.5 96.7361H56.4866C55.9255 96.7361 55.4735 97.1881 55.4735 97.7492C55.4735 98.3103 55.9255 98.7623 56.4866 98.7623H101.493C102.054 98.7701 102.514 98.3103 102.514 97.7492Z" fill="#258D8C"/>
<path d="M120.625 84.1733C120.625 84.1733 123.158 90.4936 121.701 95.1462L119.628 92.5199C119.628 92.5199 118.498 93.6187 117.368 95.1462C117.368 95.1462 115.793 84.7578 112.746 84.1733H120.625Z" fill="#49263E"/>
<path d="M133.757 60.9648C133.757 60.9648 130.398 69.4205 133.211 75.811L68.6208 76.3565L62.659 75.811L57.4063 72.5534V67.5735L58.8636 63.4587L63.6331 60.9648H133.757Z" fill="white"/>
<g opacity="0.3">
<path d="M97.4947 75.5304L66.3763 76.1461L62.6667 75.811L57.414 72.5534V67.5735L58.8714 63.4587L63.6408 60.9648H98.0169C97.6896 61.2064 97.4947 61.3545 97.4947 61.3545C97.4947 61.3545 94.2683 68.9451 97.4947 75.5304Z" fill="#4CB7D8"/>
</g>
<path d="M65.597 77.1748H135.378C135.83 77.1748 136.204 76.8085 136.204 76.3487C136.204 75.8889 135.838 75.5227 135.378 75.5227H65.597C61.3886 75.5227 57.9596 72.343 57.9596 68.4308C57.9596 64.5186 61.3886 61.3389 65.597 61.3389H135.378C135.83 61.3389 136.204 60.9727 136.204 60.5129C136.204 60.0608 135.838 59.6868 135.378 59.6868H65.597C60.4768 59.6868 56.3152 63.6068 56.3152 68.423C56.3152 73.2548 60.4846 77.1748 65.597 77.1748Z" fill="#FFB357"/>
<path d="M98.5624 68.6334H132.806C132.915 68.6334 133.001 68.5477 133.001 68.4386C133.001 68.3295 132.915 68.2438 132.806 68.2438H98.5624C98.4533 68.2438 98.3676 68.3295 98.3676 68.4386C98.3676 68.5477 98.4533 68.6334 98.5624 68.6334Z" fill="#AAC9F8"/>
<path d="M63.5864 68.6334H93.7618C93.8631 68.6334 93.9411 68.5477 93.9411 68.4386C93.9411 68.3295 93.8631 68.2438 93.7618 68.2438H63.5941C63.4928 68.2438 63.4149 68.3295 63.4149 68.4386C63.4071 68.5477 63.4928 68.6334 63.5864 68.6334Z" fill="#AAC9F8"/>
<path d="M61.3652 71.9143H78.4325C78.5416 71.9143 78.6273 71.8286 78.6273 71.7195C78.6273 71.6104 78.5416 71.5247 78.4325 71.5247H61.3652C61.2561 71.5247 61.1704 71.6104 61.1704 71.7195C61.1704 71.8208 61.2561 71.9143 61.3652 71.9143Z" fill="#AAC9F8"/>
<path d="M61.3652 65.3604H132.806C132.915 65.3604 133.001 65.2747 133.001 65.1656C133.001 65.0565 132.915 64.9707 132.806 64.9707H61.3652C61.2561 64.9707 61.1704 65.0565 61.1704 65.1656C61.1704 65.2669 61.2561 65.3604 61.3652 65.3604Z" fill="#AAC9F8"/>
<path d="M80.9418 71.9143H132.806C132.915 71.9143 133.001 71.8286 133.001 71.7195C133.001 71.6104 132.915 71.5247 132.806 71.5247H80.934C80.8249 71.5247 80.7392 71.6104 80.7392 71.7195C80.7392 71.8208 80.8327 71.9143 80.9418 71.9143Z" fill="#AAC9F8"/>
<g opacity="0.5">
<path d="M136.204 60.5285C136.204 60.9805 135.838 61.3546 135.378 61.3546H98.9366C98.4845 61.3546 98.1105 60.9883 98.1105 60.5285C98.1105 60.0765 98.4768 59.7025 98.9366 59.7025H135.378C135.838 59.7025 136.204 60.0765 136.204 60.5285Z" fill="#F99247"/>
</g>
<path d="M98.1182 76.3487C98.1182 75.8967 98.4845 75.5226 98.9443 75.5226H135.386C135.838 75.5226 136.212 75.8889 136.212 76.3487C136.212 76.8085 135.845 77.1748 135.386 77.1748H98.9443C98.4845 77.1748 98.1182 76.8007 98.1182 76.3487Z" fill="#F99247"/>
<path d="M75.697 65.3604C75.697 65.3604 73.2577 69.0622 74.6215 73.403L76.5465 70.426C76.5465 70.426 77.8635 72.0002 78.6663 73.403C78.6663 73.403 80.2093 65.9059 83.0616 65.3604H75.697Z" fill="#FF424D"/>
<path d="M65.5969 77.3698H135.378C135.939 77.3698 136.399 76.91 136.399 76.3489C136.399 75.7878 135.939 75.328 135.378 75.328C135.269 75.328 135.183 75.4137 135.183 75.5228C135.183 75.6319 135.269 75.7176 135.378 75.7176C135.721 75.7176 136.001 75.9982 136.001 76.3411C136.001 76.684 135.721 76.9645 135.378 76.9645H65.5969C60.5859 76.9645 56.51 73.1381 56.51 68.4309C56.51 63.7238 60.5859 59.8973 65.5969 59.8973H135.378C135.721 59.8973 136.001 60.1779 136.001 60.5208C136.001 60.8637 135.721 61.1442 135.378 61.1442C135.269 61.1442 135.183 61.23 135.183 61.3391C135.183 61.4482 135.269 61.5339 135.378 61.5339C135.939 61.5339 136.399 61.0741 136.399 60.513C136.399 59.9519 135.939 59.4921 135.378 59.4921H65.5969C60.3677 59.4921 56.1125 63.4978 56.1125 68.4231C56.1203 73.3641 60.3755 77.3698 65.5969 77.3698Z" fill="#21111D"/>
<path d="M168.109 121.877L162.826 121.862C162.21 121.877 161.719 121.02 161.618 120.763L160.16 118.292L165.023 117.381L168.109 121.877Z" fill="#FE9F73"/>
<path d="M170.814 121.519H161.594V119.664C161.594 119.664 162.264 118.775 163.285 119.227C163.285 119.227 164.797 120.319 166.161 119.017L169.575 120.482C169.575 120.474 170.814 120.887 170.814 121.519Z" fill="#FF424D"/>
<path d="M161.594 122.064H171.079C171.157 122.064 171.219 122.002 171.219 121.924V121.651C171.219 121.573 171.157 121.511 171.079 121.511H161.594V122.064Z" fill="#FEC786"/>
<path d="M137.724 119.531C137.724 119.531 139.602 122.602 144.87 122.126C150.138 121.651 154.978 113.515 154.978 113.515L161.431 120.833C161.431 120.833 165.008 119.703 166.192 117.848C166.192 117.848 159.272 106.361 155.968 106.322C152.663 106.283 139.485 116.663 139.306 116.78C139.126 116.897 137.724 119.531 137.724 119.531Z" fill="#FEC786"/>
<path d="M144.87 106.587C145.002 106.532 151.081 106.719 151.081 106.719L150.871 109.26L147.644 109.735L144.87 106.587Z" fill="#3AA1C9"/>
<path d="M132.432 109.985C132.432 109.985 134.092 115.627 137.412 120.155C137.412 120.155 139.259 118.947 142.057 116.586C144.854 114.224 132.432 109.985 132.432 109.985Z" fill="#3AA1C9"/>
<path d="M143.802 121.223C143.872 121.223 143.95 121.223 144.028 121.215C144.067 121.215 144.091 121.184 144.091 121.145C144.091 121.106 144.052 121.082 144.02 121.082C143.155 121.145 142.883 120.817 142.875 120.817C142.851 120.786 142.812 120.786 142.781 120.81C142.75 120.833 142.75 120.872 142.773 120.903C142.781 120.911 143.038 121.223 143.802 121.223Z" fill="#21111D"/>
<path d="M143.904 120.747C144.059 120.747 144.254 120.732 144.472 120.677C144.511 120.669 144.527 120.63 144.519 120.599C144.511 120.56 144.472 120.545 144.441 120.552C143.6 120.739 143.272 120.459 143.272 120.459C143.249 120.436 143.202 120.436 143.179 120.467C143.155 120.49 143.155 120.537 143.179 120.56C143.194 120.56 143.397 120.747 143.904 120.747Z" fill="#21111D"/>
<path d="M147.675 106.696C147.714 106.696 147.738 106.665 147.746 106.633C147.746 106.594 147.714 106.563 147.683 106.563L145.618 106.524C145.579 106.524 145.548 106.555 145.548 106.587C145.548 106.626 145.579 106.657 145.61 106.657L147.675 106.696Z" fill="#21111D"/>
<path d="M148.969 120.427C148.985 120.427 149 120.42 149.008 120.412C152.967 117.248 155.874 112.174 155.905 112.128C155.921 112.097 155.913 112.058 155.882 112.034C155.851 112.019 155.812 112.026 155.788 112.058C155.757 112.104 152.866 117.154 148.922 120.311C148.891 120.334 148.891 120.373 148.915 120.404C148.93 120.42 148.954 120.427 148.969 120.427Z" fill="#21111D"/>
<path d="M161.399 120.903L161.438 120.887C161.454 120.88 162.794 120.428 164.267 119.609C164.299 119.594 164.314 119.555 164.291 119.516C164.275 119.485 164.236 119.469 164.197 119.492C162.88 120.225 161.664 120.669 161.431 120.747L155.064 113.523C155.196 113.429 155.531 113.188 155.89 112.868C155.913 112.845 155.921 112.798 155.897 112.775C155.874 112.751 155.827 112.743 155.804 112.767C155.352 113.172 154.939 113.445 154.931 113.453L154.869 113.492L161.399 120.903Z" fill="#21111D"/>
<path d="M150.863 107.351L150.294 107.662L150.099 109.494L150.294 109.899C150.294 109.899 150.699 109.938 150.715 109.844C150.723 109.759 150.863 107.351 150.863 107.351Z" fill="#FE9F73"/>
<path d="M154.206 101.654L154.339 101.623L157.059 102.106C157.059 102.106 156.91 102.137 156.903 102.137C156.895 102.137 154.206 101.654 154.206 101.654Z" fill="#E01B2F"/>
<path d="M155.437 110.865L152.507 109.72L154.206 101.654L157.09 102.145L155.437 110.865Z" fill="#DCF4FF"/>
<path d="M154.105 102.246L154.058 102.238L154.183 101.638L154.331 101.599H154.339L157.043 102.082L157.035 102.129L154.339 101.654L154.23 101.677L154.105 102.246Z" fill="black"/>
<path d="M155.437 110.865H149.624L151.276 102.145H157.09L155.437 110.865Z" fill="#FC4963"/>
<path d="M154.198 110.078C154.206 109.891 154.043 109.72 153.855 109.712L152.686 109.634C152.648 109.634 152.616 109.603 152.609 109.572C152.593 109.517 152.632 109.47 152.686 109.463L154.417 109.346C154.611 109.33 154.736 109.166 154.682 108.972C154.627 108.777 154.424 108.636 154.23 108.644L152.468 108.761C152.429 108.761 152.39 108.738 152.383 108.699L152.375 108.668C152.359 108.621 152.39 108.574 152.437 108.558L154.331 108.052C154.51 108.005 154.643 107.81 154.596 107.623C154.549 107.428 154.354 107.312 154.159 107.366L152.25 107.88C152.203 107.896 152.157 107.865 152.141 107.818L152.118 107.732C152.11 107.693 152.125 107.647 152.164 107.631L153.855 106.93C154.027 106.86 154.136 106.649 154.066 106.47C153.996 106.283 153.785 106.189 153.598 106.267C153.598 106.267 150.995 107.187 150.575 107.304L151.354 106.937C151.931 107.475 151.276 106.743 150.808 106.641C150.286 106.532 148.899 107.818 148.899 107.818C148.837 107.927 148.899 108.177 149 108.364C149.39 110.421 149.46 110.733 149.616 111.278L151.751 110.624C152.367 110.437 153.014 110.359 153.661 110.405L153.824 110.413C154.019 110.437 154.191 110.281 154.198 110.078Z" fill="#FE9F73"/>
<path d="M150.442 106.532L150.294 107.405L151.541 106.992L151.525 106.447L150.442 106.532Z" fill="#FC4963"/>
<path d="M151.284 102.153L151.385 102.114H157.059L157.09 102.145L151.284 102.153Z" fill="#E01B2F"/>
<path d="M151.244 102.15L150.286 107.282L150.332 107.291L151.29 102.158L151.244 102.15Z" fill="black"/>
<path d="M155.461 110.889L152.258 110.858L152.266 110.811L155.414 110.842L156.264 106.361L156.318 106.369L155.461 110.889Z" fill="black"/>
<path d="M155.91 102.651L155.872 102.678L156.205 103.149L156.243 103.122L155.91 102.651Z" fill="black"/>
<path d="M151.125 105.595L151.087 105.622L151.421 106.092L151.459 106.065L151.125 105.595Z" fill="black"/>
<path d="M151.505 105.786L151.467 105.813L151.8 106.283L151.838 106.256L151.505 105.786Z" fill="black"/>
<path d="M155.864 103.018L155.826 103.045L156.159 103.515L156.197 103.488L155.864 103.018Z" fill="black"/>
<path d="M136.056 99.1675C136.056 99.1675 133.99 99.3779 132.705 99.8767C131.419 100.375 130.211 102.051 130.289 103.703C130.367 105.355 133.967 114.871 136.64 116.5C139.305 118.128 141.301 116.975 141.301 116.975L150.715 112.151C150.715 112.151 149.928 108.613 148.798 107.615L146.725 108.27L141.877 100.952C141.877 100.952 140.326 98.1699 136.056 99.1675Z" fill="#3AA1C9"/>
<path d="M137.014 112.159C137.022 112.159 137.03 112.159 137.038 112.151C137.123 112.112 145.813 108.527 148.774 107.678C148.915 107.841 149.608 108.691 150.193 110.507C150.2 110.538 150.239 110.561 150.278 110.553C150.31 110.546 150.333 110.507 150.325 110.468C149.663 108.41 148.883 107.592 148.852 107.553L148.821 107.522L148.782 107.53C145.852 108.364 137.077 111.98 136.991 112.019C136.96 112.034 136.944 112.073 136.952 112.104C136.967 112.143 136.991 112.159 137.014 112.159Z" fill="#21111D"/>
<path d="M139.142 111.294C139.157 111.294 139.165 111.294 139.181 111.286C139.212 111.263 139.22 111.224 139.196 111.193C139.173 111.154 136.492 107.171 135.011 104.592C134.996 104.56 134.949 104.553 134.918 104.568C134.887 104.584 134.871 104.631 134.895 104.662C136.375 107.249 139.056 111.231 139.08 111.27C139.095 111.286 139.119 111.294 139.142 111.294Z" fill="#21111D"/>
<path d="M145.47 108.823C145.486 108.823 145.501 108.816 145.509 108.808C145.54 108.785 145.54 108.746 145.517 108.714C145.486 108.675 142.127 104.413 141.176 102.862C141.16 102.83 141.114 102.823 141.082 102.838C141.051 102.854 141.043 102.901 141.059 102.932C142.01 104.49 145.369 108.753 145.408 108.8C145.431 108.816 145.454 108.823 145.47 108.823Z" fill="#21111D"/>
<path d="M131.481 104.997C131.489 104.997 131.489 104.997 131.497 104.997C131.536 104.989 131.551 104.95 131.543 104.919C131.317 104.085 131.582 103.75 131.59 103.742C131.614 103.711 131.606 103.672 131.582 103.649C131.551 103.625 131.512 103.625 131.489 103.656C131.473 103.672 131.169 104.046 131.419 104.95C131.427 104.981 131.45 104.997 131.481 104.997Z" fill="#21111D"/>
<path d="M132.089 105.324C132.097 105.324 132.105 105.324 132.112 105.317C132.144 105.301 132.159 105.262 132.144 105.231C131.801 104.444 132.011 104.07 132.019 104.062C132.035 104.031 132.027 103.992 131.996 103.968C131.964 103.953 131.925 103.961 131.902 103.992C131.894 104.007 131.645 104.42 132.019 105.285C132.042 105.309 132.066 105.324 132.089 105.324Z" fill="#21111D"/>
<path d="M137.763 102.176C137.825 102.176 137.887 102.176 137.95 102.176C137.989 102.176 138.012 102.145 138.012 102.106C138.012 102.067 137.981 102.043 137.942 102.043C135.191 102.137 134.474 100.189 134.466 100.165C134.458 100.134 134.419 100.111 134.388 100.119C134.357 100.126 134.333 100.165 134.341 100.196C134.349 100.212 135.058 102.176 137.763 102.176Z" fill="#21111D"/>
<path d="M137.918 101.015C139.08 101.007 139.758 100.259 140.147 99.456C139.22 99.0117 137.887 98.739 136.056 99.1676C136.056 99.1676 135.448 99.23 134.692 99.3624C135.05 99.908 136.017 101.03 137.918 101.015Z" fill="#FE9F73"/>
<path d="M145.47 107.499C145.501 107.499 145.532 107.475 145.532 107.444L145.68 106.571L145.665 106.548L141.932 100.913C141.901 100.859 141.511 100.188 140.599 99.6274C139.75 99.0974 138.261 98.5831 136.032 99.0974C135.993 99.1052 135.978 99.1442 135.986 99.1754C135.993 99.2143 136.032 99.2299 136.063 99.2221C138.246 98.7156 139.687 99.2143 140.521 99.7287C141.417 100.282 141.807 100.968 141.815 100.976V100.983L145.54 106.595L145.4 107.413C145.392 107.452 145.415 107.483 145.454 107.491C145.462 107.499 145.47 107.499 145.47 107.499Z" fill="#21111D"/>
<path d="M137.318 111.512H137.326L139.126 111.263C139.165 111.255 139.189 111.224 139.181 111.185C139.173 111.146 139.142 111.122 139.103 111.13L137.303 111.38C137.264 111.387 137.24 111.419 137.248 111.458C137.256 111.489 137.279 111.512 137.318 111.512Z" fill="#21111D"/>
<path d="M139.298 93.9851V96.8764C139.298 96.8764 139.337 97.8038 138.526 97.9207L138.674 99.1598C138.729 99.6196 138.456 100.064 138.012 100.204C137.794 100.274 137.536 100.321 137.248 100.321C136.321 100.321 135.814 99.6274 135.736 99.2767C135.658 98.926 135.892 97.2661 135.892 97.2661L135.861 96.4478L135.97 93.2759L139.298 93.9851Z" fill="#FE9F73"/>
<path d="M136.64 97.1336C136.64 97.1336 136.695 98.6845 138.635 98.8404L138.526 97.9285C138.526 97.9208 137.264 98.1701 136.64 97.1336Z" fill="#F07162"/>
<path d="M139.43 96.44C139.43 96.44 139.68 98.3026 138.448 98.3649C136.679 98.4585 136.508 97.4531 136.406 96.6271L136.391 94.9203L136.445 94.4294C136.57 94.5696 136.648 94.7489 136.664 94.9359C136.703 95.3412 136.788 96.4478 136.89 96.4946C137.038 96.5569 139.157 96.2608 139.43 96.44Z" fill="#49263E"/>
<path d="M137.053 95.5049C137.045 95.5049 137.038 95.5049 137.03 95.4971C137.014 95.4815 137.014 95.4581 137.03 95.4426C137.038 95.4348 137.568 94.8892 138.051 95.2867C138.066 95.3023 138.066 95.3257 138.059 95.3412C138.043 95.3568 138.02 95.3568 138.004 95.349C137.575 94.9983 137.108 95.4815 137.084 95.4971C137.077 95.4971 137.061 95.5049 137.053 95.5049Z" fill="#49263E"/>
<path d="M135.721 95.0918L136.555 95.2633L136.703 95.4192C136.703 95.4192 136.632 94.0164 136.477 93.7436C136.321 93.4708 135.721 95.0918 135.721 95.0918Z" fill="#49263E"/>
<path d="M138.651 95.2711C138.643 95.2711 138.627 95.2633 138.62 95.2555C138.604 95.2399 138.604 95.2165 138.62 95.2009C138.635 95.1854 139.002 94.8736 139.235 95.0685C139.251 95.084 139.251 95.1074 139.243 95.123C139.228 95.1386 139.204 95.1386 139.189 95.1308C139.009 94.9749 138.674 95.2555 138.674 95.2633C138.666 95.2633 138.659 95.2711 138.651 95.2711Z" fill="#49263E"/>
<path d="M137.723 95.7775C137.788 95.7775 137.84 95.7252 137.84 95.6606C137.84 95.5961 137.788 95.5437 137.723 95.5437C137.659 95.5437 137.607 95.5961 137.607 95.6606C137.607 95.7252 137.659 95.7775 137.723 95.7775Z" fill="black"/>
<path d="M138.955 95.6608C139.019 95.6608 139.072 95.6084 139.072 95.5439C139.072 95.4793 139.019 95.427 138.955 95.427C138.89 95.427 138.838 95.4793 138.838 95.5439C138.838 95.6084 138.89 95.6608 138.955 95.6608Z" fill="black"/>
<path d="M136.18 96.3075C136.563 96.3075 136.874 95.997 136.874 95.6139C136.874 95.2308 136.563 94.9203 136.18 94.9203C135.797 94.9203 135.487 95.2308 135.487 95.6139C135.487 95.997 135.797 96.3075 136.18 96.3075Z" fill="#FE9F73"/>
<path d="M136.064 96.0037C135.915 96.0037 135.822 95.8946 135.791 95.7855C135.752 95.653 135.799 95.5283 135.9 95.466C136.056 95.3724 136.196 95.4348 136.266 95.4815C136.235 95.4036 136.188 95.3413 136.126 95.3101C135.986 95.2322 135.822 95.2867 135.814 95.2867C135.806 95.2867 135.791 95.2867 135.791 95.2711C135.791 95.2633 135.791 95.2478 135.806 95.2478C135.814 95.2478 135.993 95.1854 136.149 95.2711C136.235 95.3179 136.297 95.4036 136.328 95.5283L136.344 95.5984L136.297 95.5517C136.29 95.5439 136.126 95.3802 135.931 95.5049C135.822 95.5751 135.814 95.692 135.838 95.7777C135.861 95.8634 135.939 95.9647 136.071 95.9647C136.071 95.9647 136.071 95.9647 136.079 95.9647C136.087 95.9647 136.095 95.9725 136.095 95.9803C136.079 95.9959 136.071 96.0037 136.064 96.0037Z" fill="#F07162"/>
<path d="M138.246 96.4402C138.238 96.4402 138.23 96.4324 138.23 96.4246C138.23 96.4168 138.23 96.4012 138.246 96.4012L138.635 96.2765L138.511 95.3647C138.511 95.3569 138.518 95.3413 138.526 95.3413C138.534 95.3413 138.55 95.3491 138.55 95.3569L138.674 96.2999L138.246 96.4402Z" fill="#F07162"/>
<path d="M137.949 96.814C137.965 96.814 138.713 96.7906 138.713 96.7906C138.713 96.7906 138.62 97.1024 138.339 97.1102C138.059 97.1258 137.949 96.814 137.949 96.814Z" fill="#FBFDFC"/>
<path d="M135.721 95.0918C135.721 95.0918 135.487 93.7358 135.9 93.2293C136.313 92.7227 138.698 91.8421 138.986 92.0914C139.274 92.3408 138.986 92.6526 138.986 92.6526C138.986 92.6526 139.945 92.3486 140.163 93.1981C140.381 94.0476 138.324 94.406 137.092 94.0086C137.092 94.0086 136.282 94.2424 135.721 95.0918Z" fill="#49263E"/>
<path d="M139.516 117.435C139.68 117.435 139.836 117.427 139.976 117.411C140.81 117.326 141.308 117.045 141.332 117.03C141.363 117.014 141.371 116.967 141.355 116.936C141.34 116.905 141.293 116.897 141.262 116.913C141.254 116.913 140.763 117.193 139.952 117.279C139.204 117.357 138.028 117.271 136.671 116.445C134.965 115.409 132.829 111.029 131.52 107.592C131.505 107.561 131.466 107.537 131.434 107.553C131.403 107.569 131.38 107.608 131.395 107.639C132.713 111.091 134.871 115.502 136.601 116.562C137.747 117.256 138.768 117.435 139.516 117.435Z" fill="#21111D"/>
<path d="M106.737 36.0812C106.8 35.676 107.174 35.3486 107.587 35.3486C107.626 35.3486 107.673 35.3486 107.712 35.3642C107.758 35.3798 107.797 35.411 107.836 35.4344C107.945 35.4889 108.086 35.4733 108.164 35.5591C108.249 35.6526 108.203 35.8084 108.226 35.9331C108.242 36.0266 108.304 36.1124 108.343 36.2059C108.413 36.3851 108.374 36.5878 108.288 36.7592C108.203 36.9307 108.07 37.0709 107.938 37.2112C107.829 37.3281 107.719 37.445 107.571 37.4996C107.283 37.6165 107.073 37.3983 106.979 37.1489C106.862 36.8216 106.683 36.4475 106.737 36.0812Z" fill="#E23E3D"/>
<path d="M105.07 37.889C105.07 37.889 104.252 40.2426 104.15 40.4374C104.049 40.6322 103.55 41.544 103.729 42.6195C103.909 43.695 107.151 44.0768 107.151 44.0768L107.088 36.7122C107.088 36.7044 105.646 36.533 105.07 37.889Z" fill="#E23E3D"/>
<path d="M109.083 37.889C109.083 37.889 109.902 40.2426 110.003 40.4374C110.104 40.6322 110.603 41.544 110.424 42.6195C110.244 43.695 107.002 44.0768 107.002 44.0768L107.065 36.7122C107.057 36.7044 108.507 36.533 109.083 37.889Z" fill="#E23E3D"/>
<path d="M108.171 42.9159L106.122 42.877L106.239 41.2092H107.961L108.171 42.9159Z" fill="#FE9F73"/>
<path d="M106.192 41.9028C106.387 42.0665 106.66 42.1989 106.909 42.2301C106.948 42.2301 106.995 42.2301 107.041 42.2301H107.049H107.057C107.104 42.2301 107.143 42.2301 107.189 42.2301C107.486 42.1911 107.821 42.0197 108.039 41.8093L107.969 41.2092H106.239L106.192 41.9028Z" fill="#F07162"/>
<path d="M108.405 38.3179C108.32 38.1542 108.21 38.0373 108.109 37.9672C107.891 37.8659 107.54 37.7412 107.088 37.6866H107.065H107.049H107.026C106.574 37.7334 106.223 37.8659 106.005 37.9672C105.896 38.0451 105.787 38.1542 105.709 38.3179C105.67 38.6296 105.623 39.1985 105.615 39.7596C105.607 40.274 105.748 40.7728 106.028 41.1858C106.239 41.4975 106.543 41.7781 106.971 41.8171C107.002 41.8171 107.034 41.8171 107.065 41.8171H107.073H107.08C107.112 41.8171 107.143 41.8171 107.174 41.8171C107.595 41.7781 107.899 41.4975 108.117 41.1858C108.397 40.7728 108.538 40.2662 108.53 39.7596C108.491 39.1985 108.444 38.6296 108.405 38.3179Z" fill="#FE9F73"/>
<path d="M108.148 40.0947C108.148 40.3596 108.358 40.57 108.623 40.57C108.888 40.57 109.099 40.3596 109.099 40.0947C109.099 39.8297 108.888 39.6193 108.623 39.6193C108.358 39.6193 108.148 39.8375 108.148 40.0947Z" fill="#FE9F73"/>
<path d="M108.655 40.3906C108.756 40.3906 108.818 40.3127 108.842 40.2425C108.865 40.1568 108.842 40.0711 108.764 40.0243C108.662 39.962 108.569 40.0009 108.514 40.0321C108.538 39.9853 108.569 39.9464 108.608 39.923C108.701 39.8684 108.818 39.9074 108.818 39.9074C108.826 39.9074 108.834 39.9074 108.834 39.8996C108.834 39.8918 108.834 39.884 108.826 39.884C108.818 39.884 108.694 39.8451 108.592 39.8996C108.53 39.9308 108.491 39.9931 108.468 40.0711L108.452 40.1256L108.491 40.0866C108.499 40.0789 108.608 39.9698 108.74 40.0555C108.811 40.1022 108.818 40.1802 108.803 40.2425C108.787 40.3049 108.733 40.375 108.639 40.3672C108.631 40.3672 108.623 40.375 108.623 40.3828C108.639 40.3828 108.647 40.3906 108.655 40.3906Z" fill="#F07162"/>
<path d="M106.075 40.0947C106.075 40.3596 105.865 40.57 105.6 40.57C105.335 40.57 105.124 40.3596 105.124 40.0947C105.124 39.8297 105.335 39.6193 105.6 39.6193C105.865 39.6193 106.075 39.8375 106.075 40.0947Z" fill="#FE9F73"/>
<path d="M105.569 40.3906C105.467 40.3906 105.405 40.3127 105.382 40.2425C105.358 40.1568 105.382 40.0711 105.46 40.0243C105.561 39.962 105.654 40.0009 105.709 40.0321C105.686 39.9853 105.654 39.9464 105.615 39.923C105.522 39.8684 105.405 39.9074 105.405 39.9074C105.397 39.9074 105.389 39.9074 105.389 39.8996C105.389 39.8918 105.389 39.884 105.397 39.884C105.405 39.884 105.53 39.8451 105.631 39.8996C105.693 39.9308 105.732 39.9931 105.756 40.0711L105.771 40.1256L105.732 40.0866C105.725 40.0789 105.615 39.9698 105.483 40.0555C105.413 40.1022 105.405 40.1802 105.421 40.2425C105.436 40.3049 105.491 40.375 105.584 40.3672C105.592 40.3672 105.6 40.375 105.6 40.3828C105.584 40.3828 105.576 40.3906 105.569 40.3906Z" fill="#F07162"/>
<path d="M106.995 40.5623C107.002 40.5623 107.01 40.5545 107.01 40.5467C107.01 40.5389 107.002 40.5311 106.995 40.5233C106.886 40.4999 106.815 40.3597 106.792 40.3129C106.948 40.2272 107.049 40.1181 107.08 39.9856C107.135 39.7674 106.995 39.5725 106.987 39.5647C106.979 39.5569 106.971 39.5569 106.964 39.5569C106.956 39.5647 106.956 39.5725 106.956 39.5803C106.956 39.5803 107.088 39.7752 107.041 39.97C107.01 40.0947 106.917 40.2038 106.753 40.2817L106.738 40.2895L106.745 40.3051C106.753 40.3207 106.839 40.5233 106.995 40.5623C106.987 40.5623 106.987 40.5545 106.995 40.5623Z" fill="#F07162"/>
<path d="M106.519 39.8919C106.571 39.8919 106.613 39.8501 106.613 39.7984C106.613 39.7468 106.571 39.7049 106.519 39.7049C106.468 39.7049 106.426 39.7468 106.426 39.7984C106.426 39.8501 106.468 39.8919 106.519 39.8919Z" fill="black"/>
<path d="M107.712 39.9077C107.763 39.9077 107.805 39.8658 107.805 39.8142C107.805 39.7625 107.763 39.7206 107.712 39.7206C107.66 39.7206 107.618 39.7625 107.618 39.8142C107.618 39.8658 107.66 39.9077 107.712 39.9077Z" fill="black"/>
<path d="M105.397 39.6426C105.397 39.6426 107.151 38.7931 107.299 37.7176L107.377 37.9592C107.377 37.9592 107.985 39.549 108.733 39.6348C108.733 39.6348 109.387 37.25 107.501 36.7824C105.615 36.3071 105.249 38.1696 105.397 39.6426Z" fill="#E23E3D"/>
<path d="M106.761 40.7493C106.769 40.7493 107.345 40.7337 107.345 40.7337C107.345 40.7337 107.275 40.9753 107.057 40.9753C106.839 40.9831 106.761 40.7493 106.761 40.7493Z" fill="#FBFDFC"/>
<path d="M108.109 39.6036C108.101 39.6036 108.094 39.6036 108.086 39.5958C107.836 39.3854 107.493 39.5023 107.486 39.5023C107.462 39.5101 107.447 39.4945 107.439 39.4789C107.431 39.4555 107.447 39.4399 107.462 39.4321C107.478 39.4243 107.86 39.2996 108.133 39.5412C108.148 39.5568 108.148 39.5802 108.14 39.5958C108.133 39.6036 108.125 39.6036 108.109 39.6036Z" fill="#E23E3D"/>
<path d="M106.137 39.5958C106.13 39.5958 106.114 39.588 106.106 39.5802C106.091 39.5646 106.099 39.5412 106.114 39.5257C106.395 39.2997 106.777 39.4321 106.792 39.4321C106.815 39.4399 106.823 39.4633 106.815 39.4789C106.808 39.5023 106.784 39.5101 106.769 39.5023C106.769 39.5023 106.418 39.3776 106.169 39.5802C106.153 39.5958 106.145 39.5958 106.137 39.5958Z" fill="#E23E3D"/>
<path d="M105.717 40.5622C105.717 40.5622 105.888 41.8481 106.956 41.8325L105.717 40.5622Z" fill="#FE9F73"/>
<path d="M108.413 40.5233C108.413 40.5233 108.242 41.8482 107.174 41.8248L107.953 40.0168L108.413 40.5233Z" fill="#FE9F73"/>
<path d="M108.281 36.9927C108.273 36.9927 108.265 36.9927 108.257 36.9927C107.423 36.72 106.886 36.7512 106.699 36.7745C106.691 36.7745 106.683 36.7745 106.683 36.7745C106.644 36.7745 106.605 36.7434 106.605 36.7044C106.605 36.6654 106.636 36.6265 106.675 36.6265H106.683C106.932 36.5953 107.47 36.5797 108.304 36.8525C108.343 36.8681 108.366 36.907 108.351 36.946C108.343 36.9772 108.312 36.9927 108.281 36.9927Z" fill="#4CB7D8"/>
<path d="M106.005 46.828L108.678 48.1606L111.897 50.1401L112.715 51.1143L114.274 53.5146C119.682 52.3066 118.389 49.2439 118.069 48.7061C117.188 47.2332 115.217 45.5343 114.126 44.2796C113.876 43.9912 113.611 43.7263 113.362 43.5002C112.614 42.8144 111.64 42.4404 110.626 42.4404H109.068H108.133L106.005 46.828ZM112.396 47.5216C112.396 47.5216 112.707 47.7943 112.715 47.8099C113.432 48.5269 114.367 49.4621 114.367 49.4621L114.484 49.5011L112.715 50.3739C112.715 50.3739 112.536 50.444 112.52 50.4051C112.512 50.3817 112.396 47.5216 112.396 47.5216Z" fill="#FD7583"/>
<path d="M105.88 42.4404H104.945H103.387C102.373 42.4404 101.399 42.8144 100.651 43.5002C100.402 43.7263 100.137 43.9912 99.8874 44.2796C98.7963 45.5343 96.8246 47.2332 95.944 48.7061C95.6245 49.2439 94.323 52.3066 99.7393 53.5146L101.298 51.1143L102.116 50.1401L105.335 48.1606L108.008 46.828L105.88 42.4404ZM101.501 50.4051C101.485 50.444 101.306 50.3739 101.306 50.3739L99.5367 49.5011L99.6536 49.4621C99.6536 49.4621 100.589 48.5269 101.306 47.8099C101.321 47.7943 101.625 47.5216 101.625 47.5216C101.625 47.5216 101.508 50.3817 101.501 50.4051Z" fill="#FD7583"/>
<path d="M102.841 77.2294L106.176 76.1929L104.961 72.2807L101.485 72.8652L102.841 77.2294Z" fill="#FE9F73"/>
<path d="M100.612 80.1129L106.597 76.5046L105.88 75.3122C105.88 75.3122 105.101 75.0005 104.61 75.6941C104.61 75.6941 104.049 76.9878 102.662 76.6838L101.01 78.9595C101.017 78.9595 100.371 79.7076 100.612 80.1129Z" fill="#E23E3D"/>
<path d="M106.854 76.9177L100.737 80.6039C100.667 80.6507 100.565 80.6273 100.526 80.5493L100.433 80.3935C100.386 80.3233 100.409 80.222 100.487 80.1831L106.605 76.4969L106.854 76.9177Z" fill="#683D46"/>
<path d="M107.2 64.661L105.656 61.5212L102.327 63.1586L103.871 66.2984L107.2 64.661Z" fill="#FE9F73"/>
<path d="M108.031 60.5831C107.953 60.5831 105.124 61.8378 105.124 61.8378L104.22 62.4223C104.22 62.4223 105.6 71.8132 105.857 74.3148C105.857 74.3148 103.862 75.7254 101.843 75.7722C101.843 75.7722 97.674 61.2377 97.674 59.3907C97.674 57.5437 106.543 53.1717 106.543 53.1717L110.58 55.5019C110.58 55.5019 116.643 56.0007 118.038 56.9437C119.433 57.8866 107.213 63.4199 107.213 63.4199L108.031 60.5831Z" fill="#49263E"/>
<path d="M104.914 61.4794C104.914 61.4794 111.756 57.3957 114.11 56.7645C116.464 56.1254 118.155 56.6631 118.404 57.4113C118.661 58.1517 118.918 60.2481 118.404 60.9416C117.89 61.6352 108.966 64.9318 106.917 65.4929C106.925 65.4929 105.101 63.3731 104.914 61.4794Z" fill="#49263E"/>
<path d="M118.295 57.3256C117.757 56.2345 112.123 55.6734 111.795 55.728C111.772 55.7358 111.733 55.728 111.717 55.7046C111.694 55.6734 111.702 55.6345 111.733 55.6111C111.834 55.5409 113.409 55.7358 113.424 55.7358C114.094 55.8215 115.388 56.0008 116.487 56.2891C117.578 56.5775 118.225 56.9048 118.404 57.2633C118.42 57.2944 118.404 57.3334 118.373 57.349C118.365 57.3568 118.357 57.3568 118.342 57.3568C118.334 57.3568 118.31 57.349 118.295 57.3256Z" fill="#21111D"/>
<path d="M105.592 63.5133C105.608 63.5133 105.615 63.5133 105.623 63.5055C105.654 63.4899 105.662 63.4431 105.647 63.4197C105.085 62.5391 104.984 61.6195 104.969 61.4325C105.343 61.1831 109.13 58.6736 114.469 56.3902C114.5 56.3746 114.515 56.3357 114.5 56.3045C114.484 56.2733 114.445 56.2577 114.414 56.2733C108.803 58.6736 104.906 61.3234 104.867 61.3467L104.836 61.3701V61.4091C104.836 61.4558 104.891 62.4845 105.537 63.4977C105.553 63.4977 105.576 63.5133 105.592 63.5133Z" fill="#21111D"/>
<path d="M113.245 56.8891C113.26 56.8891 113.284 56.8813 113.299 56.8657C113.549 56.554 114.009 56.2812 114.009 56.2812C114.04 56.2656 114.048 56.2267 114.032 56.1955C114.016 56.1643 113.977 56.1565 113.946 56.1721C113.923 56.1799 113.463 56.4527 113.198 56.7878C113.175 56.8189 113.183 56.8579 113.206 56.8813C113.221 56.8891 113.237 56.8891 113.245 56.8891Z" fill="#21111D"/>
<path d="M99.1703 66.1631C99.1781 66.1631 99.1781 66.1631 99.1859 66.1631C99.2171 66.1553 99.2404 66.1164 99.2327 66.0852C99.2171 66.0307 97.8922 60.5442 97.7286 59.5934C97.5727 58.6894 99.521 57.3568 99.5366 57.3412C99.5678 57.3178 99.5756 57.2788 99.5522 57.2477C99.5288 57.2165 99.4898 57.2087 99.4587 57.2321C99.3729 57.2866 97.4168 58.6193 97.5961 59.609C97.7597 60.5598 99.0924 66.054 99.1002 66.1086C99.108 66.1475 99.1391 66.1631 99.1703 66.1631Z" fill="#21111D"/>
<path d="M103.402 62.9755C103.418 62.9755 103.425 62.9755 103.433 62.9677L105.008 61.9624C105.039 61.9468 105.046 61.9 105.031 61.8767C105.015 61.8455 104.969 61.8377 104.945 61.8533L103.371 62.8586C103.34 62.8742 103.332 62.921 103.348 62.9443C103.363 62.9677 103.379 62.9755 103.402 62.9755Z" fill="#21111D"/>
<path d="M101.828 75.8344H101.836C101.952 75.8189 104.711 75.437 105.888 74.3615L105.911 74.3381L105.904 74.307L104.711 65.485L104.361 62.3443C104.353 62.3053 104.329 62.282 104.29 62.2898C104.251 62.2976 104.228 62.3287 104.236 62.3599L104.587 65.5006L105.771 74.2914C104.61 75.3201 101.843 75.7097 101.812 75.7097C101.773 75.7175 101.75 75.7487 101.758 75.7799C101.773 75.8111 101.797 75.8344 101.828 75.8344Z" fill="#21111D"/>
<path d="M117.43 61.0663C117.446 61.0663 117.453 61.0585 117.469 61.0507C118.209 60.5052 118.201 60.0376 118.201 60.022C118.201 59.9831 118.17 59.9597 118.131 59.9597C118.092 59.9597 118.069 59.9909 118.069 60.022C118.069 60.0298 118.061 60.4507 117.391 60.9416C117.36 60.965 117.36 61.004 117.375 61.0352C117.391 61.0507 117.407 61.0663 117.43 61.0663Z" fill="#21111D"/>
<path d="M116.767 60.9416C116.775 60.9416 116.791 60.9416 116.799 60.9338C117.609 60.5052 117.671 60.0376 117.671 60.022C117.679 59.983 117.648 59.9519 117.617 59.9519C117.586 59.9519 117.547 59.9753 117.547 60.0064C117.547 60.0142 117.477 60.4273 116.744 60.8169C116.713 60.8325 116.697 60.8715 116.721 60.9027C116.721 60.926 116.744 60.9416 116.767 60.9416Z" fill="#21111D"/>
<path d="M101.501 50.4051L101.415 55.9695C101.415 55.9695 107.408 57.0684 112.746 55.6422C112.879 55.611 112.497 50.1713 112.497 50.1713C112.497 50.1713 112.497 49.1192 111.944 48.7919C111.39 48.4646 106.878 42.8067 106.769 42.8067C106.652 42.7989 101.501 50.4051 101.501 50.4051Z" fill="#FD7583"/>
<path d="M107.119 44.2796C107.088 44.2796 107.057 44.2562 107.057 44.2172C107.057 44.1783 107.081 44.1471 107.119 44.1471C109.091 44.0224 109.73 42.6742 109.738 42.6586C109.754 42.6274 109.793 42.6118 109.824 42.6274C109.855 42.643 109.87 42.682 109.855 42.7131C109.847 42.7365 109.169 44.1549 107.119 44.2796Z" fill="#21111D"/>
<path d="M104.945 42.4404H109.286C109.286 42.4404 108.499 43.7964 107.003 43.7964C106.317 43.7886 105.576 43.5392 104.945 42.4404Z" fill="#FE9F73"/>
<path d="M104.516 49.6882L102.194 49.1972C102.194 49.1972 102.903 51.5508 102.849 51.5586C102.459 51.6365 100.955 53.3276 103.27 53.2419C103.316 53.2419 104.649 52.9847 104.649 52.9847L104.516 49.6882Z" fill="#4CB7D8"/>
<path d="M108.553 49.5321L109.231 52.7819C109.231 52.7819 110.626 51.6441 110.626 51.5194C110.626 51.3947 110.182 49.8828 110.135 49.8516C110.096 49.8282 108.553 49.5321 108.553 49.5321Z" fill="#4CB7D8"/>
<path d="M102.529 47.545V47.0852L106.964 48.5192L105.109 50.3428L102.529 47.545Z" fill="#DCF4FF"/>
<path d="M111.569 47.545V47.0852L107.135 48.5192L108.99 50.3428L111.569 47.545Z" fill="#DCF4FF"/>
<path d="M102.334 47.241C102.334 47.4124 102.67 54.1146 102.67 54.1146L107.01 55.2447V48.6516L102.334 47.241Z" fill="#FEC786"/>
<path d="M111.686 47.241C111.686 47.4124 111.351 54.1146 111.351 54.1146L107.01 55.2447V48.6516L111.686 47.241Z" fill="#FEC786"/>
<path d="M107.291 55.2367H106.792C106.738 55.2367 106.691 55.19 106.691 55.1354V48.6047C106.691 48.5579 106.73 48.5112 106.784 48.5112H107.314C107.361 48.5112 107.408 48.5501 107.408 48.6047V55.1354C107.392 55.1978 107.345 55.2367 107.291 55.2367Z" fill="#F99247"/>
<g opacity="0.5">
<path d="M107.392 49.2595H106.683V49.5868H107.392V49.2595Z" fill="#F99247"/>
</g>
<g opacity="0.5">
<path d="M107.392 54.372H106.683V54.6993H107.392V54.372Z" fill="#F99247"/>
</g>
<path d="M104.836 51.9481C105.109 51.6676 104.859 51.3169 104.859 51.3169C104.914 51.0909 104.906 50.9272 104.891 50.8337C104.875 50.7636 104.813 50.7246 104.743 50.748C104.439 50.8415 103.574 51.1065 103.036 51.3013C102.662 51.2468 102.537 51.0675 102.537 51.0675L102.529 51.0831C102.521 50.7636 102.514 50.3583 102.514 50.3116C102.514 50.2336 102.389 50.1089 102.202 50.3583C102.007 50.5999 101.641 51.2545 101.641 51.2545H100.519L99.903 53.3899C99.903 53.3899 102.233 53.7172 102.592 53.7484C102.95 53.7718 104.197 53.4834 104.571 53.1717C104.945 52.8678 104.859 52.5872 104.859 52.5872C105.109 52.2443 104.836 51.9481 104.836 51.9481Z" fill="#F78C63"/>
<path d="M104.072 51.7302C104.057 51.7302 104.033 51.7224 104.033 51.699C104.025 51.6756 104.041 51.6522 104.064 51.6444C104.384 51.5431 104.836 51.2782 104.844 51.2782C104.867 51.2626 104.891 51.2704 104.906 51.2937C104.922 51.3171 104.914 51.3405 104.891 51.3561C104.875 51.3639 104.423 51.6289 104.096 51.7302C104.08 51.7302 104.072 51.7302 104.072 51.7302Z" fill="#F07162"/>
<path d="M104.072 52.2755C104.049 52.2755 104.033 52.2599 104.033 52.2365C104.025 52.2131 104.041 52.1898 104.064 52.1898C104.462 52.1118 104.813 51.9092 104.82 51.9092C104.844 51.8936 104.867 51.9014 104.883 51.9248C104.898 51.9482 104.891 51.9715 104.867 51.9871C104.852 51.9949 104.501 52.1976 104.088 52.2755C104.072 52.2755 104.072 52.2755 104.072 52.2755Z" fill="#F07162"/>
<path d="M104.166 52.899C104.142 52.899 104.127 52.8834 104.127 52.8678C104.119 52.8444 104.135 52.821 104.158 52.8133C104.501 52.7353 104.813 52.5405 104.813 52.5405C104.836 52.5249 104.859 52.5327 104.875 52.5561C104.891 52.5795 104.883 52.6028 104.859 52.6184C104.844 52.6262 104.532 52.8288 104.174 52.9068C104.174 52.899 104.166 52.899 104.166 52.899Z" fill="#F07162"/>
<path d="M101.898 50.6624L101.625 53.7329C101.625 53.7329 100.659 53.842 98.7807 53.2653C96.9103 52.6964 98.4612 49.6259 98.5781 49.5791C98.695 49.5323 99.9341 49.6882 99.9341 49.6882L101.898 50.6624Z" fill="#FD7583"/>
<path d="M101.68 53.7874H101.625C101.423 53.7796 96.6453 53.5848 95.7101 51.0676C95.6945 51.0364 95.297 50.2259 95.7179 49.0647C96.1387 47.9191 99.069 45.0668 99.1937 44.9421C99.2404 44.8875 100.417 43.5549 100.994 43.1419C101.017 43.1263 101.056 43.1263 101.072 43.1574C101.087 43.1808 101.087 43.2198 101.056 43.2354C100.487 43.6406 99.2794 45.0122 99.2716 45.02C99.2404 45.0512 96.2244 47.9737 95.8192 49.1037C95.4139 50.2103 95.8036 51.013 95.8036 51.0208C96.6686 53.3354 101.033 53.6394 101.571 53.6705C101.625 52.8912 101.804 50.9897 101.836 50.6935C99.9886 49.7583 98.1805 48.9011 98.1649 48.8933C98.1338 48.8777 98.126 48.8465 98.1416 48.8153C98.1572 48.7842 98.1883 48.7764 98.2195 48.792C98.2351 48.7998 100.067 49.6726 101.929 50.6156L101.96 50.6312V50.6701C101.96 50.6935 101.742 52.938 101.687 53.7329L101.68 53.7874Z" fill="black"/>
<path d="M99.6146 49.5946C99.599 49.5946 99.5834 49.5868 99.5756 49.579C99.5523 49.5556 99.5523 49.5244 99.5756 49.5011L101.579 47.4437C101.602 47.4203 101.633 47.4203 101.656 47.4437C101.68 47.467 101.68 47.4982 101.656 47.5216L99.6536 49.579C99.6458 49.5868 99.6302 49.5946 99.6146 49.5946Z" fill="black"/>
<path d="M101.501 50.522C101.469 50.522 101.446 50.4987 101.446 50.4675L101.571 47.2411C101.571 47.2099 101.594 47.1865 101.625 47.1865C101.656 47.1865 101.68 47.2099 101.68 47.2411L101.555 50.4675C101.555 50.4987 101.532 50.522 101.501 50.522Z" fill="black"/>
<path d="M99.6457 49.5089C99.6301 49.5089 99.6068 49.5011 99.599 49.4855L99.2561 48.94C99.2405 48.9166 99.2483 48.8776 99.2716 48.8621C99.295 48.8465 99.334 48.8543 99.3496 48.8776L99.6925 49.4232C99.7081 49.4465 99.7003 49.4855 99.6769 49.5011C99.6691 49.5089 99.6613 49.5089 99.6457 49.5089Z" fill="black"/>
<path d="M109.177 51.9481C108.904 51.6675 109.153 51.3168 109.153 51.3168C109.114 51.1454 109.107 51.0207 109.114 50.9194C109.122 50.8025 109.239 50.7246 109.348 50.7635C109.699 50.8726 110.486 51.1142 110.985 51.2935C111.359 51.2389 111.484 51.0597 111.484 51.0597L111.491 51.0753C111.499 50.7557 111.507 50.3505 111.507 50.3037C111.507 50.2258 111.632 50.1011 111.819 50.3505C112.014 50.5921 112.38 51.2467 112.38 51.2467H113.502L114.118 53.3821C114.118 53.3821 111.788 53.7094 111.429 53.7405C111.071 53.7639 109.824 53.4756 109.45 53.1638C109.076 52.8599 109.161 52.5793 109.161 52.5793C108.904 52.2442 109.177 51.9481 109.177 51.9481Z" fill="#F78C63"/>
<path d="M109.948 51.7301C109.964 51.7301 109.987 51.7223 109.987 51.699C109.995 51.6756 109.98 51.6522 109.956 51.6444C109.637 51.5431 109.185 51.2781 109.177 51.2781C109.154 51.2625 109.13 51.2703 109.115 51.2937C109.099 51.3171 109.107 51.3405 109.13 51.3561C109.146 51.3639 109.598 51.6288 109.925 51.7301C109.941 51.7301 109.941 51.7301 109.948 51.7301Z" fill="#F07162"/>
<path d="M109.948 52.2755C109.972 52.2755 109.987 52.2599 109.987 52.2365C109.995 52.2131 109.98 52.1897 109.956 52.1897C109.559 52.1118 109.208 51.9092 109.2 51.9092C109.177 51.8936 109.153 51.9014 109.138 51.9248C109.122 51.9481 109.13 51.9715 109.153 51.9871C109.169 51.9949 109.52 52.1975 109.933 52.2755C109.941 52.2755 109.948 52.2755 109.948 52.2755Z" fill="#F07162"/>
<path d="M109.855 52.8989C109.878 52.8989 109.894 52.8834 109.894 52.8678C109.902 52.8444 109.886 52.821 109.863 52.8132C109.52 52.7353 109.208 52.5405 109.208 52.5405C109.185 52.5249 109.161 52.5327 109.146 52.556C109.13 52.5794 109.138 52.6028 109.161 52.6184C109.177 52.6262 109.489 52.8288 109.847 52.9067C109.847 52.8989 109.847 52.8989 109.855 52.8989Z" fill="#F07162"/>
<path d="M112.123 50.6624L112.396 53.7329C112.396 53.7329 113.362 53.842 115.24 53.2653C117.11 52.6964 115.56 49.6259 115.443 49.5791C115.326 49.5323 114.087 49.6882 114.087 49.6882L112.123 50.6624Z" fill="#FD7583"/>
<path d="M112.341 53.7874V53.7329C112.286 52.938 112.068 50.6857 112.068 50.6701V50.6312L112.099 50.6156C113.962 49.6804 115.793 48.7997 115.809 48.7919C115.84 48.7764 115.871 48.7919 115.887 48.8153C115.902 48.8465 115.887 48.8777 115.863 48.8933C115.848 48.9011 114.04 49.7661 112.193 50.6935C112.224 50.9896 112.395 52.8912 112.458 53.6705C112.996 53.6393 117.36 53.3354 118.217 51.0286C118.225 51.013 118.614 50.2103 118.209 49.1037C117.796 47.9814 114.788 45.059 114.757 45.0278C114.741 45.0122 113.533 43.6406 112.972 43.2354C112.949 43.2198 112.941 43.1808 112.957 43.1574C112.972 43.134 113.011 43.1263 113.035 43.1418C113.611 43.5549 114.788 44.8875 114.835 44.9499C114.959 45.0668 117.89 47.9191 118.311 49.0647C118.731 50.2259 118.334 51.0364 118.318 51.0754C117.383 53.5848 112.606 53.7796 112.403 53.7874H112.341Z" fill="black"/>
<path d="M114.398 49.5946C114.383 49.5946 114.367 49.5868 114.359 49.579L112.357 47.5216C112.333 47.4982 112.333 47.467 112.357 47.4437C112.38 47.4203 112.411 47.4203 112.434 47.4437L114.437 49.5011C114.461 49.5244 114.461 49.5556 114.437 49.579C114.43 49.5868 114.414 49.5946 114.398 49.5946Z" fill="black"/>
<path d="M112.52 50.522C112.489 50.522 112.466 50.4987 112.466 50.4675L112.341 47.2411C112.341 47.2099 112.364 47.1865 112.396 47.1865C112.435 47.1865 112.45 47.2099 112.45 47.2411L112.575 50.4675C112.575 50.4987 112.551 50.522 112.52 50.522Z" fill="black"/>
<path d="M114.367 49.5089C114.359 49.5089 114.344 49.5089 114.336 49.5011C114.313 49.4855 114.305 49.4465 114.32 49.4232L114.663 48.8776C114.679 48.8543 114.718 48.8465 114.741 48.8621C114.765 48.8776 114.772 48.9166 114.757 48.94L114.414 49.4855C114.406 49.5011 114.391 49.5089 114.367 49.5089Z" fill="black"/>
<path d="M41.3755 116.5L46.2697 116.57L46.3398 111.987L41.469 111.387L41.3755 116.5Z" fill="#FE9F73"/>
<path d="M36.6605 118.199L46.5813 116.991L46.3398 115.011C46.3398 115.011 45.5059 114.146 44.4616 114.77C44.4616 114.77 42.9809 116.134 41.3443 114.918L37.8607 116.928C37.8607 116.928 36.5826 117.528 36.6605 118.199Z" fill="#3AA1C9"/>
<path d="M46.6671 117.684L36.4112 118.931C36.3566 118.939 36.3177 118.9 36.3099 118.853L36.2475 118.347C36.2397 118.292 36.2787 118.253 36.3255 118.245L46.5814 116.998L46.6671 117.684Z" fill="#472A31"/>
<path d="M40.3156 115.51C40.713 115.985 41.5079 116.936 42.0145 117.544L42.6925 117.458C42.2405 116.913 41.2975 115.783 40.8221 115.214L40.3156 115.51Z" fill="#D7E4F7"/>
<path d="M40.9235 117.676L41.6016 117.591C41.2353 117.146 40.5183 116.289 40.0117 115.681L39.5052 115.97C39.9338 116.492 40.5261 117.201 40.9235 117.676Z" fill="#D7E4F7"/>
<path d="M56.6036 100.181C56.6036 100.181 60.8197 100.251 63.7734 100.149C64.7241 100.118 65.5658 100.181 66.0646 100.072C68.122 99.6118 68.6286 93.1979 66.2906 89.2701C63.9604 85.3423 55.7931 97.4063 55.7931 97.4063L56.6036 100.181Z" fill="#FECC86"/>
<path d="M48.9739 116.5L53.8681 116.57L53.9382 111.987L49.0674 111.387L48.9739 116.5Z" fill="#FE9F73"/>
<path d="M44.6097 118.698L54.4059 116.718L54.0162 114.762C54.0162 114.762 53.1122 113.967 52.1224 114.668C52.1224 114.668 50.7508 116.149 49.0207 115.058L45.7086 117.334C45.7086 117.334 44.4773 118.035 44.6097 118.698Z" fill="#4CB7D8"/>
<path d="M54.5462 117.404L44.415 119.453C44.3682 119.461 44.3136 119.43 44.3058 119.383L44.2045 118.885C44.1967 118.838 44.2279 118.783 44.2747 118.775L54.4059 116.726L54.5462 117.404Z" fill="#683D46"/>
<path d="M48.0467 115.736C48.4753 116.18 49.3481 117.069 49.8937 117.63L50.5639 117.497C50.0729 116.991 49.0364 115.931 48.5298 115.409L48.0467 115.736Z" fill="#D7E4F7"/>
<path d="M48.8259 117.848L49.4962 117.715C49.0987 117.302 48.3116 116.5 47.7583 115.938L47.2829 116.266C47.7427 116.741 48.3817 117.396 48.8259 117.848Z" fill="#D7E4F7"/>
<path d="M52.06 91.6002C52.06 91.6002 41.7106 92.2626 41.4145 93.455C41.1183 94.6474 40.2611 107.358 40.9001 112.774C40.9001 112.774 44.8279 113.047 46.7061 112.587L47.1659 99.3701L50.2676 99.0116L57.3673 90.478L52.06 91.6002Z" fill="#FFB357"/>
<path d="M57.0322 91.4054C57.0322 91.4054 49.0519 93.6576 48.7479 94.85C48.4518 96.0424 47.6023 107.382 48.2414 112.806C48.2414 112.806 52.4653 113.047 54.3435 112.595L54.8501 100.126L56.6737 100.188L61.0925 92.4185L57.0322 91.4054Z" fill="#FECC86"/>
<path d="M51.8106 112.954C53.6732 112.954 54.3434 112.673 54.3746 112.658L54.4136 112.642L54.9046 100.103L54.133 100.469L54.1954 100.602L54.7487 100.337L54.2733 112.549C54.0707 112.619 53.1043 112.899 50.8209 112.79L50.8131 112.93C51.1794 112.946 51.5145 112.954 51.8106 112.954Z" fill="#21111D"/>
<path d="M53.5641 110.249C53.7667 109.478 53.8213 101.989 53.8213 101.669H53.681C53.681 101.747 53.6186 109.462 53.4238 110.211L53.5641 110.249Z" fill="#21111D"/>
<path d="M46.145 99.6584C47.088 99.3545 48.3972 99.3077 48.405 99.3077L48.3972 99.1674C48.3817 99.1674 47.0646 99.2142 46.0982 99.5259L46.145 99.6584Z" fill="#21111D"/>
<path d="M44.0174 112.923C45.6151 112.923 46.7139 112.658 46.7217 112.658L46.7762 112.642L47.236 99.2766L46.6438 99.752L46.7373 99.8611L47.0802 99.5806L46.636 112.517C46.3944 112.572 45.3267 112.782 43.8772 112.767V112.907C43.9239 112.923 43.9707 112.923 44.0174 112.923Z" fill="#21111D"/>
<path d="M46.0203 110.522C46.2151 109.361 46.0281 101.505 46.0203 101.178H45.88C45.88 101.256 46.0748 109.353 45.88 110.499L46.0203 110.522Z" fill="#21111D"/>
<path d="M59.7676 100.321C61.6068 100.321 63.8123 100.259 66.2906 100.072L66.2828 99.9312C58.9026 100.485 53.9461 99.939 53.8993 99.9312L53.8837 100.072C53.9149 100.072 56.1204 100.321 59.7676 100.321Z" fill="#21111D"/>
<path d="M57.2426 87.3764C57.1023 87.3764 51.3665 89.8391 51.3665 89.8391L52.5199 92.0524L55.7385 91.3432L57.2426 87.3764Z" fill="#FF424D"/>
<path d="M65.5501 77.1049C65.5501 77.1049 67.9894 77.0191 69.1506 77.6815C70.8885 78.6635 70.265 84.298 70.265 84.298C70.265 84.298 68.7921 83.4953 68.6986 83.2226C68.6129 82.9498 65.5501 77.1049 65.5501 77.1049Z" fill="#FF424D"/>
<path d="M66.1424 89.3324H66.1347L64.3422 89.7454C64.3032 89.7532 64.2721 89.7298 64.2643 89.6987C64.2565 89.6597 64.2799 89.6285 64.311 89.6207L66.1035 89.2077C66.1424 89.1999 66.1736 89.2233 66.1814 89.2544C66.1892 89.2856 66.1736 89.3246 66.1424 89.3324Z" fill="#21111D"/>
<path d="M54.624 88.4829C54.5928 88.4985 54.5539 88.4829 54.5383 88.4439C54.5227 88.4127 54.5383 88.3738 54.5772 88.3582L56.5178 87.5867C56.5567 87.5711 56.5879 87.5867 56.6035 87.6256C56.6191 87.6568 56.6035 87.6958 56.5645 87.7114L54.624 88.4829Z" fill="#21111D"/>
<path d="M53.8915 89.7532C53.8915 89.7532 53.1901 91.4053 53.7045 94.7253L56.2684 93.3537L55.5047 90.8754L53.8915 89.7532Z" fill="#FD7583"/>
<path d="M66.1737 95.7229C66.0178 95.7853 65.8697 95.832 65.7295 95.8632C64.9112 96.0814 64.3345 95.9879 64.3111 95.9879C64.2721 95.9801 64.2487 95.9489 64.2565 95.9099C64.2643 95.871 64.2955 95.8476 64.3345 95.8554C64.3423 95.8554 64.9112 95.9489 65.7061 95.7307C66.4386 95.5359 67.5219 95.0371 68.5116 93.7668C69.7508 92.177 70.2106 87.2672 70.2184 83.5498C70.2184 83.5109 70.2495 83.4797 70.2885 83.4797C70.3275 83.4797 70.3586 83.5109 70.3586 83.5498C70.3508 87.2906 69.8833 92.2237 68.6208 93.8447C67.7869 94.9124 66.8906 95.4501 66.1737 95.7229Z" fill="#21111D"/>
<path d="M49.5585 84.516L49.426 84.4849L46.7061 84.968C46.7061 84.968 46.8542 84.9992 46.862 84.9992C46.8698 85.007 49.5585 84.516 49.5585 84.516Z" fill="#105E5A"/>
<path d="M48.3272 93.7279L51.2574 92.5823L49.5585 84.5163L46.675 85.0072L48.3272 93.7279Z" fill="#DCF4FF"/>
<path d="M49.652 85.1084L49.7066 85.1006L49.5819 84.5005L49.426 84.4615L46.714 84.9447L46.7296 84.9915L49.426 84.5161L49.5351 84.5395L49.652 85.1084Z" fill="black"/>
<path d="M48.3272 93.7279H54.1409L52.4888 85.0072H46.675L48.3272 93.7279Z" fill="#3F9896"/>
<path d="M49.5585 92.9406C49.5507 92.7536 49.7144 92.5822 49.9014 92.5744L51.0704 92.4964C51.1094 92.4964 51.1405 92.4653 51.1483 92.4341C51.1639 92.3795 51.1249 92.3328 51.0704 92.325L49.3403 92.2081C49.1455 92.1925 49.0208 92.0288 49.0753 91.834C49.1299 91.6392 49.3325 91.4989 49.5273 91.5067L51.2886 91.6236C51.3276 91.6236 51.3665 91.6002 51.3743 91.5612L51.3821 91.5301C51.3977 91.4833 51.3665 91.4365 51.3198 91.421L49.426 90.9144C49.2468 90.8676 49.1143 90.6728 49.161 90.4858C49.2078 90.2909 49.4026 90.174 49.5975 90.2286L51.5068 90.7429C51.5536 90.7585 51.6003 90.7274 51.6159 90.6806L51.6393 90.5949C51.6471 90.5559 51.6315 90.5091 51.5925 90.4936L49.9014 89.7922C49.73 89.722 49.6209 89.5116 49.691 89.3324C49.7611 89.1453 49.9715 89.0518 50.1586 89.1297C50.1586 89.1297 52.7615 90.0493 53.1824 90.1662L52.403 89.8C51.8263 90.3377 52.481 89.6051 52.9486 89.5038C53.4707 89.3947 54.8579 90.6806 54.8579 90.6806C54.9203 90.7897 54.8579 91.0391 54.7566 91.2261C54.3669 93.2835 54.2968 93.5953 54.1409 94.1408L52.0056 93.4862C51.3899 93.2991 50.7431 93.2212 50.0962 93.268L49.9326 93.2758C49.7377 93.2913 49.5663 93.1433 49.5585 92.9406Z" fill="#FE9F73"/>
<path d="M53.3226 89.3946L53.4629 90.2675L52.2237 89.8466L52.2315 89.3011L53.3226 89.3946Z" fill="#3F9896"/>
<path d="M52.481 85.015L52.3719 84.9761H46.7062L46.675 85.0072L52.481 85.015Z" fill="#105E5A"/>
<path d="M52.5087 85.0054L52.4628 85.014L53.4209 90.1467L53.4669 90.1381L52.5087 85.0054Z" fill="black"/>
<path d="M48.3038 93.751L51.499 93.7198V93.6731L48.3427 93.7043L47.4933 89.2231L47.4465 89.2309L48.3038 93.751Z" fill="black"/>
<path d="M47.8557 85.5281L47.5225 85.9988L47.5607 86.0259L47.8939 85.5552L47.8557 85.5281Z" fill="black"/>
<path d="M52.6415 88.4526L52.3083 88.9233L52.3464 88.9503L52.6796 88.4796L52.6415 88.4526Z" fill="black"/>
<path d="M52.2567 88.6508L51.9235 89.1215L51.9616 89.1485L52.2949 88.6778L52.2567 88.6508Z" fill="black"/>
<path d="M47.9032 85.8836L47.5699 86.3543L47.6081 86.3813L47.9413 85.9106L47.9032 85.8836Z" fill="black"/>
<path d="M67.9115 77.5411C66.5243 77.3463 62.8692 77.2138 62.8692 77.2138C62.8692 77.2138 62.3861 77.3385 62.5419 77.2684C58.505 77.9776 58.0608 80.978 58.0608 80.978L56.0891 89.6285L53.8992 89.7454C53.19 91.0936 53.7122 94.7175 53.7122 94.7175L64.3344 95.9176C64.3344 95.9176 66.6334 96.2995 68.5739 93.8056C69.8598 92.1613 70.2962 87.0957 70.2962 83.4017C70.2806 83.4017 70.0624 77.8373 67.9115 77.5411Z" fill="#FF424D"/>
<path d="M64.3422 89.7845C64.3266 89.7922 64.3188 89.7922 64.3032 89.7845C64.2643 89.7767 64.2487 89.7377 64.2565 89.7065C64.2643 89.6598 65.3787 84.937 65.8541 81.9678C65.8619 81.9288 65.893 81.9055 65.932 81.9133C65.971 81.9211 65.9944 81.9522 65.9866 81.9912C65.5112 84.9682 64.4045 89.6909 64.3889 89.7377C64.3734 89.7533 64.3578 89.7767 64.3422 89.7845Z" fill="#21111D"/>
<path d="M57.4686 89.7066C57.4531 89.7144 57.4375 89.7144 57.4219 89.7066C57.3829 89.6988 57.3673 89.6599 57.3751 89.6209C57.3907 89.5663 59.0351 84.3449 59.3858 82.5368C59.3936 82.4979 59.4247 82.4745 59.4637 82.4823C59.5027 82.4901 59.5261 82.5212 59.5183 82.5602C59.1754 84.376 57.5232 89.6053 57.5076 89.6599C57.4998 89.6832 57.4842 89.6988 57.4686 89.7066Z" fill="#21111D"/>
<path d="M64.163 79.7546C64.1084 79.7624 64.0616 79.7624 64.0071 79.7702C63.9759 79.7702 63.9525 79.7468 63.9448 79.7157C63.9448 79.6845 63.9681 79.6611 63.9993 79.6533C66.3061 79.4897 66.7425 77.7985 66.7425 77.7829C66.7503 77.7518 66.7737 77.7362 66.8049 77.7362C66.836 77.744 66.8516 77.7673 66.8516 77.7985C66.8516 77.8219 66.423 79.5208 64.163 79.7546Z" fill="#21111D"/>
<path d="M56.9932 88.4597C56.962 88.4675 56.9309 88.4597 56.9153 88.4285L56.4633 87.657L56.4711 87.6336L57.9907 80.9704C57.9985 80.908 58.131 80.1365 58.7934 79.2792C59.4091 78.4765 60.6249 77.4556 62.9161 77.1517C62.955 77.1439 62.9862 77.175 62.994 77.2062C63.0018 77.2452 62.9706 77.2764 62.9395 77.2841C60.695 77.5803 59.5104 78.5778 58.9103 79.3571C58.2557 80.1988 58.131 80.9859 58.131 80.9937V81.0015L56.6191 87.6414L57.04 88.3662C57.0555 88.3973 57.0478 88.4363 57.0166 88.4597C57.001 88.4519 57.001 88.4519 56.9932 88.4597Z" fill="#21111D"/>
<path d="M66.6569 89.8389C66.6491 89.8389 66.6413 89.8467 66.6335 89.8467C66.54 89.8467 57.0478 89.5583 53.9383 89.8155C53.8603 90.0181 53.5096 91.0702 53.611 93.0029C53.611 93.0419 53.5876 93.0731 53.5486 93.0731C53.5096 93.0731 53.4785 93.0497 53.4785 93.0107C53.3694 90.8286 53.8136 89.7765 53.8292 89.7298L53.8448 89.6908H53.8837C56.9543 89.4258 66.54 89.7142 66.6335 89.722C66.6725 89.722 66.6958 89.7531 66.6958 89.7921C66.6958 89.8077 66.6802 89.8311 66.6569 89.8389Z" fill="#21111D"/>
<path d="M62.2537 72.2884V75.0784C62.2537 75.0784 62.2147 76.0214 63.0408 76.1383L62.885 77.393C62.8304 77.8606 63.111 78.3048 63.5552 78.4529C63.7734 78.523 64.0384 78.5698 64.3345 78.5698C65.2775 78.5698 65.7918 77.8606 65.8698 77.5099C65.9477 77.1592 65.7139 75.4681 65.7139 75.4681L65.7451 74.6342L65.636 71.4156L62.2537 72.2884Z" fill="#FE9F73"/>
<path d="M64.537 73.6835C64.5448 73.6835 64.5604 73.6835 64.5604 73.6757C64.576 73.6601 64.576 73.6367 64.5604 73.6211C64.5526 73.6133 64.0149 73.06 63.5239 73.4575C63.5083 73.473 63.5005 73.4964 63.5161 73.512C63.5317 73.5276 63.5551 73.5354 63.5707 73.5198C64.0071 73.1691 64.4825 73.6523 64.5059 73.6757C64.5137 73.6835 64.5215 73.6835 64.537 73.6835Z" fill="#21111D"/>
<path d="M62.9161 73.4499C62.9239 73.4499 62.9395 73.4421 62.9473 73.4343C62.9628 73.4187 62.9628 73.3953 62.9395 73.3797C62.9239 73.3641 62.5498 73.0446 62.3082 73.2472C62.2926 73.2628 62.2926 73.2862 62.3004 73.3018C62.316 73.3174 62.3394 73.3174 62.355 73.3096C62.542 73.1537 62.8771 73.4343 62.8771 73.4421C62.8927 73.4421 62.9083 73.4499 62.9161 73.4499Z" fill="#21111D"/>
<path d="M63.859 73.9641C63.9236 73.9641 63.9759 73.9117 63.9759 73.8472C63.9759 73.7826 63.9236 73.7303 63.859 73.7303C63.7944 73.7303 63.7421 73.7826 63.7421 73.8472C63.7421 73.9117 63.7944 73.9641 63.859 73.9641Z" fill="black"/>
<path d="M62.6044 73.8394C62.669 73.8394 62.7213 73.7871 62.7213 73.7225C62.7213 73.658 62.669 73.6056 62.6044 73.6056C62.5398 73.6056 62.4875 73.658 62.4875 73.7225C62.4875 73.7871 62.5398 73.8394 62.6044 73.8394Z" fill="black"/>
<path d="M65.5268 71.5794L64.8722 72.5146C64.8722 72.5146 62.8771 73.2862 61.8562 72.3743C60.8353 71.4547 61.147 71.0183 61.451 70.5585C61.599 70.3325 62.3004 69.8727 63.1655 70.2546C63.6409 70.465 63.9838 69.8415 64.5371 70.1533C65.0904 70.465 65.7372 71.0105 65.6671 71.2287C65.5892 71.4392 65.5268 71.5794 65.5268 71.5794Z" fill="#21111D"/>
<path d="M65.4879 71.1898C65.4879 71.1898 66.3919 71.143 66.6491 72.0159C66.8985 72.8887 66.5634 73.3485 66.5556 73.6057C66.5478 73.8629 66.727 75.6241 65.4879 75.4916L65.1528 72.5926L65.5814 71.4391L65.4879 71.1898Z" fill="#21111D"/>
<path d="M65.9171 74.3041C66.194 74.0271 66.194 73.5781 65.9171 73.3012C65.6401 73.0242 65.1911 73.0242 64.9141 73.3012C64.6372 73.5781 64.6372 74.0272 64.9141 74.3041C65.1911 74.5811 65.6401 74.5811 65.9171 74.3041Z" fill="#FE9F73"/>
<path d="M65.4722 74.2368C65.6203 74.2368 65.7138 74.1277 65.7528 74.0186C65.7918 73.8861 65.745 73.7614 65.6437 73.6991C65.4878 73.6056 65.3475 73.6679 65.2696 73.7147C65.3008 73.6367 65.3475 73.5744 65.4099 73.5432C65.5502 73.4653 65.7216 73.5198 65.7216 73.5198C65.7294 73.5198 65.745 73.5198 65.745 73.5043C65.745 73.4965 65.745 73.4809 65.7294 73.4809C65.7216 73.4809 65.5424 73.4185 65.3865 73.5043C65.3008 73.551 65.2384 73.6367 65.2073 73.7614L65.1917 73.8316L65.2384 73.7848C65.2462 73.777 65.4099 73.6134 65.6125 73.7381C65.7216 73.8082 65.7294 73.9329 65.706 74.0186C65.6826 74.1043 65.6047 74.2134 65.4644 74.2134C65.4644 74.2134 65.4644 74.2134 65.4566 74.2134C65.4489 74.2134 65.4333 74.2212 65.4333 74.229C65.4488 74.229 65.4566 74.2368 65.4722 74.2368Z" fill="#F07162"/>
<path d="M64.958 75.3356C64.958 75.3356 64.9034 76.9177 62.9317 77.0657L63.0486 76.1383C63.0408 76.1383 64.3189 76.3955 64.958 75.3356Z" fill="#F07162"/>
<path d="M63.3213 74.6422C63.3291 74.6422 63.3369 74.6345 63.3369 74.6267C63.3369 74.6189 63.3369 74.6033 63.3213 74.6033L62.9239 74.4708L63.0486 73.5434C63.0486 73.5356 63.0408 73.52 63.033 73.52C63.0252 73.52 63.0096 73.5278 63.0096 73.5356L62.8771 74.4942L63.3213 74.6422Z" fill="#F07162"/>
<path d="M63.6253 75.0241C63.6097 75.0241 62.846 75.0007 62.846 75.0007C62.846 75.0007 62.9395 75.3203 63.2278 75.328C63.5162 75.3358 63.6253 75.0241 63.6253 75.0241Z" fill="#FBFDFC"/>
<path d="M76.6196 11.1763L57.5813 27.3191L58.816 28.7754L77.8544 12.6326L76.6196 11.1763Z" fill="#FF424D"/>
<path d="M79.0169 10.6907C79.8898 11.735 81.1912 15.8654 80.1469 16.7382C79.1026 17.6111 76.1022 14.9068 75.2294 13.8547C74.3565 12.8104 74.4968 11.2518 75.5411 10.3789C76.5932 9.5061 78.1441 9.64637 79.0169 10.6907Z" fill="#FECC86"/>
<path d="M79.6326 16.9721C79.843 16.9721 80.0379 16.9175 80.1937 16.785L80.1158 16.6915C79.5781 17.1435 78.487 16.5434 77.6687 15.9667C76.7257 15.3043 75.7594 14.3847 75.284 13.8158C74.4345 12.7949 74.5748 11.2752 75.5879 10.4257L75.51 10.3322C74.4423 11.2284 74.2942 12.8261 75.1904 13.8937C75.6658 14.4626 76.6478 15.3978 77.5986 16.068C78.222 16.5123 79.0169 16.9721 79.6326 16.9721Z" fill="black"/>
<path d="M74.8319 55.1122H78.1207C78.3857 55.1122 78.5961 55.3227 78.5961 55.5876V55.8292H74.3566V55.5876C74.3566 55.3227 74.5748 55.1122 74.8319 55.1122Z" fill="#FF424D"/>
<path d="M86.7924 22.5283C87.5033 20.6989 86.5966 18.6396 84.7672 17.9287C82.9378 17.2179 80.8785 18.1246 80.1676 19.954C79.4567 21.7834 80.3634 23.8427 82.1928 24.5536C84.0222 25.2645 86.0815 24.3577 86.7924 22.5283Z" fill="#FDFFDC"/>
<path d="M76.8816 13.3404C72.5174 16.9877 71.9251 23.4794 75.5724 27.8437L91.3849 14.6497C87.7454 10.2777 81.2459 9.69317 76.8816 13.3404Z" fill="#4CB7D8"/>
<path d="M59.3326 28.6548L57.5241 29.267L66.8161 56.7198L68.6246 56.1076L59.3326 28.6548Z" fill="#FF424D"/>
<path d="M78.4325 55.6577H63.8746C61.9497 55.6577 60.3911 57.2163 60.3911 59.1412V59.5153H82.2823C82.2823 57.38 80.56 55.6577 78.4325 55.6577Z" fill="#4CB7D8"/>
<path d="M91.3848 14.6497L75.5723 27.8437L76.3906 28.6542L92.0628 15.3511L91.3848 14.6497Z" fill="#FF424D"/>
<path d="M88.7351 18.2502L92.1485 15.3589L92.1173 15.3121C92.094 15.281 89.6157 11.9766 85.9295 11.1817C82.0952 10.3478 79.7884 11.509 78.6818 12.0624C77.3959 12.7092 75.4398 14.3925 74.7462 15.6706L74.8553 15.733C75.5411 14.4705 77.466 12.8105 78.7363 12.1715C79.8352 11.6181 82.1108 10.4725 85.9061 11.2986C89.3118 12.039 91.6731 14.9381 91.9848 15.3433L88.6649 18.1645L88.7351 18.2502Z" fill="black"/>
<path d="M91.347 14.5993L75.5322 27.7961L75.6121 27.8919L91.4269 14.695L91.347 14.5993Z" fill="black"/>
<path d="M75.8685 20.4556H75.7438V21.8428H75.8685V20.4556Z" fill="black"/>
<path d="M76.4841 20.8609H76.3594V22.3962H76.4841V20.8609Z" fill="black"/>
<path d="M74.6098 12.7953L58.6385 26.3375L58.7192 26.4326L74.6905 12.8904L74.6098 12.7953Z" fill="black"/>
<path d="M71.4538 17.9747L65.1057 23.3573L65.1864 23.4524L71.5345 18.0698L71.4538 17.9747Z" fill="black"/>
<path d="M57.5848 29.2435L57.4667 29.2834L66.3905 55.6761L66.5086 55.6361L57.5848 29.2435Z" fill="black"/>
<path d="M60.624 32.2673L60.5059 32.3073L65.7185 47.6982L65.8367 47.6582L60.624 32.2673Z" fill="black"/>
<path d="M80.4665 56.3047L80.56 56.2189C80.5288 56.1878 79.8352 55.4786 77.2011 55.5955C74.5904 55.7124 64.0695 55.5955 63.9604 55.5955V55.7202C64.0695 55.7202 74.5904 55.8371 77.2089 55.7202C79.7651 55.6033 80.4587 56.2969 80.4665 56.3047Z" fill="black"/>
<path d="M63.3496 56.7528L62.4763 57.3533L62.5469 57.4561L63.4203 56.8555L63.3496 56.7528Z" fill="black"/>
<path d="M63.2152 57.4455L62.4816 57.9039L62.5477 58.0097L63.2813 57.5512L63.2152 57.4455Z" fill="black"/>
<path d="M58.484 29.985C59.4848 29.9209 60.2442 29.0576 60.1802 28.0568C60.1161 27.0559 59.2528 26.2965 58.2519 26.3606C57.2511 26.4247 56.4917 27.288 56.5558 28.2888C56.6198 29.2897 57.4831 30.0491 58.484 29.985Z" fill="#FECC86"/>
<path d="M88.0104 41.1855C85.4464 41.053 76.6556 40.679 70.647 41.5674C69.8677 41.6843 69.3689 40.7491 69.9066 40.1724C70.2184 39.8373 70.7561 39.5645 71.6679 39.5022C71.6679 39.5022 71.3562 33.891 75.5957 33.517C80.4587 33.0883 80.5132 38.606 80.5132 38.606C80.5132 38.606 82.7187 36.5096 84.3164 39.1671C84.3164 39.1671 87.0674 37.5772 88.4624 40.5153C88.6104 40.8348 88.361 41.2011 88.0104 41.1855Z" fill="white"/>
<path d="M104.961 33.5717H91.7667C91.416 33.5717 91.1277 33.2834 91.1277 32.9327V25.2875C91.1277 24.9368 91.416 24.6484 91.7667 24.6484H104.961C105.311 24.6484 105.6 24.9368 105.6 25.2875V32.9327C105.6 33.2912 105.319 33.5717 104.961 33.5717Z" fill="#FC4F68"/>
<path d="M101.165 32.8859C101.181 32.9482 103.503 35.972 103.519 35.8863C103.535 35.8005 103.254 32.6365 103.254 32.6365L101.165 32.8859Z" fill="#FC4F68"/>
<path d="M96.7778 27.1268C97.8688 26.363 98.5702 27.571 98.7261 27.8827C98.8897 27.5788 99.6379 26.402 100.698 27.2047C102.124 28.2802 99.973 31.0701 98.6482 31.9118C97.3545 31.0156 95.3126 28.1477 96.7778 27.1268Z" fill="white"/>
<path d="M64.2643 67.7996H50.5637C50.213 67.7996 49.9247 67.5113 49.9247 67.1606V59.2037C49.9247 58.853 50.213 58.5646 50.5637 58.5646H64.2643C64.615 58.5646 64.9033 58.853 64.9033 59.2037V67.1606C64.8955 67.5113 64.615 67.7996 64.2643 67.7996Z" fill="white"/>
<path d="M63.4928 60.2478H51.008C50.9223 60.2478 50.8521 60.1777 50.8521 60.092C50.8521 60.0062 50.9223 59.9361 51.008 59.9361H63.4928C63.5785 59.9361 63.6487 60.0062 63.6487 60.092C63.6487 60.1777 63.5785 60.2478 63.4928 60.2478Z" fill="#61A3C5"/>
<path d="M63.4928 62.0247H51.008C50.9223 62.0247 50.8521 61.9545 50.8521 61.8688C50.8521 61.7831 50.9223 61.713 51.008 61.713H63.4928C63.5785 61.713 63.6487 61.7831 63.6487 61.8688C63.6487 61.9545 63.5785 62.0247 63.4928 62.0247Z" fill="#61A3C5"/>
<path d="M59.1208 63.8018H51.008C50.9223 63.8018 50.8521 63.7317 50.8521 63.6459C50.8521 63.5602 50.9223 63.4901 51.008 63.4901H59.1208C59.2065 63.4901 59.2766 63.5602 59.2766 63.6459C59.2766 63.7317 59.2065 63.8018 59.1208 63.8018Z" fill="#61A3C5"/>
<path d="M63.5863 63.8018H60.3521C60.2664 63.8018 60.1962 63.7317 60.1962 63.6459C60.1962 63.5602 60.2664 63.4901 60.3521 63.4901H63.5863C63.672 63.4901 63.7422 63.5602 63.7422 63.6459C63.7422 63.7317 63.672 63.8018 63.5863 63.8018Z" fill="#61A3C5"/>
<path d="M56.1048 65.5784H51.008C50.9223 65.5784 50.8521 65.5083 50.8521 65.4225C50.8521 65.3368 50.9223 65.2667 51.008 65.2667H56.1048C56.1905 65.2667 56.2607 65.3368 56.2607 65.4225C56.2607 65.5083 56.1905 65.5784 56.1048 65.5784Z" fill="#61A3C5"/>
<path d="M63.5864 65.5784H57.2504C57.1647 65.5784 57.0946 65.5083 57.0946 65.4225C57.0946 65.3368 57.1647 65.2667 57.2504 65.2667H63.5864C63.6721 65.2667 63.7422 65.3368 63.7422 65.4225C63.7422 65.5083 63.6721 65.5784 63.5864 65.5784Z" fill="#61A3C5"/>
<path d="M60.4145 67.2774C60.4223 67.3163 61.9186 69.2569 61.9264 69.2023C61.9342 69.1478 61.7549 67.1137 61.7549 67.1137L60.4145 67.2774Z" fill="white"/>
<path d="M185.753 122.267H16.9514V122.797H185.753V122.267Z" fill="#49263E"/>
<path d="M133.126 16.9487C147.083 21.1571 149.554 17.1747 148.556 12.1792C147.239 5.56277 140.927 1.18296 134.24 2.08698C125.231 3.31052 114.141 6.31092 125.309 13.395C127.74 14.9303 130.374 16.1148 133.126 16.9487Z" fill="#CAEFFF"/>
</svg>
