<svg width="205" height="133" viewBox="0 0 205 133" fill="none" xmlns="http://www.w3.org/2000/svg">
<path d="M143.578 58.3301C154.552 58.3301 163.449 49.4337 163.449 38.4594C163.449 27.4852 154.552 18.5887 143.578 18.5887C132.604 18.5887 123.707 27.4852 123.707 38.4594C123.707 49.4337 132.604 58.3301 143.578 58.3301Z" fill="#CCF3FF"/>
<path d="M176.429 126.724C180.627 123.487 184.345 119.737 187.133 115.218C192.774 106.052 193.415 93.1037 186.204 85.1234C178.192 76.2457 164.41 76.5021 152.52 77.6879C140.63 78.8737 127.073 79.8032 118.323 71.6626C111.176 65.0284 109.67 54.42 108.933 44.709C108.196 34.998 107.587 24.5178 101.529 16.89C93.2925 6.57007 76.8832 5.32013 65.8261 12.4031C54.769 19.486 49.0001 33.043 48.8719 46.1512C48.8078 51.7599 49.1603 58.5223 44.5132 61.6952C40.8275 64.2271 35.7316 62.9772 31.7575 60.926C27.7833 58.8749 24.0335 56.0224 19.6107 55.4135C13.7136 54.6123 7.8165 58.2018 4.54745 63.1695C1.2784 68.1372 0.220769 74.2586 0.0284722 80.2198C-0.48432 97.1419 5.95763 114 17.0788 126.692H176.429V126.724Z" fill="#CCF3FF"/>
<path d="M1.24635 126.5H187.967" stroke="#D3C6FC" stroke-width="0.335911" stroke-miterlimit="10"/>
<path d="M143.61 124.544H88.9017C86.8826 124.544 85.2481 126.179 85.2481 128.198H143.61V124.544Z" fill="#8F9AF8"/>
<path d="M161.366 100.026H123.483C122.425 100.026 121.496 100.667 121.079 101.629L110.631 126.083C110.215 127.076 110.952 128.198 112.041 128.198H151.142C152.199 128.198 153.129 127.557 153.546 126.596L163.513 103.263C164.154 101.725 163.032 100.026 161.366 100.026Z" fill="#B8C3FF"/>
<path d="M141.751 114.641C141.174 116.981 138.803 118.904 136.463 118.904C134.124 118.904 132.681 117.013 133.258 114.641C133.835 112.302 136.207 110.379 138.546 110.379C140.886 110.379 142.328 112.302 141.751 114.641Z" fill="white"/>
<path d="M85.152 130.057H151.591" stroke="#D3C6FC" stroke-width="0.335911" stroke-miterlimit="10"/>
<path d="M113.516 131.948H148.77" stroke="#D3C6FC" stroke-width="0.335911" stroke-miterlimit="10"/>
<path d="M176.012 40.6068H89.3184C85.4084 40.6068 82.2355 43.7797 82.2355 47.6898V84.5787C82.2355 88.4888 85.4084 91.6617 89.3184 91.6617H122.682L128.643 97.6229L134.604 91.6617H176.012C179.922 91.6617 183.095 88.4888 183.095 84.5787V47.6898C183.095 43.7797 179.922 40.6068 176.012 40.6068Z" fill="white" stroke="#BBABF8" stroke-width="0.335911" stroke-miterlimit="10"/>
<path d="M101.294 62.2784C105.062 60.6915 106.83 56.3504 105.243 52.5821C103.656 48.8139 99.3153 47.0455 95.5471 48.6324C91.7788 50.2193 90.0105 54.5604 91.5973 58.3287C93.1842 62.0969 97.5254 63.8653 101.294 62.2784Z" fill="#DAE0FF"/>
<path d="M113.868 48.7155L115.246 52.7857L119.541 52.7537L116.08 55.3177L117.426 59.3879L113.932 56.8881L110.471 59.452L111.785 55.3497L108.292 52.8498L112.586 52.8178L113.868 48.7155Z" fill="#FAAF3B"/>
<path d="M127.553 48.7155L128.932 52.7857L133.226 52.7537L129.765 55.3177L131.143 59.3879L127.618 56.8881L124.188 59.452L125.47 55.3497L121.977 52.8498L126.271 52.8178L127.553 48.7155Z" fill="#FAAF3B"/>
<path d="M141.271 48.7155L142.617 52.7857L146.911 52.7537L143.45 55.3177L144.828 59.3879L141.335 56.8881L137.873 59.452L139.155 55.3497L135.662 52.8498L139.957 52.8178L141.271 48.7155Z" fill="#FAAF3B"/>
<path d="M154.956 48.7155L156.302 52.7857L160.597 52.7537L157.167 55.3177L158.513 59.3879L155.02 56.8881L151.559 59.452L152.841 55.3497L149.347 52.8498L153.642 52.8178L154.956 48.7155Z" fill="#E8ECFF"/>
<path d="M168.641 48.7155L170.019 52.7857L174.314 52.7537L170.852 55.3177L172.198 59.3879L168.705 56.8881L165.244 59.452L166.558 55.3497L163.032 52.8498L167.359 52.8178L168.641 48.7155Z" fill="#E8ECFF"/>
<path d="M97.1705 66.1504H90.6324V67.9131H97.1705V66.1504Z" fill="#BBABF8"/>
<path d="M108.612 66.1505H98.805V67.9132H108.612V66.1505Z" fill="#BBABF8"/>
<path d="M104.734 71.3425H90.6324V73.1052H104.734V71.3425Z" fill="#E6DFFC"/>
<path d="M143.514 71.3424H110.503V73.1051H143.514V71.3424Z" fill="#E6DFFC"/>
<path d="M174.698 71.3424H149.283V73.1051H174.698V71.3424Z" fill="#E6DFFC"/>
<path d="M122.201 76.9188H90.6324V78.6815H122.201V76.9188Z" fill="#E6DFFC"/>
<path d="M174.698 76.9188H158.93V78.6815H174.698V76.9188Z" fill="#E6DFFC"/>
<path d="M155.212 76.9188H127.553V78.6815H155.212V76.9188Z" fill="#E6DFFC"/>
<path d="M130.919 82.4957H90.6324V84.2584H130.919V82.4957Z" fill="#E6DFFC"/>
<path d="M193.447 12.5315H136.848C134.284 12.5315 132.233 14.6147 132.233 17.1466V28.4601C132.233 31.0241 134.316 33.0752 136.848 33.0752H193.447C196.011 33.0752 198.062 30.992 198.062 28.4601V17.1787C198.062 14.6147 196.011 12.5315 193.447 12.5315Z" fill="white" stroke="#BBABF8" stroke-width="0.335911" stroke-miterlimit="10"/>
<path d="M153.994 19.326L154.86 21.9862H157.68L155.436 23.6527L156.302 26.3128L154.026 24.6783L151.783 26.3449L152.616 23.6527L150.341 22.0182H153.129L153.994 19.326Z" fill="#FAAF3B"/>
<path d="M162.936 19.326L163.801 21.9862H166.622L164.346 23.6527L165.244 26.3128L162.968 24.6783L160.693 26.3449L161.558 23.6527L159.282 22.0182H162.071L162.936 19.326Z" fill="#FAAF3B"/>
<path d="M171.846 19.326L172.743 21.9862H175.563L173.288 23.6527L174.185 26.3128L171.91 24.6783L169.634 26.3449L170.5 23.6527L168.192 22.0182H171.012L171.846 19.326Z" fill="#FAAF3B"/>
<path d="M180.788 19.326L181.685 21.9862H184.473L182.23 23.6527L183.127 26.3128L180.852 24.6783L178.576 26.3449L179.441 23.6527L177.134 22.0182H179.954L180.788 19.326Z" fill="#FAAF3B"/>
<path d="M189.729 19.326L190.627 21.9862H193.415L191.172 23.6527L192.069 26.3128L189.761 24.6783L187.518 26.3449L188.351 23.6527L186.076 22.0182H188.896L189.729 19.326Z" fill="#E8ECFF"/>
<path d="M146.521 22.5654C146.885 20.3113 145.353 18.1887 143.099 17.8245C140.845 17.4603 138.723 18.9924 138.358 21.2465C137.994 23.5007 139.526 25.6232 141.78 25.9874C144.034 26.3516 146.157 24.8195 146.521 22.5654Z" fill="#DAE0FF"/>
<path d="M141.11 26.8898H137.457V27.8513H141.11V26.8898Z" fill="#BBABF8"/>
<path d="M147.488 26.8898H142.008V27.8513H147.488V26.8898Z" fill="#BBABF8"/>
<path d="M47.9746 31.3767H9.09854C7.33582 31.3767 5.92564 32.7869 5.92564 34.5496V42.3376C5.92564 44.1004 7.33582 45.5105 9.09854 45.5105H47.9425C49.7053 45.5105 51.1154 44.1004 51.1154 42.3376V34.5496C51.1475 32.7869 49.7373 31.3767 47.9746 31.3767Z" fill="white" stroke="#BBABF8" stroke-width="0.335911" stroke-miterlimit="10"/>
<path d="M20.8927 36.0239L21.5017 37.8508H23.4246L21.8542 39.0045L22.4632 40.8313L20.8927 39.7096L19.3544 40.8313L19.9312 39.0045L18.3608 37.8828H20.2838L20.8927 36.0239Z" fill="#FAAF3B"/>
<path d="M27.0142 36.0239L27.6231 37.8508H29.5461L28.0077 39.0045L28.6166 40.8313L27.0462 39.7096L25.5078 40.8313L26.0847 39.0045L24.5143 37.8828H26.4373L27.0142 36.0239Z" fill="#FAAF3B"/>
<path d="M33.1356 36.0239L33.7445 37.8508H35.6995L34.1291 39.0045L34.7381 40.8313L33.1676 39.7096L31.6293 40.8313L32.2062 39.0045L30.6357 37.8828H32.5587L33.1356 36.0239Z" fill="#FAAF3B"/>
<path d="M39.2891 36.0239L39.898 37.8508H41.821L40.2826 39.0045L40.8916 40.8313L39.3211 39.7096L37.7507 40.8313L38.3596 39.0045L36.7892 37.8828H38.7122L39.2891 36.0239Z" fill="#FAAF3B"/>
<path d="M45.4106 36.0239L46.0196 37.8508H47.9746L46.4042 39.0045L47.0131 40.8313L45.4427 39.7096L43.9043 40.8313L44.4812 39.0045L42.9108 37.8828H44.8337L45.4106 36.0239Z" fill="#E8ECFF"/>
<path d="M15.7412 38.2795C15.9937 36.7425 14.9523 35.2917 13.4152 35.0392C11.8781 34.7867 10.4274 35.8281 10.1749 37.3652C9.92241 38.9023 10.9638 40.353 12.5009 40.6055C14.0379 40.858 15.4887 39.8166 15.7412 38.2795Z" fill="#DAE0FF"/>
<path d="M12.0471 41.248H9.54721V41.9211H12.0471V41.248Z" fill="#BBABF8"/>
<path d="M16.4057 41.248H12.6559V41.9211H16.4057V41.248Z" fill="#BBABF8"/>
<path d="M179.313 115.314C184.075 115.314 187.935 111.454 187.935 106.693C187.935 101.931 184.075 98.0716 179.313 98.0716C174.552 98.0716 170.692 101.931 170.692 106.693C170.692 111.454 174.552 115.314 179.313 115.314Z" fill="#FF7AA9"/>
<path d="M181.909 103.424C180.467 103.424 179.313 104.577 179.313 106.02C179.313 104.577 178.159 103.424 176.717 103.424C175.275 103.424 174.121 104.577 174.121 106.02C174.121 109.257 179.313 111.981 179.313 111.981C179.313 111.981 184.505 109.257 184.505 106.02C184.505 104.61 183.351 103.424 181.909 103.424Z" fill="white"/>
<path d="M26.1991 73.322C26.9681 68.6229 23.7821 64.1902 19.0831 63.4212C14.384 62.6523 9.95132 65.8382 9.18235 70.5373C8.41338 75.2363 11.5993 79.669 16.2984 80.438C20.9974 81.207 25.4301 78.021 26.1991 73.322Z" fill="#FF7AA9"/>
<path d="M20.2516 68.6821C18.8093 68.6821 17.6556 69.8359 17.6556 71.2781C17.6556 69.8359 16.5018 68.6821 15.0596 68.6821C13.6173 68.6821 12.4635 69.8359 12.4635 71.2781C12.4635 74.5151 17.6556 77.2393 17.6556 77.2393C17.6556 77.2393 22.8476 74.5151 22.8476 71.2781C22.8476 69.8359 21.6938 68.6821 20.2516 68.6821Z" fill="white"/>
<path d="M64.7684 11.2816L66.8516 17.7556H73.614L68.1336 21.7298L70.2488 28.1717L64.7684 24.1976L59.2879 28.1717L61.3711 21.7298L55.8907 17.7556H62.6531L64.7684 11.2816Z" fill="#BBABF8"/>
<path d="M75.0884 26.7294L76.6909 31.665H81.8829L77.6844 34.7097L79.2869 39.6133L75.0884 36.6006L70.922 39.6133L72.5244 34.7097L68.3259 31.665H73.4859L75.0884 26.7294Z" fill="#BBABF8"/>
<path d="M68.3259 41.6646L69.2554 44.549H72.268L69.8323 46.3117L70.7617 49.1641L68.3259 47.4014L65.8902 49.1641L66.8196 46.3117L64.3839 44.549H67.3965L68.3259 41.6646Z" fill="#BBABF8"/>
<path d="M196.361 75.5337C200.716 71.1782 200.716 64.1164 196.361 59.7608C192.005 55.4053 184.944 55.4053 180.588 59.7608C176.232 64.1164 176.232 71.1782 180.588 75.5337C184.944 79.8893 192.005 79.8893 196.361 75.5337Z" fill="#BBABF8"/>
<path d="M182.807 62.176V66.022L190.627 67.8167L182.807 69.6115V73.4895L197.293 67.8167L182.807 62.176Z" fill="white"/>
<path d="M122.458 16.3773C122.458 25.3832 115.15 32.7225 106.208 32.6905C97.1384 32.6584 90.8247 25.7357 89.9593 18.3964C89.3825 13.5569 90.6965 9.23026 93.9014 5.57661C97.1064 1.89092 101.273 0 106.176 0C115.086 0.0320495 122.522 7.21114 122.458 16.3773Z" fill="#BBABF8"/>
<path d="M108.452 22.4989C107.01 22.4989 105.567 22.4989 104.125 22.4989C103.612 22.4989 103.42 22.3386 103.42 21.8258C103.452 19.5824 103.324 17.3389 103.484 15.0954C103.58 13.6532 104.157 12.3712 105.055 11.2174C105.664 10.4482 106.273 9.67906 106.978 9.00602C107.202 8.78167 107.33 8.52528 107.33 8.20478C107.33 7.82019 107.362 7.43559 107.362 7.051C107.362 6.57026 107.523 6.18566 107.971 5.99337C108.452 5.80107 108.901 5.89722 109.285 6.24976C109.67 6.60231 109.798 7.051 109.926 7.53174C110.215 8.74962 109.99 9.90341 109.51 10.9931C109.349 11.3777 109.189 11.7623 108.997 12.1148C108.869 12.3392 108.965 12.4353 109.189 12.4674C109.285 12.4994 109.413 12.4674 109.51 12.4674C110.792 12.4674 112.106 12.4674 113.388 12.4674C114.093 12.4674 114.573 12.7879 114.734 13.3968C114.926 14.0698 114.638 14.839 114.093 15.1595C113.836 15.2877 113.836 15.3518 114.061 15.5121C114.541 15.8326 114.862 16.2492 114.766 16.8902C114.702 17.3709 114.445 17.6914 113.997 17.8517C113.9 17.8837 113.772 17.8837 113.74 17.9799C113.708 18.1081 113.868 18.1081 113.932 18.1722C114.541 18.6209 114.637 19.8708 113.74 20.2554C113.58 20.3195 113.484 20.3836 113.676 20.5438C114.061 20.9284 114.093 21.4092 113.9 21.8899C113.708 22.3386 113.323 22.4989 112.843 22.4989C111.336 22.4668 109.894 22.4668 108.452 22.4989C108.452 22.4668 108.452 22.4668 108.452 22.4989Z" fill="#FDFDFE"/>
<path d="M101.689 23.7809C100.504 23.7809 99.3178 23.7809 98.132 23.7809C97.7794 23.7809 97.6192 23.5886 97.5871 23.2681C97.5551 23.1078 97.5871 22.9155 97.5871 22.7553C97.5871 20.2554 97.5871 17.7556 97.5871 15.2877C97.5871 14.6788 97.7474 14.5186 98.3563 14.5186C99.414 14.5186 100.504 14.5186 101.561 14.5186C101.978 14.5186 102.202 14.7108 102.202 15.1275C102.202 17.7556 102.202 20.3516 102.202 22.9796V23.0117C102.138 23.0437 102.138 23.0437 102.202 23.0758C102.234 23.3642 102.202 23.6206 101.882 23.7488C101.882 23.6847 101.85 23.5886 101.754 23.6206C101.593 23.6206 101.689 23.7168 101.689 23.7809Z" fill="#FDFDFE"/>
<mask id="mask0_1_6459" style="mask-type:luminance" maskUnits="userSpaceOnUse" x="1" y="52" width="116" height="75">
<path d="M116.336 52.1767H1.11813V126.756H116.336V52.1767Z" fill="white"/>
</mask>
<g mask="url(#mask0_1_6459)">
<path d="M63.7429 63.7785C64.1915 66.0861 64.0633 68.4257 64.2556 70.7653C64.4159 73.1049 64.9607 75.5086 66.4991 77.2714C67.8131 78.7777 69.7361 79.7071 70.6655 81.4698C71.3706 82.8159 71.3706 84.4504 70.8258 85.8606C70.313 87.2708 69.3195 88.4887 68.1336 89.4502C64.1595 92.7833 58.1983 93.2961 53.487 91.1488C48.7757 88.9694 45.3785 84.3543 44.2888 79.2905C43.1671 74.2267 44.2247 68.8103 46.7246 64.2593C48.1347 61.6953 50.0898 59.3236 52.6858 57.9776C54.8651 56.8879 58.1021 56.4712 60.2815 57.7853C62.1724 58.907 63.3583 61.7594 63.7429 63.7785Z" fill="#452828"/>
<path d="M101.273 115.859C101.273 115.859 100.439 117.686 98.26 116.596L96.8499 119.256L100.375 121.115L102.939 116.307L101.946 111.564C101.946 111.564 100.984 111.949 101.016 112.974C101.016 113.968 101.273 115.859 101.273 115.859Z" fill="#915046"/>
<path d="M104.478 122.109C104.51 120.987 103.901 119.961 102.907 119.448L99.2216 117.493L98.4524 118.936L104.478 122.109Z" fill="#994F39"/>
<path d="M105.503 123.743C105.535 122.621 104.926 121.596 103.933 121.083L99.7023 118.839L98.9331 120.282L105.503 123.743Z" fill="#AB6955"/>
<path d="M100.568 107.045L101.785 110.699H105.663L102.555 112.974L103.773 116.66L100.632 114.417L97.4908 116.724L98.6767 113.006L95.5038 110.763L99.3818 110.731L100.568 107.045Z" fill="#FAAF3B"/>
<path d="M98.1959 116.564L98.3882 115.282L99.8625 114.096C100.311 113.744 100.568 113.199 100.568 112.622V112.462L96.0165 114.096L94.0295 116.436L92.7475 118.839L99.6061 122.461L100.087 121.596C101.016 119.865 100.343 117.686 98.6125 116.788L98.1959 116.564Z" fill="#B57A68"/>
<path d="M104.478 125.057C104.51 123.935 103.901 122.91 102.907 122.397L98.6767 120.154L97.9075 121.596L104.478 125.057Z" fill="#B57A68"/>
<path d="M98.1319 116.436C97.7153 117.109 97.1384 117.686 96.5294 118.166" stroke="#A15545" stroke-width="0.597627" stroke-miterlimit="10" stroke-linecap="round" stroke-linejoin="round"/>
<path d="M73.582 116.404L94.4783 116.756L94.4142 119.609L69.5438 123.423L73.582 116.404Z" fill="#B57A68"/>
<path d="M54.2242 89.5784H60.3777C63.2621 89.5784 65.8581 91.4052 66.7876 94.1614L75.6973 120.218C75.6973 120.218 75.0884 125.025 71.3066 125.474C69.8964 125.634 68.5183 124.865 67.8773 123.615L54.2562 97.783V89.5784H54.2242Z" fill="#383757"/>
<path d="M69.7682 115.987L89.9273 116.66L83.2931 125.057L70.5374 125.826C68.8387 125.922 67.5568 124.352 67.9734 122.717L68.8067 119.545L69.7682 115.987Z" fill="#383757"/>
<path d="M73.5821 116.404C71.9476 117.397 70.0887 118.936 69.2234 120.666" stroke="#474463" stroke-width="0.597627" stroke-miterlimit="10" stroke-linecap="round"/>
<path d="M73.582 116.404C71.4347 116.5 68.8066 116.788 67.2362 118.231" stroke="#474463" stroke-width="0.597627" stroke-miterlimit="10" stroke-linecap="round"/>
<path d="M38.616 128.519L33.5522 93.6487L36.0841 89.5463H59.2559L65.6338 106.693C65.6338 106.693 60.3135 123.198 60.3135 129.32L66.1786 146.338L59.2559 148.998L53.9357 132.653L48.0706 148.902L29.8345 141.306L38.616 128.519Z" fill="#474463"/>
<path d="M33.5522 93.6486L36.1162 89.4822H39.4493L40.4108 97.783L37.2058 118.936L33.5522 93.6486Z" fill="#383757"/>
<path d="M58.1982 89.6425V109.257L41.7568 89.6425H58.1982Z" fill="white"/>
<path d="M48.1026 94.3537C46.9488 94.0653 45.8271 93.6807 44.7374 93.1999L41.5965 89.4501H58.1661V92.3346C55.8586 95.0908 51.4678 95.1549 48.1026 94.3537Z" fill="#B57A68"/>
<path d="M41.5965 89.4822V101.725H48.6474L44.7374 109.962L58.6789 109.866L41.5965 89.4822Z" fill="#615F7F"/>
<path d="M58.1982 89.4822H59.2558L67.4605 101.725H60.9865L67.9733 109.962H58.6789H58.2943L58.1982 89.4822Z" fill="#615F7F"/>
<path d="M58.2624 109.962C56.6919 117.429 55.5061 125.025 53.9357 132.493" stroke="#383757" stroke-width="0.597627" stroke-miterlimit="10"/>
<path d="M40.4108 89.4501H34.2893C31.4049 89.4501 28.8089 91.277 27.8794 94.0332L18.9697 120.089C18.9697 120.089 19.0658 122.012 19.9632 123.679C21.3734 126.307 24.8988 126.98 26.309 124.352L40.4108 97.6868V89.4501Z" fill="#474463"/>
<path d="M48.9359 117.461L50.6345 118.904L54.6728 119.833L54.6407 119.673C54.5766 119.096 54.2241 118.615 53.7433 118.295L52.7178 117.493L53.0062 116.372L54.7048 114.962L52.6537 113.199L48.2629 116.083L48.9359 117.461Z" fill="#915046"/>
<path d="M52.8781 114.609L55.6664 117.269L59.0957 115.442L57.397 118.936L60.2174 121.596L56.3714 121.083L54.7049 124.576L53.9998 120.762L50.1538 120.25L53.5511 118.423L52.8781 114.609Z" fill="#FAAF3B"/>
<path d="M55.41 116.019C55.41 116.019 54.5446 114.673 52.9742 115.763L51.564 113.808L54.4164 111.821L56.9483 115.346L56.3715 118.583C56.3715 118.583 55.5702 118.391 55.4741 117.589C55.41 116.788 55.41 116.019 55.41 116.019Z" fill="#915046"/>
<path d="M49.1282 117.782L47.4617 115.538L53.6793 110.731L54.2562 111.532C55.4099 113.135 55.3458 114.577 54.3523 115.346L53.0062 116.404L49.1282 117.782Z" fill="#B57A68"/>
<path d="M58.2624 112.782C58.4547 112.75 58.5829 112.91 58.5188 113.103C58.2303 113.776 57.6214 114.32 56.8843 114.513L53.1024 115.442L52.7819 114.16L58.2624 112.782Z" fill="#B57A68"/>
<path d="M57.7495 107.43C57.9418 107.302 58.1982 107.398 58.1982 107.654C58.2303 108.584 57.8457 109.481 57.0765 110.09L53.3267 113.103L52.3011 111.821L57.7495 107.43Z" fill="#B57A68"/>
<path d="M58.5508 110.09C58.7431 109.994 58.9995 110.154 58.9354 110.378C58.7752 111.276 58.1983 112.077 57.3329 112.494L53.5832 114.353L52.846 112.878L58.5508 110.09Z" fill="#B57A68"/>
<path d="M25.5399 114.833L46.1156 114.705L39.7057 123.647L23.7771 126.051C21.726 126.371 19.9633 124.544 20.3478 122.493C20.9247 119.192 22.3029 115.09 25.5399 114.833Z" fill="#474463"/>
<path d="M31.1485 114.801L24.3861 114.962" stroke="#383757" stroke-width="0.597627" stroke-miterlimit="10" stroke-linecap="round"/>
<path d="M31.1485 114.801L24.0976 116.66" stroke="#383757" stroke-width="0.597627" stroke-miterlimit="10" stroke-linecap="round"/>
<path d="M45.6348 73.0728L46.372 91.1807C46.404 91.9179 47.013 92.4948 47.7181 92.4948H56.6278C57.7495 92.4948 58.2623 91.1487 57.4931 90.3795C55.7945 88.7129 54.0639 85.8285 54.0639 81.0851V73.4574L45.6348 73.0728Z" fill="#B57A68"/>
<path d="M49.7692 73.2331L54.0638 73.4254V81.0532C54.0638 83.1364 54.3843 84.8671 54.9292 86.2772C49.9615 84.6107 48.327 78.0085 49.7692 73.2331Z" fill="#915046"/>
<path d="M47.8463 79.8354C47.2374 79.4187 46.6605 78.938 46.0836 78.3931C43.2312 75.6048 41.5326 71.855 41.1159 67.8809C40.7313 64.1952 41.4685 60.5095 44.5452 58.0737C47.8143 55.4777 52.9422 55.2534 56.6279 57.0482C60.1533 58.7788 62.1084 62.0799 62.8135 65.8297C63.166 67.6886 63.2621 69.6116 63.2942 71.5025C63.3262 75.06 62.7814 81.8865 58.7111 82.7519C54.3203 83.6813 51.0833 82.0147 47.8463 79.8354Z" fill="#B57A68"/>
<path d="M61.5314 64.2913C62.7173 65.9579 63.0378 68.0732 63.3583 70.0923C64.0954 67.4963 64.0954 64.708 63.3583 62.1119C63.0057 60.8941 62.4929 59.7082 61.6596 58.7788C60.8263 57.8494 59.6085 57.1763 58.3585 57.2084C56.3715 57.2404 53.9998 59.9646 56.051 61.5992C56.6599 62.1119 57.7175 61.9837 58.4547 62.2081C59.7046 62.4965 60.7943 63.2016 61.5314 64.2913Z" fill="#452828"/>
<path d="M56.8202 65.7656C55.4741 66.9835 53.8396 67.7847 52.0769 68.1373C50.2821 68.5219 48.1027 68.4257 46.7246 69.8679C42.6223 74.2587 46.0836 79.5148 48.1668 83.9377C49.2245 86.1491 50.3142 88.7451 49.7373 91.2449C49.0001 94.4499 45.8593 95.9883 42.7825 95.9883C37.7828 96.0203 33.9048 92.3026 32.8792 87.4952C32.3664 85.0273 32.719 82.5595 33.6805 80.2199C34.5778 78.0726 35.988 76.2137 36.6931 74.0023C37.8148 70.4769 36.2124 66.7271 37.3662 63.1375C39.6417 55.9905 50.6346 48.9717 57.333 54.8047C61.243 58.2019 59.9931 62.8811 56.8202 65.7656Z" fill="#452828"/>
<path d="M47.0131 67.3361C46.1157 68.2014 45.5388 69.3872 45.4106 70.6372C45.2504 72.0473 45.635 73.4575 46.3401 74.7074L47.2695 74.5472C47.3657 72.9447 47.7823 71.3422 48.263 69.8359C48.4874 69.1308 48.7758 68.4578 49.0963 67.7848C48.8079 66.5348 47.8144 66.5669 47.0131 67.3361Z" fill="#452828"/>
<path d="M59.1277 70.9256C59.3841 72.1114 59.8649 73.2652 60.5379 74.2588C60.7623 74.6113 61.0507 75.0279 60.9546 75.4446C60.8584 75.8292 60.4738 76.0856 60.1213 76.2779" stroke="#915046" stroke-width="0.38985" stroke-miterlimit="10" stroke-linecap="round"/>
<path d="M59.0982 79.4539C59.6294 79.2574 59.9008 78.6674 59.7043 78.1362C59.5078 77.605 58.9179 77.3336 58.3866 77.5301C57.8554 77.7266 57.584 78.3165 57.7805 78.8478C57.977 79.379 58.567 79.6504 59.0982 79.4539Z" fill="#FF7A7A"/>
<path d="M60.2816 77.9126C59.224 78.5536 57.8779 78.6177 56.7561 78.1369" stroke="#915046" stroke-width="0.38985" stroke-miterlimit="10" stroke-linecap="round"/>
<path d="M62.6852 67.6886C61.7878 67.1758 60.8263 67.304 60.1213 68.0411" stroke="#452828" stroke-width="0.584294" stroke-miterlimit="10" stroke-linecap="round"/>
<path d="M55.6022 68.6182C54.3202 68.2016 52.9742 68.4259 51.9165 69.2272" stroke="#452828" stroke-width="0.584294" stroke-miterlimit="10" stroke-linecap="round"/>
<path d="M55.3458 71.4064C55.442 71.8871 55.0894 72.3678 54.6087 72.464C54.1279 72.5601 53.6472 72.2076 53.5511 71.7268C53.4549 71.2461 53.8074 70.7654 54.2882 70.6692C54.801 70.6051 55.2817 70.9256 55.3458 71.4064Z" fill="#452828"/>
<path d="M62.2591 70.9202C62.3397 70.4312 62.0086 69.9695 61.5196 69.8889C61.0305 69.8083 60.5688 70.1394 60.4882 70.6284C60.4076 71.1174 60.7387 71.5792 61.2277 71.6598C61.7167 71.7404 62.1785 71.4093 62.2591 70.9202Z" fill="#452828"/>
<path d="M46.1157 72.5281C45.5067 72.0153 44.6093 71.7269 43.8722 72.0153C43.2633 72.2717 42.8466 72.8486 42.6864 73.4896C42.5261 74.1306 42.6543 74.8036 42.8466 75.4125C43.5517 77.3676 45.5067 78.8098 47.5579 78.9059C47.9745 78.938 47.7502 75.4766 47.6861 75.1562C47.5258 74.1947 46.8848 73.1691 46.1157 72.5281Z" fill="#B57A68"/>
<path d="M46.981 78.0086C47.0771 78.4894 46.7566 78.9701 46.2438 79.0342C45.7631 79.1304 45.2824 78.8099 45.2183 78.2971C45.1221 77.8163 45.4426 77.3356 45.9554 77.2715C46.4361 77.2074 46.8848 77.5279 46.981 78.0086Z" fill="white"/>
<path d="M44.0003 73.4254C44.3529 73.1369 44.8977 73.1049 45.3144 73.2651C45.731 73.4574 46.0515 73.81 46.2759 74.2266C46.4681 74.6433 46.5643 75.124 46.5963 75.5727C46.372 75.3483 45.9874 75.3163 45.731 75.5086C45.4746 75.7009 45.3785 76.0534 45.5067 76.3419C45.6349 76.6303 45.9874 76.7906 46.3079 76.6944" stroke="#915046" stroke-width="0.38985" stroke-miterlimit="10" stroke-linecap="round"/>
</g>
</svg>
