<svg width="164" height="122" viewBox="0 0 164 122" fill="none" xmlns="http://www.w3.org/2000/svg">
<path opacity="0.2" d="M4.8321 121.608H160.186C160.186 121.608 176.107 91.1745 142.892 93.92C119.563 95.8448 134.881 36.4822 72.6274 37.3828C21.2979 38.1309 68.8142 75.2535 30.9072 76.9748C-3.68044 78.551 -3.95644 108.672 4.8321 121.608Z" fill="#30BCE9"/>
<path d="M128.961 88.6833L126.019 90.855L105.951 105.658L102.654 108.083L84.3356 121.608H71.24L98.0414 101.83L109.808 93.1502L115.633 88.8576L121.407 84.6014L124.349 82.4297L128.402 87.9207L128.961 88.6833Z" fill="#ABC7F2"/>
<path d="M130.305 96.6655L117.253 78.9722H135.767L130.305 96.6655Z" fill="#ABC7F2"/>
<path d="M129.44 45.4668L125.983 48.0162L102.399 65.4189L98.528 68.2734L76.9925 84.1581H61.6089L93.1097 60.923L106.932 50.7254L113.781 45.6701L120.558 40.6657L124.015 38.1163L128.78 44.5806L129.44 45.4668Z" fill="#BFDCFF"/>
<path d="M131.024 54.8509L115.677 34.0562L137.437 34.0635L131.024 54.8509Z" fill="#BFDCFF"/>
<path d="M123.506 110.858L120.826 112.834L108.936 121.608H97.0246L116.628 107.139L119.308 105.164L123.506 110.858Z" fill="#4B83DB"/>
<path d="M124.734 118.129L112.844 102.019H129.702L124.734 118.129Z" fill="#4B83DB"/>
<path d="M91.9114 14.6925C91.9114 14.6925 94.025 16.0798 96.5017 15.2881C98.9785 14.4964 101.869 15.782 104.978 15.2082C104.978 15.2082 106.772 12.5571 105.908 9.70268C105.036 6.84822 105.276 5.11957 105.276 5.11957L103.09 4.93799C103.09 4.93799 103.38 8.27182 102.893 10.0005C102.407 11.7364 102.567 12.3175 102.567 12.3175C102.567 12.3175 97.9253 11.8671 96.7632 11.5693C95.6083 11.2715 94.2283 11.6565 92.4997 11.7437C91.2068 11.809 91.9114 14.6925 91.9114 14.6925Z" fill="#F4A691"/>
<path d="M92.9064 11.4019C92.9064 11.4019 93.9886 11.3293 94.635 11.3075C95.1652 11.293 95.9787 11.3366 96.4654 11.4019C97.3369 11.5109 98.2812 11.8595 98.2812 11.8595C98.2812 11.8595 96.9302 12.8401 96.9084 13.9586L94.3953 12.4478L92.9064 11.4019Z" fill="#FF6576"/>
<path d="M104.927 3.51426C104.927 3.51426 101.535 3.53605 101.695 3.69584C102.109 4.10258 102.632 4.80712 102.952 5.28649C102.959 5.30102 102.959 5.31555 102.959 5.33007H102.944H102.937C102.937 5.33007 102.937 5.33007 102.944 5.33007H102.937C102.944 5.33007 102.944 5.33007 102.952 5.33007C102.959 5.33007 102.959 5.33734 102.966 5.33734C102.959 5.40271 102.915 5.50439 102.937 5.64239C102.937 5.65692 102.944 5.66418 102.944 5.67871C102.944 5.70776 102.944 5.73682 102.959 5.76587V5.75134C103.155 6.66651 103.7 6.35419 104.252 6.47767C104.833 6.60841 105.116 6.29609 105.196 6.04914C105.399 5.45355 105.319 4.1389 104.927 3.51426ZM102.487 2.80246C102.494 2.80972 102.479 2.80246 102.472 2.78793L102.487 2.80246Z" fill="#F4A691"/>
<path d="M84.038 61.0028C84.038 61.0028 84.2342 62.7968 84.8297 63.5014C85.4253 64.2132 88.2072 64.6562 88.2072 65.644C88.2072 65.644 87.7714 65.8256 86.05 65.7021C84.3286 65.5787 83.8928 65.5351 83.043 65.644C81.8373 65.7966 81.8663 65.5859 81.9026 64.9177C81.9244 64.5763 82.2295 63.9662 82.1641 62.8985C82.1133 62.0342 81.7138 61.0464 81.7138 61.0464L84.038 61.0028Z" fill="#383463"/>
<path d="M98.6589 61.0028C98.6589 61.0028 98.855 62.7968 99.4506 63.5014C100.046 64.2132 102.828 64.6562 102.828 65.644C102.828 65.644 102.392 65.8256 100.671 65.7021C98.9494 65.5787 98.5136 65.5351 97.6638 65.644C96.4581 65.7966 96.4872 65.5859 96.5235 64.9177C96.5453 64.5763 96.8503 63.9662 96.785 62.8985C96.7341 62.0342 96.3346 61.0464 96.3346 61.0464L98.6589 61.0028Z" fill="#383463"/>
<path d="M96.9594 9.42648C96.9594 9.42648 96.8432 9.71701 96.5817 10.0366C96.4364 9.62258 96.1604 8.9471 95.7464 8.51131C95.7682 8.54762 96.3711 9.52816 96.1532 10.4506C95.8336 10.6903 95.4051 10.8573 94.8676 10.8065C93.4004 10.654 92.4053 10.9445 92.4053 10.9445L90.5169 2.19227C90.5169 2.19227 92.1802 1.72742 93.4876 2.67891C94.7949 3.6304 95.2961 5.23558 95.2089 6.34685C95.1291 7.45087 96.451 7.58161 96.9594 9.42648Z" fill="#6D2F3B"/>
<path d="M89.7397 36.7435C90.4805 40.455 93.6981 44.6459 93.1389 46.5634C91.8823 50.8923 96.2112 61.09 96.2112 61.09C97.2426 61.9616 99.378 61.366 99.378 61.366C97.4242 52.5193 97.7801 47.9725 97.9036 47.2099C98.0198 46.4545 98.4992 40.7093 97.7801 34.6662C97.3588 31.129 97.2353 25.9794 97.2353 25.9794L90.7275 28.4634C90.1827 31.5212 89.6162 36.1189 89.7397 36.7435Z" fill="#51497A"/>
<path d="M94.083 26.7348C93.8288 27.0471 93.8869 34.8406 87.5969 46.7088C84.4156 52.7228 84.4374 61.613 84.4374 61.613C84.4374 61.613 82.6869 62.0197 81.5974 61.1264C81.5974 61.1264 81.1689 53.696 81.2633 51.5025C81.365 49.309 82.883 46.7669 83.3551 45.8662C83.7401 45.1327 82.331 35.0658 84.8441 29.9016C85.6867 28.1657 89.4563 25.2822 90.9888 24.781L94.083 26.7348Z" fill="#51497A"/>
<path d="M91.8823 23.8951C91.0398 19.7478 90.8146 13.7048 91.7225 12.855C92.6304 12.0052 92.0639 12.0488 94.1557 12.3829C95.7464 12.6371 95.6156 12.8695 95.6156 12.8695C95.6156 12.8695 98.9858 16.9733 99.2763 18.0337C99.7266 19.6679 98.9059 20.249 98.9059 20.249L96.5163 25.7473L90.6548 26.6915C90.6621 26.6842 92.1147 25.0282 91.8823 23.8951Z" fill="#FABBA5"/>
<path d="M99.9809 18.2005C99.9881 19.2174 99.1529 20.0381 99.1311 20.0526C99.1311 20.0526 98.3394 22.6892 97.6784 24.1564C97.2644 25.0788 97.2717 25.9214 97.3443 26.4225C97.3879 26.713 97.446 26.8946 97.4532 26.9092C97.4532 26.9092 96.1095 27.8461 91.7225 27.098C90.9163 26.96 89.0351 26.3281 88.9262 26.1538C88.6647 25.7035 89.8341 24.8246 90.5386 24.1273C90.7638 23.9022 90.9454 23.6915 91.0107 23.5317C91.047 23.4446 91.0616 23.3647 91.047 23.2993C91.0253 23.1686 90.9671 22.8926 90.88 22.5294V22.5221C90.5749 21.1784 89.9866 18.7453 89.9866 18.7453C88.8027 13.138 89.8268 12.0413 90.3062 12.0631C90.4151 12.0703 91.57 12.2011 91.57 12.2011C91.57 12.2011 92.5505 13.1743 93.2333 13.799C94.8022 15.2371 95.79 14.794 95.0273 13.9225C94.025 12.7749 93.7345 11.511 93.7345 11.511L95.4849 12.6005C95.4849 12.6005 97.7002 13.8498 98.9059 15.5349C99.0802 15.7746 99.3417 16.007 99.5669 16.3992C99.7557 16.7261 99.9082 17.1619 99.9591 17.801C99.9809 17.9245 99.9809 18.0552 99.9809 18.2005Z" fill="#FF6576"/>
<path d="M88.4613 28.2166C87.7422 28.834 87.3645 29.7128 87.1031 30.5989C86.7907 31.6739 86.5656 32.7779 86.3332 33.8747C85.8393 36.2207 85.4761 38.6394 85.7521 41.0435C85.8102 41.5519 85.9482 42.0604 85.9555 42.5761C85.9627 42.8085 85.9409 43.0482 85.8247 43.2515C85.694 43.4912 85.4688 43.5639 85.2727 43.7236C85.0476 43.9125 85.0403 44.1594 85.1638 44.4137C85.3018 44.6897 85.8029 45.1472 85.3889 45.4087C85.2074 45.5177 84.9749 45.5613 84.7861 45.6557C84.59 45.7574 84.4011 45.8808 84.2341 46.0188C83.8782 46.3021 83.5804 46.6507 83.3407 47.0357C82.796 47.9 82.5781 48.9024 82.4909 49.9119C82.3747 51.2556 82.4255 52.6139 82.411 53.9576C82.3892 55.3739 82.3602 56.7903 82.3166 58.2066C82.3166 58.2792 82.4328 58.2792 82.4328 58.2066C82.5054 55.7661 82.4982 53.3184 82.5635 50.878C82.6144 48.8806 83.0792 46.382 85.2219 45.6121C85.4906 45.5177 85.7594 45.3651 85.6649 45.0383C85.5778 44.726 85.28 44.5153 85.2146 44.203C85.1493 43.9198 85.3962 43.7963 85.5996 43.6655C85.7448 43.5711 85.8683 43.4476 85.9482 43.2879C86.1225 42.9465 86.0935 42.5325 86.0426 42.162C85.9627 41.581 85.8611 41.0072 85.8175 40.4261C85.7739 39.8305 85.7739 39.235 85.7957 38.6394C85.8465 37.4264 86.0136 36.2207 86.2315 35.0295C86.4712 33.7439 86.7617 32.4656 87.074 31.2018C87.3355 30.1414 87.6914 29.0446 88.5485 28.311C88.5993 28.2529 88.5121 28.173 88.4613 28.2166Z" fill="#383463"/>
<path d="M92.1147 39.1549C92.6159 40.564 93.0662 42.0021 93.6327 43.3821C93.8579 43.9269 94.1194 44.4571 94.497 44.9147C94.7077 45.1689 94.9619 45.3722 95.2088 45.5901C95.4703 45.8153 95.7899 46.2075 95.5865 46.5779C95.5139 46.7087 95.3832 46.7886 95.3105 46.9193C95.2524 47.0283 95.2452 47.1517 95.2379 47.2752C95.2306 47.6456 95.2452 48.0233 95.2524 48.401C95.267 49.1782 95.296 49.9481 95.3396 50.7253C95.4267 52.2869 95.5575 53.8485 95.7463 55.4028C95.9497 57.1169 96.2184 58.8165 96.5525 60.5089C96.5671 60.5815 96.676 60.5525 96.6615 60.4798C96.0659 57.4075 95.6664 54.3061 95.4776 51.1829C95.434 50.4057 95.3977 49.6358 95.3759 48.8586C95.3614 48.4664 95.3541 48.0669 95.3541 47.6747C95.3541 47.5004 95.3323 47.3115 95.3614 47.1372C95.3977 46.9338 95.5357 46.854 95.6446 46.6942C95.9933 46.2003 95.4921 45.6773 95.1289 45.3868C94.6133 44.9655 94.2428 44.4498 93.9523 43.8542C93.6109 43.1497 93.3712 42.3943 93.1098 41.6607C92.812 40.8182 92.5069 39.9756 92.2091 39.1258C92.2019 39.0532 92.0929 39.0823 92.1147 39.1549Z" fill="#383463"/>
<path d="M91.5773 11.6272C91.5773 11.6272 93.0081 13.1235 94.0904 12.4625C94.0904 12.4625 93.7345 11.649 93.5456 10.8137C93.4657 10.4506 93.4149 10.0802 93.4439 9.7751C93.4512 9.73152 93.4512 9.68068 93.4584 9.6371C93.6328 8.65656 90.3716 8.4895 90.3498 8.48224C90.357 8.4895 90.7057 8.83814 90.9454 9.46278C90.9962 9.59352 91.0398 9.73152 91.0761 9.88405C91.1124 10.0511 91.1415 10.2327 91.156 10.4215C91.2359 11.6708 91.5773 11.6272 91.5773 11.6272Z" fill="#FABBA5"/>
<path d="M90.9454 9.4628C90.9962 9.59354 91.0398 9.73154 91.0761 9.88407C91.8751 10.5959 93.5238 10.8065 93.5529 10.8065C93.473 10.4433 93.4222 10.0729 93.4512 9.76786C92.6813 9.59354 91.3231 9.31754 90.9454 9.4628Z" fill="#ED938B"/>
<path d="M90.9453 9.75339C92.6595 10.5741 94.0831 10.1892 94.4099 10.0076C94.7368 9.82602 94.6786 9.50644 95.0055 8.584C95.2307 7.94484 95.2016 7.39283 95.0709 7.00788C95.0128 6.83356 94.9256 6.68829 94.8384 6.58661C94.8094 6.55756 94.7876 6.52124 94.7658 6.49219C94.577 6.23071 94.7004 6.10723 94.6133 5.59154C94.5915 5.47533 94.5189 5.33006 94.4172 5.17754C94.3736 5.11217 94.3228 5.03953 94.2646 4.97416C93.8579 4.45847 93.2333 3.92826 93.2333 3.92826C90.4587 2.76613 89.0569 5.11943 89.0932 6.07818C89.1223 7.04419 89.2239 8.9399 90.9453 9.75339Z" fill="#FABBA5"/>
<path d="M90.9671 6.02007C90.9671 6.02007 91.0979 5.33006 92.3399 5.4027C93.0808 5.44628 93.0372 5.79491 92.6232 5.82396C92.2164 5.86028 92.0203 5.49712 90.9671 6.02007Z" fill="#752D4B"/>
<path d="M94.0541 5.56257C94.2066 5.4972 94.3083 5.2793 94.4172 5.18488C94.3737 5.11951 94.3228 5.04688 94.2647 4.98151C94.2139 4.99603 94.163 5.01782 94.0977 5.0614C93.6909 5.34467 93.8071 5.66425 94.0541 5.56257Z" fill="#752D4B"/>
<path d="M93.9088 6.47053C93.9378 6.65211 94.0903 6.05652 94.2647 5.98389C94.4245 5.91126 94.6496 5.97663 94.7731 5.86768C94.8094 5.83862 94.7804 5.78778 94.7368 5.79504C94.6641 5.81683 94.5624 5.83136 94.439 5.80957C94.2065 5.77325 93.8216 5.9621 93.9088 6.47053Z" fill="#2D2B4E"/>
<path d="M93.9959 6.44135C94.0685 6.4704 94.1484 6.4704 94.2138 6.43409C94.2792 6.39777 94.3227 6.32514 94.3518 6.25977C94.3881 6.17261 94.3809 6.07092 94.3082 6.02008C94.2646 5.98376 94.2211 5.95471 94.2211 5.95471L94.0903 6.1145L94.0177 6.17261L93.9814 6.27429L93.9596 6.3324C93.9523 6.3324 93.9596 6.41956 93.9959 6.44135Z" fill="#2D2B4E"/>
<path d="M92.8701 6.49215C92.8701 6.49215 92.6595 6.04909 92.4126 5.94014C92.1583 5.83845 91.4538 5.99098 91.3594 6.15804C91.2577 6.32509 91.2722 6.57931 91.2722 6.57931C91.2722 6.57931 92.0131 5.86024 92.8701 6.49215Z" fill="#EF9F8A"/>
<path d="M91.2795 6.65927C91.3303 6.78274 91.541 6.65927 91.6644 6.60842C91.6935 6.5939 91.7225 6.57937 91.7516 6.56484C91.8387 6.514 91.9259 6.46316 92.0203 6.42684C92.1002 6.39779 92.1874 6.376 92.2745 6.36874C92.5288 6.34695 92.7975 6.44137 92.9791 6.62295C92.9718 6.60842 92.6304 6.08547 92.0058 6.1581C91.5482 6.20168 91.2359 6.57211 91.2795 6.65927Z" fill="#752D4B"/>
<g opacity="0.2">
<path d="M90.9236 7.43634C91.0834 7.26202 91.3521 7.16034 91.6063 7.17487C91.7443 7.18213 91.8896 7.18939 92.0276 7.20392C92.3036 7.21844 92.6014 7.24023 92.7902 7.40003C92.8484 7.44361 92.8847 7.50171 92.8992 7.56708C92.9282 7.72687 92.7757 7.82129 92.6305 7.89393C92.2382 8.08277 91.7806 8.16993 91.3521 8.12635C91.2867 8.11909 91.2141 8.11182 91.1487 8.0973C90.8146 8.01014 90.6984 7.68329 90.9236 7.43634Z" fill="#FF6576"/>
</g>
<g opacity="0.2">
<path d="M94.3736 7.04419C94.4027 7.14588 94.4753 7.17493 94.5407 7.1822C94.715 7.21125 94.8966 7.16041 95.0273 7.03693C95.0418 7.02967 95.0491 7.01514 95.0636 7.00062C95.0055 6.8263 94.9184 6.68103 94.8312 6.57935C94.8022 6.55029 94.7804 6.51398 94.7586 6.48492C94.7513 6.49219 94.7368 6.49945 94.7295 6.50671C94.6859 6.54303 94.6351 6.57935 94.5915 6.61566C94.4971 6.68829 94.4027 6.76819 94.3736 6.90619C94.3664 6.95704 94.3664 7.00062 94.3736 7.04419Z" fill="#FF6576"/>
</g>
<path d="M93.8142 5.73682C93.6326 5.88208 93.5818 6.12177 93.6326 6.34693C93.6907 6.59388 93.8651 6.78273 94.0467 6.94978C94.1701 7.05873 94.4534 7.21126 94.4098 7.41463C94.388 7.50179 94.3009 7.56716 94.2355 7.618C94.1411 7.69063 94.0321 7.74874 93.9232 7.79958C93.8869 7.81411 93.8651 7.76327 93.8941 7.74874C94.0176 7.69063 94.1411 7.62526 94.2428 7.53811C94.3299 7.46547 94.3953 7.37831 94.3154 7.26936C94.2791 7.21126 94.221 7.16768 94.1701 7.1241C93.9958 6.9861 93.8288 6.84083 93.7053 6.65199C93.5164 6.36146 93.4801 5.93292 93.7706 5.7005C93.807 5.67145 93.8433 5.70776 93.8142 5.73682Z" fill="#EF9F8A"/>
<path d="M93.0519 8.43155C93.0592 8.43155 93.0737 8.43155 93.081 8.43881C93.2698 8.4606 93.5095 8.3226 93.633 8.1846C93.771 8.03207 93.9961 8.14102 93.9961 8.14102C94.0397 8.06839 94.0978 8.03933 94.1559 8.03933C94.3085 8.02481 94.4828 8.15554 94.4973 8.17007C94.4973 8.17007 94.4973 8.17007 94.4973 8.17733C94.4973 8.1846 94.4973 8.19186 94.5046 8.20639C94.5046 8.21365 94.5046 8.22091 94.5118 8.22818C94.5336 8.4025 94.5627 8.94724 93.9671 8.99082C93.3933 9.0344 93.1391 8.64945 93.0592 8.49692C93.0519 8.48965 93.0519 8.47513 93.0447 8.46786C93.0447 8.44607 93.0447 8.43881 93.0519 8.43155Z" fill="#FF6576"/>
<path d="M94.5189 8.18462C94.5189 8.18462 94.5189 8.19188 94.5116 8.19188L94.5043 8.19915C94.0903 8.49694 93.5529 8.59136 93.0662 8.46789C93.059 8.46789 93.0517 8.46062 93.0444 8.46062C93.0517 8.45336 93.0517 8.4461 93.059 8.43883C93.0662 8.43883 93.0807 8.4461 93.088 8.4461C93.5674 8.56957 94.0976 8.47515 94.5043 8.17736H94.5116C94.5189 8.17009 94.5189 8.17736 94.5189 8.18462Z" fill="#F13A56"/>
<path d="M94.519 8.0901C94.5117 8.13393 94.5336 8.17775 94.5701 8.19236C94.5847 8.19966 94.5701 8.22157 94.5555 8.21427C94.5044 8.19236 94.4825 8.13393 94.4898 8.0828C94.4971 8.06089 94.5263 8.07549 94.519 8.0901Z" fill="#F13A56"/>
<path d="M93.1025 8.40981C93.0953 8.41707 93.088 8.42434 93.088 8.43886C93.088 8.43886 93.088 8.43886 93.0807 8.44613C93.0735 8.45339 93.0735 8.46065 93.0662 8.46791C93.059 8.47518 93.059 8.48244 93.059 8.48971C93.0444 8.5115 93.0372 8.53329 93.0299 8.56234C93.0226 8.57687 93.0009 8.5696 93.0081 8.55507C93.0154 8.52602 93.0299 8.49697 93.0444 8.46791C93.0517 8.46065 93.0517 8.45339 93.059 8.44613C93.0662 8.4316 93.0735 8.42434 93.0807 8.40981C93.088 8.38076 93.1098 8.39528 93.1025 8.40981Z" fill="#F13A56"/>
<path d="M93.7272 8.61323L93.749 8.5987C93.8652 8.57691 93.9886 8.54786 94.0976 8.48975C94.1412 8.46796 94.1775 8.43891 94.2211 8.43164C94.2646 8.42438 94.3227 8.44617 94.33 8.48975C94.3445 8.53333 94.3082 8.57691 94.2792 8.60596C94.1702 8.70038 94.0322 8.75123 93.887 8.77302C93.8361 8.78028 93.7707 8.78028 93.7344 8.74397C93.6981 8.71491 93.6981 8.64954 93.7272 8.61323Z" fill="#FF8091"/>
<g opacity="0.2">
<path d="M94.4027 9.28112C94.2065 9.25933 94.0177 9.29564 93.8434 9.39733C93.778 9.43364 93.7272 9.33196 93.7926 9.29564C93.9814 9.18669 94.192 9.14311 94.4099 9.17217C94.4753 9.17943 94.4753 9.28838 94.4027 9.28112Z" fill="#FF6576"/>
</g>
<g opacity="0.2">
<path d="M94.2211 7.45812C94.0686 7.51623 93.9378 7.59612 93.8144 7.69781C93.7563 7.74139 93.6836 7.66149 93.7345 7.61791C93.8652 7.50896 94.0105 7.4218 94.163 7.35644C94.2356 7.33465 94.2937 7.43633 94.2211 7.45812Z" fill="#FF6576"/>
</g>
<path d="M92.0638 4.03717C92.0638 4.03717 93.1097 3.71759 93.8651 4.52381C93.8651 4.52381 93.2623 3.15105 92.6304 3.20916C91.9985 3.27453 92.0638 4.03717 92.0638 4.03717Z" fill="#6D2F3B"/>
<path d="M94.1339 5.51179L94.4317 6.8337L96.8939 6.36886L97.4314 6.26717L98.7824 6.00569L98.4265 4.40778L97.0973 4.74915L96.5671 4.88715L94.1339 5.51179Z" fill="#403C69"/>
<path d="M93.9886 6.23793C94.0685 6.60836 94.2719 6.86983 94.4389 6.83352C94.606 6.7972 94.6714 6.47036 94.5915 6.09993C94.5116 5.7295 94.3082 5.46803 94.1411 5.50434C93.9741 5.54066 93.9087 5.8675 93.9886 6.23793Z" fill="#403C69"/>
<path d="M96.5743 5.66422C96.6397 5.96202 96.7632 6.21623 96.8939 6.36876L97.4314 6.26708C97.4968 6.07097 97.4968 5.78044 97.4314 5.47538C97.366 5.17032 97.2353 4.90885 97.0973 4.75632L96.5671 4.89432C96.509 5.08316 96.5017 5.36643 96.5743 5.66422Z" fill="#2F2D54"/>
<path d="M97.3588 6.48484L103.605 5.30093L103.097 3.00574L96.9302 4.58913L97.3588 6.48484Z" fill="#403C69"/>
<path d="M96.7269 5.62779C96.8431 6.15801 97.1336 6.54296 97.3733 6.48486C97.613 6.43401 97.7074 5.9619 97.5912 5.43168C97.475 4.90147 97.1845 4.51651 96.9448 4.57462C96.7051 4.63273 96.6107 5.10484 96.7269 5.62779Z" fill="#403C69"/>
<path d="M101.477 5.84573L109.612 5.00319L108.66 0.725128L100.932 3.4198L101.477 5.84573Z" fill="#51497A"/>
<path d="M101.488 5.84445C101.79 5.7773 101.913 5.17691 101.763 4.50344C101.613 3.82998 101.247 3.33846 100.945 3.40561C100.644 3.47276 100.521 4.07315 100.671 4.74661C100.821 5.42008 101.187 5.9116 101.488 5.84445Z" fill="#51497A"/>
<path d="M108.174 3.07844C108.421 4.1752 108.995 4.99594 109.496 5.01047C109.532 5.01047 109.576 5.01047 109.612 5.00321C110.142 4.88699 110.36 3.83382 110.099 2.64991C109.837 1.466 109.191 0.608936 108.661 0.725148C108.624 0.732412 108.588 0.746938 108.552 0.761465C108.101 0.993889 107.927 1.98169 108.174 3.07844Z" fill="#635D94"/>
<path d="M108.174 3.07867C108.421 4.17542 108.995 4.99617 109.496 5.01069C109.946 4.77827 110.12 3.79047 109.873 2.69371C109.626 1.59696 109.053 0.776215 108.551 0.761688C108.101 0.994112 107.927 1.98192 108.174 3.07867Z" fill="#75ACF2"/>
<path opacity="0.5" d="M108.9 1.05917C108.9 1.05917 109.416 1.46591 109.67 2.17045C109.924 2.87499 109.815 3.46331 109.648 3.55047C109.481 3.63763 108.973 1.59665 108.777 1.34244C108.573 1.08822 108.733 0.957485 108.9 1.05917Z" fill="white"/>
<path d="M93.6764 32.9595C92.3473 35.3418 91.2723 37.8622 90.4516 40.4624C90.4298 40.5351 90.5387 40.5641 90.5605 40.4915C91.374 37.8985 92.449 35.3927 93.7709 33.0176C93.8145 32.9522 93.7128 32.8941 93.6764 32.9595Z" fill="#383463"/>
<path d="M87.6406 10.9734C87.4881 11.293 87.5244 11.7288 87.6043 12.0629C87.6914 12.4551 87.8875 12.8183 88.1563 13.1161C88.1781 13.1451 88.2216 13.1016 88.1999 13.0798C87.9529 12.8038 87.7713 12.4842 87.6842 12.121C87.597 11.7869 87.5462 11.3221 87.6987 11.0025C87.706 10.9734 87.6551 10.9371 87.6406 10.9734Z" fill="#6D2F3B"/>
<path d="M94.9619 32.9957C94.4971 33.2427 94.0903 33.5695 93.749 33.969C93.7127 34.0126 93.749 34.0779 93.8071 34.0634C94.33 33.969 94.8603 33.9109 95.3977 33.8964C95.4704 33.8964 95.4704 33.7802 95.3977 33.7802C94.853 33.7947 94.3155 33.8528 93.778 33.9545C93.7998 33.9835 93.8144 34.0198 93.8361 34.0489C94.1703 33.6567 94.5697 33.3371 95.02 33.0974C95.0854 33.0611 95.0273 32.9594 94.9619 32.9957Z" fill="#383463"/>
<path d="M87.9456 26.7494C88.1272 27.9478 89.0932 28.863 90.1827 29.2988C91.5845 29.8653 93.2115 29.7927 94.6859 29.6983C95.5503 29.6401 96.4146 29.5167 97.2353 29.2189C97.308 29.1971 97.2717 29.0809 97.2063 29.1099C95.8408 29.6038 94.3446 29.6474 92.9064 29.6329C91.5482 29.6184 90.1028 29.415 89.0496 28.4708C88.534 28.0059 88.1635 27.4103 88.0546 26.7203C88.0473 26.6404 87.9311 26.6767 87.9456 26.7494Z" fill="#383463"/>
<path d="M99.5959 4.74176C99.5959 4.74176 101.034 2.04709 101.245 2.14151C101.615 2.3013 101.165 3.04942 101.165 3.04942C101.165 3.04942 101.884 2.03256 102 2.06162C102.392 2.1633 101.753 3.40532 101.753 3.40532C101.753 3.40532 102.291 2.60636 102.414 2.67173C102.806 2.88236 102.153 4.10259 102.153 4.10259C102.153 4.10259 102.407 3.79027 102.588 3.63774C102.661 3.57237 102.872 3.85564 102.755 4.05901C102.465 4.56018 102.153 5.38092 101.971 5.92567C101.949 5.99104 102.065 6.08546 102.087 6.26704C102.203 7.32748 101.564 7.1459 101.041 7.42916C100.518 7.70517 100.162 7.48727 100.017 7.27664C99.6613 6.73189 99.3853 5.44629 99.5959 4.74176Z" fill="#FABBA5"/>
<path d="M102.182 4.02265C102.007 4.26233 101.884 4.59644 101.63 4.7635C101.608 4.77802 101.63 4.80708 101.644 4.79255C101.906 4.61823 102.036 4.28412 102.211 4.03717C102.225 4.02265 102.196 4.00086 102.182 4.02265Z" fill="#E38472"/>
<path d="M101.884 3.18741C101.717 3.40531 101.564 3.63773 101.412 3.87016C101.31 4.02995 101.187 4.28416 101.02 4.37859C100.998 4.39311 101.02 4.42216 101.034 4.40764C101.179 4.32048 101.281 4.12437 101.368 3.98637C101.542 3.71763 101.71 3.44889 101.906 3.20194C101.927 3.18741 101.898 3.16562 101.884 3.18741Z" fill="#E38472"/>
<path d="M101.245 2.87496C100.94 3.2817 100.758 3.81918 100.388 4.17508C100.373 4.18961 100.395 4.21866 100.409 4.20413C100.78 3.84823 100.961 3.30349 101.266 2.89675C101.288 2.87496 101.259 2.86043 101.245 2.87496Z" fill="#E38472"/>
<path d="M101.985 5.94024C101.862 6.05645 101.659 6.20898 101.477 6.18719C101.455 6.18719 101.455 6.22351 101.477 6.22351C101.673 6.24529 101.877 6.09277 102.007 5.96929C102.022 5.95476 102 5.92571 101.985 5.94024Z" fill="#E38472"/>
<path d="M101.993 5.94012C101.877 5.99096 101.753 6.00549 101.622 5.97644C101.601 5.96917 101.586 6.00549 101.608 6.01275C101.746 6.04181 101.877 6.02728 102.007 5.96917C102.029 5.96191 102.015 5.93286 101.993 5.94012Z" fill="#E38472"/>
<path d="M101.927 6.00563C101.985 6.12185 102.08 6.25258 102.08 6.38332C102.08 6.40511 102.116 6.40511 102.116 6.38332C102.116 6.23806 102.022 6.10732 101.956 5.98384C101.949 5.96932 101.913 5.98384 101.927 6.00563Z" fill="#E38472"/>
<path opacity="0.5" d="M99.9663 17.7937C95.7609 18.5781 92.4488 16.5808 92.4488 16.5808L98.2739 16.1958C98.4192 16.3992 98.9712 16.4137 99.5741 16.3846C99.7629 16.7188 99.9154 17.1546 99.9663 17.7937Z" fill="#E84261"/>
<path d="M93.1897 17.0675C93.9305 17.6123 98.5572 17.9972 101.586 17.0239C101.637 17.0094 101.68 16.9658 101.709 16.915C101.985 16.4719 103.191 15.2009 102.487 11.8452C101.869 8.92541 102 6.83359 102 6.83359L99.6903 6.46317C99.6903 6.46317 100.424 8.20635 99.7774 11.8089C99.4506 13.6029 99.2545 14.0968 99.2545 14.0968C99.2545 14.0968 96.676 14.2276 94.6423 13.2035C93.5746 12.666 90.771 15.288 93.1897 17.0675Z" fill="#FABBA5"/>
<path d="M91.8968 12.1575C91.8968 12.1575 94.9256 13.3123 95.6883 13.4939C96.4509 13.6755 97.337 13.8716 97.337 13.8716C97.337 13.8716 96.2548 14.2275 96.9739 16.2249C97.3443 17.2635 96.8577 17.6775 96.8577 17.6775C96.8577 17.6775 92.6668 17.5613 92.5796 17.5105C92.4924 17.4596 91.4029 18.6581 91.3812 18.5637C91.3594 18.4692 90.8437 14.656 90.8437 14.656L91.8968 12.1575Z" fill="#FF6576"/>
<path d="M95.0563 19.3844C95.4703 19.5587 95.9134 19.6096 96.3564 19.5442C96.3928 19.537 96.3782 19.4788 96.3419 19.4861C95.9061 19.5515 95.4776 19.4934 95.0708 19.3263C95.0418 19.3118 95.0273 19.3699 95.0563 19.3844Z" fill="#E84261"/>
<path d="M95.2525 13.3559C95.9062 13.5738 96.5599 13.7627 97.2281 13.9225C97.2644 13.9297 97.279 13.8789 97.2426 13.8643C96.5744 13.7046 95.9207 13.5157 95.267 13.2978C95.2307 13.2833 95.2162 13.3414 95.2525 13.3559Z" fill="#E84261"/>
<path d="M97.2572 13.9005C96.8577 14.1257 96.7124 14.5905 96.7197 15.0263C96.7415 15.7091 97.0756 16.3265 97.0175 17.0237C97.003 17.1763 97.0102 17.4305 96.9158 17.5539C96.8141 17.692 96.5091 17.5975 96.3711 17.5903C96.0297 17.5685 95.6883 17.5685 95.3469 17.5975C94.6569 17.6411 93.9814 17.7718 93.3278 17.9752C93.2914 17.9897 93.306 18.0406 93.3423 18.0333C94.0323 17.8154 94.7514 17.6847 95.4777 17.6484C95.8336 17.6338 96.1895 17.6338 96.5454 17.6629C96.7197 17.6774 96.9013 17.7573 96.9812 17.5757C97.2136 17.0237 97.0611 16.3482 96.9231 15.7962C96.7705 15.1861 96.6325 14.3291 97.2862 13.9514C97.3153 13.9368 97.2935 13.886 97.2572 13.9005Z" fill="#E84261"/>
<path d="M93.4657 18.7018C93.7417 18.2732 94.1266 17.9464 94.5915 17.743C94.6278 17.7285 94.5987 17.6776 94.5624 17.6922C94.0903 17.9028 93.6981 18.2369 93.4148 18.6727C93.4003 18.7018 93.4512 18.7308 93.4657 18.7018Z" fill="#E84261"/>
<path opacity="0.5" d="M92.0856 24.6066C91.6789 24.5267 91.1196 23.7423 91.185 24.1563C91.2504 24.5703 91.2867 25.7978 91.047 25.3184C90.8146 24.8463 90.5168 24.1708 90.5313 24.1272C90.7564 23.9021 90.938 23.6987 91.0034 23.5317C91.0397 23.4445 91.0542 23.3646 91.0397 23.2992C91.0179 23.1685 90.9598 22.8925 90.8727 22.5293C90.9671 22.8998 91.2504 23.7859 91.8677 24.1636C92.674 24.6502 92.4996 24.6865 92.0856 24.6066Z" fill="#E84261"/>
<path d="M92.4198 3.41257C92.3471 3.52152 92.427 5.77313 90.742 6.77546C89.0569 7.77779 91.323 9.51371 91.8024 10.6904C92.289 11.8597 92.2527 13.4359 90.4805 13.0509C88.7082 12.666 88.9189 10.8647 88.2071 11.2859L87.9456 8.35885L89.0641 4.16795L90.3861 3.41983L91.9985 3.28183L92.4198 3.41257Z" fill="#6D2F3B"/>
<path d="M89.0278 4.89438L89.0568 8.22822C89.0568 8.22822 93.2695 10.4362 92.1728 12.5862C91.4319 14.0461 89.8267 12.5208 88.4104 13.0292C87.8366 12.3973 87.6768 11.0899 87.6768 11.0899C87.2265 11.8962 87.6986 12.746 88.0037 13.189C86.6963 13.7265 85.5269 14.0606 84.5536 13.0873C83.5077 12.0342 84.2631 10.9084 84.2631 10.9084C83.682 11.5112 83.6457 12.8549 83.6457 12.8549C82.8903 11.4023 83.268 9.65181 85.062 8.72212C86.8561 7.79968 85.4833 6.33977 86.798 4.08816C88.1126 1.84381 90.5167 2.1634 90.5167 2.1634C92.594 1.84381 93.3349 3.68142 93.3349 3.68142L89.0278 4.89438Z" fill="#6D2F3B"/>
<path d="M89.6961 7.46552C89.6961 7.46552 90.9308 9.57912 91.8533 9.44112C91.8533 9.44112 91.1996 10.1384 90.4733 9.67355C89.7542 9.21596 89.6961 7.46552 89.6961 7.46552Z" fill="#6D2F3B"/>
<path d="M90.8292 2.53377C89.1659 2.6064 87.3864 3.15841 86.4785 4.6619C86.2751 4.99601 86.1371 5.36644 86.0645 5.75139C85.9846 6.18719 85.9991 6.63025 85.9555 7.0733C85.8611 8.02479 84.9677 8.47511 84.3068 9.03438C84.0017 9.29586 83.7184 9.58639 83.5441 9.95682C83.3407 10.3926 83.3117 10.872 83.3553 11.3441C83.3553 11.3804 83.4134 11.3877 83.4134 11.3441C83.3771 10.9083 83.3988 10.458 83.5659 10.044C83.7184 9.67355 83.9944 9.37576 84.2922 9.12154C84.8224 8.66396 85.5851 8.27901 85.8829 7.61805C86.0354 7.27668 86.0209 6.88446 86.0427 6.5213C86.0645 6.07824 86.1153 5.64244 86.2678 5.22844C86.5511 4.47306 87.1249 3.84842 87.8004 3.41988C88.701 2.85335 89.7687 2.64272 90.8146 2.59914C90.8655 2.58461 90.8727 2.5265 90.8292 2.53377Z" fill="#6D2F3B"/>
<path d="M89.9575 7.69779C90.219 8.54033 91.0252 9.04876 91.8968 8.91802C91.9331 8.91076 91.9186 8.85265 91.8823 8.85991C91.047 8.98339 90.2626 8.48949 90.0156 7.68327C90.0011 7.64695 89.9503 7.66148 89.9575 7.69779Z" fill="#6D2F3B"/>
<path d="M91.0688 9.73887C92.151 10.2691 92.732 11.3586 92.9499 12.4989C92.9572 12.5352 93.0153 12.5207 93.008 12.4844C92.7901 11.3295 92.1946 10.2182 91.1051 9.68802C91.0688 9.6735 91.0324 9.71708 91.0688 9.73887Z" fill="#6D2F3B"/>
<path d="M90.4659 7.14613C90.4659 7.14613 89.725 6.4198 89.2892 6.92097C88.8607 7.42213 89.5434 8.01046 89.8049 8.24288C90.0809 8.48983 90.2044 8.46078 90.5603 8.28646C90.9162 8.11214 90.4659 7.14613 90.4659 7.14613Z" fill="#FABBA5"/>
<path d="M90.5751 8.20635C90.5024 8.44603 90.2047 8.49688 90.0013 8.40245C89.8705 8.34435 89.7616 8.24266 89.6672 8.14098C89.551 8.0175 89.4348 7.89403 89.3403 7.74876C89.1805 7.51634 89.0571 7.1677 89.2604 6.92075C89.4638 6.6738 89.8124 6.69559 90.0521 6.86264C90.0812 6.88443 90.0521 6.93528 90.0231 6.91349C89.7979 6.76096 89.4638 6.73917 89.2895 6.98612C89.1152 7.23307 89.2822 7.56718 89.4348 7.77781C89.5728 7.9594 89.7398 8.1555 89.9287 8.28624C90.1102 8.40972 90.4443 8.44603 90.5242 8.18456C90.5315 8.14824 90.5896 8.17003 90.5751 8.20635Z" fill="#EF9F8A"/>
<path d="M89.6816 7.01515C89.776 7.02968 89.8704 7.05873 89.943 7.13137C90.0229 7.21853 90.0157 7.29842 90.0084 7.40011C89.9939 7.60348 90.1973 7.59622 90.3207 7.6979C90.3861 7.75601 90.4224 7.8359 90.3934 7.92306C90.3788 7.95938 90.3207 7.94485 90.3353 7.90127C90.4006 7.6979 90.0229 7.67611 89.9576 7.51632C89.9285 7.45095 89.9576 7.39284 89.9576 7.32748C89.9648 7.16768 89.8123 7.08779 89.6743 7.066C89.638 7.066 89.638 7.00789 89.6816 7.01515Z" fill="#EF9F8A"/>
<path d="M91.1124 3.04201C91.4755 3.89907 90.909 4.75614 90.2553 5.27909C89.6089 5.78752 88.8317 6.11437 88.2361 6.68817C87.7858 7.12396 87.4444 7.74134 87.5388 8.38051C87.6332 9.0342 88.1199 9.5281 88.4976 10.0365C88.7881 10.4215 89.0133 10.8355 89.0496 11.3221C89.0859 11.816 88.977 12.3099 88.9188 12.7966C88.9116 12.8329 88.9697 12.8329 88.977 12.7966C89.0714 12.0121 89.2602 11.2277 88.868 10.4941C88.5194 9.84042 87.8802 9.34652 87.655 8.62746C87.3936 7.79945 87.8947 7.01501 88.5194 6.50658C89.1731 5.97637 89.9793 5.64952 90.5894 5.05393C91.1269 4.53098 91.4755 3.73928 91.1705 3.00569C91.1487 2.97664 91.0978 3.00569 91.1124 3.04201Z" fill="#964D5F"/>
<path d="M90.7129 2.96215C90.5967 3.85553 89.8268 4.50923 89.1804 5.06123C88.5339 5.61324 87.7205 6.06356 87.2919 6.82621C87.1176 7.14579 87.0305 7.4799 87.0522 7.84306C87.0813 8.30791 87.1321 8.70739 86.9941 9.15771C86.7544 9.92762 86.2896 10.5958 86.1734 11.4166C86.0644 12.2228 86.3041 13.0871 87.0014 13.552C87.0305 13.5738 87.0668 13.5229 87.0304 13.5011C86.2605 12.9854 86.0935 12.0049 86.2823 11.1551C86.4494 10.3925 86.9142 9.7533 87.1031 8.99792C87.1975 8.6057 87.1394 8.24254 87.1176 7.84306C87.0958 7.4 87.2266 7.00052 87.4808 6.63736C87.9892 5.92556 88.8099 5.47524 89.4564 4.90144C90.0374 4.37849 90.6693 3.7829 90.7783 2.96941C90.7783 2.92584 90.7202 2.92584 90.7129 2.96215Z" fill="#964D5F"/>
<path d="M85.6649 13.6682C84.9821 12.5352 85.2073 11.1551 85.9772 10.131C85.999 10.102 85.9482 10.0729 85.9264 10.102C85.1492 11.1406 84.9168 12.5497 85.614 13.6973C85.6286 13.7263 85.6867 13.7045 85.6649 13.6682Z" fill="#964D5F"/>
<path d="M90.2044 9.72433C90.9816 10.6903 91.323 11.9469 91.1341 13.1744C91.1269 13.2107 91.185 13.2107 91.1922 13.1744C91.3811 11.9324 91.0325 10.6613 90.248 9.68075C90.2262 9.65896 90.1827 9.69528 90.2044 9.72433Z" fill="#964D5F"/>
<path d="M90.19 9.73142C90.5241 10.2471 90.5968 10.8572 90.5314 11.4601C90.4806 11.954 90.3934 12.6222 90.0084 12.9781C89.9794 12.9999 90.023 13.0435 90.0448 13.0217C90.4297 12.6658 90.5096 12.0411 90.575 11.5472C90.6549 10.9081 90.5968 10.2544 90.2409 9.70237C90.2191 9.67331 90.1682 9.6951 90.19 9.73142Z" fill="#964D5F"/>
<path d="M90.0593 3.0421C90.1174 2.984 90.0665 2.88231 89.9939 2.85326C89.9212 2.8242 89.8414 2.85326 89.7615 2.86778C89.6816 2.88957 89.5944 2.89684 89.529 2.85326C89.4854 2.8242 89.4637 2.78063 89.4273 2.74431C89.3329 2.66441 89.1949 2.69347 89.0787 2.72978C88.1127 3.0421 87.2992 3.80474 86.9288 4.74897C87.0305 4.70539 87.1249 4.66907 87.2266 4.62549C87.2411 4.6836 87.2556 4.7417 87.2774 4.79981C87.4735 4.69086 87.6769 4.58918 87.873 4.48023C87.9021 4.4657 87.9311 4.45117 87.9529 4.45844C88.0255 4.48023 87.9892 4.58918 87.9965 4.66907C88.011 4.75623 88.1127 4.81434 88.1999 4.80707C88.287 4.79981 88.3669 4.74897 88.4395 4.69812C89.0932 4.24054 89.6961 3.70306 90.1755 3.06389L90.0593 3.0421Z" fill="#8C4959"/>
<path d="M98.8114 89.4606L91.5844 94.7918L55.2391 121.608H23.0774L53.4378 99.2079L62.9381 92.1988L75.8595 82.6622L80.2465 79.43L87.4734 74.0988L96.8358 86.7877L98.8114 89.4606Z" fill="#FF6576"/>
<path d="M102.123 109.079L70.0416 65.5935L115.531 65.6153L102.123 109.079Z" fill="#FF6576"/>
<path d="M63.9043 94.9805L59.1904 98.4596L27.8204 121.608H6.83685L12.001 117.794L51.7892 88.4363L56.5103 84.9572L63.9043 94.9805Z" fill="#FFCA87"/>
<path d="M66.0614 107.779L45.136 79.4155L74.8136 79.4228L66.0614 107.779Z" fill="#FFCA87"/>
<path d="M70.8479 40.114L68.3929 41.9299L31.5537 69.1017H20.608L43.7705 52.0185L64.5362 36.7003L66.9911 34.8845L70.8479 40.114Z" fill="#ABC7F2"/>
<path d="M71.981 46.7889L61.057 31.9936H76.5423L71.981 46.7889Z" fill="#ABC7F2"/>
</svg>
