<svg width="218" height="41" viewBox="0 0 218 41" fill="none" xmlns="http://www.w3.org/2000/svg">
<rect y="0.868652" width="102.857" height="40" rx="5.42105" fill="url(#paint0_linear_1_4544)"/>
<rect x="114.286" y="0.868652" width="102.857" height="40" rx="5.42105" fill="url(#paint1_linear_1_4544)"/>
<path d="M39.0548 14.432C39.0548 14.9495 38.9254 15.4024 38.6019 15.7259C38.2137 16.1141 37.7608 16.3082 37.1785 16.3082C36.5962 16.3082 36.1433 16.1141 35.7551 15.7259C35.3669 15.3377 35.1728 14.8848 35.1728 14.3026C35.1728 13.7203 35.3669 13.2674 35.7551 12.8792C36.1433 12.491 36.5962 12.2969 37.1785 12.2969C37.4373 12.2969 37.6961 12.3616 37.9549 12.491C38.2137 12.6204 38.4078 12.7498 38.5372 12.9439L38.2137 13.2674C37.9549 12.9439 37.6314 12.8145 37.1785 12.8145C36.7903 12.8145 36.4021 12.9439 36.1433 13.2674C35.8198 13.5262 35.6904 13.9144 35.6904 14.3673C35.6904 14.8201 35.8198 15.2083 36.1433 15.4671C36.4668 15.7259 36.7903 15.92 37.1785 15.92C37.6314 15.92 37.9549 15.7906 38.2784 15.4671C38.4725 15.273 38.6019 15.0142 38.6019 14.6908H37.1785V14.1732H39.0548V14.432ZM42.0309 12.8145H40.284V14.0438H41.9015V14.4967H40.284V15.7259H42.0309V16.2435H39.7664V12.3616H42.0309V12.8145ZM44.166 16.2435H43.6484V12.8145H42.5485V12.3616H45.2659V12.8145H44.166V16.2435ZM47.1422 16.2435V12.3616H47.6598V16.2435H47.1422ZM49.8595 16.2435H49.3419V12.8145H48.2421V12.3616H50.8947V12.8145H49.7948V16.2435H49.8595ZM56.006 15.7259C55.6178 16.1141 55.1649 16.3082 54.5826 16.3082C54.0003 16.3082 53.5474 16.1141 53.1592 15.7259C52.771 15.3377 52.5769 14.8848 52.5769 14.3026C52.5769 13.7203 52.771 13.2674 53.1592 12.8792C53.5474 12.491 54.0003 12.2969 54.5826 12.2969C55.1649 12.2969 55.6178 12.491 56.006 12.8792C56.3942 13.2674 56.5883 13.7203 56.5883 14.3026C56.5883 14.8848 56.3942 15.3377 56.006 15.7259ZM53.5474 15.4024C53.8062 15.6612 54.1944 15.8553 54.5826 15.8553C54.9708 15.8553 55.359 15.7259 55.6178 15.4024C55.8766 15.1436 56.0707 14.7555 56.0707 14.3026C56.0707 13.8497 55.9413 13.4615 55.6178 13.2027C55.359 12.9439 54.9708 12.7498 54.5826 12.7498C54.1944 12.7498 53.8062 12.8792 53.5474 13.2027C53.2886 13.4615 53.0945 13.8497 53.0945 14.3026C53.0945 14.7555 53.2239 15.1436 53.5474 15.4024ZM57.3 16.2435V12.3616H57.8823L59.7585 15.4024V12.3616H60.2761V16.2435H59.7585L57.7529 13.0733V16.2435H57.3Z" fill="white" stroke="white" stroke-width="0.642495" stroke-miterlimit="10"/>
<path d="M52.4475 21.9371C50.8947 21.9371 49.6655 23.1017 49.6655 24.7192C49.6655 26.272 50.8947 27.5013 52.4475 27.5013C54.0003 27.5013 55.2296 26.3367 55.2296 24.7192C55.2296 23.037 54.0003 21.9371 52.4475 21.9371ZM52.4475 26.3367C51.6064 26.3367 50.8947 25.625 50.8947 24.6545C50.8947 23.684 51.6064 22.9723 52.4475 22.9723C53.2886 22.9723 54.0003 23.6193 54.0003 24.6545C54.0003 25.625 53.2886 26.3367 52.4475 26.3367ZM46.4305 21.9371C44.8777 21.9371 43.6484 23.1017 43.6484 24.7192C43.6484 26.272 44.8777 27.5013 46.4305 27.5013C47.9833 27.5013 49.2126 26.3367 49.2126 24.7192C49.2126 23.037 47.9833 21.9371 46.4305 21.9371ZM46.4305 26.3367C45.5894 26.3367 44.8777 25.625 44.8777 24.6545C44.8777 23.684 45.5894 22.9723 46.4305 22.9723C47.2716 22.9723 47.9833 23.6193 47.9833 24.6545C47.9833 25.625 47.2716 26.3367 46.4305 26.3367ZM39.2489 22.7782V23.9428H42.0309C41.9662 24.5898 41.7074 25.1074 41.3839 25.4309C40.9957 25.8191 40.3487 26.272 39.2489 26.272C37.502 26.272 36.208 24.9133 36.208 23.1664C36.208 21.4195 37.5667 20.0608 39.2489 20.0608C40.1546 20.0608 40.8663 20.449 41.3839 20.9019L42.225 20.0608C41.5133 19.4138 40.6075 18.8962 39.3136 18.8962C36.9844 18.8962 34.9787 20.8372 34.9787 23.1664C34.9787 25.4956 36.9844 27.4366 39.3136 27.4366C40.6075 27.4366 41.5133 27.0484 42.2897 26.2073C43.0661 25.4309 43.3249 24.331 43.3249 23.4899C43.3249 23.2311 43.3249 22.9723 43.2602 22.7782H39.2489ZM68.6224 23.684C68.3636 23.037 67.7166 21.9371 66.2932 21.9371C64.8698 21.9371 63.7052 23.037 63.7052 24.7192C63.7052 26.272 64.8698 27.5013 66.4226 27.5013C67.6519 27.5013 68.4283 26.7249 68.6871 26.272L67.7813 25.625C67.4578 26.0779 67.0696 26.4014 66.4226 26.4014C65.7756 26.4014 65.3874 26.1426 65.0639 25.5603L68.7518 24.0075L68.6224 23.684ZM64.8698 24.5898C64.8698 23.5546 65.7109 22.9723 66.2932 22.9723C66.7461 22.9723 67.199 23.2311 67.3284 23.5546L64.8698 24.5898ZM61.8289 27.2425H63.0582V19.155H61.8289V27.2425ZM59.8879 22.5194C59.5645 22.1959 59.0469 21.8724 58.3999 21.8724C57.0412 21.8724 55.7472 23.1017 55.7472 24.6545C55.7472 26.2073 56.9765 27.3719 58.3999 27.3719C59.0469 27.3719 59.5645 27.0484 59.8233 26.7249H59.8879V27.1131C59.8879 28.1482 59.3057 28.7305 58.3999 28.7305C57.6882 28.7305 57.1706 28.2129 57.0412 27.76L56.006 28.2129C56.3295 28.9246 57.1059 29.8304 58.4646 29.8304C59.888 29.8304 61.0525 28.9893 61.0525 26.9837V22.0665H59.8879V22.5194ZM58.4646 26.3367C57.6235 26.3367 56.9118 25.625 56.9118 24.6545C56.9118 23.684 57.6235 22.9723 58.4646 22.9723C59.3057 22.9723 59.9526 23.684 59.9526 24.6545C59.9526 25.625 59.3057 26.3367 58.4646 26.3367ZM74.2512 19.155H71.3397V27.2425H72.569V24.2016H74.2512C75.6099 24.2016 76.9039 23.2311 76.9039 21.6783C76.9039 20.1255 75.6099 19.155 74.2512 19.155ZM74.3159 23.037H72.569V20.2549H74.3159C75.2217 20.2549 75.7393 21.0313 75.7393 21.6136C75.6746 22.3253 75.157 23.037 74.3159 23.037ZM81.7563 21.8724C80.8505 21.8724 79.9447 22.2606 79.6213 23.1017L80.7211 23.5546C80.9799 23.1017 81.3681 22.9723 81.821 22.9723C82.468 22.9723 83.0503 23.3605 83.115 24.0075V24.0722C82.9209 23.9428 82.4033 23.7487 81.8857 23.7487C80.7211 23.7487 79.5566 24.3957 79.5566 25.5603C79.5566 26.6602 80.527 27.3719 81.5622 27.3719C82.4033 27.3719 82.7915 26.9837 83.115 26.5955H83.1797V27.2425H84.3443V24.1369C84.2149 22.7135 83.115 21.8724 81.7563 21.8724ZM81.6269 26.3367C81.2387 26.3367 80.6564 26.1426 80.6564 25.625C80.6564 24.978 81.3681 24.7839 81.9504 24.7839C82.468 24.7839 82.7268 24.9133 83.0503 25.0427C82.9209 25.8191 82.2739 26.3367 81.6269 26.3367ZM88.4204 22.0665L87.0617 25.5603H86.997L85.5736 22.0665H84.2796L86.4147 26.9837L85.1854 29.701H86.4147L89.7143 22.0665H88.4204ZM77.5509 27.2425H78.7802V19.155H77.5509V27.2425Z" fill="white"/>
<path d="M15.1159 12.6848C14.9218 12.8789 14.8571 13.2024 14.8571 13.5906V27.8892C14.8571 28.2774 14.9865 28.6009 15.1806 28.795L15.2453 28.8596L23.268 20.8369V20.7075L15.1159 12.6848Z" fill="url(#paint2_linear_1_4544)"/>
<path d="M25.8561 23.5541L23.2034 20.9015V20.7074L25.8561 18.0547L25.9208 18.1194L29.0911 19.931C29.9969 20.4486 29.9969 21.2897 29.0911 21.8072L25.8561 23.5541Z" fill="url(#paint3_linear_1_4544)"/>
<path d="M25.9208 23.4898L23.2034 20.7725L15.116 28.8599C15.4395 29.1834 15.8924 29.1834 16.4747 28.9246L25.9208 23.4898Z" fill="url(#paint4_linear_1_4544)"/>
<path d="M25.9208 18.0551L16.4747 12.6851C15.8924 12.3616 15.4395 12.4263 15.116 12.7498L23.2034 20.7725L25.9208 18.0551Z" fill="url(#paint5_linear_1_4544)"/>
<path opacity="0.2" d="M25.8561 23.425L16.4747 28.7304C15.9571 29.0539 15.5042 28.9892 15.1807 28.7304L15.116 28.7951L15.1807 28.8598C15.5042 29.1186 15.9571 29.1833 16.4747 28.8598L25.8561 23.425Z" fill="black"/>
<path opacity="0.12" d="M15.1159 28.7305C14.9218 28.5364 14.8571 28.2129 14.8571 27.8247V27.8894C14.8571 28.2776 14.9865 28.6011 15.1806 28.7952V28.7305H15.1159ZM29.091 21.6136L25.856 23.4251L25.9207 23.4898L29.091 21.6783C29.5439 21.4195 29.738 21.096 29.738 20.7725C29.738 21.096 29.4792 21.3548 29.091 21.6136Z" fill="black"/>
<path opacity="0.25" d="M16.4746 12.7498L29.091 19.9314C29.4792 20.1902 29.738 20.449 29.738 20.7725C29.738 20.449 29.5439 20.1255 29.091 19.8667L16.4746 12.6851C15.5688 12.1675 14.8571 12.5557 14.8571 13.5908V13.6555C14.8571 12.6851 15.5688 12.2322 16.4746 12.7498Z" fill="white"/>
<path d="M139.664 20.6282C139.686 19.3626 140.341 18.1843 141.432 17.5079C140.755 16.526 139.642 15.9369 138.442 15.8932C137.177 15.7623 135.955 16.6569 135.322 16.6569C134.667 16.6569 133.685 15.915 132.616 15.9369C131.22 15.9805 129.932 16.766 129.256 17.9879C127.816 20.4973 128.885 24.1849 130.282 26.2141C130.98 27.2179 131.787 28.3089 132.856 28.2871C133.904 28.2434 134.275 27.6325 135.54 27.6325C136.784 27.6325 137.155 28.2871 138.224 28.2652C139.337 28.2434 140.035 27.2615 140.712 26.2578C141.213 25.5595 141.606 24.774 141.846 23.9448C140.515 23.3775 139.664 22.0683 139.664 20.6282Z" fill="white"/>
<path d="M137.613 14.5623C138.224 13.8422 138.53 12.8821 138.442 11.9438C137.504 12.0311 136.653 12.4894 136.042 13.1876C135.431 13.8858 135.126 14.7805 135.191 15.7187C136.129 15.7187 137.024 15.3042 137.613 14.5623Z" fill="white"/>
<path d="M152.8 25.7564H149.243L148.392 28.2657H146.887L150.247 18.9485H151.818L155.178 28.2657H153.651L152.8 25.7564ZM149.636 24.5999H152.451L151.054 20.5195H151.011L149.636 24.5999Z" fill="white"/>
<path d="M162.444 24.8841C162.444 27.0007 161.31 28.3535 159.608 28.3535C158.735 28.3972 157.906 27.9389 157.469 27.1752H157.448V30.5355H156.051V21.502H157.404V22.6366H157.426C157.862 21.8729 158.691 21.4147 159.586 21.4365C161.31 21.4147 162.444 22.7894 162.444 24.8841ZM161.026 24.8841C161.026 23.5095 160.306 22.6148 159.237 22.6148C158.168 22.6148 157.448 23.5313 157.448 24.8841C157.448 26.2588 158.168 27.1752 159.237 27.1752C160.306 27.1752 161.026 26.2806 161.026 24.8841Z" fill="white"/>
<path d="M169.929 24.8841C169.929 27.0007 168.794 28.3535 167.092 28.3535C166.219 28.3972 165.39 27.9389 164.954 27.1752H164.932V30.5355H163.535V21.502H164.888V22.6366H164.91C165.347 21.8729 166.176 21.4147 167.07 21.4365C168.794 21.4147 169.929 22.7894 169.929 24.8841ZM168.489 24.8841C168.489 23.5095 167.769 22.6148 166.699 22.6148C165.63 22.6148 164.91 23.5313 164.91 24.8841C164.91 26.2588 165.63 27.1752 166.699 27.1752C167.79 27.1752 168.489 26.2806 168.489 24.8841Z" fill="white"/>
<path d="M174.86 25.6912C174.969 26.6077 175.864 27.2186 177.086 27.2186C178.264 27.2186 179.115 26.6077 179.115 25.7785C179.115 25.0584 178.613 24.622 177.391 24.3166L176.191 24.0329C174.489 23.6183 173.682 22.811 173.682 21.5236C173.682 19.9089 175.078 18.8179 177.064 18.8179C179.028 18.8179 180.381 19.9307 180.424 21.5236H179.028C178.94 20.5853 178.177 20.0398 177.042 20.0398C175.929 20.0398 175.144 20.6071 175.144 21.4363C175.144 22.0909 175.624 22.4837 176.846 22.7891L177.871 23.051C179.791 23.5092 180.577 24.2729 180.577 25.6258C180.577 27.3714 179.181 28.4624 176.977 28.4624C174.904 28.4624 173.507 27.3932 173.42 25.713L174.86 25.6912Z" fill="white"/>
<path d="M183.588 19.8872V21.5019H184.876V22.6147H183.588V26.3678C183.588 26.9569 183.85 27.2188 184.417 27.2188C184.57 27.2188 184.723 27.197 184.876 27.197V28.288C184.614 28.3316 184.352 28.3534 184.112 28.3534C182.737 28.3534 182.192 27.8297 182.192 26.5205V22.5929H181.21V21.5019H182.192V19.8872H183.588Z" fill="white"/>
<path d="M185.639 24.8837C185.639 22.7453 186.905 21.4143 188.869 21.4143C190.832 21.4143 192.098 22.7672 192.098 24.8837C192.098 27.0221 190.854 28.3531 188.869 28.3531C186.883 28.3749 185.639 27.0221 185.639 24.8837ZM190.658 24.8837C190.658 23.4218 189.981 22.549 188.847 22.549C187.712 22.549 187.036 23.4218 187.036 24.8837C187.036 26.3457 187.712 27.2185 188.847 27.2185C189.981 27.2185 190.658 26.3675 190.658 24.8837Z" fill="white"/>
<path d="M193.233 21.5018H194.564V22.6583H194.586C194.76 21.9164 195.458 21.3927 196.222 21.4364C196.375 21.4364 196.549 21.4582 196.702 21.48V22.7892C196.506 22.7238 196.288 22.7019 196.069 22.7019C195.284 22.6801 194.651 23.2693 194.607 24.0548C194.607 24.1203 194.607 24.2075 194.607 24.273V28.3097H193.233V21.5018Z" fill="white"/>
<path d="M203.117 26.28C202.921 27.502 201.721 28.353 200.193 28.353C198.208 28.353 196.986 27.0219 196.986 24.9054C196.986 22.767 198.208 21.3923 200.128 21.3923C202.004 21.3923 203.183 22.6797 203.183 24.7526V25.2327H198.382V25.32C198.295 26.3019 199.015 27.1529 199.997 27.2401C200.062 27.2401 200.15 27.2401 200.215 27.2401C200.892 27.3056 201.524 26.9128 201.786 26.28H203.117ZM198.404 24.2726H201.808C201.852 23.378 201.175 22.5924 200.259 22.5488C200.215 22.5488 200.171 22.5488 200.128 22.5488C199.19 22.527 198.426 23.2907 198.404 24.2726C198.404 24.2508 198.404 24.2508 198.404 24.2726Z" fill="white"/>
<path d="M149.461 11.9665C150.552 11.8792 151.491 12.7084 151.578 13.7994C151.578 13.9303 151.578 14.0612 151.578 14.1922C151.578 15.6323 150.814 16.4396 149.461 16.4396H147.847V11.9665H149.461ZM148.523 15.8069H149.374C150.16 15.8505 150.814 15.2614 150.858 14.4758C150.858 14.3886 150.858 14.2794 150.836 14.1922C150.945 13.4285 150.4 12.7084 149.636 12.5993C149.549 12.5775 149.461 12.5775 149.374 12.5775H148.523V15.8069Z" fill="white"/>
<path d="M152.342 14.7371C152.254 13.8643 152.909 13.0787 153.782 12.9915C154.655 12.9042 155.44 13.5588 155.527 14.4316C155.527 14.5407 155.527 14.628 155.527 14.7371C155.615 15.6099 154.96 16.3954 154.087 16.4827C153.215 16.57 152.429 15.9154 152.342 15.0425C152.342 14.9553 152.342 14.8462 152.342 14.7371ZM154.851 14.7371C154.851 13.9952 154.524 13.5806 153.935 13.5806C153.345 13.5806 153.04 14.017 153.04 14.7371C153.04 15.479 153.367 15.8935 153.935 15.8935C154.524 15.9154 154.851 15.479 154.851 14.7371Z" fill="white"/>
<path d="M159.761 16.439H159.062L158.364 13.9515H158.32L157.622 16.439H156.946L156.007 13.0569H156.684L157.295 15.6317H157.339L158.037 13.0569H158.67L159.368 15.6317H159.411L160.022 13.0569H160.699L159.761 16.439Z" fill="white"/>
<path d="M161.463 13.0569H162.095V13.6024H162.139C162.314 13.2096 162.706 12.9696 163.143 12.9914C163.754 12.9478 164.277 13.406 164.321 13.9951C164.321 14.0824 164.321 14.1479 164.321 14.2352V16.4172H163.645V14.3879C163.645 13.8424 163.405 13.5805 162.924 13.5805C162.488 13.5587 162.139 13.886 162.117 14.3224C162.117 14.3661 162.117 14.4097 162.117 14.4315V16.4172H161.441L161.463 13.0569Z" fill="white"/>
<path d="M165.412 11.748H166.088V16.4394H165.412V11.748Z" fill="white"/>
<path d="M167.005 14.7371C166.918 13.8643 167.572 13.0787 168.445 12.9915C169.318 12.9042 170.103 13.5588 170.191 14.4316C170.191 14.5407 170.191 14.628 170.191 14.7371C170.278 15.6099 169.623 16.3954 168.75 16.4827C167.878 16.57 167.092 15.9154 167.005 15.0425C166.983 14.9553 166.983 14.8462 167.005 14.7371ZM169.492 14.7371C169.492 13.9952 169.165 13.5806 168.576 13.5806C167.987 13.5806 167.681 14.017 167.681 14.7371C167.681 15.479 168.009 15.8935 168.576 15.8935C169.165 15.9154 169.492 15.479 169.492 14.7371Z" fill="white"/>
<path d="M170.889 15.479C170.889 14.868 171.347 14.5189 172.154 14.4752L173.071 14.4316V14.1479C173.071 13.7988 172.831 13.5806 172.373 13.5806C172.002 13.5806 171.74 13.7115 171.674 13.9515H171.02C171.085 13.3624 171.631 12.9915 172.394 12.9915C173.245 12.9915 173.725 13.406 173.725 14.1261V16.439H173.093V15.959H173.049C172.831 16.3081 172.438 16.5045 172.045 16.4827C171.478 16.5481 170.976 16.1336 170.932 15.5662C170.889 15.5444 170.889 15.5226 170.889 15.479ZM173.049 15.1953V14.9116L172.22 14.9553C171.762 14.9771 171.543 15.1517 171.543 15.4353C171.543 15.7408 171.805 15.9154 172.176 15.9154C172.613 15.959 173.005 15.6317 173.049 15.1953Z" fill="white"/>
<path d="M174.598 14.7368C174.598 13.6676 175.144 12.9912 175.995 12.9912C176.431 12.9693 176.824 13.2094 177.02 13.5803H177.064V11.7256H177.74V16.4169H177.108V15.8932H177.064C176.846 16.2642 176.431 16.5042 175.995 16.4824C175.144 16.4824 174.598 15.806 174.598 14.7368ZM175.275 14.7368C175.275 15.4568 175.602 15.8932 176.169 15.8932C176.737 15.8932 177.086 15.4568 177.086 14.7586C177.086 14.0603 176.737 13.6021 176.169 13.6021C175.624 13.6021 175.275 14.0385 175.275 14.7368Z" fill="white"/>
<path d="M180.512 14.7371C180.424 13.8643 181.079 13.0787 181.952 12.9915C182.824 12.9042 183.61 13.5588 183.697 14.4316C183.697 14.5407 183.697 14.628 183.697 14.7371C183.785 15.6099 183.13 16.3954 182.257 16.4827C181.384 16.57 180.599 15.9154 180.512 15.0425C180.49 14.9553 180.49 14.8462 180.512 14.7371ZM182.999 14.7371C182.999 13.9952 182.672 13.5806 182.083 13.5806C181.493 13.5806 181.188 14.017 181.188 14.7371C181.188 15.479 181.515 15.8935 182.083 15.8935C182.672 15.9154 182.999 15.479 182.999 14.7371Z" fill="white"/>
<path d="M184.592 13.0569H185.225V13.6024H185.268C185.443 13.2096 185.836 12.9696 186.272 12.9914C186.883 12.9478 187.407 13.406 187.45 13.9951C187.45 14.0824 187.45 14.1479 187.45 14.2352V16.4172H186.774V14.3879C186.774 13.8424 186.534 13.5805 186.054 13.5805C185.617 13.5587 185.268 13.886 185.246 14.3224C185.246 14.3661 185.246 14.4097 185.246 14.4315V16.4172H184.57V13.0569H184.592Z" fill="white"/>
<path d="M191.225 12.2058V13.0568H191.967V13.6241H191.225V15.3697C191.225 15.7189 191.378 15.8716 191.705 15.8716C191.793 15.8716 191.88 15.8716 191.967 15.8498V16.3953C191.858 16.4171 191.727 16.4389 191.596 16.4389C190.854 16.4389 190.571 16.1771 190.571 15.5225V13.6241H190.025V13.0568H190.571V12.2058H191.225Z" fill="white"/>
<path d="M192.862 11.748H193.516V13.6028H193.56C193.735 13.21 194.149 12.97 194.586 12.9918C195.197 12.9482 195.72 13.4282 195.764 14.0392C195.764 14.1046 195.764 14.1701 195.764 14.2574V16.4394H195.087V14.4319C195.087 13.8864 194.826 13.6246 194.367 13.6246C193.931 13.5809 193.56 13.9082 193.516 14.3446C193.516 14.3883 193.516 14.4319 193.516 14.4756V16.4394H192.84L192.862 11.748Z" fill="white"/>
<path d="M199.648 15.523C199.451 16.1558 198.84 16.5704 198.186 16.5049C197.335 16.5267 196.637 15.8503 196.615 15.0211C196.615 14.9338 196.615 14.8466 196.637 14.7811C196.527 13.9301 197.117 13.1446 197.968 13.0355C198.033 13.0355 198.12 13.0137 198.186 13.0137C199.124 13.0137 199.691 13.6465 199.691 14.7156V14.9557H197.313V14.9993C197.269 15.5012 197.64 15.9158 198.12 15.9594C198.142 15.9594 198.186 15.9594 198.208 15.9594C198.535 16.003 198.84 15.8285 199.015 15.5448L199.648 15.523ZM197.313 14.432H199.015C199.059 13.9738 198.71 13.6028 198.273 13.5592C198.251 13.5592 198.229 13.5592 198.186 13.5592C197.706 13.5592 197.313 13.9301 197.313 14.4102V14.432Z" fill="white"/>
<defs>
<linearGradient id="paint0_linear_1_4544" x1="26.628" y1="0.868649" x2="85.9129" y2="35.9782" gradientUnits="userSpaceOnUse">
<stop stop-color="#2D2D2D"/>
<stop offset="1" stop-color="#131313"/>
</linearGradient>
<linearGradient id="paint1_linear_1_4544" x1="140.914" y1="0.868649" x2="200.199" y2="35.9782" gradientUnits="userSpaceOnUse">
<stop stop-color="#2D2D2D"/>
<stop offset="1" stop-color="#131313"/>
</linearGradient>
<linearGradient id="paint2_linear_1_4544" x1="22.4916" y1="13.4677" x2="11.6331" y2="24.3255" gradientUnits="userSpaceOnUse">
<stop stop-color="#00A0FF"/>
<stop offset="0.007" stop-color="#00A1FF"/>
<stop offset="0.26" stop-color="#00BEFF"/>
<stop offset="0.512" stop-color="#00D2FF"/>
<stop offset="0.76" stop-color="#00DFFF"/>
<stop offset="1" stop-color="#00E3FF"/>
</linearGradient>
<linearGradient id="paint3_linear_1_4544" x1="30.2777" y1="20.7727" x2="14.6224" y2="20.7727" gradientUnits="userSpaceOnUse">
<stop stop-color="#FFE000"/>
<stop offset="0.409" stop-color="#FFBD00"/>
<stop offset="0.775" stop-color="#FFA500"/>
<stop offset="1" stop-color="#FF9C00"/>
</linearGradient>
<linearGradient id="paint4_linear_1_4544" x1="24.4501" y1="22.258" x2="9.72587" y2="36.9822" gradientUnits="userSpaceOnUse">
<stop stop-color="#FF3A44"/>
<stop offset="1" stop-color="#C31162"/>
</linearGradient>
<linearGradient id="paint5_linear_1_4544" x1="13.1083" y1="7.94652" x2="19.6837" y2="14.5219" gradientUnits="userSpaceOnUse">
<stop stop-color="#32A071"/>
<stop offset="0.069" stop-color="#2DA771"/>
<stop offset="0.476" stop-color="#15CF74"/>
<stop offset="0.801" stop-color="#06E775"/>
<stop offset="1" stop-color="#00F076"/>
</linearGradient>
</defs>
</svg>
