<svg width="98" height="45" viewBox="0 0 98 45" fill="none" xmlns="http://www.w3.org/2000/svg">
<circle cx="22.5" cy="22.5" r="22.5" fill="url(#paint0_linear_1_4703)"/>
<path d="M28.107 15.633C27.8578 15.633 27.6142 15.7069 27.407 15.8453C27.1998 15.9838 27.0383 16.1806 26.9429 16.4108C26.8475 16.6411 26.8226 16.8944 26.8712 17.1388C26.9198 17.3832 27.0398 17.6077 27.216 17.784C27.3923 17.9602 27.6168 18.0802 27.8612 18.1288C28.1056 18.1774 28.3589 18.1525 28.5892 18.0571C28.8194 17.9617 29.0162 17.8002 29.1547 17.593C29.2931 17.3858 29.367 17.1422 29.367 16.893C29.367 16.5588 29.2343 16.2383 28.998 16.002C28.7617 15.7657 28.4412 15.633 28.107 15.633ZM32.937 18.174C32.9166 17.3028 32.7534 16.4409 32.454 15.6225C32.187 14.9223 31.7715 14.2882 31.236 13.764C30.7161 13.2258 30.0805 12.8129 29.3775 12.5565C28.5613 12.248 27.6984 12.0811 26.826 12.063C25.713 12 25.356 12 22.5 12C19.644 12 19.287 12 18.174 12.063C17.3016 12.0811 16.4387 12.248 15.6225 12.5565C14.9208 12.8155 14.2858 13.228 13.764 13.764C13.2258 14.2839 12.8129 14.9195 12.5565 15.6225C12.248 16.4387 12.0811 17.3016 12.063 18.174C12 19.287 12 19.644 12 22.5C12 25.356 12 25.713 12.063 26.826C12.0811 27.6984 12.248 28.5613 12.5565 29.3775C12.8129 30.0805 13.2258 30.7161 13.764 31.236C14.2858 31.772 14.9208 32.1845 15.6225 32.4435C16.4387 32.752 17.3016 32.9189 18.174 32.937C19.287 33 19.644 33 22.5 33C25.356 33 25.713 33 26.826 32.937C27.6984 32.9189 28.5613 32.752 29.3775 32.4435C30.0805 32.1871 30.7161 31.7742 31.236 31.236C31.7739 30.7137 32.1898 30.0791 32.454 29.3775C32.7534 28.5591 32.9166 27.6972 32.937 26.826C32.937 25.713 33 25.356 33 22.5C33 19.644 33 19.287 32.937 18.174ZM31.047 26.7C31.0394 27.3665 30.9186 28.0269 30.69 28.653C30.5224 29.11 30.2531 29.5228 29.9025 29.8605C29.5619 30.2075 29.1499 30.4763 28.695 30.648C28.0689 30.8766 27.4085 30.9974 26.742 31.005C25.692 31.0575 25.3035 31.068 22.542 31.068C19.7805 31.068 19.392 31.068 18.342 31.005C17.6499 31.018 16.9608 30.9114 16.305 30.69C15.8701 30.5095 15.4769 30.2414 15.15 29.9025C14.8015 29.5652 14.5356 29.1519 14.373 28.695C14.1166 28.0599 13.9745 27.3845 13.953 26.7C13.953 25.65 13.89 25.2615 13.89 22.5C13.89 19.7385 13.89 19.35 13.953 18.3C13.9577 17.6186 14.0821 16.9433 14.3205 16.305C14.5053 15.8618 14.7891 15.4667 15.15 15.15C15.469 14.789 15.8633 14.5023 16.305 14.31C16.945 14.079 17.6196 13.9583 18.3 13.953C19.35 13.953 19.7385 13.89 22.5 13.89C25.2615 13.89 25.65 13.89 26.7 13.953C27.3665 13.9606 28.0269 14.0814 28.653 14.31C29.1302 14.4871 29.5584 14.775 29.9025 15.15C30.2466 15.4725 30.5154 15.8669 30.69 16.305C30.9234 16.9444 31.0442 17.6194 31.047 18.3C31.0995 19.35 31.11 19.7385 31.11 22.5C31.11 25.2615 31.0995 25.65 31.047 26.7ZM22.5 17.1135C21.4351 17.1156 20.3947 17.4333 19.5103 18.0264C18.6259 18.6195 17.9371 19.4615 17.531 20.4459C17.1249 21.4304 17.0198 22.5131 17.2288 23.5573C17.4378 24.6015 17.9516 25.5603 18.7054 26.3125C19.4591 27.0648 20.4189 27.5768 21.4635 27.7838C22.5081 27.9907 23.5906 27.8835 24.5742 27.4755C25.5579 27.0675 26.3985 26.3771 26.9899 25.4915C27.5813 24.6059 27.897 23.5649 27.897 22.5C27.8984 21.7914 27.7597 21.0894 27.4888 20.4346C27.2179 19.7798 26.8203 19.1849 26.3187 18.6844C25.8171 18.1838 25.2215 17.7873 24.5662 17.5177C23.9108 17.2481 23.2086 17.1107 22.5 17.1135ZM22.5 25.9965C21.8085 25.9965 21.1324 25.7914 20.5574 25.4072C19.9825 25.023 19.5343 24.477 19.2697 23.8381C19.005 23.1992 18.9358 22.4961 19.0707 21.8179C19.2056 21.1396 19.5386 20.5166 20.0276 20.0276C20.5166 19.5386 21.1396 19.2056 21.8179 19.0707C22.4961 18.9358 23.1992 19.005 23.8381 19.2697C24.477 19.5343 25.023 19.9825 25.4072 20.5574C25.7914 21.1324 25.9965 21.8085 25.9965 22.5C25.9965 22.9592 25.9061 23.4138 25.7303 23.8381C25.5546 24.2623 25.2971 24.6477 24.9724 24.9724C24.6477 25.2971 24.2623 25.5546 23.8381 25.7303C23.4138 25.9061 22.9592 25.9965 22.5 25.9965Z" fill="white"/>
<circle cx="75.375" cy="22.5" r="22.5" fill="url(#paint1_linear_1_4703)"/>
<path d="M85.125 24.9149V31.793C85.125 31.9619 84.9802 32.1067 84.8113 32.1067H81.2636C81.0947 32.1067 80.9499 31.9619 80.9499 31.793V25.3975C80.9499 23.7082 80.3465 22.5498 78.8261 22.5498C77.6677 22.5498 76.992 23.322 76.6782 24.0702C76.5576 24.3356 76.5334 24.7218 76.5334 25.0838V31.793C76.5334 31.9619 76.3886 32.1067 76.2197 32.1067H72.6962C72.5272 32.1067 72.3824 31.9619 72.3824 31.793C72.3824 30.0795 72.4307 21.8016 72.3824 19.8709C72.3824 19.702 72.5272 19.5572 72.6962 19.5572H76.2438C76.4128 19.5572 76.5576 19.702 76.5576 19.8709V21.3431C76.5576 21.3672 76.5334 21.3672 76.5334 21.3913H76.5576V21.3431C77.1126 20.4984 78.1021 19.2676 80.3224 19.2676C83.0736 19.2676 85.125 21.0776 85.125 24.9149ZM66.2042 32.1308H69.7519C69.9208 32.1308 70.0656 31.986 70.0656 31.8171V19.8709C70.0656 19.702 69.9208 19.5572 69.7519 19.5572H66.2042C66.0353 19.5572 65.8905 19.702 65.8905 19.8709V31.8171C65.9146 31.986 66.0353 32.1308 66.2042 32.1308Z" fill="white"/>
<path d="M67.8695 17.9887C69.109 17.9887 70.1139 16.9839 70.1139 15.7443C70.1139 14.5047 69.109 13.4999 67.8695 13.4999C66.6299 13.4999 65.625 14.5047 65.625 15.7443C65.625 16.9839 66.6299 17.9887 67.8695 17.9887Z" fill="white"/>
<defs>
<linearGradient id="paint0_linear_1_4703" x1="3.75" y1="4.09782e-07" x2="45" y2="54.75" gradientUnits="userSpaceOnUse">
<stop stop-color="#EBB12B"/>
<stop offset="1" stop-color="#BF007E"/>
</linearGradient>
<linearGradient id="paint1_linear_1_4703" x1="59.625" y1="6" x2="88.125" y2="45" gradientUnits="userSpaceOnUse">
<stop stop-color="#1A94FF"/>
<stop offset="1" stop-color="#0060B7"/>
</linearGradient>
</defs>
</svg>
