<svg width="352" height="203" viewBox="0 0 352 203" fill="none" xmlns="http://www.w3.org/2000/svg">
<path opacity="0.31" d="M269.095 196.211C269.095 199.55 209.539 202.343 136.082 202.343C62.6253 202.343 3.0694 199.618 3.0694 196.211C3.0694 192.872 62.6253 190.078 136.082 190.078C209.539 190.078 269.095 192.872 269.095 196.211Z" fill="#83F0FF"/>
<path opacity="0.74" d="M245.927 57.406C237.409 43.9821 224.326 33.6927 205.178 30.2856C183.032 26.4015 158.978 34.6466 144.804 50.1148C128.723 67.6954 108.689 79.8246 83.9537 86.1618C62.7616 91.6132 44.3633 97.3371 32.166 115.258C21.3314 131.204 19.6279 151.714 27.7368 168.886C31.4845 176.859 37.4129 184.286 45.7262 188.851C54.8572 193.894 66.1006 194.984 76.7988 194.916C121.227 194.575 165.724 194.371 210.152 194.098C265.688 192.94 264.189 119.483 257.034 85.8211C254.921 75.8043 251.378 65.9919 245.927 57.406Z" fill="url(#paint0_linear_1_4341)"/>
<path d="M230.322 45.6856C209.266 8.20765 154.344 5.89084 126.406 37.9175C109.916 56.8609 89.3369 69.9441 63.8519 76.8264C42.1147 82.7547 23.1712 88.8875 10.7013 108.24C-0.405802 125.412 -2.17749 147.558 6.13581 166.092C10.0199 174.746 16.0845 182.719 24.6022 187.625C34.0058 193.008 45.5217 194.235 56.5607 194.167C102.216 193.826 147.871 193.553 193.594 193.281C258.601 192.395 252.536 82.1415 230.322 45.6856Z" stroke="#1A95FE" stroke-width="0.5005" stroke-miterlimit="10" stroke-dasharray="3.5 3.5"/>
<path d="M263.235 78.7345C251.923 44.868 207.495 34.3061 179.761 56.0433C163.339 68.9221 144.464 76.2814 122.658 77.9168C103.987 79.2796 87.5652 81.3239 74.3457 95.1567C62.5571 107.422 57.6509 125.207 61.535 141.629C63.3067 149.261 67.0545 156.757 73.2554 162.072C80.0696 168 89.2687 170.794 98.2634 172.429C135.537 179.312 172.879 186.33 210.152 193.281C263.166 202.821 275.636 111.988 263.235 78.7345Z" stroke="#1A95FE" stroke-width="0.4157" stroke-miterlimit="10" stroke-dasharray="2.91 2.91"/>
<path d="M154.957 42.8918C154.957 42.8918 158.365 18.9059 140.58 17.2023C133.493 16.5209 122.113 18.6333 121.5 35.805C120.955 51.8865 123.203 54.7485 120.75 60.4042C118.842 64.9016 119.251 82.6184 136.695 83.2317C150.46 83.7087 155.775 73.4193 155.911 67.2865C156.116 61.2219 153.39 54.7485 154.957 42.8918Z" fill="#153F59"/>
<path opacity="0.41" d="M134.038 41.5972L122.658 40.9839C122.658 40.9839 126.338 50.2512 125.384 60.4724C124.43 70.6937 132.198 74.7141 132.198 74.7141L139.489 59.3822L134.038 41.5972Z" fill="#153F59"/>
<path d="M24.466 192.463H244.564L244.155 191.577C239.726 182.242 239.726 170.726 244.155 161.458L244.564 160.573H24.466V192.463Z" fill="#D4E6FF"/>
<path d="M25.0111 195.597H246.199C246.949 195.597 247.562 194.712 247.562 193.621C247.562 192.531 246.949 191.645 246.199 191.645H25.0111C23.989 191.645 23.3076 193.213 23.7846 194.507C24.0571 195.189 24.5341 195.597 25.0111 195.597Z" fill="#84BFF2"/>
<path d="M23.8527 164.252H246.199C246.949 164.252 247.562 163.366 247.562 162.344C247.562 161.254 246.949 160.436 246.199 160.436H23.8527C23.2394 160.436 22.6943 161.05 22.558 161.867C22.2854 163.094 22.9668 164.252 23.8527 164.252Z" fill="#84BFF2"/>
<path opacity="0.56" d="M24.466 164.184V168H241.838C242.179 166.705 242.52 165.411 242.997 164.184H24.466Z" fill="#AFBEDF"/>
<path d="M22.7625 195.393H183.781L183.577 194.575C181.396 184.695 181.396 171.339 183.577 161.458L183.781 160.641H22.7625L21.6041 165.547C19.5598 174.269 19.9005 186.398 22.558 194.848L22.7625 195.393Z" fill="#72B1EB"/>
<path d="M183.645 161.39L183.85 160.573H181.192L180.988 161.39C178.807 171.271 178.807 184.627 180.988 194.507L181.192 195.325H183.85L183.645 194.507C181.396 184.627 181.396 171.271 183.645 161.39Z" fill="#84BFF2"/>
<path d="M233.252 157.438H29.2359L29.5766 156.689C33.597 148.103 33.597 138.154 29.5766 129.568L29.2359 128.819H233.252V157.438Z" fill="#AFBEDF"/>
<path d="M233.457 160.368H28.0094C27.1917 160.368 26.5784 159.687 26.5784 158.937C26.5784 158.12 27.2598 157.506 28.0094 157.506H234.683L233.457 160.368Z" fill="#2AA7B5"/>
<path opacity="0.61" d="M233.252 130.999H30.3262C30.6669 131.749 30.8714 132.567 31.1439 133.384H233.252V130.999Z" fill="#AFBEDF"/>
<path d="M235.365 130.931H27.8049C27.1235 130.931 26.5784 130.386 26.5784 129.705C26.5784 129.023 27.1235 128.478 27.8049 128.478H234.751L235.365 130.931Z" fill="#2AA7B5"/>
<path d="M235.228 160.368H115.231C114.89 160.368 114.618 160.028 114.686 159.619C117.207 151.714 118.638 140.198 114.686 129.432C114.618 129.023 114.89 128.682 115.231 128.682H235.228C235.228 128.682 245.245 142.106 235.365 159.687L235.228 160.368Z" fill="#33C7CA"/>
<path d="M117.616 159.619C120.137 151.714 121.568 140.198 117.616 129.432C117.548 129.023 117.82 128.682 118.161 128.682H115.163C114.822 128.682 114.549 129.023 114.618 129.432C118.57 140.198 117.139 151.714 114.618 159.619C114.549 160.028 114.822 160.368 115.163 160.368H118.161C117.82 160.368 117.548 160.028 117.616 159.619Z" fill="#2AA7B5"/>
<path opacity="0.61" d="M60.1721 143.06H77.6164L78.843 183.4L69.5075 175.019L60.1721 183.4V143.06Z" fill="#AFBEDF"/>
<path d="M58.9457 143.06H77.6165V183.4L68.2811 175.019L58.9457 183.4V143.06Z" fill="#FFC000"/>
<path d="M77.6165 143.06H58.9457V143.878H77.6165V143.06Z" fill="#FFC000"/>
<path d="M122.522 59.0415C122.658 58.9052 122.795 58.837 122.931 58.7689C129.132 54.6122 156.252 54.0671 156.729 65.5831C157.07 73.1468 155.366 80.1654 155.571 87.7291C155.775 95.4973 155.775 113.078 155.775 113.078L118.842 111.511C118.842 111.511 119.251 73.4875 119.251 73.4194C119.251 71.6477 117.479 69.876 117.616 67.8317C117.888 64.4928 119.864 61.0176 122.522 59.0415Z" fill="#FFC000"/>
<path d="M146.031 63.1981L150.937 58.4282C150.937 58.4282 155.366 59.0415 161.772 71.0345C168.177 83.0274 169.949 88.0018 170.971 96.9965C170.971 96.9965 170.562 101.971 166.201 98.9726C161.84 95.9743 151.073 79.2115 151.073 79.2115L146.031 63.1981Z" fill="#FFC000"/>
<path opacity="0.78" d="M154.208 72.5334L155.571 85.9574L161.772 94.2707C161.772 94.2707 161.567 93.6574 163.134 93.2486L154.208 72.5334Z" fill="#FFC000"/>
<path d="M162.589 92.0902C162.589 92.0902 152.845 104.628 149.847 113.214C146.78 122.073 150.664 119.824 157.002 115.19C163.407 110.625 173.151 100.812 170.562 93.8619C167.836 86.5707 162.589 92.0902 162.589 92.0902Z" fill="#FFC000"/>
<path d="M128.109 63.1981L123.203 58.4282C123.203 58.4282 118.774 59.0415 112.369 71.0345C105.963 83.0274 104.192 88.0018 103.17 96.9965C103.17 96.9965 103.578 101.971 107.94 98.9726C112.301 95.9743 124.294 78.4619 124.294 78.4619L128.109 63.1981Z" fill="#FFC000"/>
<path opacity="0.78" d="M120.478 72.5334L119.115 85.9574L112.914 94.2707C112.914 94.2707 113.118 93.6574 111.551 93.2486L120.478 72.5334Z" fill="#FFC000"/>
<path d="M111.551 92.0902C111.551 92.0902 121.295 104.628 124.294 113.214C127.36 122.073 123.476 119.824 117.139 115.19C110.733 110.625 100.989 100.812 103.579 93.8619C106.236 86.5707 111.551 92.0902 111.551 92.0902Z" fill="#FFC000"/>
<path d="M158.501 118.734H115.163C113.8 118.734 112.71 117.643 112.71 116.28V90.6592C112.71 89.2963 113.8 88.2061 115.163 88.2061H158.501C159.864 88.2061 160.954 89.2963 160.954 90.6592V116.212C160.954 117.575 159.864 118.734 158.501 118.734Z" fill="#153F59"/>
<path opacity="0.41" d="M147.939 111.102C134.515 111.102 123.476 101.085 121.704 88.1379H116.389C114.345 88.1379 112.71 89.7733 112.71 91.8176V114.986C112.71 117.03 114.345 118.665 116.389 118.665H157.274C159.318 118.665 160.954 117.03 160.954 114.986V111.102H147.939Z" fill="#282F81"/>
<path d="M158.501 113.418C158.501 113.418 157.683 113.487 156.525 114.236C148.756 119.415 140.307 118.734 122.317 113.418C98.9448 106.468 135.128 124.253 135.128 124.253L150.051 128.819" fill="#1A94FF"/>
<path opacity="0.52" d="M158.501 113.418C158.501 113.418 157.751 113.555 156.525 114.236C146.031 120.165 140.307 118.734 122.317 113.418C98.9448 106.468 135.128 124.253 135.128 124.253L150.051 128.819" fill="#4BD9FF"/>
<path opacity="0.76" d="M158.501 113.418C158.501 113.418 157.751 113.555 156.525 114.236C146.031 120.165 140.307 118.734 122.317 113.418C98.9448 106.468 135.128 124.253 135.128 124.253L150.051 128.819" fill="#4BD9FF"/>
<path d="M156.388 129.091C156.388 129.091 160.818 130.181 164.497 130.59C168.177 131.067 175.877 132.703 175.4 138.018C174.923 143.333 167.087 141.152 162.18 138.835C157.342 136.519 152.436 134.338 152.436 134.338L156.388 129.091Z" fill="#EBD7B7"/>
<path opacity="0.39" d="M173.492 133.725C173.628 134.202 173.628 134.747 173.628 135.292C173.151 140.607 165.315 138.426 160.409 136.11C157.888 134.951 155.434 133.793 153.595 132.907L152.504 134.338C152.504 134.338 157.342 136.519 162.249 138.835C167.087 141.152 174.991 143.401 175.468 138.018C175.536 136.246 174.719 134.815 173.492 133.725Z" fill="#EBD7B7"/>
<path d="M159.727 129.159C159.727 129.159 146.167 123.163 139.626 118.393C133.152 113.623 117.071 101.085 103.783 104.151C89.0643 107.558 95.6059 121.391 105.282 125.889C113.527 129.704 131.585 130.59 140.034 132.703C148.484 134.815 155.434 136.859 155.434 136.859L159.727 129.159Z" fill="#1A94FF"/>
<path opacity="0.17" d="M159.727 129.159C159.727 129.159 146.167 123.163 139.626 118.393C133.152 113.623 117.071 101.085 103.783 104.151C89.0643 107.558 95.6059 121.391 105.282 125.889C113.527 129.704 131.585 130.59 140.034 132.703C148.484 134.815 155.434 136.859 155.434 136.859L159.727 129.159Z" fill="#1A94FF"/>
<path opacity="0.76" d="M146.644 122.89L145.145 121.8C145.145 121.8 140.852 126.57 139.83 132.498L143.101 133.589L146.644 122.89Z" fill="#4BD9FF"/>
<path d="M132.198 48.9565V60.6088L138.467 65.3787L144.327 59.5185V48.9565H132.198Z" fill="#EBD7B7"/>
<path d="M152.095 35.8051C152.095 45.0042 145.826 54.7485 138.058 54.7485C130.29 54.7485 124.021 45.0042 124.021 35.8051C124.021 26.606 130.29 21.3591 138.058 21.3591C145.758 21.2909 152.095 26.5378 152.095 35.8051Z" fill="#EBD7B7"/>
<path opacity="0.23" d="M137.99 52.7042C130.494 52.7042 124.43 43.7095 123.953 34.783C123.953 35.1237 123.953 35.4644 123.953 35.8051C123.953 45.0042 130.222 54.7485 137.99 54.7485C145.758 54.7485 152.027 45.0042 152.027 35.8051C152.027 35.4644 152.027 35.1237 152.027 34.783C151.618 43.7095 145.486 52.7042 137.99 52.7042Z" fill="#EBD7B7"/>
<path d="M149.71 36.4865C149.71 33.829 154.003 32.398 154.208 34.8511C154.617 39.7573 152.777 43.2325 150.324 40.7794" fill="#EBD7B7"/>
<path d="M125.997 36.4865C125.997 33.829 121.704 32.398 121.5 34.8511C121.091 39.7573 122.931 43.2325 125.384 40.7794" fill="#EBD7B7"/>
<path d="M133.356 157.506C133.356 157.506 130.494 160.982 127.769 163.571C125.043 166.16 119.932 172.089 123.544 176.041C127.087 180.061 132.062 173.52 134.583 168.75C137.104 163.98 139.694 159.346 139.694 159.346L133.356 157.506Z" fill="#EBD7B7"/>
<path opacity="0.39" d="M134.174 166.092C131.653 170.862 126.679 177.336 123.135 173.383C122.794 173.043 122.522 172.634 122.386 172.225C122.249 173.588 122.522 174.882 123.544 176.041C127.087 180.061 132.062 173.52 134.583 168.75C137.104 163.98 139.694 159.346 139.694 159.346L138.058 158.869C137.104 160.709 135.605 163.367 134.174 166.092Z" fill="#EBD7B7"/>
<path d="M130.699 159.551C130.699 159.551 137.99 146.604 140.307 138.904C142.624 131.204 148.007 111.511 160.409 106.059C174.173 99.9947 177.308 114.986 172.265 124.321C167.972 132.294 154.003 143.878 148.484 150.624C142.964 157.37 138.603 163.162 138.603 163.162L130.699 159.551Z" fill="#1A94FF"/>
<path d="M131.721 57.406C131.721 57.406 136.491 61.9715 144.259 57.8149C146.576 56.5883 144.872 67.7636 144.872 67.7636L136.286 73.5556L127.36 67.6954L131.721 57.406Z" fill="#FFC000"/>
<path d="M148.552 22.5174C144.532 17.2024 130.699 19.7918 130.699 19.7918C130.699 19.7918 122.658 25.7201 124.703 35.3281H128.655L129.268 32.4661L130.222 35.3281H131.449L132.062 29.5361L133.016 35.3281H147.121L147.53 29.3998L148.688 35.3281H151.21C151.278 35.26 152.573 27.7644 148.552 22.5174Z" fill="#153F59"/>
<path d="M153.799 42.8918L145.077 53.8627C145.077 53.8627 143.373 56.3839 145.145 62.8574C146.44 67.6955 151.755 72.9424 148.757 81.1875C148.757 81.1875 157.819 69.6716 155.23 59.4503C152.572 48.9565 153.799 42.8918 153.799 42.8918Z" fill="#153F59"/>
<path d="M123.817 44.0502H123.203C122.931 44.0502 122.658 43.8458 122.658 43.5051V31.0351C122.658 30.7626 122.863 30.49 123.203 30.49H123.817C124.089 30.49 124.362 30.6944 124.362 31.0351V43.5051C124.362 43.7776 124.089 44.0502 123.817 44.0502Z" fill="#33C7CA"/>
<path d="M121.432 42.4829H122.59V31.7847H121.432C120.341 31.7847 119.456 32.6705 119.456 33.7608V40.575C119.524 41.5971 120.409 42.4829 121.432 42.4829Z" fill="#33C7CA"/>
<path d="M151.959 44.0502H152.572C152.845 44.0502 153.118 43.8458 153.118 43.5051V30.967C153.118 30.6944 152.913 30.4219 152.572 30.4219H151.959C151.687 30.4219 151.414 30.6263 151.414 30.967V43.5051C151.482 43.7777 151.687 44.0502 151.959 44.0502Z" fill="#33C7CA"/>
<path d="M154.276 42.4829H153.118V31.7847H154.276C155.366 31.7847 156.184 32.6705 156.184 33.6926V40.5068C156.184 41.6652 155.298 42.4829 154.276 42.4829Z" fill="#33C7CA"/>
<path d="M122.113 37.168H120.75V34.0335C120.75 23.9485 128.45 15.7034 137.854 15.7034C147.257 15.7034 154.957 23.9485 154.957 34.0335V34.7149H153.595V34.0335C153.595 24.6981 146.508 17.0662 137.854 17.0662C129.132 17.0662 122.113 24.6981 122.113 34.0335V37.168Z" fill="#33C7CA"/>
<path opacity="0.11" d="M195.434 51.7502H174.242C173.424 51.7502 172.811 51.0687 172.811 50.3192V18.2926C172.811 17.4749 173.492 16.8616 174.242 16.8616H195.434C196.251 16.8616 196.865 17.543 196.865 18.2926V50.3192C196.865 51.1369 196.183 51.7502 195.434 51.7502Z" fill="#596670"/>
<path d="M198.296 48.6156H177.104C176.286 48.6156 175.673 47.9342 175.673 47.1847V15.158C175.673 14.3403 176.354 13.7271 177.104 13.7271H198.296C199.113 13.7271 199.727 14.4085 199.727 15.158V47.1847C199.727 48.0024 199.113 48.6156 198.296 48.6156Z" fill="#EBD7B7"/>
<path d="M178.466 19.8596H196.388" stroke="white" stroke-width="0.0674" stroke-miterlimit="10"/>
<path d="M178.466 24.4932H196.388" stroke="white" stroke-width="0.0674" stroke-miterlimit="10"/>
<path d="M178.466 29.127H196.388" stroke="white" stroke-width="0.0674" stroke-miterlimit="10"/>
<path d="M178.466 33.7605H196.388" stroke="white" stroke-width="0.0674" stroke-miterlimit="10"/>
<path d="M178.466 38.3943H196.388" stroke="white" stroke-width="0.0674" stroke-miterlimit="10"/>
<path d="M178.466 43.0278H196.388" stroke="white" stroke-width="0.0674" stroke-miterlimit="10"/>
<path opacity="0.11" d="M197.546 13.7271H183.1V35.1236C183.1 36.3501 184.054 37.3041 185.281 37.3041H199.727V15.9076C199.727 14.681 198.773 13.7271 197.546 13.7271Z" fill="#596670"/>
<path d="M207.29 35.5324H186.098C185.28 35.5324 184.667 34.851 184.667 34.1014V2.07478C184.667 1.25707 185.349 0.643799 186.098 0.643799H207.29C208.108 0.643799 208.721 1.32522 208.721 2.07478V34.1014C208.789 34.851 208.108 35.5324 207.29 35.5324Z" fill="#FFC000"/>
<path d="M187.666 6.43579H205.655" stroke="white" stroke-width="0.0674" stroke-miterlimit="10"/>
<path d="M187.666 11.0693H205.655" stroke="white" stroke-width="0.0674" stroke-miterlimit="10"/>
<path d="M187.666 15.7031H205.655" stroke="white" stroke-width="0.0674" stroke-miterlimit="10"/>
<path d="M187.666 20.3367H205.655" stroke="white" stroke-width="0.0674" stroke-miterlimit="10"/>
<path d="M187.666 24.9702H205.655" stroke="white" stroke-width="0.0674" stroke-miterlimit="10"/>
<path d="M187.666 29.604H205.655" stroke="white" stroke-width="0.0674" stroke-miterlimit="10"/>
<path opacity="0.11" d="M214.513 109.262H193.321C192.504 109.262 191.89 108.58 191.89 107.831V75.8043C191.89 74.9866 192.572 74.3733 193.321 74.3733H214.513C215.331 74.3733 215.944 75.0547 215.944 75.8043V107.831C215.944 108.649 215.331 109.262 214.513 109.262Z" fill="#596670"/>
<path d="M217.103 106.468H195.911C195.093 106.468 194.48 105.787 194.48 105.037V73.0103C194.48 72.1926 195.161 71.5793 195.911 71.5793H217.103C217.92 71.5793 218.534 72.2608 218.534 73.0103V105.037C218.534 105.855 217.92 106.468 217.103 106.468Z" fill="#EBD7B7"/>
<path d="M197.205 77.7122H215.195" stroke="white" stroke-width="0.0674" stroke-miterlimit="10"/>
<path d="M197.205 82.3457H215.195" stroke="white" stroke-width="0.0674" stroke-miterlimit="10"/>
<path d="M197.205 86.9795H215.195" stroke="white" stroke-width="0.0674" stroke-miterlimit="10"/>
<path d="M197.205 91.613H215.195" stroke="white" stroke-width="0.0674" stroke-miterlimit="10"/>
<path d="M197.205 96.2466H215.195" stroke="white" stroke-width="0.0674" stroke-miterlimit="10"/>
<path d="M197.205 100.88H215.195" stroke="white" stroke-width="0.0674" stroke-miterlimit="10"/>
<path opacity="0.11" d="M69.3714 67.2866H47.7023C46.8846 67.2866 46.2032 66.6052 46.2032 65.7875V33.0113C46.2032 32.1936 46.8846 31.5122 47.7023 31.5122H69.3714C70.1891 31.5122 70.8705 32.1936 70.8705 33.0113V65.7875C70.8705 66.6734 70.1891 67.2866 69.3714 67.2866Z" fill="#596670"/>
<path d="M71.9607 64.697H50.2917C49.474 64.697 48.7925 64.0156 48.7925 63.1979V30.4217C48.7925 29.604 49.474 28.9226 50.2917 28.9226H71.9607C72.7784 28.9226 73.4599 29.604 73.4599 30.4217V63.1979C73.4599 64.0156 72.7784 64.697 71.9607 64.697Z" fill="#EBD7B7"/>
<path opacity="0.11" d="M97.9228 79.2796H76.2537C75.436 79.2796 74.7546 78.5981 74.7546 77.7804V45.0042C74.7546 44.1865 75.436 43.5051 76.2537 43.5051H97.9228C98.7405 43.5051 99.4219 44.1865 99.4219 45.0042V77.7804C99.4219 78.5981 98.7405 79.2796 97.9228 79.2796Z" fill="#596670"/>
<path d="M99.967 76.9627H78.2979C77.4802 76.9627 76.7988 76.2812 76.7988 75.4635V42.6874C76.7988 41.8697 77.4802 41.1882 78.2979 41.1882H99.967C100.785 41.1882 101.466 41.8697 101.466 42.6874V75.4635C101.466 76.3494 100.785 76.9627 99.967 76.9627Z" fill="#D4E6FF"/>
<path d="M79.9333 47.1167H98.3316" stroke="white" stroke-width="0.069011" stroke-miterlimit="10"/>
<path d="M79.9333 51.8867H98.3316" stroke="white" stroke-width="0.069011" stroke-miterlimit="10"/>
<path d="M79.9333 56.5884H98.3316" stroke="white" stroke-width="0.069011" stroke-miterlimit="10"/>
<path d="M79.9333 61.3584H98.3316" stroke="white" stroke-width="0.069011" stroke-miterlimit="10"/>
<path d="M79.9333 66.0601H98.3316" stroke="white" stroke-width="0.069011" stroke-miterlimit="10"/>
<path d="M79.9333 70.8301H98.3316" stroke="white" stroke-width="0.069011" stroke-miterlimit="10"/>
<path d="M51.6545 35.26H70.0528" stroke="white" stroke-width="0.069011" stroke-miterlimit="10"/>
<path d="M51.6544 39.9617H70.0527" stroke="white" stroke-width="0.069011" stroke-miterlimit="10"/>
<path d="M51.6544 44.7317H70.0527" stroke="white" stroke-width="0.069011" stroke-miterlimit="10"/>
<path d="M51.6544 49.5017H70.0527" stroke="white" stroke-width="0.069011" stroke-miterlimit="10"/>
<path d="M51.6544 54.2034H70.0527" stroke="white" stroke-width="0.069011" stroke-miterlimit="10"/>
<path d="M51.6544 58.9734H70.0527" stroke="white" stroke-width="0.069011" stroke-miterlimit="10"/>
<path opacity="0.11" d="M71.2793 28.9226H56.4926V54.5439C56.4926 55.7705 57.5147 56.7926 58.7412 56.7926H73.528V31.2394C73.4599 29.9447 72.5059 28.9226 71.2793 28.9226Z" fill="#596670"/>
<path d="M81.228 54.8848H59.5589C58.7412 54.8848 58.0598 54.2034 58.0598 53.3857V20.6095C58.0598 19.7918 58.7412 19.1104 59.5589 19.1104H81.228C82.0457 19.1104 82.7271 19.7918 82.7271 20.6095V53.3857C82.7271 54.2715 82.0457 54.8848 81.228 54.8848Z" fill="#FFC000"/>
<path d="M61.1262 25.1067H79.5244" stroke="white" stroke-width="0.069011" stroke-miterlimit="10"/>
<path d="M61.1262 29.8767H79.5244" stroke="white" stroke-width="0.069011" stroke-miterlimit="10"/>
<path d="M61.1262 34.6465H79.5244" stroke="white" stroke-width="0.069011" stroke-miterlimit="10"/>
<path d="M61.1262 39.3484H79.5244" stroke="white" stroke-width="0.069011" stroke-miterlimit="10"/>
<path d="M61.1262 44.1184H79.5244" stroke="white" stroke-width="0.069011" stroke-miterlimit="10"/>
<path d="M61.1262 48.8201H79.5244" stroke="white" stroke-width="0.069011" stroke-miterlimit="10"/>
<path d="M84.3627 128.546H73.1874L72.3016 111.033H85.2485L84.3627 128.546Z" fill="#72B1EB"/>
<path opacity="0.17" d="M74.6183 116.076L74.3457 111.101H72.2333L73.1192 128.614H84.3626L84.4989 125.888C79.1838 125.616 74.8909 121.391 74.6183 116.076Z" fill="#72B1EB"/>
<path d="M83.9537 113.895H86.4749C88.0422 113.895 89.2006 115.326 88.928 116.825L87.8378 123.163C87.6333 124.389 86.6112 125.275 85.3847 125.275H83.2723" stroke="#72B1EB" stroke-width="1.4888" stroke-miterlimit="10"/>
<g clip-path="url(#clip0_1_4341)">
<path d="M319.286 170.298H304.525C301.205 170.298 298.513 172.99 298.513 176.31V191.071C298.513 194.391 301.205 197.083 304.525 197.083H319.286C322.606 197.083 325.298 194.391 325.298 191.071V176.31C325.298 172.99 322.606 170.298 319.286 170.298Z" fill="#FD3832"/>
<path fill-rule="evenodd" clip-rule="evenodd" d="M305.935 188.64C305.667 188.559 305.423 188.415 305.223 188.219C305.023 188.024 304.872 187.783 304.785 187.518C304.284 186.145 304.135 180.411 305.1 179.279C305.421 178.911 305.875 178.684 306.362 178.648C308.95 178.37 316.948 178.407 317.866 178.741C318.124 178.825 318.361 178.966 318.557 179.154C318.753 179.342 318.903 179.572 318.998 179.826C319.545 181.246 319.564 186.404 318.924 187.768C318.754 188.123 318.47 188.411 318.117 188.585C317.152 189.067 307.215 189.058 305.935 188.64ZM310.045 185.95L314.684 183.538L310.045 181.107V185.95Z" fill="white"/>
</g>
<rect x="268.591" y="23.373" width="17.1319" height="17.1319" rx="6" stroke="#AFBEDF" stroke-width="2"/>
<rect x="25.3912" y="12.5083" width="8.2037" height="8.2037" rx="3" stroke="#33C7CA" stroke-width="2"/>
<rect x="312.885" y="106.947" width="22.2338" height="22.2338" rx="9" stroke="#D4E6FF" stroke-width="2"/>
<rect opacity="0.2" x="3.66205" y="46.7737" width="22.2338" height="22.2338" rx="9" stroke="#FFC000" stroke-width="2"/>
<g clip-path="url(#clip1_1_4341)">
<path d="M337.013 53.5754H347.855C348.399 53.5744 348.939 53.6808 349.442 53.8888C349.946 54.0967 350.403 54.402 350.788 54.7871C351.173 55.1723 351.479 55.6297 351.687 56.1331C351.895 56.6365 352.001 57.176 352 57.7207V68.5621C352.001 69.1068 351.895 69.6463 351.687 70.1497C351.479 70.6532 351.173 71.1106 350.788 71.4957C350.403 71.8808 349.946 72.1861 349.442 72.3941C348.939 72.602 348.399 72.7085 347.855 72.7074H337.013C336.469 72.7085 335.929 72.602 335.426 72.3941C334.922 72.1861 334.465 71.8808 334.08 71.4957C333.695 71.1106 333.389 70.6532 333.181 70.1497C332.973 69.6463 332.867 69.1068 332.868 68.5621V57.7207C332.869 56.6215 333.305 55.5674 334.083 54.7901C334.86 54.0128 335.914 53.576 337.013 53.5754Z" fill="url(#paint1_linear_1_4341)"/>
<path fill-rule="evenodd" clip-rule="evenodd" d="M345.926 57.8801C347.488 57.8801 348.301 58.47 348.795 58.8686C348.906 58.9563 348.994 59.0679 349.055 59.1949C349.116 59.322 349.147 59.4612 349.146 59.602V67.3664C349.142 67.4248 349.12 67.4805 349.082 67.5258C349.062 67.5474 349.037 67.5642 349.01 67.5752C348.982 67.5862 348.953 67.5911 348.923 67.5896C348.896 67.591 348.868 67.586 348.844 67.5749C348.819 67.5638 348.797 67.547 348.779 67.5258C348.285 67.1113 347.313 66.5692 345.878 66.5692C343.486 66.5692 342.785 68.8013 342.785 68.8013V60.3513C342.786 59.9177 342.932 59.4968 343.199 59.1556C343.646 58.5657 344.459 57.8801 345.926 57.8801ZM339.134 57.8801C340.601 57.8801 341.414 58.5657 341.876 59.1556C342.144 59.4968 342.29 59.9177 342.291 60.3513V68.8013C342.291 68.8013 341.589 66.5692 339.198 66.5692C337.763 66.5692 336.79 67.1113 336.296 67.5258C336.251 67.5536 336.203 67.5751 336.152 67.5896C336.123 67.5903 336.094 67.585 336.066 67.5741C336.039 67.5631 336.014 67.5467 335.993 67.5258C335.972 67.5049 335.956 67.4801 335.945 67.4526C335.934 67.4252 335.928 67.3959 335.929 67.3664V59.602C335.93 59.4615 335.962 59.3228 336.022 59.196C336.083 59.0693 336.171 58.9574 336.28 58.8686C336.758 58.47 337.571 57.8801 339.134 57.8801Z" fill="white"/>
</g>
<defs>
<linearGradient id="paint0_linear_1_4341" x1="144.802" y1="191.616" x2="135.002" y2="7.24853" gradientUnits="userSpaceOnUse">
<stop stop-color="#D0F4FD"/>
<stop offset="1" stop-color="#EAF4FD"/>
</linearGradient>
<linearGradient id="paint1_linear_1_4341" x1="342.434" y1="53.5754" x2="342.434" y2="72.7074" gradientUnits="userSpaceOnUse">
<stop stop-color="#FE9D02"/>
<stop offset="1" stop-color="#F7701D"/>
</linearGradient>
<clipPath id="clip0_1_4341">
<rect width="26.7847" height="26.7847" fill="white" transform="translate(298.513 170.298)"/>
</clipPath>
<clipPath id="clip1_1_4341">
<rect width="19.1319" height="19.1319" fill="white" transform="translate(332.868 53.5754)"/>
</clipPath>
</defs>
</svg>
