<svg width="14" height="14" viewBox="0 0 14 14" fill="none" xmlns="http://www.w3.org/2000/svg">
<path d="M4.6506 13.1475V11.0007C4.65059 10.4566 5.09296 10.0147 5.64089 10.0113H7.65281C8.2032 10.0113 8.64937 10.4542 8.64937 11.0007V13.1412C8.64936 13.6131 9.0328 13.9965 9.50804 14H10.8807C11.5217 14.0016 12.1371 13.7499 12.591 13.3005C13.0449 12.851 13.3 12.2407 13.3 11.6042V5.50608C13.3 4.99196 13.0704 4.50429 12.6732 4.17444L8.01007 0.471987C7.19495 -0.175614 6.03075 -0.154694 5.23976 0.521768L0.676907 4.17444C0.260918 4.49457 0.0122866 4.98369 0 5.50608V11.598C0 12.9246 1.08317 14 2.41932 14H3.7606C3.98941 14.0016 4.20943 13.9125 4.37182 13.7525C4.53421 13.5924 4.62554 13.3746 4.62553 13.1475H4.6506Z" fill="#1E1E1E"/>
</svg>
