<svg width="16" height="14" viewBox="0 0 16 14" fill="none" xmlns="http://www.w3.org/2000/svg">
<path d="M14.9998 2.73778C14.76 1.94414 14.2787 1.25014 13.6264 0.757457C12.9741 0.264778 12.1851 -0.000673348 11.375 1.28272e-06H3.79167C2.98157 -0.000673348 2.19256 0.264778 1.54025 0.757457C0.887936 1.25014 0.406622 1.94414 0.166833 2.73778C0.0573765 3.11122 0.00118311 3.49894 0 3.88889V10.1111C0.000401955 11.1424 0.400009 12.1313 1.111 12.8605C1.82199 13.5897 2.78618 13.9996 3.79167 14H11.375C12.3805 13.9996 13.3447 13.5897 14.0557 12.8605C14.7667 12.1313 15.1663 11.1424 15.1667 10.1111V3.88889C15.1655 3.49894 15.1093 3.11122 14.9998 2.73778ZM3.79167 1.55556H11.375C11.9147 1.55721 12.4364 1.75503 12.8474 2.11388C13.2583 2.47272 13.532 2.96935 13.6197 3.51556L7.58333 6.89111L1.547 3.51556C1.63471 2.96935 1.90835 2.47272 2.31931 2.11388C2.73027 1.75503 3.25195 1.55721 3.79167 1.55556ZM13.65 10.1111C13.6482 10.7294 13.4079 11.3218 12.9817 11.759C12.5554 12.1962 11.9778 12.4426 11.375 12.4444H3.79167C3.18885 12.4426 2.61124 12.1962 2.18499 11.759C1.75873 11.3218 1.51847 10.7294 1.51667 10.1111V5.27333L7.21933 8.46222C7.33132 8.52363 7.45635 8.55576 7.58333 8.55576C7.71032 8.55576 7.83535 8.52363 7.94733 8.46222L13.65 5.27333V10.1111Z" fill="white"/>
</svg>
