<svg width="13" height="15" viewBox="0 0 13 15" fill="none" xmlns="http://www.w3.org/2000/svg">
<path d="M11.7798 11.9479C11.2183 11.2533 10.6568 10.5588 10.0953 9.86428C10.0504 9.80873 10.0004 9.7499 9.93156 9.73429C9.84166 9.71394 9.75505 9.77385 9.68157 9.8306L8.43613 10.7923C8.18747 10.9843 7.87973 11.1869 7.58663 11.0787C7.41684 11.0161 7.29827 10.8617 7.18921 10.7146C6.5574 9.86289 5.9256 9.01109 5.29373 8.15936L5.28221 8.14331L3.463 5.53073C3.3583 5.38039 3.24964 5.21866 3.24187 5.03433C3.22849 4.71609 3.50963 4.4765 3.76322 4.29135C4.18662 3.98228 4.60999 3.67316 5.03336 3.36406C5.1083 3.30937 5.19018 3.24278 5.19801 3.14903C5.20405 3.07725 5.16404 3.01082 5.12561 2.95046L3.68379 0.684669C3.51954 0.426595 3.33622 0.152506 3.05325 0.0469213C2.72321 -0.0761655 2.36063 0.065943 2.03805 0.20821C1.50106 0.445047 0.946206 0.702393 0.572845 1.16252C-0.0515609 1.93215 -0.0294509 3.08507 0.0254215 4.0278C0.0896767 5.13184 0.446161 6.27153 0.865198 7.28312C1.29863 8.32947 1.87318 9.31148 2.55398 10.2103C3.18845 11.1398 3.93155 11.9911 4.77653 12.7245C5.59577 13.4356 6.55332 14.1239 7.56489 14.5166C8.42864 14.852 9.49849 15.2181 10.4037 14.8392C10.9449 14.6125 11.3511 14.1483 11.7327 13.6954C11.962 13.4233 12.203 13.1121 12.1867 12.7534C12.1728 12.4459 11.9717 12.1852 11.7798 11.9479Z" fill="white"/>
</svg>
